<?xml version="1.0" encoding="UTF-8"?>
<!DOCTYPE svg PUBLIC "-//W3C//DTD SVG 1.1//EN" "http://www.w3.org/Graphics/SVG/1.1/DTD/svg11.dtd">
<svg version="1.1" xmlns="http://www.w3.org/2000/svg" xmlns:xlink="http://www.w3.org/1999/xlink" x="0" y="0" width="1024" height="1366" viewBox="0, 0, 1024, 1366">
  <g id="Layer_1">
    <text transform="matrix(0.921, -0.391, 0.391, 0.921, 72.194, 77.357)"/>
    <g>
      <path d="M700.511,481.4 L700.511,469.4 L531.711,469.4 L531.711,711 L700.511,711 L700.511,699 C700.511,669.27 693.593,653.59 687.49,639.756 C681.598,626.403 676.511,614.87 676.511,590.2 C676.511,565.53 681.598,553.997 687.49,540.644 C693.593,526.81 700.511,511.13 700.511,481.4 z" fill="#7E8083"/>
      <path d="M519.711,397.4 L338.911,397.4 L338.911,639 L495.711,639 L567.711,675 L567.711,445.4 C567.711,418.933 546.178,397.4 519.711,397.4 z" fill="#ABABAB"/>
      <path d="M531.711,639 L495.711,639 L495.711,675 C495.711,694.8 511.911,711 531.711,711 C551.511,711 567.711,694.8 567.711,675 C567.711,655.2 551.511,639 531.711,639 z" fill="#545454"/>
      <path d="M290.911,759 L326.911,759 L326.911,349.4 L290.911,349.4 z" fill="#545454"/>
      <path d="M326.911,759 L362.911,759 L362.911,349.4 L326.911,349.4 z" fill="#1D1D1F"/>
    </g>
    <g>
      <path d="M460.619,487.908 C479.08,489.365 492.59,503.172 493.064,521.697 C493.064,540.383 477.75,555.531 458.859,555.531 C439.968,555.531 424.654,540.383 424.654,521.698 C424.654,503.012 439.968,487.864 458.859,487.864 L460.619,487.908 z" fill="#910000"/>
      <path d="M460.619,487.908 C479.08,489.365 492.59,503.172 493.064,521.697 C493.064,540.383 477.75,555.531 458.859,555.531 C439.968,555.531 424.654,540.383 424.654,521.698 C424.654,503.012 439.968,487.864 458.859,487.864 L460.619,487.908 z" fill-opacity="0" stroke="#910000" stroke-width="1"/>
    </g>
    <g>
      <path d="M458.859,469.897 C450.938,469.897 444.517,467.337 444.517,464.179 C444.517,461.022 450.938,458.462 458.859,458.462 C466.78,458.462 473.201,461.022 473.201,464.179 C473.201,467.337 466.78,469.897 458.859,469.897 z" fill="#910000"/>
      <path d="M458.859,469.897 C450.938,469.897 444.517,467.337 444.517,464.179 C444.517,461.022 450.938,458.462 458.859,458.462 C466.78,458.462 473.201,461.022 473.201,464.179 C473.201,467.337 466.78,469.897 458.859,469.897 z" fill-opacity="0" stroke="#910000" stroke-width="1"/>
    </g>
    <path d="M456.669,467.961 L456.887,489.859" fill-opacity="0" stroke="#910000" stroke-width="10" stroke-linecap="round" stroke-linejoin="round"/>
    <path d="M460.831,467.961 L461.049,489.859" fill-opacity="0" stroke="#910000" stroke-width="10" stroke-linecap="round" stroke-linejoin="round"/>
    <g>
      <path d="M503.527,501.438 C499.833,494.329 499.071,487.372 501.823,485.899 C504.576,484.426 509.802,488.996 513.496,496.106 C517.19,503.215 517.953,510.172 515.2,511.645 C512.448,513.117 507.221,508.548 503.527,501.438 z" fill="#910000"/>
      <path d="M503.527,501.438 C499.833,494.329 499.071,487.372 501.823,485.899 C504.576,484.426 509.802,488.996 513.496,496.106 C517.19,503.215 517.953,510.172 515.2,511.645 C512.448,513.117 507.221,508.548 503.527,501.438 z" fill-opacity="0" stroke="#910000" stroke-width="1"/>
    </g>
    <path d="M504.194,498.57 L485.205,508.978" fill-opacity="0" stroke="#910000" stroke-width="10" stroke-linecap="round" stroke-linejoin="round"/>
    <path d="M506.135,502.305 L487.145,512.713" fill-opacity="0" stroke="#910000" stroke-width="10" stroke-linecap="round" stroke-linejoin="round"/>
    <g>
      <path d="M414.683,497.735 C410.921,504.807 405.651,509.324 402.912,507.824 C400.174,506.324 401.004,499.375 404.767,492.303 C408.529,485.23 413.799,480.713 416.538,482.213 C419.276,483.713 418.446,490.662 414.683,497.735 z" fill="#910000"/>
      <path d="M414.683,497.735 C410.921,504.807 405.651,509.324 402.912,507.824 C400.174,506.324 401.004,499.375 404.767,492.303 C408.529,485.23 413.799,480.713 416.538,482.213 C419.276,483.713 418.446,490.662 414.683,497.735 z" fill-opacity="0" stroke="#910000" stroke-width="1"/>
    </g>
    <path d="M411.964,498.77 L431.059,508.978" fill-opacity="0" stroke="#910000" stroke-width="10" stroke-linecap="round" stroke-linejoin="round"/>
    <path d="M413.941,495.054 L433.036,505.262" fill-opacity="0" stroke="#910000" stroke-width="10" stroke-linecap="round" stroke-linejoin="round"/>
    <g>
      <path d="M495.227,559.057 C500.661,553.21 506.901,550.225 509.165,552.391 C511.43,554.558 508.86,561.054 503.426,566.902 C497.992,572.749 491.752,575.733 489.487,573.567 C487.223,571.401 489.793,564.905 495.227,559.057 z" fill="#910000"/>
      <path d="M495.227,559.057 C500.661,553.21 506.901,550.225 509.165,552.391 C511.43,554.558 508.86,561.054 503.426,566.902 C497.992,572.749 491.752,575.733 489.487,573.567 C487.223,571.401 489.793,564.905 495.227,559.057 z" fill-opacity="0" stroke="#910000" stroke-width="1"/>
    </g>
    <path d="M498.117,558.768 L482.265,543.907" fill-opacity="0" stroke="#910000" stroke-width="10" stroke-linecap="round" stroke-linejoin="round"/>
    <path d="M495.262,561.841 L479.41,546.979" fill-opacity="0" stroke="#910000" stroke-width="10" stroke-linecap="round" stroke-linejoin="round"/>
    <g>
      <path d="M426.187,560.155 C431.757,565.869 434.479,572.301 432.266,574.522 C430.054,576.742 423.745,573.91 418.175,568.196 C412.605,562.482 409.883,556.049 412.095,553.829 C414.308,551.608 420.617,554.44 426.187,560.155 z" fill="#910000"/>
      <path d="M426.187,560.155 C431.757,565.869 434.479,572.301 432.266,574.522 C430.054,576.742 423.745,573.91 418.175,568.196 C412.605,562.482 409.883,556.049 412.095,553.829 C414.308,551.608 420.617,554.44 426.187,560.155 z" fill-opacity="0" stroke="#910000" stroke-width="1"/>
    </g>
    <path d="M426.371,563.095 L441.561,547.54" fill-opacity="0" stroke="#910000" stroke-width="10" stroke-linecap="round" stroke-linejoin="round"/>
    <path d="M423.444,560.093 L438.635,544.537" fill-opacity="0" stroke="#910000" stroke-width="10" stroke-linecap="round" stroke-linejoin="round"/>
    <g>
      <path d="M458.359,438.198 C413.144,438.198 376.359,475.431 376.359,521.198 C376.359,566.965 413.144,604.198 458.359,604.198 C503.575,604.198 540.359,566.965 540.359,521.198 C540.359,475.431 503.575,438.198 458.359,438.198 z M458.359,592.11 C419.73,592.11 388.301,560.299 388.301,521.198 C388.301,482.097 419.73,450.285 458.359,450.285 C496.989,450.285 528.417,482.097 528.417,521.198 C528.417,560.299 496.989,592.11 458.359,592.11 z" fill="#1D1D1F"/>
      <path d="M401.789,570.104 L506.48,464.136 L514.923,472.682 L410.232,578.649 z" fill="#1D1D1F"/>
    </g>
  </g>
</svg>
