<svg width="62" height="86" viewBox="0 0 62 86" fill="none" xmlns="http://www.w3.org/2000/svg">
<path d="M17.6598 75.3196V84.4C17.6598 84.906 17.2458 85.32 16.7398 85.32C16.2338 85.32 15.8198 84.906 15.8198 84.4V73.1208C16.3994 73.8844 17.0158 74.6204 17.6598 75.3196Z" fill="#025546"/>
<path d="M45.2599 73.13V84.4C45.2599 84.906 44.8459 85.32 44.3399 85.32C43.8339 85.32 43.4199 84.906 43.4199 84.4V75.3288C44.0547 74.6296 44.6803 73.8936 45.2599 73.13Z" fill="#025546"/>
<path d="M48.9411 33.5709C48.6136 33.5709 48.2962 33.3961 48.1306 33.0879C48.0644 32.9664 46.4765 30.12 43.1902 30.12H35.1402C34.6324 30.12 34.2202 29.7087 34.2202 29.2C34.2202 28.6912 34.6324 28.28 35.1402 28.28H43.1902C47.5979 28.28 49.6661 32.0566 49.7517 32.2166C49.9909 32.6647 49.8225 33.2231 49.3735 33.4623C49.2355 33.5359 49.0874 33.5709 48.9411 33.5709Z" fill="#025546"/>
<path d="M12.1393 33.5709C11.993 33.5709 11.8449 33.5359 11.7069 33.4623C11.2589 33.2231 11.0896 32.6656 11.3288 32.2166C11.4143 32.0566 13.4825 28.28 17.8902 28.28H25.9402C26.4481 28.28 26.8602 28.6912 26.8602 29.2C26.8602 29.7087 26.4481 30.12 25.9402 30.12H17.8902C14.5736 30.12 12.9673 33.0548 12.9517 33.0851C12.7861 33.3952 12.4677 33.5709 12.1393 33.5709Z" fill="#025546"/>
<path d="M47.9118 36.8167C47.8262 36.6566 45.7581 32.88 41.3504 32.88C36.9426 32.88 34.8745 36.6566 34.7889 36.8167C34.5497 37.2647 34.7181 37.8232 35.167 38.0624C35.6151 38.3006 36.1726 38.1314 36.4118 37.6852C36.4219 37.6668 37.008 36.6051 38.1883 35.7568C38.1543 35.9436 38.1304 36.134 38.1304 36.33C38.1304 38.1056 39.5748 39.55 41.3504 39.55C43.126 39.55 44.5704 38.1056 44.5704 36.33C44.5704 36.1313 44.5464 35.939 44.5124 35.7504C45.6679 36.5784 46.2521 37.6152 46.2908 37.687C46.4573 37.9952 46.7738 38.17 47.1013 38.17C47.2476 38.17 47.3957 38.135 47.5337 38.0614C47.9817 37.8232 48.151 37.2656 47.9118 36.8167ZM41.3504 37.71C40.5895 37.71 39.9704 37.0908 39.9704 36.33C39.9704 35.5692 40.5895 34.95 41.3504 34.95C42.1112 34.95 42.7304 35.5692 42.7304 36.33C42.7304 37.0908 42.1112 37.71 41.3504 37.71Z" fill="#025546"/>
<path d="M19.7302 32.88C15.3225 32.88 13.2544 36.6566 13.1688 36.8167C12.9296 37.2647 13.098 37.8232 13.5469 38.0624C13.994 38.3006 14.5525 38.1314 14.7917 37.6852C14.8018 37.6668 15.3878 36.6051 16.5682 35.7568C16.5342 35.9436 16.5102 36.134 16.5102 36.33C16.5102 38.1056 17.9546 39.55 19.7302 39.55C21.5058 39.55 22.9502 38.1056 22.9502 36.33C22.9502 36.1313 22.9263 35.939 22.8923 35.7495C24.0478 36.5775 24.6311 37.6134 24.6697 37.6852C24.8353 37.9952 25.1527 38.1709 25.4821 38.1709C25.6284 38.1709 25.7765 38.136 25.9145 38.0624C26.3625 37.8232 26.5318 37.2656 26.2926 36.8167C26.2061 36.6566 24.138 32.88 19.7302 32.88ZM19.7302 37.71C18.9694 37.71 18.3502 37.0908 18.3502 36.33C18.3502 35.5692 18.9694 34.95 19.7302 34.95C20.4911 34.95 21.1102 35.5692 21.1102 36.33C21.1102 37.0908 20.4911 37.71 19.7302 37.71Z" fill="#025546"/>
<path d="M32.233 46.9836C32.4078 47.1575 32.647 47.2504 32.8862 47.2504C33.1162 47.2504 33.3554 47.1575 33.5302 46.9836C33.889 46.6156 33.889 46.036 33.5302 45.6772C33.1714 45.3175 32.5918 45.3175 32.233 45.6772C31.8742 46.036 31.8742 46.6156 32.233 46.9836Z" fill="#025546"/>
<path d="M30.2828 47.6276C29.924 47.9864 29.924 48.5743 30.2828 48.934C30.4576 49.1079 30.6968 49.2008 30.9268 49.2008C31.166 49.2008 31.4052 49.1079 31.58 48.934C31.9388 48.5743 31.9388 47.9864 31.58 47.6276C31.2212 47.2688 30.6416 47.2688 30.2828 47.6276Z" fill="#025546"/>
<path d="M34.8369 45.3C35.0669 45.3 35.3061 45.2071 35.4809 45.024C35.8397 44.6643 35.8397 44.0847 35.4809 43.7268C35.1221 43.3671 34.5425 43.3671 34.1837 43.7268C33.8249 44.0856 33.8249 44.6652 34.1837 45.024C34.3585 45.2071 34.5977 45.3 34.8369 45.3Z" fill="#025546"/>
<path d="M15.9672 63.24C15.6084 62.8803 15.0288 62.8803 14.67 63.24C14.3112 63.5988 14.3112 64.1876 14.67 64.5464C14.8448 64.7203 15.084 64.8132 15.314 64.8132C15.5532 64.8132 15.7924 64.7203 15.9672 64.5464C16.326 64.1876 16.326 63.5988 15.9672 63.24Z" fill="#025546"/>
<path d="M28.3232 49.5771C27.9736 49.9368 27.9736 50.5247 28.3232 50.8835C28.5072 51.0583 28.7464 51.1503 28.9764 51.1503C29.2156 51.1503 29.4456 51.0583 29.6296 50.8835C29.9884 50.5247 29.9884 49.9368 29.6296 49.5771C29.2708 49.2192 28.682 49.2192 28.3232 49.5771Z" fill="#025546"/>
<path d="M24.4224 54.7852C24.6064 54.9692 24.8364 55.052 25.0756 55.052C25.3056 55.052 25.5448 54.9692 25.7288 54.7852C26.0876 54.4264 26.0876 53.8468 25.7288 53.488C25.37 53.1292 24.7812 53.1292 24.4224 53.488C24.0636 53.8468 24.0636 54.4264 24.4224 54.7852Z" fill="#025546"/>
<path d="M17.9179 61.2896C17.5591 60.9308 16.9795 60.9308 16.6207 61.2896C16.2619 61.6484 16.2619 62.2372 16.6207 62.596C16.7955 62.7708 17.0347 62.8628 17.2647 62.8628C17.5039 62.8628 17.7431 62.7708 17.9179 62.596C18.2767 62.2372 18.2767 61.6484 17.9179 61.2896Z" fill="#025546"/>
<path d="M22.4717 55.4384C22.1129 55.7981 22.1129 56.3777 22.4717 56.7356C22.6557 56.9196 22.8857 57.0024 23.1249 57.0024C23.3549 57.0024 23.5941 56.9196 23.7781 56.7356C24.1369 56.3768 24.1369 55.7972 23.7781 55.4384C23.4101 55.0796 22.8305 55.0796 22.4717 55.4384Z" fill="#025546"/>
<path d="M26.382 51.5284C26.014 51.8881 26.014 52.476 26.382 52.8348C26.5568 53.0096 26.7868 53.1016 27.026 53.1016C27.2652 53.1016 27.4952 53.0096 27.6792 52.8348C28.038 52.476 28.038 51.8881 27.6792 51.5284C27.3204 51.1788 26.7316 51.1788 26.382 51.5284Z" fill="#025546"/>
<path d="M19.2241 60.9124C19.4541 60.9124 19.6933 60.8204 19.8681 60.6456C20.2269 60.2785 20.2269 59.698 19.8681 59.3392C19.5093 58.9804 18.9297 58.9804 18.5709 59.3392C18.2121 59.698 18.2121 60.2785 18.5709 60.6456C18.7457 60.8204 18.9849 60.9124 19.2241 60.9124Z" fill="#025546"/>
<path d="M21.8187 58.686C22.1867 58.3272 22.1867 57.7476 21.8187 57.3888C21.4599 57.03 20.8803 57.03 20.5215 57.3888C20.1627 57.7485 20.1627 58.3281 20.5215 58.686C20.6963 58.87 20.9355 58.962 21.1747 58.962C21.4047 58.962 21.6439 58.87 21.8187 58.686Z" fill="#025546"/>
<path d="M19.482 55.1256C19.666 55.3004 19.9052 55.3924 20.1352 55.3924C20.3744 55.3924 20.6044 55.3004 20.7884 55.1256C21.1472 54.7668 21.1472 54.178 20.7884 53.8192C20.4296 53.4604 19.85 53.4604 19.482 53.8192C19.1232 54.1771 19.1232 54.7668 19.482 55.1256Z" fill="#025546"/>
<path d="M21.4415 53.1752C21.6163 53.35 21.8555 53.442 22.0855 53.442C22.3247 53.442 22.5639 53.35 22.7387 53.1752C23.0975 52.8164 23.0975 52.2285 22.7387 51.8688C22.3799 51.51 21.8003 51.51 21.4415 51.8688C21.0827 52.2276 21.0827 52.8164 21.4415 53.1752Z" fill="#025546"/>
<path d="M16.2343 59.2932C16.4735 59.2932 16.7035 59.2104 16.8875 59.0264C17.2463 58.6676 17.2463 58.0871 16.8875 57.7292C16.5287 57.3704 15.9399 57.3704 15.5811 57.7292C15.2223 58.088 15.2223 58.6685 15.5811 59.0264C15.7651 59.2104 15.9951 59.2932 16.2343 59.2932Z" fill="#025546"/>
<path d="M31.8466 43.6808C32.0858 43.6808 32.3158 43.5971 32.4998 43.414C32.8586 43.0543 32.8586 42.4747 32.4998 42.1168C32.141 41.7571 31.5522 41.7571 31.1934 42.1168C30.8346 42.4756 30.8346 43.0552 31.1934 43.414C31.3774 43.5971 31.6074 43.6808 31.8466 43.6808Z" fill="#025546"/>
<path d="M14.9368 59.6796C14.578 59.3208 13.9892 59.3208 13.6304 59.6796C13.2716 60.0384 13.2716 60.618 13.6304 60.9768C13.8144 61.1608 14.0444 61.2436 14.2836 61.2436C14.5136 61.2436 14.7528 61.1608 14.9368 60.9768C15.2864 60.617 15.2864 60.0384 14.9368 59.6796Z" fill="#025546"/>
<path d="M27.2925 46.0176C26.9337 46.3764 26.9337 46.956 27.2925 47.3139C27.4673 47.4979 27.7065 47.5908 27.9457 47.5908C28.1757 47.5908 28.4149 47.4979 28.5897 47.3139C28.9485 46.9551 28.9485 46.3755 28.5897 46.0176C28.2309 45.6588 27.6513 45.6588 27.2925 46.0176Z" fill="#025546"/>
<path d="M29.8964 45.6303C30.1264 45.6303 30.3656 45.5475 30.5496 45.3635C30.9084 45.0047 30.9084 44.4251 30.5496 44.0672C30.1908 43.7075 29.602 43.7075 29.2432 44.0672C28.8844 44.426 28.8844 45.0056 29.2432 45.3635C29.4272 45.5484 29.6572 45.6303 29.8964 45.6303Z" fill="#025546"/>
<path d="M23.3917 51.2239C23.5665 51.3987 23.8057 51.4907 24.0357 51.4907C24.2749 51.4907 24.5141 51.3987 24.6889 51.2239C25.0477 50.8568 25.0477 50.2772 24.6889 49.9175C24.3301 49.5587 23.7505 49.5587 23.3917 49.9175C23.0329 50.2772 23.0329 50.8568 23.3917 51.2239Z" fill="#025546"/>
<path d="M25.3423 47.9671C24.9835 48.3268 24.9835 48.9064 25.3423 49.2643C25.5171 49.4483 25.7563 49.5403 25.9955 49.5403C26.2255 49.5403 26.4647 49.4483 26.6395 49.2643C26.9983 48.9055 26.9983 48.3259 26.6395 47.9671C26.2807 47.6092 25.7011 47.6092 25.3423 47.9671Z" fill="#025546"/>
<path d="M18.8377 55.7788C18.4789 55.4117 17.8901 55.4117 17.5313 55.7788C17.1725 56.1385 17.1725 56.7181 17.5313 57.076C17.7153 57.2508 17.9545 57.3428 18.1845 57.3428C18.4237 57.3428 18.6537 57.2508 18.8377 57.076C19.1965 56.7172 19.1965 56.1376 18.8377 55.7788Z" fill="#025546"/>
<path d="M23.1249 47.8107C23.3549 47.8107 23.5941 47.7187 23.7689 47.5347C24.1277 47.1759 24.1277 46.5963 23.7689 46.2375C23.4101 45.8787 22.8305 45.8787 22.4717 46.2375C22.1129 46.5972 22.1129 47.1768 22.4717 47.5347C22.6465 47.7196 22.8857 47.8107 23.1249 47.8107Z" fill="#025546"/>
<path d="M27.0258 43.9007C27.2558 43.9007 27.495 43.8179 27.679 43.6339C28.0378 43.2751 28.0378 42.6955 27.679 42.3376C27.3202 41.9779 26.7314 41.9779 26.3726 42.3376C26.0138 42.6964 26.0138 43.276 26.3726 43.6339C26.5566 43.8188 26.7866 43.9007 27.0258 43.9007Z" fill="#025546"/>
<path d="M25.0756 45.852C25.3056 45.852 25.5448 45.7692 25.7288 45.5852C26.0876 45.2264 26.0876 44.6468 25.7288 44.288C25.3608 43.9292 24.7812 43.9292 24.4224 44.288C24.0636 44.6477 24.0636 45.2273 24.4224 45.5852C24.5972 45.7692 24.8364 45.852 25.0756 45.852Z" fill="#025546"/>
<path d="M17.2647 53.6628C17.5039 53.6628 17.7339 53.5708 17.9179 53.396C18.2767 53.0372 18.2767 52.4484 17.9179 52.0896C17.5591 51.7308 16.9795 51.7308 16.6207 52.0896C16.2527 52.4484 16.2527 53.0372 16.6207 53.396C16.7955 53.5708 17.0347 53.6628 17.2647 53.6628Z" fill="#025546"/>
<path d="M21.1655 49.762C21.4047 49.762 21.6439 49.67 21.8187 49.4952C22.1775 49.1364 22.1775 48.5485 21.8187 48.1888C21.4599 47.83 20.8803 47.83 20.5215 48.1888C20.1627 48.5485 20.1627 49.1364 20.5215 49.4952C20.6963 49.67 20.9355 49.762 21.1655 49.762Z" fill="#025546"/>
<path d="M19.2149 51.7124C19.4541 51.7124 19.6933 51.6204 19.8681 51.4456C20.2269 51.0868 20.2269 50.498 19.8681 50.1392C19.5093 49.7804 18.9297 49.7804 18.5709 50.1392C18.2121 50.498 18.2121 51.0868 18.5709 51.4456C18.7457 51.6204 18.9849 51.7124 19.2149 51.7124Z" fill="#025546"/>
<path d="M29.6387 54.1688C29.8227 54.3528 30.0527 54.4356 30.2919 54.4356C30.5219 54.4356 30.7611 54.3528 30.9451 54.1688C31.3039 53.81 31.3039 53.2304 30.9451 52.8716C30.5863 52.5128 29.9975 52.5128 29.6387 52.8716C29.2799 53.2304 29.2799 53.81 29.6387 54.1688Z" fill="#025546"/>
<path d="M27.688 56.1192C27.8628 56.3032 28.102 56.3952 28.3412 56.3952C28.5712 56.3952 28.8104 56.3032 28.9852 56.1192C29.3532 55.7604 29.3532 55.1808 28.9852 54.822C28.6264 54.4632 28.0468 54.4632 27.688 54.822C27.3292 55.1808 27.3292 55.7604 27.688 56.1192Z" fill="#025546"/>
<path d="M35.4991 48.3176C35.6739 48.4915 35.9131 48.5835 36.1431 48.5835C36.3823 48.5835 36.6123 48.4915 36.7963 48.3176C37.1551 47.9579 37.1551 47.37 36.7963 47.0103C36.4375 46.6514 35.8579 46.6514 35.4991 47.0103C35.1311 47.37 35.1311 47.9588 35.4991 48.3176Z" fill="#025546"/>
<path d="M22.481 62.2464C22.7202 62.2464 22.9502 62.1534 23.1342 61.9796C23.493 61.6208 23.493 61.032 23.1342 60.6732C22.7754 60.3135 22.1958 60.3135 21.837 60.6732C21.4782 61.032 21.4782 61.6208 21.837 61.9796C22.0118 62.1534 22.251 62.2464 22.481 62.2464Z" fill="#025546"/>
<path d="M25.7378 56.7724C25.3791 57.1312 25.3791 57.7117 25.7378 58.0696C25.9126 58.2536 26.1519 58.3456 26.3911 58.3456C26.6211 58.3456 26.8602 58.2536 27.035 58.0696C27.3938 57.7108 27.3938 57.1303 27.035 56.7724C26.6762 56.4136 26.0966 56.4136 25.7378 56.7724Z" fill="#025546"/>
<path d="M20.5308 64.1968C20.77 64.1968 21 64.1039 21.184 63.93C21.5428 63.5703 21.5428 62.9824 21.184 62.6236C20.8252 62.2639 20.2456 62.2639 19.8868 62.6236C19.5188 62.9824 19.5188 63.5703 19.8868 63.93C20.0616 64.1039 20.3008 64.1968 20.5308 64.1968Z" fill="#025546"/>
<path d="M31.5889 50.9203C31.2301 51.28 31.2301 51.8596 31.5889 52.2175C31.7729 52.4015 32.0029 52.4843 32.2421 52.4843C32.4721 52.4843 32.7113 52.4015 32.8953 52.2175C33.2541 51.8587 33.2541 51.2791 32.8953 50.9203C32.5365 50.5624 31.9477 50.5624 31.5889 50.9203Z" fill="#025546"/>
<path d="M19.2332 65.8804C19.592 65.5207 19.592 64.9411 19.2332 64.574C18.8744 64.2143 18.2856 64.2143 17.9268 64.574C17.568 64.9411 17.568 65.5207 17.9268 65.8804C18.1108 66.0543 18.3408 66.1472 18.58 66.1472C18.8192 66.1472 19.0492 66.0552 19.2332 65.8804Z" fill="#025546"/>
<path d="M33.5396 48.9607C33.1808 49.3204 33.1808 49.9083 33.5396 50.2671C33.7236 50.4419 33.9536 50.5339 34.1928 50.5339C34.432 50.5339 34.662 50.4419 34.846 50.2671C35.2048 49.9083 35.2048 49.3204 34.846 48.9607C34.4872 48.612 33.8984 48.612 33.5396 48.9607Z" fill="#025546"/>
<path d="M23.7877 60.0292C23.9625 60.204 24.2017 60.296 24.4317 60.296C24.6709 60.296 24.9101 60.204 25.0849 60.0292C25.4437 59.6612 25.4437 59.0816 25.0849 58.7228C24.7261 58.364 24.1465 58.364 23.7877 58.7228C23.4289 59.0807 23.4289 59.6603 23.7877 60.0292Z" fill="#025546"/>
<path d="M15.9766 66.5336C15.6178 66.8924 15.6178 67.472 15.9766 67.8308C16.1606 68.0139 16.3906 68.0976 16.6298 68.0976C16.8598 68.0976 17.099 68.0139 17.283 67.8308C17.6418 67.4711 17.6418 66.8915 17.283 66.5336C16.9242 66.1739 16.3354 66.1739 15.9766 66.5336Z" fill="#025546"/>
<path d="M27.3202 61.0872C26.9614 60.7275 26.3818 60.7275 26.023 61.0872C25.6642 61.446 25.6642 62.0339 26.023 62.3936C26.1978 62.5675 26.437 62.6604 26.667 62.6604C26.9062 62.6604 27.1454 62.5675 27.3202 62.3936C27.679 62.0339 27.679 61.446 27.3202 61.0872Z" fill="#025546"/>
<path d="M25.3696 63.0376C25.0108 62.6779 24.4312 62.6779 24.0724 63.0376C23.7044 63.3964 23.7044 63.9843 24.0724 64.344C24.2472 64.5179 24.4864 64.6108 24.7164 64.6108C24.9556 64.6108 25.1856 64.5179 25.3696 64.344C25.7284 63.9852 25.7284 63.3964 25.3696 63.0376Z" fill="#025546"/>
<path d="M33.8248 53.2856C33.466 53.6444 33.466 54.2249 33.8248 54.5828C34.0088 54.7668 34.2388 54.8496 34.478 54.8496C34.708 54.8496 34.9472 54.7668 35.1312 54.5828C35.49 54.224 35.49 53.6435 35.1312 53.2856C34.7724 52.9277 34.1836 52.9268 33.8248 53.2856Z" fill="#025546"/>
<path d="M20.8159 68.5107C21.0551 68.5107 21.2851 68.4279 21.4691 68.2439C21.8279 67.8851 21.8279 67.3055 21.4691 66.9476C21.1103 66.5879 20.5215 66.5879 20.1627 66.9476C19.8039 67.3064 19.8039 67.886 20.1627 68.2439C20.3467 68.4288 20.5767 68.5107 20.8159 68.5107Z" fill="#025546"/>
<path d="M22.7661 66.5603C23.0053 66.5603 23.2353 66.4683 23.4193 66.2935C23.7781 65.9347 23.7781 65.3468 23.4193 64.9871C23.0604 64.6283 22.4717 64.6283 22.1129 64.9871C21.754 65.3468 21.754 65.9347 22.1129 66.2935C22.2969 66.4692 22.5269 66.5603 22.7661 66.5603Z" fill="#025546"/>
<path d="M27.9732 59.1368C27.6144 59.4956 27.6144 60.0752 27.9732 60.4432C28.148 60.6171 28.3872 60.71 28.6172 60.71C28.8564 60.71 29.0956 60.6171 29.2704 60.4432C29.6292 60.0752 29.6292 59.4956 29.2704 59.1368C28.9116 58.7771 28.332 58.7771 27.9732 59.1368Z" fill="#025546"/>
<path d="M19.5189 68.8971C19.1509 68.5383 18.5713 68.5383 18.2125 68.8971C17.8537 69.2568 17.8537 69.8364 18.2125 70.1943C18.3965 70.3783 18.6265 70.4611 18.8657 70.4611C19.0957 70.4611 19.3349 70.3783 19.5189 70.1943C19.8777 69.8364 19.8777 69.2568 19.5189 68.8971Z" fill="#025546"/>
<path d="M35.775 51.3352C35.4162 51.6949 35.4162 52.2745 35.775 52.6324C35.959 52.8164 36.189 52.8992 36.4282 52.8992C36.6674 52.8992 36.8974 52.8164 37.0814 52.6324C37.4402 52.2736 37.4402 51.694 37.0814 51.3352C36.7226 50.9764 36.1338 50.9764 35.775 51.3352Z" fill="#025546"/>
<path d="M29.9239 57.1864C29.5651 57.5452 29.5651 58.1248 29.9239 58.4836C30.0987 58.6676 30.3379 58.7596 30.5771 58.7596C30.8071 58.7596 31.0463 58.6676 31.2211 58.4836C31.5799 58.1239 31.5799 57.5443 31.2211 57.1864C30.8623 56.8285 30.2827 56.8276 29.9239 57.1864Z" fill="#025546"/>
<path d="M31.8741 55.236C31.5153 55.5948 31.5153 56.1744 31.8741 56.5332C32.0581 56.7172 32.2881 56.8092 32.5273 56.8092C32.7573 56.8092 32.9965 56.7172 33.1805 56.5332C33.5301 56.1735 33.5301 55.5939 33.1805 55.236C32.8217 54.8772 32.2329 54.8772 31.8741 55.236Z" fill="#025546"/>
<path d="M38.3788 50.9488C38.618 50.9488 38.848 50.8568 39.032 50.682C39.3908 50.3232 39.3908 49.7344 39.032 49.3756C38.6732 49.0168 38.0936 49.0168 37.7256 49.3756C37.376 49.7344 37.376 50.3232 37.7256 50.682C37.9096 50.8568 38.1488 50.9488 38.3788 50.9488Z" fill="#025546"/>
<path d="M26.4648 67.4628C26.704 67.4628 26.934 67.3708 27.118 67.196C27.4768 66.8372 27.4768 66.2484 27.118 65.8896C26.7592 65.5308 26.1704 65.5308 25.8116 65.8896C25.4528 66.2484 25.4528 66.8372 25.8116 67.196C25.9956 67.3708 26.2348 67.4628 26.4648 67.4628Z" fill="#025546"/>
<path d="M35.5728 56.1376C35.214 56.4964 35.214 57.076 35.5728 57.4339C35.7568 57.6179 35.9868 57.7006 36.226 57.7006C36.4652 57.7006 36.6952 57.6179 36.8792 57.4339C37.238 57.0751 37.238 56.4954 36.8792 56.1376C36.5204 55.7788 35.9316 55.7788 35.5728 56.1376Z" fill="#025546"/>
<path d="M31.0184 63.2952C31.3772 62.9364 31.3772 62.3485 31.0184 61.9888C30.6596 61.63 30.08 61.63 29.7212 61.9888C29.3624 62.3485 29.3624 62.9364 29.7212 63.2952C29.896 63.47 30.1352 63.562 30.3652 63.562C30.6044 63.562 30.8436 63.47 31.0184 63.2952Z" fill="#025546"/>
<path d="M28.4151 65.5124C28.6543 65.5124 28.8935 65.4204 29.0683 65.2456C29.4271 64.8868 29.4271 64.298 29.0683 63.9392C28.7095 63.5804 28.1299 63.5804 27.7711 63.9392C27.4123 64.298 27.4123 64.8868 27.7711 65.2456C27.9459 65.4204 28.1851 65.5124 28.4151 65.5124Z" fill="#025546"/>
<path d="M32.3251 61.6107C32.5551 61.6107 32.7943 61.5187 32.9691 61.3347C33.3279 60.9759 33.3279 60.3963 32.9691 60.0375C32.6103 59.6787 32.0307 59.6787 31.6719 60.0375C31.3131 60.3972 31.3131 60.9768 31.6719 61.3347C31.8467 61.5196 32.0859 61.6107 32.3251 61.6107Z" fill="#025546"/>
<path d="M24.5141 69.4132C24.7533 69.4132 24.9833 69.3203 25.1673 69.1464C25.5261 68.7876 25.5261 68.2071 25.1673 67.8492C24.8085 67.4904 24.2197 67.4904 23.8609 67.8492C23.5021 68.208 23.5021 68.7885 23.8609 69.1464C24.0449 69.3203 24.2749 69.4132 24.5141 69.4132Z" fill="#025546"/>
<path d="M34.9285 59.3852C35.2781 59.0264 35.2781 58.4468 34.9285 58.088C34.5605 57.7292 33.9809 57.7292 33.6221 58.088C33.2633 58.4477 33.2633 59.0273 33.6221 59.3852C33.7969 59.5692 34.0361 59.6612 34.2753 59.6612C34.5053 59.6603 34.7445 59.5692 34.9285 59.3852Z" fill="#025546"/>
<path d="M23.2171 71.0968C23.5759 70.7371 23.5759 70.1575 23.2171 69.7996C22.8583 69.4408 22.2695 69.4408 21.9107 69.7996C21.5519 70.1584 21.5519 70.738 21.9107 71.0968C22.0947 71.2707 22.3247 71.3636 22.5639 71.3636C22.7939 71.3636 23.0331 71.2707 23.2171 71.0968Z" fill="#025546"/>
<path d="M39.4732 53.534C39.6572 53.7079 39.8964 53.8008 40.1264 53.8008C40.3656 53.8008 40.5956 53.7079 40.7796 53.534C41.1384 53.1743 41.1384 52.5947 40.7796 52.2276C40.4208 51.8771 39.832 51.8771 39.4732 52.2276C39.1144 52.5956 39.1144 53.1752 39.4732 53.534Z" fill="#025546"/>
<path d="M37.523 55.4835C37.707 55.6675 37.937 55.7503 38.1762 55.7503C38.4154 55.7503 38.6454 55.6675 38.8294 55.4835C39.1882 55.1247 39.1882 54.5451 38.8294 54.1872C38.4706 53.8275 37.8818 53.8275 37.523 54.1872C37.1642 54.546 37.1642 55.1256 37.523 55.4835Z" fill="#025546"/>
<path d="M19.96 71.75C19.6012 72.1088 19.6012 72.6884 19.96 73.0472C20.144 73.2303 20.374 73.314 20.6132 73.314C20.8432 73.314 21.0824 73.2303 21.2664 73.0472C21.616 72.6875 21.616 72.1079 21.2664 71.75C20.8984 71.3903 20.3188 71.3903 19.96 71.75Z" fill="#025546"/>
<path d="M42.077 51.8504C42.3162 51.8504 42.5462 51.7575 42.7302 51.5836C43.089 51.2239 43.089 50.636 42.7302 50.2772C42.3714 49.9175 41.7918 49.9175 41.4238 50.2772C41.0742 50.636 41.0742 51.2239 41.4238 51.5836C41.6078 51.7584 41.847 51.8504 42.077 51.8504Z" fill="#025546"/>
<path d="M28.912 69.6156C29.142 69.6156 29.3812 69.5236 29.5652 69.3488C29.924 68.99 29.924 68.4104 29.5652 68.0516C29.1972 67.6928 28.6176 67.6928 28.2588 68.0516C27.9 68.4113 27.9 68.9909 28.2588 69.3488C28.4428 69.5236 28.6728 69.6156 28.912 69.6156Z" fill="#025546"/>
<path d="M36.0694 60.2408C35.7106 60.5996 35.7106 61.1875 36.0694 61.5472C36.2442 61.7211 36.4834 61.814 36.7134 61.814C36.9526 61.814 37.1918 61.7211 37.3666 61.5472C37.7254 61.1875 37.7254 60.5996 37.3666 60.2408C37.0078 59.882 36.4282 59.882 36.0694 60.2408Z" fill="#025546"/>
<path d="M38.0196 58.2904C37.6608 58.6492 37.6608 59.2288 38.0196 59.5876C38.1944 59.7707 38.4336 59.8636 38.6636 59.8636C38.9028 59.8636 39.142 59.7707 39.3168 59.5876C39.6756 59.2279 39.6756 58.6483 39.3168 58.2904C38.958 57.9307 38.3784 57.9307 38.0196 58.2904Z" fill="#025546"/>
<path d="M41.9205 54.3896C41.5617 54.7484 41.5617 55.328 41.9205 55.6868C42.1045 55.8708 42.3345 55.9536 42.5737 55.9536C42.8037 55.9536 43.0429 55.8708 43.2269 55.6868C43.5765 55.3271 43.5765 54.7475 43.2269 54.3896C42.8589 54.0308 42.2793 54.0308 41.9205 54.3896Z" fill="#025546"/>
<path d="M30.8622 67.6652C31.1014 67.6652 31.3314 67.5732 31.5154 67.3984C31.8742 67.0396 31.8742 66.4517 31.5154 66.1012C31.1566 65.7341 30.5678 65.7341 30.209 66.1012C29.8502 66.4517 29.8502 67.0405 30.209 67.3984C30.393 67.5732 30.623 67.6652 30.8622 67.6652Z" fill="#025546"/>
<path d="M26.9614 71.5752C27.1914 71.5752 27.4306 71.4832 27.6054 71.2992C27.9734 70.9404 27.9734 70.3608 27.6054 70.002C27.2466 69.6432 26.667 69.6432 26.3082 70.002C25.9494 70.3617 25.9494 70.9413 26.3082 71.2992C26.4922 71.4832 26.7222 71.5752 26.9614 71.5752Z" fill="#025546"/>
<path d="M32.8124 65.7139C33.0516 65.7139 33.2816 65.6219 33.4656 65.4471C33.8244 65.0883 33.8244 64.5004 33.4656 64.1407C33.1068 63.7819 32.518 63.7819 32.1592 64.1407C31.8004 64.5004 31.8004 65.0883 32.1592 65.4471C32.3432 65.6228 32.5732 65.7139 32.8124 65.7139Z" fill="#025546"/>
<path d="M25.0112 73.5256C25.2412 73.5256 25.4804 73.4336 25.6552 73.2496C26.014 72.8908 26.014 72.3103 25.6552 71.9524C25.2964 71.5936 24.7168 71.5936 24.358 71.9524C23.9992 72.3112 23.9992 72.8917 24.358 73.2496C24.5328 73.4336 24.772 73.5256 25.0112 73.5256Z" fill="#025546"/>
<path d="M34.7631 63.7635C35.0023 63.7635 35.2323 63.6714 35.4163 63.4976C35.7751 63.1378 35.7751 62.55 35.4163 62.1902C35.0575 61.8314 34.4779 61.8314 34.1099 62.1902C33.7603 62.55 33.7603 63.1378 34.1099 63.4976C34.2939 63.6724 34.5331 63.7635 34.7631 63.7635Z" fill="#025546"/>
<path d="M22.4073 73.9028C22.0485 74.2616 22.0485 74.8412 22.4073 75.2C22.5821 75.384 22.8213 75.476 23.0513 75.476C23.2905 75.476 23.5297 75.384 23.7045 75.2C24.0633 74.8403 24.0633 74.2607 23.7045 73.9028C23.3457 73.5449 22.7661 73.544 22.4073 73.9028Z" fill="#025546"/>
<path d="M39.9703 56.34C39.6115 56.6988 39.6115 57.2784 39.9703 57.6372C40.1451 57.8203 40.3843 57.9132 40.6235 57.9132C40.8535 57.9132 41.0927 57.8203 41.2675 57.6372C41.6263 57.2775 41.6263 56.6979 41.2675 56.34C40.9087 55.9803 40.3291 55.9803 39.9703 56.34Z" fill="#025546"/>
<path d="M35.4623 68.0507C35.8211 67.6919 35.8211 67.104 35.4623 66.7443C35.1035 66.3855 34.5239 66.3855 34.1651 66.7443C33.8063 67.104 33.8063 67.6919 34.1651 68.0507C34.3399 68.2255 34.5791 68.3175 34.8091 68.3175C35.0483 68.3184 35.2875 68.2264 35.4623 68.0507Z" fill="#025546"/>
<path d="M28.9579 74.1696C29.1971 74.1696 29.4271 74.0776 29.6111 73.9028C29.9699 73.544 29.9699 72.9552 29.6111 72.5964C29.2523 72.2376 28.6635 72.2376 28.3047 72.5964C27.9459 72.9552 27.9459 73.544 28.3047 73.9028C28.4887 74.0776 28.7187 74.1696 28.9579 74.1696Z" fill="#025546"/>
<path d="M27.6605 75.8532C28.0193 75.4934 28.0193 74.9138 27.6605 74.556C27.3017 74.1972 26.7129 74.1972 26.3541 74.556C25.9953 74.9148 25.9953 75.4944 26.3541 75.8532C26.5381 76.0372 26.7681 76.12 27.0073 76.12C27.2465 76.12 27.4765 76.0372 27.6605 75.8532Z" fill="#025546"/>
<path d="M24.4039 76.5064C24.0451 76.8652 24.0451 77.4448 24.4039 77.8036C24.5879 77.9876 24.8179 78.0704 25.0571 78.0704C25.2871 78.0704 25.5263 77.9876 25.7103 77.8036C26.0691 77.4439 26.0691 76.8643 25.7103 76.5064C25.3423 76.1476 24.7627 76.1476 24.4039 76.5064Z" fill="#025546"/>
<path d="M33.5116 70.002C33.8704 69.6432 33.8704 69.0544 33.5116 68.6956C33.1528 68.3368 32.5732 68.3368 32.2144 68.6956C31.8556 69.0544 31.8556 69.6432 32.2144 70.002C32.3892 70.1768 32.6284 70.2688 32.8584 70.2688C33.0976 70.2688 33.3276 70.1768 33.5116 70.002Z" fill="#025546"/>
<path d="M40.0162 60.894C39.6574 61.2528 39.6574 61.8324 40.0162 62.1903C40.2002 62.3743 40.4302 62.4571 40.6694 62.4571C40.8994 62.4571 41.1386 62.3743 41.3226 62.1903C41.6814 61.8315 41.6814 61.2519 41.3226 60.894C40.9638 60.5352 40.375 60.5352 40.0162 60.894Z" fill="#025546"/>
<path d="M38.066 62.8435C37.7072 63.2032 37.7072 63.7828 38.066 64.1407C38.25 64.3247 38.48 64.4176 38.7192 64.4176C38.9492 64.4176 39.1884 64.3247 39.3632 64.1407C39.722 63.7819 39.722 63.2023 39.3632 62.8435C39.0044 62.4856 38.4248 62.4856 38.066 62.8435Z" fill="#025546"/>
<path d="M36.1153 64.7939C35.7565 65.1536 35.7565 65.7332 36.1153 66.091C36.2901 66.275 36.5293 66.3671 36.7685 66.3671C36.9985 66.3671 37.2377 66.275 37.4125 66.091C37.7713 65.7323 37.7713 65.1527 37.4125 64.7939C37.0537 64.436 36.4741 64.436 36.1153 64.7939Z" fill="#025546"/>
<path d="M30.9081 72.2192C31.1473 72.2192 31.3773 72.1272 31.5613 71.9524C31.9201 71.5936 31.9201 71.0048 31.5613 70.646C31.2025 70.2872 30.6137 70.2872 30.2549 70.646C29.9053 71.0048 29.9053 71.5936 30.2549 71.9524C30.4389 72.1272 30.6781 72.2192 30.9081 72.2192Z" fill="#025546"/>
<path d="M44.5702 58.5572C44.8094 58.5572 45.0394 58.4643 45.2234 58.2904C45.5822 57.9307 45.5822 57.3428 45.2234 56.984C44.8646 56.6243 44.2758 56.6243 43.917 56.984C43.5582 57.3428 43.5582 57.9307 43.917 58.2904C44.101 58.4652 44.3402 58.5572 44.5702 58.5572Z" fill="#025546"/>
<path d="M41.9669 58.9436C41.6081 59.3024 41.6081 59.882 41.9669 60.2408C42.1509 60.4239 42.3809 60.5076 42.6201 60.5076C42.8593 60.5076 43.0893 60.4239 43.2733 60.2408C43.6321 59.8811 43.6321 59.3015 43.2733 58.9436C42.9145 58.5839 42.3257 58.5839 41.9669 58.9436Z" fill="#025546"/>
<path d="M38.8204 66.69C38.4616 67.0488 38.4616 67.6284 38.8204 67.9872C39.0044 68.1611 39.2344 68.254 39.4736 68.254C39.7128 68.254 39.9428 68.1611 40.1268 67.9872C40.4856 67.6275 40.4856 67.0479 40.1268 66.69C39.768 66.3303 39.1792 66.3303 38.8204 66.69Z" fill="#025546"/>
<path d="M40.7706 66.0368C40.9546 66.2107 41.1938 66.3036 41.4238 66.3036C41.663 66.3036 41.893 66.2107 42.077 66.0368C42.4358 65.6771 42.4358 65.0975 42.077 64.7304C41.7182 64.3707 41.1294 64.3707 40.7706 64.7304C40.4118 65.0984 40.4118 65.6771 40.7706 66.0368Z" fill="#025546"/>
<path d="M27.1084 78.3924C26.7588 78.7512 26.7588 79.34 27.1084 79.6988C27.2924 79.8736 27.5316 79.9656 27.7616 79.9656C28.0008 79.9656 28.2308 79.8736 28.4148 79.6988C28.7736 79.34 28.7736 78.7512 28.4148 78.3924C28.056 78.0336 27.4764 78.0336 27.1084 78.3924Z" fill="#025546"/>
<path d="M36.8697 68.6404C36.5109 68.9992 36.5109 69.5788 36.8697 69.9376C37.0537 70.1207 37.2837 70.2035 37.5229 70.2035C37.7621 70.2035 37.9921 70.1207 38.1761 69.9376C38.5349 69.5779 38.5349 68.9983 38.1761 68.6404C37.8173 68.2807 37.2285 68.2807 36.8697 68.6404Z" fill="#025546"/>
<path d="M30.3656 76.442C30.0068 76.0832 29.4272 76.0832 29.0684 76.442C28.7096 76.8017 28.7096 77.3896 29.0684 77.7484C29.2432 77.9232 29.4824 78.0152 29.7124 78.0152C29.9516 78.0152 30.1908 77.9232 30.3656 77.7484C30.7244 77.3896 30.7244 76.8008 30.3656 76.442Z" fill="#025546"/>
<path d="M35.5727 72.1539C35.8027 72.1539 36.0419 72.0711 36.2167 71.8871C36.5755 71.5283 36.5755 70.9487 36.2167 70.5908C35.8671 70.2311 35.2783 70.2311 34.9195 70.5908C34.5607 70.9496 34.5607 71.5292 34.9195 71.8871C35.1035 72.072 35.3335 72.1539 35.5727 72.1539Z" fill="#025546"/>
<path d="M42.73 62.78C42.3712 63.1388 42.3712 63.7276 42.73 64.0864C42.9048 64.2603 43.144 64.3532 43.374 64.3532C43.6132 64.3532 43.8524 64.2603 44.0272 64.0864C44.386 63.7276 44.386 63.1388 44.0272 62.78C43.6684 62.4203 43.0888 62.4203 42.73 62.78Z" fill="#025546"/>
<path d="M31.6626 76.0639C31.9018 76.0639 32.141 75.9719 32.3158 75.7971C32.6746 75.4383 32.6746 74.8504 32.3158 74.4907C31.957 74.1319 31.3774 74.1319 31.0186 74.4907C30.6598 74.8504 30.6598 75.4383 31.0186 75.7971C31.1934 75.9728 31.4326 76.0639 31.6626 76.0639Z" fill="#025546"/>
<path d="M33.622 74.1135C33.852 74.1135 34.0912 74.0215 34.266 73.8375C34.6248 73.4787 34.6248 72.8991 34.266 72.5403C33.9072 72.1815 33.3276 72.1815 32.9688 72.5403C32.61 72.9 32.61 73.4796 32.9688 73.8375C33.1436 74.0224 33.3828 74.1135 33.622 74.1135Z" fill="#025546"/>
<path d="M44.6807 60.8296C44.3219 61.1884 44.3219 61.7772 44.6807 62.136C44.8555 62.3108 45.0947 62.4028 45.3247 62.4028C45.5639 62.4028 45.8031 62.3108 45.9779 62.136C46.3367 61.7772 46.3367 61.1884 45.9779 60.8296C45.6191 60.4708 45.0395 60.4708 44.6807 60.8296Z" fill="#025546"/>
<path d="M35.9957 74.1052C35.6369 74.4649 35.6369 75.0528 35.9957 75.4116C36.1797 75.5864 36.4189 75.6784 36.6489 75.6784C36.8881 75.6784 37.1181 75.5864 37.3021 75.4116C37.6609 75.0528 37.6609 74.4649 37.3021 74.1052C36.9433 73.7464 36.3545 73.7464 35.9957 74.1052Z" fill="#025546"/>
<path d="M30.1446 79.9656C29.7858 80.3244 29.7858 80.9049 30.1446 81.2628C30.3194 81.4468 30.5586 81.5296 30.7978 81.5296C31.0278 81.5296 31.267 81.4468 31.4418 81.2628C31.8098 80.904 31.8098 80.3235 31.4418 79.9656C31.083 79.6068 30.5034 79.6068 30.1446 79.9656Z" fill="#025546"/>
<path d="M35.3519 77.362C35.7107 77.0032 35.7107 76.4236 35.3519 76.0556C34.9931 75.706 34.4043 75.706 34.0455 76.0556C33.6867 76.4236 33.6867 77.0032 34.0455 77.362C34.2295 77.546 34.4595 77.6288 34.6987 77.6288C34.9379 77.6288 35.1679 77.546 35.3519 77.362Z" fill="#025546"/>
<path d="M32.0948 78.0152C31.736 78.3749 31.736 78.9545 32.0948 79.3124C32.2788 79.4964 32.5088 79.5792 32.748 79.5792C32.978 79.5792 33.2172 79.4964 33.392 79.3124C33.76 78.9536 33.76 78.374 33.392 78.0152C33.0424 77.6564 32.4536 77.6564 32.0948 78.0152Z" fill="#025546"/>
<path d="M41.856 68.254C41.4972 68.6128 41.4972 69.1924 41.856 69.5503C42.0308 69.7343 42.27 69.8272 42.5092 69.8272C42.7392 69.8272 42.9784 69.7343 43.1532 69.5503C43.512 69.1915 43.512 68.6119 43.1532 68.254C42.7944 67.8952 42.2148 67.8952 41.856 68.254Z" fill="#025546"/>
<path d="M45.7569 65.6504C45.9409 65.8335 46.1709 65.9264 46.4101 65.9264C46.6401 65.9264 46.8793 65.8335 47.0633 65.6504C47.4221 65.2907 47.4221 64.711 47.0633 64.3532C46.6953 63.9934 46.1157 63.9934 45.7569 64.3532C45.3981 64.712 45.3981 65.2907 45.7569 65.6504Z" fill="#025546"/>
<path d="M39.9058 70.2035C39.547 70.5632 39.547 71.1428 39.9058 71.5108C40.0806 71.6847 40.3198 71.7776 40.5498 71.7776C40.789 71.7776 41.0282 71.6847 41.203 71.5108C41.5618 71.1428 41.5618 70.5632 41.203 70.2035C40.8442 69.8456 40.2646 69.8456 39.9058 70.2035Z" fill="#025546"/>
<path d="M37.9463 72.1539C37.5875 72.5136 37.5875 73.1015 37.9463 73.4603C38.1303 73.6351 38.3695 73.7271 38.5995 73.7271C38.8387 73.7271 39.0687 73.6351 39.2527 73.4603C39.6115 73.1015 39.6115 72.5136 39.2527 72.1539C38.8939 71.796 38.3143 71.796 37.9463 72.1539Z" fill="#025546"/>
<path d="M43.8067 66.3036C43.4479 66.6624 43.4479 67.242 43.8067 67.6008C43.9815 67.7839 44.2207 67.8676 44.4599 67.8676C44.6899 67.8676 44.9291 67.7839 45.1039 67.6008C45.4627 67.2411 45.4627 66.6615 45.1039 66.3036C44.7451 65.9439 44.1655 65.9439 43.8067 66.3036Z" fill="#025546"/>
<path d="M49.8602 61.4C49.8602 48.3084 31.7638 38.032 30.991 37.5996C30.7058 37.4432 30.3746 37.4432 30.0894 37.5996C29.3166 38.032 11.2202 48.3084 11.2202 61.4C11.2202 62.688 11.395 63.9392 11.717 65.1628C12.1862 67.0221 12.9866 68.806 14.0078 70.4804C14.5598 71.3912 15.167 72.2744 15.8202 73.1208C16.3998 73.8844 17.0162 74.6204 17.6602 75.3196C22.941 81.1432 29.6294 84.9428 30.0894 85.2004C30.2274 85.2832 30.3838 85.32 30.5402 85.32C30.6966 85.32 30.853 85.2832 30.991 85.2004C31.1566 85.1075 32.1318 84.5527 33.5486 83.618C33.6783 83.5757 33.8016 83.5122 33.9074 83.4064C33.9212 83.3917 33.9267 83.3733 33.9396 83.3586C36.4724 81.6593 40.2002 78.8736 43.4202 75.3288C44.055 74.6296 44.6806 73.8936 45.2602 73.13C45.9134 72.2836 46.5206 71.4004 47.0726 70.4896C47.2042 70.2716 47.3219 70.0462 47.4461 69.8235C47.4866 69.7959 47.5326 69.7784 47.5694 69.7435C47.7424 69.5705 47.827 69.346 47.8335 69.1197C48.4894 67.8474 49.0193 66.5253 49.3634 65.1619C49.6854 63.9392 49.8602 62.688 49.8602 61.4ZM30.5402 83.3328C30.3295 83.2068 30.0453 83.0338 29.7104 82.8222C29.8024 82.5103 29.738 82.1616 29.4914 81.916C29.151 81.5765 28.6193 81.5701 28.2586 81.8737C27.7784 81.5489 27.2531 81.1837 26.6919 80.7789C26.6532 80.6225 26.5879 80.4716 26.4646 80.352C26.2723 80.1597 26.0147 80.0788 25.7608 80.0935C25.1398 79.6252 24.4903 79.1164 23.8251 78.5709C23.7975 78.5341 23.7837 78.4908 23.7497 78.4577C23.6595 78.3666 23.5556 78.3004 23.4433 78.2553C22.9364 77.8303 22.4249 77.385 21.9115 76.9204C22.0863 76.5736 22.0413 76.1412 21.7524 75.8541C21.4497 75.5514 20.998 75.5192 20.6465 75.7262C20.2693 75.3573 19.8958 74.9792 19.5278 74.591C19.6125 74.2828 19.5471 73.9433 19.3061 73.7013C19.0862 73.4814 18.7854 73.4124 18.5011 73.4621C18.1598 73.0702 17.8249 72.6737 17.5029 72.2652C17.4928 72.2486 17.4753 72.2321 17.4633 72.2155C17.4974 72.1898 17.5369 72.1769 17.5673 72.1456C17.9169 71.7868 17.9169 71.2072 17.5673 70.8484C17.2398 70.5282 16.7513 70.5108 16.3934 70.7601C16.0907 70.3212 15.8055 69.875 15.535 69.4215C15.6417 69.1022 15.5764 68.7388 15.3225 68.484C15.1992 68.357 15.0428 68.2917 14.8809 68.254C14.5718 67.6551 14.3059 67.0424 14.0658 66.4223C14.3611 66.0607 14.3528 65.5354 14.0161 65.1904C13.8928 65.0662 13.7401 65.0009 13.5819 64.9632C13.373 64.2152 13.2148 63.4571 13.1347 62.6889C13.2819 62.401 13.2608 62.0633 13.0823 61.7882C13.0786 61.6585 13.0602 61.5306 13.0602 61.4C13.0602 60.0761 13.2801 58.7743 13.6647 57.5084C13.7916 57.4661 13.9131 57.4017 14.017 57.2977C14.3234 56.9914 14.3519 56.5314 14.1348 56.1781C14.2673 55.8496 14.4089 55.523 14.5617 55.1992C14.5948 55.2489 14.6169 55.3032 14.6601 55.3473C14.8441 55.5212 15.0833 55.6141 15.3133 55.6141C15.5525 55.6141 15.7825 55.5212 15.9665 55.3473C16.3253 54.9885 16.3253 54.408 15.9665 54.0409C15.7843 53.8588 15.5433 53.7704 15.3032 53.7732C18.5305 48.1198 24.4857 43.495 28.0581 41.0634C28.0645 41.2888 28.1501 41.5124 28.3221 41.6853C28.5061 41.8601 28.7361 41.9521 28.9753 41.9521C29.2145 41.9521 29.4445 41.8601 29.6285 41.6853C29.9873 41.3265 29.9873 40.7469 29.6285 40.389C29.5475 40.3081 29.4528 40.252 29.3534 40.2069C29.6874 39.9934 29.9827 39.8085 30.2228 39.6613C30.2421 39.6843 30.2504 39.7138 30.2725 39.7358C30.4565 39.9097 30.6957 40.0026 30.9257 40.0026C31.0499 40.0026 31.1704 39.976 31.2845 39.9272C31.7279 40.206 32.279 40.5611 32.9074 40.987C32.9414 41.1609 33.0086 41.3302 33.142 41.4654C33.326 41.6393 33.5652 41.7322 33.7952 41.7322C33.8458 41.7322 33.8918 41.712 33.9405 41.7037C35.1448 42.5575 36.5322 43.6054 37.9591 44.8207C37.7723 44.8483 37.5911 44.9191 37.4467 45.0636C37.0879 45.4224 37.0879 46.0102 37.4467 46.37C37.6215 46.5438 37.8607 46.6368 38.0907 46.6368C38.3299 46.6368 38.5691 46.5438 38.7439 46.37C38.9168 46.197 39.0024 45.9688 39.0088 45.7398C39.5286 46.208 40.0484 46.6966 40.5618 47.2035C40.2573 47.1234 39.9215 47.1878 39.6823 47.427C39.3235 47.7868 39.3235 48.3746 39.6823 48.7334C39.8571 48.9082 40.0963 49.0002 40.3263 49.0002C40.5655 49.0002 40.7955 48.9082 40.9795 48.7334C41.2187 48.4942 41.2831 48.1566 41.2039 47.8493C42.5094 49.1953 43.7459 50.6627 44.8021 52.2202C44.4828 52.1172 44.1194 52.1825 43.8683 52.441C43.5095 52.7998 43.5095 53.3804 43.8683 53.7382C44.0523 53.9121 44.2823 54.005 44.5215 54.005C44.7607 54.005 44.9907 53.9121 45.1747 53.7382C45.3283 53.5846 45.4028 53.3877 45.4249 53.1872C45.7497 53.7171 46.0505 54.2562 46.3237 54.8045C46.16 54.8413 46.0017 54.9076 45.8739 55.0354C45.5059 55.3942 45.5059 55.9821 45.8739 56.3418C46.0487 56.5157 46.2878 56.6086 46.5178 56.6086C46.7083 56.6086 46.8849 56.535 47.045 56.4246C47.3367 57.1855 47.5621 57.9629 47.7277 58.7486C47.3771 58.5471 46.9291 58.5802 46.6292 58.881C46.2704 59.2398 46.2704 59.8204 46.6292 60.1782C46.804 60.3622 47.0432 60.4542 47.2824 60.4542C47.5124 60.4542 47.7516 60.3622 47.9264 60.1782C47.9356 60.169 47.9383 60.1571 47.9475 60.147C47.9917 60.561 48.0202 60.9786 48.0202 61.4C48.0202 61.6778 47.9908 61.952 47.9715 62.2271C47.8767 62.2712 47.7847 62.3237 47.7065 62.4019C47.3477 62.7607 47.3477 63.3403 47.7065 63.6991C47.7286 63.7212 47.7571 63.7285 47.7801 63.7478C47.3606 65.9917 46.3835 68.1445 45.0845 70.151C44.8094 70.1142 44.5215 70.1869 44.3117 70.3976C44.0173 70.692 43.9777 71.1299 44.1673 71.4777C44.0072 71.6939 43.8526 71.9147 43.6861 72.1272C43.6401 72.1732 43.6033 72.2192 43.5757 72.2643C43.572 72.2698 43.5674 72.2744 43.5637 72.279C43.1967 72.0067 42.6897 72.0196 42.3613 72.3471C42.0025 72.7068 42.0025 73.2864 42.3613 73.6443C42.3714 73.6544 42.3834 73.6572 42.3935 73.6654C42.1828 73.9037 41.974 74.142 41.7587 74.3729C41.7394 74.3499 41.7311 74.3196 41.7081 74.2975C41.3493 73.9387 40.7697 73.9387 40.4109 74.2975C40.0521 74.6572 40.0521 75.2368 40.4109 75.5947C40.4376 75.6223 40.4725 75.6333 40.502 75.6563C40.272 75.8826 40.042 76.108 39.8111 76.327C39.7908 76.3022 39.7816 76.2709 39.7586 76.2479C39.3998 75.8891 38.8202 75.8891 38.4614 76.2479C38.1035 76.6058 38.1035 77.1817 38.4587 77.5497C38.2213 77.7567 37.9849 77.9609 37.7493 78.1596C37.3887 77.8514 36.8523 77.857 36.511 78.1983C36.2166 78.4918 36.1771 78.9352 36.3657 79.2857C36.0777 79.512 35.7962 79.7301 35.5183 79.9408C35.1927 79.8239 34.8136 79.8892 34.5597 80.1496C34.3693 80.3391 34.2874 80.593 34.2984 80.8442C32.5973 82.0687 31.2164 82.928 30.5402 83.3328Z" fill="#025546"/>
<path d="M55.9964 38.8536C57.8806 36.882 59.014 33.0364 59.0591 31.0115C60.8899 29.5744 61.0454 25.359 61.0454 23.991C61.0454 22.6229 60.8908 18.4075 59.0591 16.9704C59.0011 14.2758 57.0029 12.0503 54.4085 11.639C54.414 11.4937 54.4214 11.3465 54.4269 11.2204C54.4444 10.8561 54.4609 10.4844 54.4609 10.191C54.4609 5.87891 50.953 2.37095 46.6409 2.37095C45.3042 2.37095 44.007 2.70767 42.8505 3.34891C41.4576 2.38659 39.6728 2.10323 38.0481 2.64971C36.8034 1.21635 33.7527 0.679993 31.0037 0.679993C31.0019 0.679993 31.0009 0.679993 31 0.679993C28.2492 0.679993 25.1976 1.21543 23.9528 2.64971C22.3281 2.10599 20.5451 2.38751 19.1522 3.34983C17.9949 2.70859 16.6977 2.37187 15.3609 2.37187C11.0489 2.37187 7.54093 5.87983 7.54093 10.1919C7.54093 10.4854 7.55841 10.8589 7.57497 11.2223C7.58049 11.3474 7.58785 11.4946 7.59337 11.64C4.99989 12.0512 3.00073 14.2758 2.94277 16.9704C1.11105 18.4066 0.955566 22.6238 0.955566 23.9919C0.955566 25.3599 1.11013 29.5772 2.94277 31.0133C2.98509 33.0612 4.08725 36.537 5.70921 38.5178C4.11209 39.263 1.67593 41.1655 1.67593 45.8759C1.67593 52.3978 6.30721 57.7568 6.50409 57.9822C6.53721 58.0199 6.58229 58.0374 6.62001 58.0678V61.4184C6.62001 61.4184 6.62001 61.4193 6.62001 61.4202V61.7873C6.62001 62.0081 6.70281 62.2197 6.85001 62.3853L13.75 70.2881C13.8236 70.3709 13.9064 70.4353 14.0076 70.4813C12.9864 68.8069 12.186 67.0221 11.7168 65.1637L10.2374 63.4709L18.6987 66.8556C18.81 66.8998 18.9259 66.92 19.04 66.92C19.4052 66.92 19.7502 66.702 19.8947 66.3413C20.0833 65.8694 19.8542 65.3339 19.3822 65.1453L8.46001 60.7762V40.941L18.3334 52.7888C18.5156 53.0078 18.7769 53.12 19.04 53.12C19.2479 53.12 19.4568 53.0501 19.6288 52.9075C20.0189 52.5818 20.0713 52.0022 19.7466 51.6112L8.46001 38.067V29.2C8.46001 17.2676 18.028 16.32 30.54 16.32C43.052 16.32 52.62 17.2676 52.62 29.2V38.067L41.3334 51.6103C41.0078 52.0013 41.0611 52.5818 41.4512 52.9066C41.6232 53.0501 41.8321 53.12 42.04 53.12C42.304 53.12 42.5653 53.0078 42.7475 52.7897L52.62 40.942V60.7772L41.6978 65.1462C41.2258 65.3348 40.9967 65.8703 41.1853 66.3422C41.3298 66.702 41.6757 66.92 42.04 66.92C42.1541 66.92 42.2691 66.8998 42.3813 66.8547L50.8426 63.47L49.3632 65.1628C48.894 67.0221 48.0844 68.806 47.0724 70.4896C47.1736 70.4436 47.2564 70.37 47.33 70.2872L54.23 62.3844C54.3772 62.2179 54.46 62.0072 54.46 61.7864V61.4193C54.46 61.4184 54.46 61.4175 54.46 61.4166V58.0668C54.4977 58.0365 54.5428 58.019 54.5759 57.9813C54.7728 57.7559 59.4041 52.3969 59.4041 45.875C59.405 41.747 57.5346 39.78 55.9964 38.8536ZM3.51501 45.875C3.51501 41.9319 5.51693 40.5611 6.62001 40.1038V55.0382C5.32833 53.0703 3.51501 49.6442 3.51501 45.875ZM30.54 14.48C17.936 14.48 6.62001 15.6024 6.62001 29.2V36.663C5.54913 34.962 4.78093 32.3501 4.78093 30.891C4.78093 30.8514 4.78921 30.8128 4.79381 30.7741C4.80209 30.7106 4.81129 30.6453 4.81589 30.5809C4.85085 30.1623 4.59785 29.7732 4.20133 29.6361C3.61161 29.4309 2.79557 27.3554 2.79557 23.991C2.79557 20.6265 3.61253 18.551 4.20133 18.3458C4.59785 18.2088 4.85177 17.8196 4.81589 17.401C4.81037 17.3366 4.80209 17.2713 4.79381 17.2078C4.78921 17.1692 4.78093 17.1305 4.78093 17.091C4.78093 15.0614 6.43141 13.411 8.46093 13.411C8.71209 13.411 8.96969 13.2996 9.14357 13.1184C9.48857 12.7568 9.46925 12.3484 9.41313 11.1358C9.39749 10.8028 9.38093 10.4614 9.38093 10.1919C9.38093 6.89459 12.0636 4.21187 15.3609 4.21187C16.5569 4.21187 17.7124 4.56423 18.7024 5.23031C19.0483 5.46399 19.5129 5.43363 19.8284 5.15487C20.9435 4.16219 22.5259 3.91287 23.9224 4.62955C24.1708 4.75467 24.4606 4.76387 24.7155 4.65071C24.9694 4.53755 25.1589 4.31583 25.2307 4.04719C25.4009 3.40687 27.5003 2.51999 30.9991 2.51999C31 2.51999 31.0018 2.51999 31.0028 2.51999C34.4997 2.52091 36.5991 3.40779 36.7702 4.04719C36.842 4.31583 37.0315 4.53755 37.2854 4.65071C37.5394 4.76295 37.8301 4.75375 38.0785 4.62955C39.4796 3.91287 41.0584 4.16127 42.1743 5.15395C42.488 5.43455 42.9508 5.46307 43.3004 5.22939C44.2885 4.56239 45.444 4.21095 46.64 4.21095C49.9373 4.21095 52.62 6.89367 52.62 10.191C52.62 10.4605 52.6034 10.8018 52.5878 11.1349C52.5317 12.3484 52.5124 12.7568 52.8574 13.1175C53.0312 13.2987 53.2879 13.41 53.54 13.41C55.5695 13.41 57.22 15.0605 57.22 17.09C57.22 17.1305 57.2117 17.1701 57.2062 17.2087L57.1841 17.3936C57.1464 17.8141 57.3994 18.2069 57.7987 18.3449C58.3884 18.5501 59.2044 20.6256 59.2044 23.99C59.2044 27.3545 58.3875 29.43 57.7987 29.6352C57.3994 29.7732 57.1464 30.166 57.1841 30.5864L57.2062 30.7714C57.2117 30.81 57.22 30.8496 57.22 30.89C57.22 32.8828 55.8612 36.5462 54.46 37.8075V29.2C54.46 15.6024 43.144 14.48 30.54 14.48ZM54.46 55.0382V40.0919C55.5622 40.5335 57.565 41.8831 57.565 45.875C57.565 49.6442 55.7517 53.0703 54.46 55.0382Z" fill="#025546"/>
</svg>
