<svg width="73" height="73" viewBox="0 0 73 73" fill="none" xmlns="http://www.w3.org/2000/svg">
<path d="M68.4372 57.936C66.5014 57.936 64.7989 59.1613 64.1523 60.9368L51.509 57.1825L49.2173 57.8617L65.1053 62.578L65.2421 61.874C65.5393 60.3463 66.882 59.2395 68.4372 59.2395C70.2348 59.2395 71.6961 60.7008 71.6961 62.4985C71.6961 63.6143 71.1265 64.6428 70.1748 65.2438L69.6508 65.5762L69.9558 66.1159C70.2465 66.6282 70.3925 67.1652 70.3925 67.7127C70.3925 69.5104 68.9312 70.9717 67.1336 70.9717C65.336 70.9717 63.8747 69.5104 63.8747 67.7127C63.8747 67.1483 64.0285 66.5995 64.3309 66.0807L64.7494 65.3637L44.342 59.3073L42.0503 59.9865L62.854 66.1589C62.665 66.6621 62.5711 67.1809 62.5711 67.7127C62.5711 70.2286 64.6177 72.2752 67.1336 72.2752C69.6495 72.2752 71.6961 70.2286 71.6961 67.7127C71.6961 67.1261 71.5788 66.5513 71.3481 66.0012C72.3922 65.1395 72.9997 63.8672 72.9997 62.4985C72.9997 59.9839 70.9531 57.936 68.4372 57.936Z" fill="#37474F"/>
<path d="M46.7068 31.3587C48.8864 31.3587 51.6304 32.6675 52.419 35.0922C52.8362 36.3736 52.6302 37.7215 51.8533 38.7904C51.1494 39.759 50.0922 40.3377 49.0232 40.3377C47.1148 40.3377 43.3749 37.7801 43.3749 34.6881C43.3749 32.4785 44.4959 31.3587 46.7068 31.3587ZM46.7068 30.0552C44.1466 30.0552 42.0713 31.4304 42.0713 34.6894C42.0713 38.5284 46.4643 41.6426 49.0232 41.6426C52.1375 41.6426 54.8215 38.2638 53.6587 34.6894C52.6459 31.5751 49.2657 30.0552 46.7068 30.0552Z" fill="#37474F"/>
<path d="M32.8067 31.3587C35.0175 31.3587 36.1386 32.4785 36.1386 34.6894C36.1386 37.7814 32.3974 40.3391 30.4889 40.3391C29.4213 40.3391 28.3641 39.7616 27.6602 38.793C26.8833 37.7228 26.6773 36.3749 27.0931 35.0935C27.8831 32.6675 30.6271 31.3587 32.8067 31.3587ZM32.8067 30.0552C30.2465 30.0552 26.8676 31.5751 25.8534 34.6894C24.6907 38.2638 27.3747 41.6426 30.4889 41.6426C33.0492 41.6426 37.4422 38.5284 37.4422 34.6894C37.4422 31.4291 35.3656 30.0552 32.8067 30.0552Z" fill="#37474F"/>
<path d="M39.7586 40.5958C41.1417 42.9018 42.1259 45.0879 42.0359 45.7632C42.0242 45.7892 42.0112 45.814 42.0007 45.8375C41.5145 45.5142 40.7754 45.0892 39.7599 45.0892C38.7431 45.0892 38.0053 45.5142 37.5191 45.8375C37.5073 45.814 37.4956 45.7892 37.4839 45.7632C37.3926 45.0892 38.3768 42.9031 39.7586 40.5958ZM39.7586 38.166C39.7586 38.166 35.4633 44.5391 36.282 46.2768C36.6809 47.1215 36.9898 47.3992 37.3014 47.3992C37.8958 47.3992 38.4993 46.3928 39.7586 46.3928C41.0178 46.3928 41.6227 47.3992 42.2171 47.3992C42.5287 47.3992 42.8376 47.1228 43.2352 46.2768C44.0539 44.5391 39.7586 38.166 39.7586 38.166Z" fill="#37474F"/>
<path d="M14.2939 51.1834C14.0866 52.8037 12.7035 54.0265 11.0806 54.0265C9.28294 54.0265 7.82164 52.5652 7.82164 50.7675C7.82164 49.6517 8.3913 48.6232 9.34291 48.0222L9.86694 47.6898L9.56191 47.1501C9.27121 46.6365 9.12521 46.0994 9.12521 45.5519C9.12521 43.7543 10.5865 42.293 12.3841 42.293C14.1818 42.293 15.6431 43.7543 15.6431 45.5519C15.6431 46.0369 15.5244 46.5218 15.2898 46.9911L14.9457 47.6859L30.1323 52.1949C29.7203 51.6657 29.5105 51.2877 29.4805 51.2316L29.328 50.9448V50.5968L16.7433 46.8594C16.8789 46.4318 16.9466 45.9939 16.9466 45.5519C16.9466 43.036 14.9 40.9894 12.3841 40.9894C9.86825 40.9894 7.82164 43.036 7.82164 45.5519C7.82164 46.1385 7.93896 46.7134 8.16969 47.2635C7.12553 48.1265 6.51807 49.3988 6.51807 50.7662C6.51807 53.2821 8.56467 55.3287 11.0806 55.3287C13.1024 55.3287 14.8557 53.9808 15.428 52.0907L28.0087 55.8228L30.3004 55.1436L14.3916 50.4234L14.2939 51.1834Z" fill="#37474F"/>
<path d="M71.3486 47.2648C71.5793 46.7134 71.6966 46.1399 71.6966 45.5519C71.6966 43.036 69.65 40.9894 67.1341 40.9894C64.6182 40.9894 62.5716 43.036 62.5716 45.5519C62.5716 45.9939 62.6394 46.4319 62.7724 46.8607L53.9824 49.4705C53.8168 49.5265 53.6474 49.5748 53.4766 49.6204L50.1877 50.5968V50.9461L50.0352 51.2329C50.0052 51.2877 49.7966 51.667 49.3834 52.1962L64.57 47.6872L64.2259 46.9924C63.9938 46.5218 63.8752 46.0369 63.8752 45.5519C63.8752 43.7543 65.3365 42.293 67.1341 42.293C68.9318 42.293 70.3931 43.7543 70.3931 45.5519C70.3931 46.0994 70.2471 46.6365 69.9564 47.1488L69.6513 47.6885L70.1754 48.0209C71.127 48.6232 71.6966 49.6504 71.6966 50.7662C71.6966 52.5639 70.2353 54.0252 68.4377 54.0252C66.8148 54.0252 65.4317 52.8024 65.2244 51.1821L65.1266 50.4221L14.7684 65.3649L15.1868 66.0819C15.4892 66.5994 15.6431 67.1495 15.6431 67.7127C15.6431 69.5103 14.1818 70.9716 12.3841 70.9716C10.5865 70.9716 9.12521 69.5103 9.12521 67.7127C9.12521 67.1652 9.27121 66.6281 9.56191 66.1158L9.86694 65.5761L9.34291 65.2437C8.3913 64.6427 7.82164 63.6155 7.82164 62.4984C7.82164 60.7007 9.28294 59.2394 11.0806 59.2394C12.6357 59.2394 13.9797 60.3475 14.2756 61.874L14.4125 62.5779L36.1952 56.1109C35.4365 55.9101 34.7469 55.6559 34.1303 55.3639L15.3654 60.9354C14.7188 59.1612 13.0164 57.9346 11.0806 57.9346C8.56467 57.9346 6.51807 59.9812 6.51807 62.4971C6.51807 63.8658 7.12553 65.1368 8.16969 65.9998C7.93896 66.5525 7.82164 67.126 7.82164 67.7127C7.82164 70.2285 9.86824 72.2752 12.3841 72.2752C14.9 72.2752 16.9466 70.2285 16.9466 67.7127C16.9466 67.1808 16.8528 66.6607 16.6638 66.1614L64.0903 52.0907C64.6613 53.9808 66.4159 55.3287 68.4377 55.3287C70.9536 55.3287 73.0002 53.2821 73.0002 50.7662C73.0002 49.3988 72.3927 48.1265 71.3486 47.2648Z" fill="#37474F"/>
<path d="M60.6161 27.7374C60.6161 16.2125 54.9677 4.5625 39.7589 4.5625C35.1117 4.5625 31.3652 5.66011 28.3918 7.50075C28.5769 7.88009 28.749 8.26464 28.9028 8.65962C31.6064 6.95586 35.1378 5.86607 39.7589 5.86607C57.902 5.86607 59.3125 22.6078 59.3125 27.7374C59.3125 31.2453 58.3635 34.8927 56.5698 38.2846L56.2778 38.836L56.5229 39.4083C56.824 40.1096 56.9778 40.8604 56.9778 41.6413C56.9778 44.7568 54.4358 47.291 51.3099 47.291C50.735 47.291 50.0963 47.1763 49.4653 46.9612L48.8878 46.7643L48.5228 46.9859C47.785 47.2219 47.5804 47.8724 47.5804 48.2426V50.254C46.9925 51.1326 44.7138 53.9535 39.7589 53.9535C34.7962 53.9535 32.5189 51.1235 31.9375 50.2553V48.2426C31.9375 47.875 31.7368 47.231 30.9989 46.9885L30.63 46.7643L30.0525 46.9612C29.4294 47.1736 28.7633 47.291 28.1728 47.291C25.0573 47.291 22.5231 44.7568 22.5231 41.6413C22.5231 40.8748 22.6782 40.1239 22.9859 39.4083L23.2309 38.836L22.9389 38.2846C21.3329 35.2499 20.4126 32.0014 20.2406 28.8207C19.8221 28.9914 19.3971 29.1518 18.9604 29.286C19.2029 32.6193 20.2093 35.9134 21.7866 38.8947C21.4242 39.7381 21.2169 40.6649 21.2169 41.6413C21.2169 45.4803 24.3325 48.5945 28.1702 48.5945C28.9536 48.5945 29.7684 48.4355 30.4723 48.1943C30.501 48.2126 30.6326 48.2243 30.6326 48.2413V50.6203C30.6326 50.6203 33.0951 55.2558 39.7576 55.2558C46.4202 55.2558 48.8826 50.6203 48.8826 50.6203V48.2413C48.8826 48.2243 49.0143 48.2126 49.043 48.1943C49.7469 48.4355 50.5251 48.5945 51.3086 48.5945C55.145 48.5945 58.2801 45.4803 58.2801 41.6413C58.2801 40.6649 58.0832 39.7381 57.7195 38.8947C59.5432 35.4519 60.6161 31.5921 60.6161 27.7374Z" fill="#37474F"/>
<path d="M14.3393 28.6786C6.43313 28.6786 0 22.2454 0 14.3393C0 6.43313 6.43313 0 14.3393 0C22.2454 0 28.6786 6.43313 28.6786 14.3393C28.6786 22.2454 22.2454 28.6786 14.3393 28.6786ZM14.3393 1.30357C7.15139 1.30357 1.30357 7.15139 1.30357 14.3393C1.30357 21.5272 7.15139 27.375 14.3393 27.375C21.5272 27.375 27.375 21.5272 27.375 14.3393C27.375 7.15139 21.5272 1.30357 14.3393 1.30357Z" fill="#37474F"/>
<path d="M6.44385 10.3751C6.44385 9.32707 6.70847 8.43543 7.23512 7.70151C7.76306 6.9663 8.52696 6.59869 9.5294 6.59869C10.451 6.59869 11.2136 6.9285 11.8185 7.5855C12.4233 8.2438 12.7258 9.21105 12.7258 10.4872C12.7258 11.7296 12.4194 12.6851 11.808 13.3577C11.1967 14.0277 10.4445 14.3641 9.54895 14.3641C8.65992 14.3641 7.91949 14.0356 7.32897 13.3734C6.73845 12.7111 6.44385 11.7113 6.44385 10.3751ZM9.58024 7.8423C9.13181 7.8423 8.75899 8.03523 8.46178 8.42369C8.16456 8.81216 8.01726 9.5213 8.01726 10.5563C8.01726 11.4988 8.16717 12.1623 8.46829 12.5443C8.76812 12.9301 9.13963 13.1205 9.58154 13.1205C10.0352 13.1205 10.4106 12.9275 10.7078 12.5404C11.005 12.1532 11.1537 11.4441 11.1537 10.4156C11.1537 9.46655 11.0037 8.80173 10.7026 8.41587C10.4015 8.03393 10.0274 7.8423 9.58024 7.8423ZM9.58937 22.0799L17.6259 6.6H19.0898L11.0833 22.0799H9.58937ZM15.943 18.091C15.943 17.0351 16.2063 16.1421 16.7342 15.4095C17.2622 14.6782 18.03 14.3145 19.039 14.3145C19.9606 14.3145 20.7232 14.643 21.328 15.3C21.9329 15.9596 22.2353 16.9256 22.2353 18.2018C22.2353 19.4441 21.929 20.3996 21.3176 21.0722C20.7062 21.7423 19.9502 22.0786 19.0481 22.0786C18.159 22.0786 17.4186 21.7475 16.8281 21.0814C16.2376 20.4179 15.943 19.4206 15.943 18.091ZM19.0898 15.5581C18.6348 15.5581 18.2594 15.7511 17.9622 16.1382C17.665 16.5254 17.5164 17.2358 17.5164 18.2722C17.5164 19.2068 17.6663 19.8691 17.9674 20.2562C18.2672 20.6434 18.6388 20.8376 19.0794 20.8376C19.5408 20.8376 19.9189 20.6447 20.2161 20.2562C20.5133 19.8677 20.6619 19.1612 20.6619 18.1327C20.6619 17.1837 20.512 16.5176 20.2109 16.133C19.911 15.7485 19.5369 15.5581 19.0898 15.5581Z" fill="#37474F"/>
</svg>
