<svg width="74" height="76" viewBox="0 0 74 76" fill="none" xmlns="http://www.w3.org/2000/svg">
<path d="M14.2088 32.2362L12.8511 31.9419C13.3481 29.6541 14.1657 27.4469 15.2846 25.3798L16.5049 26.042C15.4498 27.9924 14.678 30.0762 14.2088 32.2362Z" fill="#910000"/>
<path d="M12.6122 41.3373C12.3943 40.0005 12.2832 38.6303 12.2832 37.2671C12.2832 36.2717 12.3415 35.2708 12.4581 34.2921L13.8366 34.4559C13.727 35.3805 13.6714 36.3272 13.6714 37.2671C13.6714 38.5553 13.7769 39.8505 13.9838 41.1138L12.6122 41.3373Z" fill="#910000"/>
<path d="M17.1448 52.078C15.286 49.557 13.9338 46.75 13.1287 43.7348L14.4697 43.3766C15.2304 46.2225 16.5062 48.8726 18.2609 51.2534L17.1448 52.078Z" fill="#910000"/>
<path d="M25.2339 59.169C22.7254 57.7877 20.4876 55.9996 18.5815 53.8521L19.6199 52.9303C21.4204 54.9585 23.5347 56.6479 25.9044 57.9529L25.2339 59.169Z" fill="#910000"/>
<path d="M37.2709 62.2551C34.0045 62.2551 30.8282 61.6345 27.8311 60.4101L28.3558 59.1246C31.1864 60.281 34.1849 60.8668 37.2709 60.8668C44.2148 60.8668 50.7769 57.8266 55.2734 52.5264L56.3326 53.4232C51.571 59.0372 44.6229 62.2551 37.2709 62.2551Z" fill="#910000"/>
<path d="M58.0542 51.1451L56.9006 50.3733C59.498 46.4904 60.8709 41.9579 60.8709 37.2671C60.8709 33.7619 60.1199 30.3871 58.6415 27.24L59.8978 26.6486C61.4651 29.9831 62.2592 33.5564 62.2592 37.2671C62.2592 42.2341 60.8057 47.0332 58.0542 51.1451Z" fill="#910000"/>
<path d="M57.1613 24.5621C55.5107 21.9828 53.4048 19.7742 50.9019 17.9986L51.7042 16.8672C54.3544 18.7455 56.5838 21.0833 58.3316 23.8139L57.1613 24.5621Z" fill="#910000"/>
<path d="M48.7364 16.6354C47.0455 15.6942 45.2436 14.964 43.3806 14.4657L43.7388 13.1246C45.7128 13.6522 47.6216 14.4254 49.411 15.4207L48.7364 16.6354Z" fill="#910000"/>
<path d="M31.7461 14.3184L31.4226 12.9677C34.6266 12.2 38.0375 12.0737 41.2873 12.5998L41.0666 13.97C37.9944 13.4744 34.7696 13.5924 31.7461 14.3184Z" fill="#910000"/>
<path d="M23.786 17.8973L22.9919 16.759C24.8827 15.4402 26.9456 14.3893 29.1223 13.6382L29.5749 14.9501C27.5203 15.6595 25.5726 16.6507 23.786 17.8973Z" fill="#910000"/>
<path d="M17.8846 23.8055L16.7449 23.0128C17.9179 21.3275 19.2978 19.788 20.8457 18.4373L21.7577 19.4826C20.2959 20.7584 18.9924 22.2132 17.8846 23.8055Z" fill="#910000"/>
<path d="M39.3534 52.5375C37.4404 52.5375 35.8828 50.9799 35.8828 49.067C35.8828 47.154 37.4404 45.5964 39.3534 45.5964C41.2663 45.5964 42.8239 47.154 42.8239 49.067C42.8239 50.9799 41.2663 52.5375 39.3534 52.5375ZM39.3534 46.9847C38.2053 46.9847 37.271 47.9189 37.271 49.067C37.271 50.215 38.2053 51.1493 39.3534 51.1493C40.5014 51.1493 41.4357 50.215 41.4357 49.067C41.4357 47.9189 40.5014 46.9847 39.3534 46.9847Z" fill="#910000"/>
<path d="M26.8595 28.2437C24.9465 28.2437 23.3889 26.6861 23.3889 24.7732C23.3889 22.8602 24.9465 21.3026 26.8595 21.3026C28.7724 21.3026 30.33 22.8602 30.33 24.7732C30.33 26.6861 28.7724 28.2437 26.8595 28.2437ZM26.8595 22.6908C25.7114 22.6908 24.7771 23.6251 24.7771 24.7732C24.7771 25.9212 25.7114 26.8555 26.8595 26.8555C28.0075 26.8555 28.9418 25.9212 28.9418 24.7732C28.9418 23.6251 28.0075 22.6908 26.8595 22.6908Z" fill="#910000"/>
<path d="M26.8595 44.2082C24.9465 44.2082 23.3889 42.6506 23.3889 40.7376C23.3889 38.8247 24.9465 37.2671 26.8595 37.2671C28.7724 37.2671 30.33 38.8247 30.33 40.7376C30.33 42.6506 28.7724 44.2082 26.8595 44.2082ZM26.8595 38.6553C25.7114 38.6553 24.7771 39.5896 24.7771 40.7376C24.7771 41.8857 25.7114 42.82 26.8595 42.82C28.0075 42.82 28.9418 41.8857 28.9418 40.7376C28.9418 39.5896 28.0075 38.6553 26.8595 38.6553Z" fill="#910000"/>
<path d="M46.2945 30.326C44.3816 30.326 42.824 28.7685 42.824 26.8555C42.824 24.9425 44.3816 23.3849 46.2945 23.3849C48.2075 23.3849 49.7651 24.9425 49.7651 26.8555C49.7651 28.7685 48.2075 30.326 46.2945 30.326ZM46.2945 24.7732C45.1465 24.7732 44.2122 25.7074 44.2122 26.8555C44.2122 28.0036 45.1465 28.9378 46.2945 28.9378C47.4426 28.9378 48.3768 28.0036 48.3768 26.8555C48.3768 25.7074 47.4426 24.7732 46.2945 24.7732Z" fill="#910000"/>
<path d="M48.3768 44.2082C46.0807 44.2082 44.2122 42.3397 44.2122 40.0436C44.2122 37.7474 46.0807 35.8789 48.3768 35.8789C50.6729 35.8789 52.5415 37.7474 52.5415 40.0436C52.5415 42.3397 50.6729 44.2082 48.3768 44.2082ZM48.3768 37.2671C46.8456 37.2671 45.6004 38.5124 45.6004 40.0436C45.6004 41.5748 46.8456 42.82 48.3768 42.82C49.908 42.82 51.1533 41.5748 51.1533 40.0436C51.1533 38.5124 49.908 37.2671 48.3768 37.2671Z" fill="#910000"/>
<path d="M37.2711 37.2671C34.975 37.2671 33.1064 35.3986 33.1064 33.1025C33.1064 30.8063 34.975 28.9378 37.2711 28.9378C39.5672 28.9378 41.4358 30.8063 41.4358 33.1025C41.4358 35.3986 39.5672 37.2671 37.2711 37.2671ZM37.2711 30.326C35.7399 30.326 34.4947 31.5713 34.4947 33.1025C34.4947 34.6337 35.7399 35.8789 37.2711 35.8789C38.8023 35.8789 40.0475 34.6337 40.0475 33.1025C40.0475 31.5713 38.8023 30.326 37.2711 30.326Z" fill="#910000"/>
<path d="M26.5998 9.78176C24.7577 9.78176 23.1585 8.59761 22.6198 6.83597C21.9479 4.64119 23.1862 2.3076 25.381 1.6357C25.7794 1.51492 26.1889 1.45245 26.6012 1.45245C28.4434 1.45245 30.0426 2.6366 30.5813 4.39825C30.9075 5.46163 30.7992 6.58886 30.2772 7.57033C29.7553 8.55319 28.8821 9.27368 27.8187 9.59852C27.4231 9.72068 27.0122 9.78176 26.5998 9.78176ZM26.6012 2.84067C26.3264 2.84067 26.0529 2.88093 25.7877 2.96283C24.3246 3.41123 23.4986 4.96603 23.947 6.42922C24.3856 7.86602 25.9557 8.71561 27.4133 8.27138C28.1227 8.05482 28.7044 7.5745 29.0528 6.91926C29.4013 6.26402 29.4721 5.51299 29.2555 4.805C28.896 3.63057 27.8298 2.84067 26.6012 2.84067Z" fill="#910000"/>
<path d="M31.4083 18.8634L28.0767 8.06482L26.7502 8.47407L30.0819 19.2726L31.4083 18.8634Z" fill="#910000"/>
<path d="M40.3043 75.0933C38.737 75.0933 37.3585 74.0355 36.9532 72.5195C36.459 70.6704 37.5598 68.7644 39.4075 68.2688C41.2261 67.7774 43.1738 68.9143 43.6583 70.7232C44.1525 72.5723 43.0516 74.4783 41.2039 74.9739C40.9096 75.053 40.6056 75.0933 40.3043 75.0933ZM40.3071 69.539C40.1266 69.539 39.9434 69.564 39.7657 69.6112C38.6565 69.9083 37.9971 71.0522 38.2928 72.1614C38.5829 73.247 39.7477 73.9272 40.843 73.6343C41.9521 73.3372 42.6115 72.1919 42.3159 71.0841C42.0715 70.1734 41.2455 69.539 40.3071 69.539Z" fill="#910000"/>
<path d="M40.2756 68.8831L39.3494 57.1655L37.9655 57.2749L38.8917 68.9925L40.2756 68.8831Z" fill="#910000"/>
<path d="M46.3291 6.93729C46.0264 6.93729 45.7238 6.89703 45.4295 6.8179C43.5818 6.3237 42.4809 4.41628 42.9751 2.56718C43.4582 0.759716 45.4059 -0.37307 47.2259 0.112806C49.075 0.6084 50.1758 2.51442 49.6802 4.36353C49.2735 5.87947 47.8964 6.93729 46.3291 6.93729ZM46.3263 1.38303C45.3865 1.38303 44.5605 2.01744 44.3162 2.92672C44.0191 4.03591 44.6799 5.1798 45.7891 5.47688C46.8844 5.7698 48.0477 5.08818 48.3392 4.00398C48.6363 2.89479 47.9755 1.7509 46.8663 1.45383C46.69 1.40663 46.5068 1.38303 46.3263 1.38303Z" fill="#910000"/>
<path d="M46.2791 6.32723L44.9382 5.96796L41.2712 19.6543L42.612 20.0136L46.2791 6.32723Z" fill="#910000"/>
<path d="M24.5066 71.831C24.0401 71.831 23.5848 71.7379 23.1517 71.5547C21.39 70.8065 20.5654 68.7658 21.3123 67.0041C22.0411 65.2897 24.1415 64.4345 25.8629 65.1647C26.7166 65.5271 27.3774 66.2003 27.7245 67.0596C28.0715 67.919 28.0632 68.8616 27.7009 69.7153C27.1581 71.0008 25.9031 71.831 24.5066 71.831ZM24.5093 66.2767C23.6709 66.2767 22.9184 66.7751 22.5922 67.5469C22.1438 68.6033 22.6394 69.8291 23.6958 70.2775C24.7356 70.7176 25.9892 70.2026 26.4251 69.1739C26.643 68.6617 26.6472 68.0966 26.439 67.5802C26.2307 67.0638 25.8337 66.6612 25.3215 66.4447C25.0619 66.3336 24.7884 66.2767 24.5093 66.2767Z" fill="#910000"/>
<path d="M31.7643 53.0304L30.4863 52.4883L24.9531 65.5328L26.2311 66.0749L31.7643 53.0304Z" fill="#910000"/>
<path d="M57.2862 13.5619C56.3589 13.5619 55.4871 13.201 54.8319 12.5457C54.1766 11.8905 53.8157 11.0187 53.8157 10.0913C53.8157 9.16401 54.1766 8.29221 54.8319 7.63697C56.1409 6.32649 58.4301 6.32649 59.7392 7.63697C60.3944 8.29221 60.7554 9.16401 60.7554 10.0913C60.7554 11.0187 60.3944 11.8905 59.7392 12.5457C59.0854 13.201 58.2135 13.5619 57.2862 13.5619ZM57.2862 8.00901C56.7295 8.00901 56.2076 8.22558 55.8133 8.61844C55.4191 9.01131 55.2039 9.53467 55.2039 10.0913C55.2039 10.648 55.4205 11.17 55.8133 11.5642C56.5991 12.35 57.972 12.35 58.7577 11.5642C59.1506 11.1714 59.3672 10.648 59.3672 10.0913C59.3672 9.53467 59.1506 9.0127 58.7577 8.61844C58.3649 8.22419 57.8429 8.00901 57.2862 8.00901Z" fill="#910000"/>
<path d="M55.8772 12.4748L54.7683 11.6396L50.3111 17.5579L51.42 18.393L55.8772 12.4748Z" fill="#910000"/>
<path d="M10.0412 65.4507C8.92782 65.4507 7.88249 65.0162 7.09676 64.2305C5.47393 62.6077 5.47393 59.9645 7.09676 58.3403C8.66961 56.7674 11.4127 56.7674 12.987 58.3403C14.6098 59.9645 14.6098 62.6063 12.987 64.2305C12.1985 65.0176 11.1531 65.4507 10.0412 65.4507ZM10.0412 58.5096C9.29986 58.5096 8.60159 58.7984 8.07823 59.3218C6.99542 60.4046 6.99542 62.1662 8.07823 63.249C9.12633 64.2985 10.956 64.2985 12.0055 63.249C13.0883 62.1662 13.0883 60.4046 12.0055 59.3218C11.4794 58.7984 10.7825 58.5096 10.0412 58.5096Z" fill="#910000"/>
<path d="M20.2627 53.7787L19.4099 52.6832L11.5786 58.7798L12.4314 59.8752L20.2627 53.7787Z" fill="#910000"/>
<path d="M69.6817 26.8554C67.8021 26.8554 66.1487 25.5852 65.6615 23.768C65.3727 22.6935 65.5212 21.5719 66.0765 20.6084C66.6332 19.645 67.53 18.9565 68.6045 18.6691C70.7895 18.0833 73.1231 19.4451 73.7034 21.6135C73.9922 22.688 73.8436 23.8097 73.2883 24.7731C72.733 25.7365 71.8349 26.4251 70.7604 26.7124C70.4092 26.8068 70.0441 26.8554 69.6817 26.8554ZM69.6859 19.9143C69.4443 19.9143 69.2014 19.9463 68.9654 20.0101C68.2491 20.2017 67.6508 20.6612 67.2801 21.3025C66.9095 21.9453 66.8109 22.6922 67.0025 23.4099C67.3898 24.855 68.9404 25.7629 70.4022 25.3728C71.1185 25.1812 71.7169 24.7217 72.0875 24.0804C72.4582 23.4376 72.5567 22.6908 72.3652 21.9731C72.0403 20.7611 70.9381 19.9143 69.6859 19.9143Z" fill="#910000"/>
<path d="M67.2832 24.0436L66.7195 22.775L52.2199 29.2188L52.7837 30.4873L67.2832 24.0436Z" fill="#910000"/>
<path d="M3.46937 49.7943C1.90207 49.7943 0.523567 48.7365 0.118208 47.2206C-0.375998 45.3715 0.724859 43.4654 2.57258 42.9698C4.3967 42.4826 6.33882 43.6167 6.8233 45.4242C7.3189 47.2719 6.21804 49.1793 4.36893 49.6749C4.07324 49.7554 3.772 49.7943 3.46937 49.7943ZM3.47214 44.2414C3.29167 44.2414 3.10982 44.265 2.93213 44.3122C1.82294 44.6093 1.16215 45.7532 1.45923 46.8624C1.75075 47.9466 2.9113 48.6296 4.00938 48.3353C5.11857 48.0382 5.77936 46.8929 5.48228 45.7851C5.23796 44.8759 4.41197 44.2414 3.47214 44.2414Z" fill="#910000"/>
<path d="M20.0194 42.6068L19.6602 41.2659L5.97379 44.933L6.33306 46.2739L20.0194 42.6068Z" fill="#910000"/>
<path d="M70.3787 51.8768C70.0761 51.8768 69.7735 51.8365 69.4792 51.7588C67.63 51.2632 66.5292 49.3557 67.0248 47.508C67.5079 45.7006 69.45 44.5678 71.2755 45.0537C72.1709 45.2938 72.9192 45.8672 73.3828 46.6709C73.8465 47.4747 73.9686 48.409 73.7299 49.3044C73.3245 50.8189 71.946 51.8768 70.3787 51.8768ZM70.3759 46.3239C69.4361 46.3239 68.6101 46.9583 68.3658 47.8676C68.0687 48.9768 68.7295 50.1207 69.8387 50.4177C70.9396 50.7134 72.0987 50.029 72.3889 48.9448C72.5332 48.4076 72.4597 47.8468 72.1806 47.365C71.903 46.8833 71.4546 46.5391 70.916 46.3947C70.7383 46.3475 70.5578 46.3239 70.3759 46.3239Z" fill="#910000"/>
<path d="M67.8792 47.0189L60.2419 44.9276L59.8753 46.2665L67.5126 48.3578L67.8792 47.0189Z" fill="#910000"/>
<path d="M6.58746 36.5729C6.28482 36.5729 5.98219 36.5326 5.68789 36.4549C3.83878 35.9593 2.73793 34.0519 3.23352 32.2042C3.71662 30.3967 5.66429 29.2625 7.48424 29.7498C9.33335 30.2454 10.4342 32.1514 9.93861 34.0005C9.53325 35.5151 8.15475 36.5729 6.58746 36.5729ZM6.58468 31.02C5.64486 31.02 4.81886 31.6544 4.57454 32.5637C4.27746 33.6729 4.93825 34.8168 6.04744 35.1139C7.13997 35.4068 8.30746 34.7252 8.5976 33.641C8.89467 32.5318 8.23388 31.3879 7.1247 31.0908C6.94839 31.0436 6.76515 31.02 6.58468 31.02Z" fill="#910000"/>
<path d="M13.9614 33.803L9.36792 33.1332L9.1676 34.5068L13.7611 35.1767L13.9614 33.803Z" fill="#910000"/>
<path d="M3.81084 24.079C3.50821 24.079 3.20558 24.0387 2.91128 23.961C1.06217 23.4654 -0.038686 21.558 0.456908 19.7103C0.941396 17.9028 2.88629 16.7672 4.70763 17.2559C6.55674 17.7515 7.6576 19.6575 7.162 21.5066C6.75664 23.0212 5.37814 24.079 3.81084 24.079ZM3.80807 18.5261C2.86824 18.5261 2.04225 19.1605 1.79793 20.0698C1.50085 21.179 2.16164 22.3229 3.27083 22.62C4.36613 22.9129 5.52946 22.2313 5.82098 21.1471C6.11806 20.0379 5.45727 18.894 4.34808 18.5969C4.17178 18.5497 3.98854 18.5261 3.80807 18.5261Z" fill="#910000"/>
<path d="M20.1313 26.9178L6.78491 20.696L6.19839 21.9541L19.5448 28.176L20.1313 26.9178Z" fill="#910000"/>
<path d="M64.1913 63.3684C63.3584 63.3684 62.5532 63.0686 61.923 62.5244C61.2219 61.9177 60.7985 61.0751 60.7305 60.1505C60.6625 59.226 60.9596 58.3306 61.5662 57.6295C62.7712 56.2385 65.0673 56.0664 66.4611 57.2727C67.909 58.5235 68.0686 60.7197 66.8178 62.1676C66.1584 62.9311 65.2006 63.3684 64.1913 63.3684ZM64.1941 57.8155C63.5875 57.8155 63.0127 58.0779 62.6171 58.5374C62.2534 58.958 62.0757 59.4953 62.1159 60.0506C62.1562 60.6045 62.4102 61.1112 62.8309 61.4749C63.668 62.1981 65.0465 62.0968 65.7683 61.2611C66.5194 60.3935 66.4236 59.0746 65.5546 58.3236C65.177 57.996 64.6925 57.8155 64.1941 57.8155Z" fill="#910000"/>
<path d="M62.5322 57.5437L52.2881 49.2225L51.4128 50.3001L61.6569 58.6213L62.5322 57.5437Z" fill="#910000"/>
<path d="M13.9185 14.6364C12.9912 14.6364 12.1194 14.2754 11.4642 13.6202C10.8089 12.9649 10.448 12.0931 10.448 11.1658C10.448 10.2385 10.8089 9.36667 11.4642 8.71144C12.7733 7.40096 15.0624 7.40096 16.3715 8.71144C17.0268 9.36667 17.3877 10.2385 17.3877 11.1658C17.3877 12.0917 17.0268 12.9635 16.3715 13.6202C15.7177 14.2754 14.8459 14.6364 13.9185 14.6364ZM13.9185 9.08348C13.3619 9.08348 12.8399 9.30004 12.4456 9.69291C12.0514 10.0858 11.8362 10.6091 11.8362 11.1658C11.8362 11.7225 12.0528 12.2445 12.4456 12.6387C13.2314 13.4244 14.6043 13.4244 15.3901 12.6387C15.7829 12.2458 15.9995 11.7225 15.9995 11.1658C15.9995 10.6091 15.7829 10.0872 15.3901 9.69291C14.9972 9.29865 14.4752 9.08348 13.9185 9.08348Z" fill="#910000"/>
<path d="M22.2089 19.0564L16.3938 12.6604L15.3667 13.5943L21.1818 19.9903L22.2089 19.0564Z" fill="#910000"/>
<path d="M52.5415 21.9967H51.1533V23.3849H52.5415V21.9967Z" fill="#910000"/>
<path d="M34.4947 41.4318H33.1064V42.82H34.4947V41.4318Z" fill="#910000"/>
<path d="M27.5535 52.5375H26.1653V53.9258H27.5535V52.5375Z" fill="#910000"/>
<path d="M23.389 48.3729H22.0007V49.7611H23.389V48.3729Z" fill="#910000"/>
<path d="M27.5535 46.9846H26.1653V48.3728H27.5535V46.9846Z" fill="#910000"/>
<path d="M46.9886 52.5375H45.6003V53.9258H46.9886V52.5375Z" fill="#910000"/>
<path d="M48.3767 48.3729H46.9885V49.7611H48.3767V48.3729Z" fill="#910000"/>
<path d="M58.0943 40.0435H56.7061V41.4317H58.0943V40.0435Z" fill="#910000"/>
<path d="M56.7061 34.4907H55.3179V35.8789H56.7061V34.4907Z" fill="#910000"/>
<path d="M34.4947 24.7731H33.1064V26.1614H34.4947V24.7731Z" fill="#910000"/>
<path d="M38.6592 21.9967H37.271V23.3849H38.6592V21.9967Z" fill="#910000"/>
<path d="M37.271 19.2203H35.8828V20.6085H37.271V19.2203Z" fill="#910000"/>
<path d="M40.0476 40.0435H38.6594V41.4317H40.0476V40.0435Z" fill="#910000"/>
<path d="M19.2242 34.4907H17.8359V35.8789H19.2242V34.4907Z" fill="#910000"/>
<path d="M23.389 30.326H22.0007V31.7142H23.389V30.326Z" fill="#910000"/>
<path d="M52.5399 69.3668C50.9726 69.3668 49.5941 68.309 49.1888 66.7931C48.6946 64.9439 49.7954 63.0379 51.6431 62.5423C53.4617 62.0523 55.4094 63.1878 55.8939 64.9967C56.3881 66.8458 55.2872 68.7518 53.4395 69.2474C53.1452 69.3266 52.8426 69.3668 52.5399 69.3668ZM52.5427 63.8126C52.3622 63.8126 52.179 63.8375 52.0013 63.8847C50.8921 64.1818 50.2313 65.3257 50.5284 66.4349C50.8199 67.5191 51.9846 68.2021 53.0786 67.9078C54.1877 67.6107 54.8485 66.4654 54.5515 65.3576C54.3085 64.447 53.4825 63.8126 52.5427 63.8126Z" fill="#910000"/>
<path d="M51.7483 63.1484L48.9709 58.5219L47.7807 59.2364L50.558 63.863L51.7483 63.1484Z" fill="#910000"/>
<path d="M67.966 39.6271C66.1183 39.6271 64.5968 38.1806 64.5024 36.3329C64.4552 35.4069 64.7717 34.5185 65.3936 33.8299C66.0142 33.1414 66.8665 32.7374 67.7925 32.6902L67.9716 32.686C69.8193 32.686 71.3408 34.1326 71.4352 35.9803C71.4824 36.9062 71.1659 37.7947 70.5453 38.4832C69.9234 39.1718 69.071 39.5758 68.1451 39.623L67.966 39.6271ZM67.9716 34.0743C67.3066 34.1048 66.7957 34.3477 66.4237 34.7614C66.0517 35.1751 65.8615 35.7068 65.8892 36.2635C65.9462 37.3713 66.8582 38.2389 67.966 38.2389L68.0743 38.2361C68.6296 38.2084 69.1418 37.9654 69.5139 37.5517C69.8859 37.1381 70.0761 36.6064 70.047 36.0511C69.9914 34.9419 69.0794 34.0743 67.9716 34.0743Z" fill="#910000"/>
<path d="M65.216 35.6055L61.4104 35.4753L61.3629 36.8627L65.1685 36.9929L65.216 35.6055Z" fill="#910000"/>
</svg>
