<?xml version="1.0" encoding="UTF-8"?>
<!DOCTYPE svg PUBLIC "-//W3C//DTD SVG 1.1//EN" "http://www.w3.org/Graphics/SVG/1.1/DTD/svg11.dtd">
<svg version="1.1" xmlns="http://www.w3.org/2000/svg" xmlns:xlink="http://www.w3.org/1999/xlink" x="0" y="0" width="612" height="792" viewBox="0, 0, 612, 792">
  <g id="Layer_1">
    <g>
      <path d="M393.697,411.828 C397.302,406.008 399.106,398.745 399.106,392.452 C399.106,382.965 395.188,374.151 388.466,368.174 C389.953,364.35 390.705,360.372 390.705,356.305 C390.705,343.719 383.877,331.994 373.725,326.519 C375.265,312.777 366.941,300.18 354.604,296.967 C349.776,284.96 339.029,276.78 327.698,276.78 C317.151,276.78 307.691,283.398 302.495,293.054 C297.299,283.398 287.84,276.78 277.293,276.78 C265.961,276.78 255.214,284.96 250.387,296.968 C237.976,300.201 229.73,312.86 231.266,326.519 C221.114,331.994 214.286,343.719 214.286,356.305 C214.286,360.372 215.037,364.35 216.525,368.174 C209.802,374.152 205.885,382.965 205.885,392.452 C205.885,398.778 207.703,406.031 211.294,411.828 C207.785,417.155 205.885,423.469 205.885,429.955 C205.885,438.367 209.055,446.38 214.663,452.33 C211.78,471.078 225.679,490.05 243.689,490.05 C243.819,490.05 243.947,490.048 244.073,490.044 C250.044,501.124 261.127,508.124 273.092,508.124 C285.562,508.124 296.706,500.072 302.495,488.472 C308.285,500.072 319.428,508.124 331.899,508.124 C343.864,508.124 354.947,501.124 360.918,490.044 C361.044,490.048 361.172,490.05 361.302,490.05 C377.24,490.05 390.705,474.945 390.705,457.066 C390.705,455.544 390.581,453.978 390.328,452.33 C395.936,446.38 399.106,438.367 399.106,429.955 C399.106,423.469 397.205,417.155 393.697,411.828 z M298.295,345.181 C295.822,343.638 292.953,342.749 289.894,342.749 C287.574,342.749 285.694,344.772 285.694,347.268 C285.694,349.763 287.574,351.786 289.894,351.786 C294.526,351.786 298.295,355.84 298.295,360.823 L298.295,446.75 C292.132,439.231 283.122,434.474 273.092,434.474 C270.772,434.474 268.892,436.497 268.892,438.992 C268.892,441.488 270.772,443.511 273.092,443.511 C286.989,443.511 298.295,455.672 298.295,470.621 C298.295,486.051 286.753,499.087 273.092,499.087 C263.367,499.087 254.415,492.901 250.284,483.327 C249.523,481.563 247.798,480.522 246,480.74 C245.703,480.776 245.407,480.819 245.112,480.862 C233.157,482.621 219.695,468.059 223.339,451.769 C223.714,450.096 223.172,448.34 221.942,447.24 C217.076,442.884 214.286,436.584 214.286,429.955 C214.286,425.857 215.363,421.846 217.368,418.328 C222.406,422.77 228.673,425.437 235.288,425.437 C237.608,425.437 239.488,423.414 239.488,420.918 C239.488,418.423 237.608,416.4 235.288,416.4 C223.888,416.4 214.286,405.208 214.286,392.452 C214.286,384.714 217.952,377.596 224.095,373.411 C225.987,372.121 226.606,369.461 225.5,367.365 C223.633,363.823 222.687,360.102 222.687,356.305 C222.687,344.109 231.928,332.357 243.689,332.357 C254.877,332.357 264.691,343.548 264.691,356.305 C264.691,358.8 266.572,360.823 268.892,360.823 C271.212,360.823 273.092,358.8 273.092,356.305 C273.092,338.425 259.627,323.32 243.689,323.32 C242.283,323.32 240.884,323.443 239.499,323.674 C239.497,323.556 239.488,323.44 239.488,323.32 C239.488,313.236 247.098,305.246 256.29,305.246 C260.777,305.246 264.998,307.126 268.174,310.54 C269.815,312.303 272.475,312.301 274.115,310.537 C275.754,308.771 275.753,305.91 274.112,304.147 C270.28,300.029 265.433,297.403 260.18,296.533 C263.884,290.617 270.044,285.817 277.293,285.817 C288.481,285.817 298.295,297.007 298.295,309.765 L298.295,345.181 z M369.703,425.437 C376.319,425.437 382.585,422.77 387.623,418.33 C389.628,421.846 390.705,425.857 390.705,429.955 C390.705,436.584 387.914,442.884 383.049,447.24 C381.819,448.34 381.278,450.097 381.652,451.769 C382.097,453.759 382.304,455.442 382.304,457.065 C382.304,471.091 370.512,482.426 359.879,480.862 C359.584,480.819 359.288,480.776 358.991,480.74 C357.191,480.521 355.468,481.563 354.707,483.327 C350.577,492.901 341.623,499.087 331.899,499.087 C318.237,499.087 306.696,486.051 306.696,470.621 C306.696,455.672 318.002,443.511 331.899,443.511 C334.218,443.511 336.099,441.488 336.099,438.992 C336.099,436.497 334.218,434.474 331.899,434.474 C321.869,434.474 312.858,439.231 306.696,446.75 L306.696,360.823 C306.696,355.84 310.465,351.786 315.097,351.786 C317.416,351.786 319.297,349.763 319.297,347.268 C319.297,344.772 317.416,342.749 315.097,342.749 C312.038,342.749 309.169,343.638 306.696,345.181 L306.696,309.765 C306.696,297.007 316.51,285.817 327.698,285.817 C334.947,285.817 341.106,290.617 344.811,296.532 C339.558,297.402 334.712,300.028 330.879,304.146 C329.238,305.91 329.236,308.77 330.875,310.536 C332.515,312.302 335.175,312.303 336.816,310.54 C339.993,307.126 344.214,305.246 348.701,305.246 C357.939,305.246 365.502,313.283 365.502,323.32 C365.502,323.439 365.494,323.556 365.492,323.674 C364.107,323.443 362.708,323.32 361.302,323.32 C345.364,323.32 331.899,338.425 331.899,356.305 C331.899,358.8 333.78,360.823 336.099,360.823 C338.419,360.823 340.3,358.8 340.3,356.305 C340.3,343.548 350.114,332.357 361.302,332.357 C373.056,332.357 382.304,344.104 382.304,356.305 C382.304,360.102 381.358,363.823 379.49,367.365 C378.386,369.461 379.004,372.121 380.897,373.411 C387.039,377.596 390.705,384.714 390.705,392.452 C390.705,405.253 381.069,416.4 369.703,416.4 C367.383,416.4 365.502,418.423 365.502,420.918 C365.502,423.414 367.383,425.437 369.703,425.437 z" fill="#910000"/>
      <path d="M288.824,373.499 C287.278,371.639 284.622,371.48 282.893,373.144 C269.423,386.105 247.889,375.746 247.889,356.305 C247.889,353.809 246.009,351.786 243.689,351.786 C241.369,351.786 239.488,353.809 239.488,356.305 C239.488,371.99 250.161,385.04 264.103,387.508 C262.486,392.988 257.713,396.971 252.09,396.971 C249.77,396.971 247.889,398.993 247.889,401.489 C247.889,403.985 249.77,406.007 252.09,406.007 C262.321,406.007 270.862,398.096 272.715,387.662 C278.557,386.84 284.055,384.151 288.494,379.879 C290.223,378.215 290.371,375.359 288.824,373.499 z" fill="#910000"/>
      <path d="M243.689,452.547 C241.369,452.547 239.488,454.57 239.488,457.066 C239.488,459.561 241.369,461.584 243.689,461.584 C254.877,461.584 264.691,472.775 264.691,485.532 C264.691,488.028 266.572,490.051 268.892,490.051 C271.212,490.051 273.092,488.028 273.092,485.532 C273.092,467.653 259.627,452.547 243.689,452.547 z" fill="#910000"/>
      <path d="M277.293,416.4 C263.059,416.4 250.838,424.797 244.403,437.008 C243.259,439.179 243.968,441.936 245.986,443.167 C248.004,444.397 250.567,443.635 251.711,441.464 C256.725,431.95 266.237,425.437 277.293,425.437 C279.613,425.437 281.493,423.414 281.493,420.918 C281.493,418.423 279.613,416.4 277.293,416.4 z" fill="#910000"/>
      <path d="M352.901,396.971 C347.278,396.971 342.505,392.988 340.888,387.508 C354.83,385.04 365.503,371.99 365.503,356.305 C365.503,353.809 363.621,351.786 361.302,351.786 C358.982,351.786 357.102,353.809 357.102,356.305 C357.102,368.762 347.68,378.897 336.099,378.897 C330.926,378.897 325.954,376.854 322.098,373.144 C320.369,371.48 317.713,371.638 316.167,373.499 C314.62,375.359 314.768,378.215 316.497,379.879 C320.936,384.151 326.435,386.84 332.276,387.662 C334.129,398.096 342.67,406.007 352.901,406.007 C355.221,406.007 357.102,403.985 357.102,401.489 C357.102,398.993 355.221,396.971 352.901,396.971 z" fill="#910000"/>
      <path d="M361.302,452.547 C345.364,452.547 331.899,467.653 331.899,485.532 C331.899,488.028 333.78,490.051 336.099,490.051 C338.419,490.051 340.3,488.028 340.3,485.532 C340.3,472.775 350.114,461.584 361.302,461.584 C363.621,461.584 365.502,459.561 365.502,457.066 C365.502,454.57 363.621,452.547 361.302,452.547 z" fill="#910000"/>
      <path d="M360.588,437.008 C354.169,424.827 341.965,416.4 327.698,416.4 C325.379,416.4 323.498,418.423 323.498,420.918 C323.498,423.414 325.379,425.437 327.698,425.437 C338.746,425.437 348.265,431.948 353.279,441.464 C354.424,443.638 356.989,444.396 359.004,443.167 C361.023,441.937 361.731,439.179 360.588,437.008 z" fill="#910000"/>
    </g>
    <path d="M109.596,108.193 C87.043,108.193 68.693,126.205 68.693,148.346 C68.693,170.487 87.041,188.5 109.596,188.5 C132.152,188.5 150.5,170.488 150.5,148.346 C150.5,126.205 132.15,108.193 109.596,108.193 z M109.596,177.763 C93.075,177.763 79.63,164.565 79.63,148.346 C79.63,132.127 93.075,118.93 109.596,118.93 C126.118,118.93 139.563,132.127 139.563,148.346 C139.563,164.565 126.118,177.763 109.596,177.763 z" fill="#232224"/>
    <g>
      <path d="M133.986,178.545 L133.986,178.545 C135.006,177.828 136.438,178.108 137.182,179.168 L210.632,283.78 C211.377,284.841 211.153,286.282 210.133,286.998 L210.133,286.998 C209.112,287.715 207.681,287.436 206.937,286.375 L133.487,181.763 C132.742,180.702 132.965,179.261 133.986,178.545 z" fill="#232224"/>
      <path d="M133.986,178.545 L133.986,178.545 C135.006,177.828 136.438,178.108 137.182,179.168 L210.632,283.78 C211.377,284.841 211.153,286.282 210.133,286.998 L210.133,286.998 C209.112,287.715 207.681,287.436 206.937,286.375 L133.487,181.763 C132.742,180.702 132.965,179.261 133.986,178.545 z" fill-opacity="0" stroke="#232224" stroke-width="1"/>
    </g>
    <g>
      <path d="M463.047,181.488 L463.047,181.488 C464.039,182.243 464.208,183.691 463.423,184.723 L386.025,286.448 C385.24,287.479 383.799,287.704 382.807,286.949 L382.807,286.949 C381.815,286.194 381.646,284.745 382.431,283.714 L459.829,181.988 C460.614,180.957 462.055,180.733 463.047,181.488 z" fill="#232224"/>
      <path d="M463.047,181.488 L463.047,181.488 C464.039,182.243 464.208,183.691 463.423,184.723 L386.025,286.448 C385.24,287.479 383.799,287.704 382.807,286.949 L382.807,286.949 C381.815,286.194 381.646,284.745 382.431,283.714 L459.829,181.988 C460.614,180.957 462.055,180.733 463.047,181.488 z" fill-opacity="0" stroke="#232224" stroke-width="1"/>
    </g>
    <g>
      <path d="M512.63,398.577 L512.63,398.577 C512.639,399.63 511.951,400.489 511.094,400.496 L426.586,401.198 C425.729,401.205 425.027,400.358 425.018,399.305 L425.018,399.305 C425.01,398.253 425.697,397.394 426.554,397.387 L511.062,396.685 C511.919,396.678 512.621,397.525 512.63,398.577 z" fill="#232224"/>
      <path d="M512.63,398.577 L512.63,398.577 C512.639,399.63 511.951,400.489 511.094,400.496 L426.586,401.198 C425.729,401.205 425.027,400.358 425.018,399.305 L425.018,399.305 C425.01,398.253 425.697,397.394 426.554,397.387 L511.062,396.685 C511.919,396.678 512.621,397.525 512.63,398.577 z" fill-opacity="0" stroke="#232224" stroke-width="1"/>
    </g>
    <g>
      <path d="M87.394,395.77 L87.394,395.77 C87.4,394.718 88.099,393.868 88.956,393.873 L173.466,394.316 C174.323,394.321 175.013,395.178 175.007,396.23 L175.007,396.23 C175.002,397.282 174.303,398.132 173.446,398.127 L88.936,397.684 C88.079,397.679 87.389,396.822 87.394,395.77 z" fill="#232224"/>
      <path d="M87.394,395.77 L87.394,395.77 C87.4,394.718 88.099,393.868 88.956,393.873 L173.466,394.316 C174.323,394.321 175.013,395.178 175.007,396.23 L175.007,396.23 C175.002,397.282 174.303,398.132 173.446,398.127 L88.936,397.684 C88.079,397.679 87.389,396.822 87.394,395.77 z" fill-opacity="0" stroke="#232224" stroke-width="1"/>
    </g>
    <g>
      <path d="M465.155,627.137 L465.155,627.137 C464.135,627.854 462.704,627.577 461.958,626.516 L388.419,521.968 C387.673,520.908 387.895,519.467 388.915,518.749 L388.915,518.749 C389.935,518.032 391.366,518.31 392.112,519.37 L465.652,623.919 C466.397,624.979 466.175,626.42 465.155,627.137 z" fill="#232224"/>
      <path d="M465.155,627.137 L465.155,627.137 C464.135,627.854 462.704,627.577 461.958,626.516 L388.419,521.968 C387.673,520.908 387.895,519.467 388.915,518.749 L388.915,518.749 C389.935,518.032 391.366,518.31 392.112,519.37 L465.652,623.919 C466.397,624.979 466.175,626.42 465.155,627.137 z" fill-opacity="0" stroke="#232224" stroke-width="1"/>
    </g>
    <g>
      <path d="M131.985,625.708 L131.985,625.708 C130.992,624.954 130.822,623.506 131.606,622.474 L208.917,520.682 C209.701,519.65 211.141,519.424 212.134,520.178 L212.134,520.178 C213.127,520.932 213.297,522.381 212.513,523.413 L135.202,625.205 C134.418,626.237 132.978,626.462 131.985,625.708 z" fill="#232224"/>
      <path d="M131.985,625.708 L131.985,625.708 C130.992,624.954 130.822,623.506 131.606,622.474 L208.917,520.682 C209.701,519.65 211.141,519.424 212.134,520.178 L212.134,520.178 C213.127,520.932 213.297,522.381 212.513,523.413 L135.202,625.205 C134.418,626.237 132.978,626.462 131.985,625.708 z" fill-opacity="0" stroke="#232224" stroke-width="1"/>
    </g>
    <path d="M109.992,180.89 C92.153,181.106 77.516,166.712 77.298,148.739 C77.08,130.766 91.363,116.02 109.201,115.803 C127.039,115.587 141.677,129.981 141.895,147.954 C142.113,165.927 127.83,180.673 109.992,180.89 z" fill="#ABABAB"/>
    <path d="M484.596,108.193 C462.043,108.193 443.693,126.205 443.693,148.346 C443.693,170.487 462.041,188.5 484.596,188.5 C507.152,188.5 525.5,170.488 525.5,148.346 C525.5,126.205 507.15,108.193 484.596,108.193 z M484.596,177.763 C468.074,177.763 454.63,164.565 454.63,148.346 C454.63,132.127 468.074,118.93 484.596,118.93 C501.118,118.93 514.563,132.127 514.563,148.346 C514.563,164.565 501.118,177.763 484.596,177.763 z" fill="#232224"/>
    <path d="M484.992,180.89 C467.153,181.106 452.516,166.712 452.298,148.739 C452.08,130.766 466.363,116.02 484.201,115.803 C502.039,115.587 516.677,129.981 516.895,147.954 C517.113,165.927 502.83,180.673 484.992,180.89 z" fill="#ABABAB"/>
    <path d="M548.096,355.846 C525.543,355.846 507.193,373.858 507.193,396 C507.193,418.14 525.541,436.153 548.096,436.153 C570.652,436.153 589,418.142 589,396 C589,373.858 570.65,355.846 548.096,355.846 z M548.096,425.417 C531.575,425.417 518.13,412.219 518.13,396 C518.13,379.781 531.575,366.583 548.096,366.583 C564.618,366.583 578.063,379.781 578.063,396 C578.063,412.219 564.618,425.417 548.096,425.417 z" fill="#232224"/>
    <path d="M548.492,428.543 C530.654,428.76 516.016,414.365 515.798,396.392 C515.58,378.419 529.863,363.673 547.701,363.457 C565.539,363.24 580.177,377.635 580.395,395.608 C580.613,413.581 566.33,428.326 548.492,428.543 z" fill="#ABABAB"/>
    <path d="M484.596,616.744 C462.043,616.744 443.693,634.756 443.693,656.897 C443.693,679.037 462.041,697.051 484.596,697.051 C507.152,697.051 525.5,679.039 525.5,656.897 C525.5,634.756 507.15,616.744 484.596,616.744 z M484.596,686.314 C468.074,686.314 454.63,673.116 454.63,656.897 C454.63,640.678 468.074,627.48 484.596,627.48 C501.118,627.48 514.563,640.678 514.563,656.897 C514.563,673.116 501.118,686.314 484.596,686.314 z" fill="#232224"/>
    <path d="M484.992,689.44 C467.153,689.657 452.516,675.262 452.298,657.289 C452.08,639.316 466.363,624.571 484.201,624.354 C502.039,624.138 516.677,638.532 516.895,656.505 C517.113,674.478 502.83,689.224 484.992,689.44 z" fill="#ABABAB"/>
    <path d="M118.199,609.136 C95.645,609.136 77.295,627.148 77.295,649.289 C77.295,671.429 95.644,689.443 118.199,689.443 C140.754,689.443 159.102,671.431 159.102,649.289 C159.102,627.148 140.753,609.136 118.199,609.136 z M118.199,678.706 C101.677,678.706 88.233,665.508 88.233,649.289 C88.233,633.07 101.677,619.872 118.199,619.872 C134.721,619.872 148.165,633.07 148.165,649.289 C148.165,665.508 134.721,678.706 118.199,678.706 z" fill="#232224"/>
    <path d="M118.594,681.832 C100.756,682.049 86.118,667.654 85.9,649.681 C85.682,631.708 99.966,616.963 117.804,616.746 C135.642,616.53 150.279,630.924 150.498,648.897 C150.716,666.87 136.432,681.616 118.594,681.832 z" fill="#ABABAB"/>
    <path d="M52.364,355.846 C29.811,355.846 11.461,373.858 11.461,396 C11.461,418.14 29.809,436.153 52.364,436.153 C74.92,436.153 93.268,418.142 93.268,396 C93.268,373.858 74.918,355.846 52.364,355.846 z M52.364,425.417 C35.842,425.417 22.398,412.219 22.398,396 C22.398,379.781 35.842,366.583 52.364,366.583 C68.886,366.583 82.331,379.781 82.331,396 C82.331,412.219 68.886,425.417 52.364,425.417 z" fill="#232224"/>
    <path d="M52.759,428.543 C34.921,428.76 20.284,414.365 20.066,396.392 C19.848,378.419 34.131,363.673 51.969,363.457 C69.807,363.24 84.445,377.635 84.663,395.608 C84.881,413.581 70.598,428.326 52.759,428.543 z" fill="#ABABAB"/>
  </g>
</svg>
