<?xml version="1.0" encoding="UTF-8"?>
<!DOCTYPE svg PUBLIC "-//W3C//DTD SVG 1.1//EN" "http://www.w3.org/Graphics/SVG/1.1/DTD/svg11.dtd">
<svg version="1.1" xmlns="http://www.w3.org/2000/svg" xmlns:xlink="http://www.w3.org/1999/xlink" x="0" y="0" width="2048" height="2732" viewBox="0, 0, 1024, 1366">
  <g id="Layer_1">
    <text transform="matrix(0.921, -0.391, 0.391, 0.921, 72.194, 77.357)"/>
    <path d="M191.781,706.972 L192.344,706.109 L193.545,704.249 L194.775,702.326 L196.02,700.375 L197.281,698.401 L198.563,696.412 L199.868,694.415 L201.195,692.417 L202.547,690.428 L203.923,688.456 L205.322,686.511 L206.745,684.601 L208.19,682.737 L209.656,680.927 L211.14,679.182 L212.639,677.511 L214.15,675.923 L215.671,674.427 L217.195,673.032 L218.279,672.106 L218.972,671.544 L219.723,670.959 L220.471,670.403 L221.216,669.877 L221.957,669.381 L222.693,668.915 L223.424,668.48 L224.149,668.075 L224.869,667.7 L225.583,667.355 L226.291,667.041 L226.993,666.755 L227.69,666.498 L228.383,666.27 L229.071,666.069 L229.758,665.895 L230.444,665.747 L231.131,665.626 L231.821,665.53 L232.516,665.46 L233.22,665.416 L233.934,665.399 L234.662,665.408 L235.406,665.446 L236.17,665.513 L236.411,665.544 L236.144,665.515 L236.699,665.581 L237.449,665.69 L238.076,665.804 L238.699,665.936 L239.32,666.086 L239.939,666.254 L240.558,666.44 L241.177,666.645 L242.206,667.022 L243.539,667.585 L244.78,668.187 L246.032,668.866 L247.294,669.621 L248.565,670.454 L249.845,671.362 L251.13,672.345 L252.419,673.401 L253.708,674.526 L254.996,675.716 L256.279,676.969 L257.555,678.279 L258.823,679.641 L260.079,681.052 L261.323,682.505 L262.553,683.995 L263.767,685.518 L264.964,687.066 L266.144,688.636 L267.306,690.222 L268.449,691.818 L269.573,693.42 L270.678,695.021 L271.764,696.618 L272.832,698.205 L273.882,699.778 L274.915,701.333 L275.425,702.101 L275.387,702.044 L277.125,704.686 L280.421,709.838 L283.61,714.993 L286.741,720.208 L289.823,725.477 L292.866,730.796 L295.879,736.161 L298.873,741.568 L303.356,749.756 L309.343,760.748 L313.897,769.045 L316.994,774.611 L320.138,780.172 L323.345,785.735 L324.996,788.551 L324.996,788.551 C325.003,788.562 325.009,788.572 325.015,788.583 L325.015,788.583 L325.265,789.006 L325.767,789.859 L326.549,791.192 L327.651,793.069 L328.821,795.054 L330.058,797.137 L331.36,799.305 L332.726,801.548 L334.156,803.855 L335.649,806.215 L337.205,808.619 L338.825,811.056 L340.507,813.518 L342.254,815.995 L344.066,818.477 L345.945,820.956 L347.892,823.423 L349.909,825.868 L352,828.284 L354.167,830.66 L356.414,832.987 L358.746,835.256 L361.167,837.456 L363.104,839.105 L364.455,840.197 L365.773,841.214 L367.118,842.206 L368.491,843.171 L369.893,844.107 L371.326,845.011 L372.789,845.883 L374.284,846.718 L375.812,847.515 L377.373,848.271 L378.968,848.984 L380.597,849.65 L382.26,850.265 L383.956,850.827 L385.686,851.332 L387.448,851.777 L389.241,852.157 L391.064,852.471 L392.914,852.713 L394.01,852.823 L394.01,852.823 C394.25,852.845 394.489,852.862 394.729,852.873 L394.729,852.873 L395.236,852.897 L397.084,852.912 L399.184,852.799 L401.245,852.553 L403.258,852.186 L405.218,851.708 L407.122,851.13 L408.972,850.463 L410.768,849.714 L412.514,848.893 L414.212,848.006 L415.868,847.057 L417.484,846.051 L419.066,844.991 L420.617,843.881 L422.14,842.722 L423.639,841.517 L425.117,840.266 L426.577,838.971 L428.021,837.632 L429.45,836.251 L430.868,834.828 L432.276,833.364 L433.674,831.86 L435.065,830.315 L436.45,828.732 L437.829,827.109 L439.203,825.448 L440.573,823.748 L441.94,822.012 L443.304,820.239 L444.665,818.43 L446.024,816.585 L447.382,814.705 L448.738,812.791 L450.093,810.844 L451.447,808.863 L452.8,806.85 L454.811,803.795 L457.499,799.605 L460.2,795.274 L462.897,790.833 L465.591,786.288 L468.28,781.645 L470.964,776.912 L473.642,772.094 L476.313,767.198 L478.975,762.231 L481.628,757.2 L484.27,752.111 L486.899,746.972 L489.515,741.789 L492.116,736.569 L494.7,731.32 L497.266,726.049 L501.07,718.13 L506.067,707.552 L509.759,699.62 L512.187,694.354 L514.579,689.128 L516.94,683.937 L519.268,678.789 L521.561,673.692 L523.817,668.652 L526.035,663.677 L528.212,658.774 L530.348,653.951 L532.439,649.216 L534.485,644.576 L535.989,641.161 L536.976,638.919 L537.95,636.706 L538.912,634.521 L539.86,632.366 L540.796,630.243 L541.718,628.151 L542.626,626.092 L543.52,624.067 L544.401,622.076 L545.266,620.122 L546.117,618.204 L546.953,616.324 L547.774,614.483 L548.58,612.682 L549.369,610.923 L550.142,609.205 L550.899,607.53 L551.639,605.9 L552.362,604.315 L553.068,602.776 L553.756,601.286 L554.425,599.844 L555.076,598.453 L555.389,597.788 L555.323,597.927 L555.559,597.438 L555.877,596.832 L556.168,596.328 L556.493,595.805 L556.849,595.267 L557.237,594.719 L557.653,594.166 L558.098,593.61 L558.568,593.057 L559.062,592.509 L559.578,591.97 L560.114,591.443 L560.668,590.93 L561.237,590.435 L561.818,589.96 L562.411,589.507 L563.011,589.079 L563.616,588.677 L564.224,588.302 L564.833,587.957 L565.439,587.642 L566.04,587.358 L566.634,587.105 L567.219,586.885 L567.792,586.696 L568.352,586.538 L568.898,586.411 L569.43,586.314 L569.946,586.245 L570.447,586.204 L570.935,586.189 L571.412,586.2 L571.444,586.212 L570.967,586.196 L571.753,586.234 L572.484,586.328 L572.926,586.439 L573.371,586.58 L573.829,586.755 L574.311,586.967 L574.821,587.223 L575.365,587.529 L575.943,587.888 L576.555,588.307 L577.197,588.786 L577.867,589.327 L578.561,589.931 L579.275,590.597 L580.004,591.322 L580.744,592.104 L581.492,592.939 L582.245,593.825 L582.998,594.756 L583.749,595.728 L584.497,596.737 L585.238,597.778 L586.371,599.443 L587.818,601.695 L588.819,603.331 L589.469,604.424 L590.131,605.556 L590.778,606.683 L591.412,607.803 L592.034,608.91 L592.334,609.449 L592.292,609.373 L593.303,611.208 L595.163,614.703 L596.93,618.175 L598.646,621.691 L600.314,625.248 L601.936,628.844 L603.518,632.477 L605.061,636.145 L606.57,639.846 L608.047,643.577 L609.498,647.336 L610.924,651.121 L613.034,656.863 L615.791,664.564 L617.145,668.404 L617.132,668.367 L618.17,671.335 L620.2,677.216 L623.194,686.056 L627.112,697.886 L630.977,709.757 L634.826,721.677 L638.69,733.637 L642.602,745.627 L646.594,757.638 L648.641,763.68 L648.641,763.68 C648.645,763.694 648.65,763.708 648.655,763.722 L648.655,763.722 L650.184,768.194 L653.301,777.206 L655.722,784.038 L657.388,788.628 L659.092,793.207 L660.846,797.792 L662.657,802.38 L664.53,806.966 L666.472,811.548 L668.489,816.122 L670.588,820.684 L672.774,825.229 L675.055,829.754 L677.437,834.255 L678.709,836.57 L678.709,836.57 C678.725,836.599 678.742,836.628 678.758,836.658 L678.758,836.658 L679.09,837.251 L679.805,838.522 L680.574,839.871 L681.392,841.279 L682.257,842.739 L683.171,844.244 L684.132,845.787 L685.144,847.361 L686.206,848.961 L687.32,850.579 L688.489,852.211 L689.714,853.851 L690.998,855.492 L692.344,857.128 L693.757,858.755 L695.239,860.365 L696.797,861.953 L698.435,863.51 L700.159,865.03 L701.976,866.504 L703.892,867.921 L705.915,869.27 L708.051,870.537 L710.304,871.706 L712.678,872.76 L715.174,873.679 L717.788,874.44 L719.966,874.926 L721.507,875.188 L722.923,875.368 L724.358,875.494 L725.81,875.564 L727.276,875.576 L728.752,875.529 L730.235,875.422 L731.723,875.255 L733.212,875.028 L734.11,874.863 L734.11,874.863 C734.212,874.844 734.315,874.823 734.417,874.801 L734.417,874.801 L734.892,874.701 L736.291,874.368 L737.816,873.948 L739.31,873.476 L740.773,872.954 L742.204,872.386 L743.602,871.776 L744.968,871.125 L746.3,870.437 L747.6,869.715 L749.394,868.632 L751.73,867.071 L754.045,865.352 L756.25,863.549 L758.351,861.674 L760.357,859.737 L762.274,857.749 L764.109,855.717 L765.867,853.649 L767.554,851.553 L769.173,849.434 L770.728,847.3 L772.223,845.157 L773.66,843.011 L775.042,840.869 L776.37,838.738 L777.645,836.624 L778.87,834.534 L780.045,832.475 L781.171,830.453 L782.248,828.477 L783.277,826.553 L784.259,824.689 L785.192,822.894 L786.077,821.175 L786.913,819.542 L787.698,818.005 L788.07,817.279 L788.07,817.279 C792.094,809.413 788.98,799.773 781.113,795.748 C773.246,791.723 763.606,794.838 759.581,802.704 L759.202,803.447 L758.427,804.963 L757.627,806.527 L756.798,808.136 L755.943,809.783 L755.059,811.463 L754.147,813.168 L753.208,814.893 L752.243,816.63 L751.252,818.371 L750.235,820.11 L749.196,821.839 L748.135,823.549 L747.053,825.233 L745.954,826.883 L744.839,828.491 L743.713,830.049 L742.577,831.549 L741.436,832.982 L740.295,834.342 L739.159,835.62 L738.034,836.81 L736.926,837.905 L735.842,838.901 L734.792,839.793 L733.781,840.579 L732.722,841.318 L731.923,841.818 L731.473,842.079 L731.038,842.316 L730.618,842.528 L730.214,842.718 L729.826,842.885 L729.452,843.032 L729.093,843.16 L728.747,843.27 L728.257,843.396 L727.782,843.497 L728.089,843.435 L728.119,843.436 L727.885,843.486 L727.666,843.526 L727.46,843.555 L727.263,843.576 L727.072,843.589 L726.885,843.594 L726.698,843.591 L726.508,843.581 L726.461,843.592 L726.287,843.59 L725.825,843.503 L725.311,843.36 L724.744,843.15 L724.124,842.866 L723.453,842.503 L722.737,842.058 L721.982,841.528 L721.195,840.917 L720.384,840.224 L719.554,839.456 L718.711,838.615 L717.862,837.709 L717.01,836.742 L716.16,835.721 L715.316,834.653 L714.48,833.545 L713.656,832.402 L712.847,831.233 L712.053,830.043 L711.276,828.839 L710.518,827.628 L709.78,826.415 L709.062,825.206 L708.365,824.007 L707.689,822.822 L707.026,821.645 L706.694,821.051 L706.743,821.14 L705.711,819.269 L703.622,815.335 L701.605,811.343 L699.653,807.297 L697.764,803.2 L695.932,799.053 L694.152,794.862 L692.421,790.627 L690.732,786.354 L689.082,782.044 L687.465,777.701 L685.884,773.349 L683.544,766.747 L680.463,757.841 L678.934,753.368 L678.948,753.41 L676.96,747.545 L673.023,735.702 L669.14,723.799 L665.278,711.845 L661.405,699.85 L657.489,687.824 L653.503,675.793 L650.448,666.772 L648.375,660.767 L647.336,657.799 L647.336,657.799 C647.332,657.787 647.328,657.774 647.323,657.762 L647.323,657.762 L645.918,653.777 L643.069,645.821 L640.867,639.834 L639.351,635.815 L637.797,631.789 L636.199,627.758 L634.553,623.726 L632.854,619.696 L631.098,615.669 L629.28,611.649 L627.396,607.639 L625.439,603.641 L623.406,599.659 L621.33,595.766 L620.32,593.931 L620.32,593.931 C620.306,593.906 620.292,593.88 620.278,593.855 L620.278,593.855 L619.941,593.252 L619.25,592.021 L618.521,590.736 L617.755,589.403 L616.95,588.028 L616.082,586.576 L614.705,584.342 L612.792,581.389 L611.261,579.156 L610.156,577.616 L609.001,576.072 L607.792,574.526 L606.528,572.985 L605.204,571.451 L603.817,569.931 L602.363,568.429 L600.837,566.952 L599.235,565.506 L597.552,564.098 L595.783,562.736 L593.924,561.43 L591.97,560.191 L589.92,559.03 L587.771,557.96 L585.525,556.996 L583.183,556.152 L580.752,555.443 L578.241,554.884 L575.66,554.486 L573.3,554.271 L572.514,554.233 L572.514,554.233 C572.355,554.226 572.197,554.22 572.038,554.218 L572.038,554.218 L570.794,554.206 L568.733,554.265 L566.701,554.424 L564.705,554.678 L562.746,555.02 L560.828,555.446 L558.953,555.95 L557.123,556.527 L555.337,557.172 L553.597,557.881 L551.904,558.649 L550.256,559.472 L548.655,560.347 L547.099,561.27 L545.588,562.238 L544.123,563.248 L542.702,564.297 L541.325,565.383 L539.992,566.505 L538.703,567.659 L537.458,568.845 L536.255,570.06 L535.097,571.304 L533.982,572.575 L532.91,573.872 L531.883,575.195 L530.899,576.544 L529.961,577.917 L529.069,579.314 L528.223,580.737 L527.425,582.186 L526.737,583.535 L526.501,584.023 L526.501,584.023 C526.479,584.07 526.457,584.116 526.435,584.162 L526.435,584.162 L526.091,584.893 L525.402,586.365 L524.699,587.88 L523.981,589.436 L523.248,591.034 L522.501,592.673 L521.739,594.351 L520.962,596.069 L520.172,597.826 L519.367,599.621 L518.548,601.452 L517.715,603.32 L516.868,605.224 L516.008,607.162 L515.135,609.134 L514.248,611.139 L513.348,613.176 L512.436,615.245 L511.511,617.344 L510.573,619.472 L509.623,621.629 L508.662,623.814 L507.688,626.026 L506.703,628.264 L505.204,631.666 L503.167,636.287 L501.088,640.996 L498.967,645.785 L496.807,650.648 L494.61,655.577 L492.377,660.565 L490.111,665.605 L487.812,670.688 L485.483,675.809 L483.126,680.958 L480.748,686.117 L477.133,693.884 L472.225,704.275 L468.493,712.045 L465.99,717.188 L463.474,722.299 L460.947,727.371 L458.411,732.397 L455.868,737.368 L453.32,742.277 L450.77,747.116 L448.219,751.876 L445.67,756.551 L443.126,761.132 L440.588,765.61 L438.06,769.978 L435.544,774.227 L433.043,778.348 L430.56,782.334 L428.084,786.199 L426.236,789.006 L425.024,790.812 L423.819,792.577 L422.622,794.299 L421.434,795.978 L420.256,797.612 L419.088,799.199 L417.931,800.74 L416.785,802.232 L415.652,803.675 L414.533,805.067 L413.428,806.406 L412.339,807.692 L411.268,808.922 L410.214,810.097 L409.181,811.214 L408.17,812.272 L407.182,813.27 L406.22,814.207 L405.286,815.081 L404.383,815.892 L403.513,816.639 L402.679,817.32 L401.886,817.936 L401.137,818.486 L400.435,818.971 L399.786,819.391 L399.193,819.749 L398.662,820.047 L398.196,820.287 L397.801,820.476 L397.478,820.618 L397.23,820.721 L397.058,820.792 L396.959,820.842 L396.93,820.878 L396.962,820.912 L396.764,820.934 L396.256,820.91 L396.975,820.96 L396.851,820.956 L396.273,820.898 L395.686,820.813 L395.088,820.702 L394.477,820.563 L393.852,820.396 L393.213,820.198 L392.559,819.969 L391.889,819.709 L391.204,819.415 L390.505,819.088 L389.793,818.727 L389.067,818.332 L388.329,817.902 L387.58,817.439 L386.82,816.941 L386.052,816.409 L385.276,815.844 L384.493,815.247 L383.764,814.668 L382.62,813.712 L381.006,812.267 L379.389,810.712 L377.773,809.055 L376.165,807.306 L374.569,805.475 L372.99,803.572 L371.433,801.608 L369.899,799.592 L368.393,797.535 L366.917,795.448 L365.473,793.34 L364.063,791.221 L362.688,789.101 L361.351,786.989 L360.052,784.895 L358.792,782.828 L357.571,780.796 L356.39,778.808 L355.248,776.87 L354.146,774.992 L353.346,773.631 L352.827,772.749 L352.577,772.325 L352.596,772.357 L351.066,769.75 L347.995,764.425 L344.957,759.052 L341.949,753.647 L337.444,745.44 L331.425,734.39 L326.867,726.064 L323.778,720.488 L320.64,714.903 L317.441,709.315 L314.171,703.729 L310.819,698.151 L307.373,692.587 L303.861,687.103 L302.123,684.46 L302.123,684.46 C302.111,684.441 302.098,684.422 302.085,684.403 L302.085,684.403 L301.567,683.622 L300.497,682.012 L299.381,680.34 L298.219,678.614 L297.012,676.841 L295.758,675.026 L294.457,673.175 L293.108,671.295 L291.71,669.391 L290.262,667.47 L288.761,665.536 L287.207,663.595 L285.597,661.654 L283.929,659.717 L282.201,657.791 L280.41,655.881 L278.553,653.994 L276.627,652.135 L274.629,650.312 L272.555,648.531 L270.403,646.8 L268.168,645.127 L265.847,643.521 L263.437,641.991 L260.936,640.548 L258.342,639.203 L255.654,637.967 L252.974,636.888 L250.937,636.17 L249.485,635.711 L248.011,635.289 L246.516,634.906 L245.001,634.563 L243.467,634.262 L241.914,634.003 L240.462,633.802 L239.907,633.737 L239.907,633.737 C239.818,633.726 239.729,633.717 239.641,633.708 L239.641,633.708 L238.502,633.598 L236.532,633.466 L234.576,633.408 L232.635,633.425 L230.713,633.515 L228.813,633.675 L226.936,633.905 L225.086,634.202 L223.263,634.563 L221.471,634.986 L219.711,635.468 L217.983,636.007 L216.29,636.598 L214.631,637.239 L213.008,637.928 L211.42,638.66 L209.868,639.434 L208.351,640.247 L206.868,641.095 L205.42,641.977 L204.006,642.89 L202.625,643.831 L201.276,644.8 L199.959,645.792 L198.672,646.808 L197.354,647.896 L195.474,649.533 L193.139,651.704 L190.906,653.93 L188.768,656.199 L186.721,658.501 L184.757,660.826 L182.875,663.163 L181.068,665.505 L179.334,667.84 L177.67,670.159 L176.073,672.452 L174.541,674.71 L173.072,676.922 L171.666,679.077 L170.321,681.164 L169.038,683.17 L167.817,685.085 L166.66,686.894 L165.551,688.613 L164.988,689.476 C160.156,696.874 162.237,706.789 169.636,711.62 C177.035,716.452 186.949,714.371 191.781,706.972 L191.781,706.972" fill="#525253"/>
    <path d="M813.021,750.562 L813.021,750.562 L813.021,750.562 C821.858,750.562 829.021,743.398 829.021,734.562 C829.021,725.725 821.858,718.562 813.021,718.562 L813.021,718.562 C813.021,718.562 813.021,718.562 813.021,718.562 C804.185,718.562 797.021,725.725 797.021,734.562 C797.021,743.398 804.185,750.562 813.021,750.562 L813.021,750.562" fill="#910000"/>
    <g>
      <path d="M813.021,709.197 C809.642,709.197 806.903,708.421 806.903,707.463 C806.903,706.506 809.642,705.73 813.021,705.73 C816.4,705.73 819.14,706.506 819.14,707.463 C819.14,708.421 816.4,709.197 813.021,709.197 z" fill="#910000"/>
      <path d="M813.021,709.197 C809.642,709.197 806.903,708.421 806.903,707.463 C806.903,706.506 809.642,705.73 813.021,705.73 C816.4,705.73 819.14,706.506 819.14,707.463 C819.14,708.421 816.4,709.197 813.021,709.197 z" fill-opacity="0" stroke="#910000" stroke-width="1"/>
    </g>
    <g>
      <path d="M813.085,710.525 L812.958,718.951" fill="#910000"/>
      <path d="M813.085,710.525 L812.958,718.951" fill-opacity="0" stroke="#910000" stroke-width="5.5" stroke-linecap="round" stroke-linejoin="round"/>
    </g>
    <g>
      <path d="M838.476,731.517 C837.667,728.236 837.764,725.391 838.693,725.161 C839.623,724.932 841.033,727.405 841.842,730.686 C842.652,733.967 842.555,736.812 841.626,737.042 C840.696,737.271 839.286,734.797 838.476,731.517 z" fill="#910000"/>
      <path d="M838.476,731.517 C837.667,728.236 837.764,725.391 838.693,725.161 C839.623,724.932 841.033,727.405 841.842,730.686 C842.652,733.967 842.555,736.812 841.626,737.042 C840.696,737.271 839.286,734.797 838.476,731.517 z" fill-opacity="0" stroke="#910000" stroke-width="1"/>
    </g>
    <g>
      <path d="M837.202,731.897 L828.991,733.793" fill="#910000"/>
      <path d="M837.202,731.897 L828.991,733.793" fill-opacity="0" stroke="#910000" stroke-width="5.5" stroke-linecap="round" stroke-linejoin="round"/>
    </g>
    <g>
      <path d="M789.143,728.283 C788.302,731.555 786.869,734.015 785.941,733.777 C785.014,733.538 784.944,730.692 785.786,727.42 C786.627,724.147 788.061,721.687 788.988,721.926 C789.915,722.164 789.985,725.01 789.143,728.283 z" fill="#910000"/>
      <path d="M789.143,728.283 C788.302,731.555 786.869,734.015 785.941,733.777 C785.014,733.538 784.944,730.692 785.786,727.42 C786.627,724.147 788.061,721.687 788.988,721.926 C789.915,722.164 789.985,725.01 789.143,728.283 z" fill-opacity="0" stroke="#910000" stroke-width="1"/>
    </g>
    <g>
      <path d="M790.446,728.552 L798.575,730.773" fill="#910000"/>
      <path d="M790.446,728.552 L798.575,730.773" fill-opacity="0" stroke="#910000" stroke-width="5.5" stroke-linecap="round" stroke-linejoin="round"/>
    </g>
    <g>
      <path d="M827.446,756.007 C830.246,754.114 832.95,753.223 833.486,754.016 C834.022,754.81 832.187,756.987 829.388,758.879 C826.589,760.772 823.885,761.663 823.348,760.87 C822.812,760.077 824.647,757.899 827.446,756.007 z" fill="#910000"/>
      <path d="M827.446,756.007 C830.246,754.114 832.95,753.223 833.486,754.016 C834.022,754.81 832.187,756.987 829.388,758.879 C826.589,760.772 823.885,761.663 823.348,760.87 C822.812,760.077 824.647,757.899 827.446,756.007 z" fill-opacity="0" stroke="#910000" stroke-width="1"/>
    </g>
    <g>
      <path d="M826.65,754.942 L822.036,747.891" fill="#910000"/>
      <path d="M826.65,754.942 L822.036,747.891" fill-opacity="0" stroke="#910000" stroke-width="5.5" stroke-linecap="round" stroke-linejoin="round"/>
    </g>
    <g>
      <path d="M796.267,754.063 C798.748,756.357 800.232,758.787 799.582,759.49 C798.932,760.193 796.394,758.903 793.913,756.608 C791.432,754.314 789.948,751.884 790.599,751.181 C791.249,750.478 793.787,751.769 796.267,754.063 z" fill="#910000"/>
      <path d="M796.267,754.063 C798.748,756.357 800.232,758.787 799.582,759.49 C798.932,760.193 796.394,758.903 793.913,756.608 C791.432,754.314 789.948,751.884 790.599,751.181 C791.249,750.478 793.787,751.769 796.267,754.063 z" fill-opacity="0" stroke="#910000" stroke-width="1"/>
    </g>
    <g>
      <path d="M797.123,753.045 L802.937,746.945" fill="#910000"/>
      <path d="M797.123,753.045 L802.937,746.945" fill-opacity="0" stroke="#910000" stroke-width="5.5" stroke-linecap="round" stroke-linejoin="round"/>
    </g>
  </g>
</svg>
