<svg width="414" height="417" viewBox="0 0 414 417" fill="none" xmlns="http://www.w3.org/2000/svg">
<path d="M273.764 215.192C276.344 211.076 277.635 205.941 277.635 201.491C277.635 194.783 274.831 188.551 270.02 184.325C271.084 181.621 271.622 178.808 271.622 175.933C271.622 167.034 266.736 158.743 259.47 154.872C260.572 145.155 254.615 136.249 245.785 133.977C242.33 125.487 234.638 119.703 226.529 119.703C218.981 119.703 212.21 124.382 208.492 131.21C204.773 124.382 198.003 119.703 190.455 119.703C182.345 119.703 174.653 125.487 171.199 133.977C162.316 136.263 156.415 145.214 157.514 154.872C150.248 158.743 145.362 167.034 145.362 175.933C145.362 178.808 145.899 181.621 146.964 184.325C142.152 188.552 139.349 194.783 139.349 201.491C139.349 205.964 140.65 211.093 143.22 215.192C140.709 218.958 139.349 223.423 139.349 228.009C139.349 233.956 141.618 239.622 145.631 243.829C143.568 257.085 153.515 270.5 166.405 270.5C166.498 270.5 166.59 270.499 166.68 270.496C170.953 278.33 178.885 283.28 187.448 283.28C196.373 283.28 204.348 277.586 208.492 269.384C212.635 277.586 220.61 283.28 229.536 283.28C238.099 283.28 246.031 278.33 250.304 270.496C250.394 270.499 250.486 270.5 250.579 270.5C261.986 270.5 271.622 259.82 271.622 247.178C271.622 246.102 271.534 244.995 271.352 243.829C275.366 239.622 277.635 233.956 277.635 228.009C277.635 223.423 276.274 218.958 273.764 215.192ZM205.486 168.067C203.716 166.976 201.663 166.348 199.473 166.348C197.813 166.348 196.467 167.778 196.467 169.543C196.467 171.307 197.813 172.738 199.473 172.738C202.788 172.738 205.486 175.604 205.486 179.127V239.884C201.075 234.567 194.627 231.204 187.448 231.204C185.788 231.204 184.442 232.634 184.442 234.398C184.442 236.163 185.788 237.594 187.448 237.594C197.394 237.594 205.486 246.192 205.486 256.762C205.486 267.672 197.225 276.89 187.448 276.89C180.488 276.89 174.081 272.516 171.125 265.746C170.58 264.499 169.346 263.763 168.059 263.917C167.846 263.943 167.634 263.973 167.423 264.003C158.867 265.247 149.233 254.951 151.841 243.433C152.109 242.25 151.721 241.008 150.841 240.23C147.358 237.15 145.362 232.696 145.362 228.009C145.362 225.111 146.132 222.275 147.567 219.787C151.173 222.928 155.658 224.814 160.392 224.814C162.053 224.814 163.398 223.384 163.398 221.619C163.398 219.855 162.053 218.424 160.392 218.424C152.234 218.424 145.362 210.511 145.362 201.491C145.362 196.02 147.985 190.987 152.382 188.028C153.736 187.116 154.179 185.235 153.387 183.753C152.051 181.249 151.374 178.618 151.374 175.933C151.374 167.309 157.988 159 166.405 159C174.412 159 181.436 166.913 181.436 175.933C181.436 177.697 182.782 179.127 184.442 179.127C186.103 179.127 187.448 177.697 187.448 175.933C187.448 163.29 177.812 152.61 166.405 152.61C165.399 152.61 164.397 152.697 163.406 152.86C163.405 152.777 163.398 152.695 163.398 152.61C163.398 145.48 168.845 139.831 175.423 139.831C178.635 139.831 181.655 141.16 183.929 143.574C185.103 144.82 187.007 144.819 188.18 143.572C189.353 142.323 189.353 140.3 188.178 139.053C185.436 136.142 181.967 134.285 178.207 133.67C180.858 129.487 185.267 126.093 190.455 126.093C198.462 126.093 205.486 134.005 205.486 143.026V168.067ZM256.591 224.814C261.326 224.814 265.811 222.928 269.417 219.789C270.851 222.275 271.622 225.111 271.622 228.009C271.622 232.696 269.625 237.15 266.143 240.23C265.263 241.008 264.875 242.25 265.143 243.433C265.462 244.84 265.61 246.03 265.61 247.177C265.61 257.095 257.17 265.109 249.561 264.003C249.349 263.973 249.138 263.943 248.925 263.917C247.637 263.762 246.404 264.499 245.859 265.746C242.903 272.516 236.495 276.89 229.536 276.89C219.758 276.89 211.498 267.672 211.498 256.762C211.498 246.192 219.59 237.594 229.536 237.594C231.195 237.594 232.541 236.163 232.541 234.398C232.541 232.634 231.195 231.204 229.536 231.204C222.357 231.204 215.908 234.567 211.498 239.884V179.127C211.498 175.604 214.196 172.738 217.511 172.738C219.17 172.738 220.517 171.307 220.517 169.543C220.517 167.778 219.17 166.348 217.511 166.348C215.321 166.348 213.268 166.976 211.498 168.067V143.026C211.498 134.005 218.522 126.093 226.529 126.093C231.717 126.093 236.125 129.487 238.777 133.669C235.017 134.284 231.549 136.141 228.806 139.053C227.631 140.3 227.63 142.322 228.803 143.571C229.976 144.82 231.88 144.82 233.055 143.574C235.328 141.16 238.349 139.831 241.561 139.831C248.172 139.831 253.585 145.513 253.585 152.61C253.585 152.694 253.579 152.777 253.578 152.86C252.586 152.697 251.585 152.61 250.579 152.61C239.172 152.61 229.536 163.29 229.536 175.933C229.536 177.697 230.882 179.127 232.541 179.127C234.202 179.127 235.548 177.697 235.548 175.933C235.548 166.913 242.572 159 250.579 159C258.991 159 265.61 167.306 265.61 175.933C265.61 178.618 264.933 181.249 263.596 183.753C262.806 185.235 263.248 187.116 264.603 188.028C268.999 190.987 271.622 196.02 271.622 201.491C271.622 210.543 264.726 218.424 256.591 218.424C254.931 218.424 253.585 219.855 253.585 221.619C253.585 223.384 254.931 224.814 256.591 224.814Z" fill="#910000"/>
<path d="M198.708 188.09C197.601 186.775 195.7 186.663 194.463 187.839C184.823 197.004 169.411 189.679 169.411 175.933C169.411 174.168 168.065 172.738 166.405 172.738C164.745 172.738 163.398 174.168 163.398 175.933C163.398 187.023 171.037 196.25 181.015 197.996C179.858 201.87 176.442 204.687 172.418 204.687C170.757 204.687 169.411 206.116 169.411 207.881C169.411 209.646 170.757 211.076 172.418 211.076C179.74 211.076 185.852 205.482 187.179 198.104C191.36 197.523 195.294 195.622 198.471 192.601C199.709 191.425 199.815 189.405 198.708 188.09Z" fill="#910000"/>
<path d="M166.405 243.983C164.745 243.983 163.398 245.413 163.398 247.178C163.398 248.942 164.745 250.373 166.405 250.373C174.412 250.373 181.436 258.285 181.436 267.306C181.436 269.07 182.782 270.501 184.442 270.501C186.103 270.501 187.448 269.07 187.448 267.306C187.448 254.664 177.812 243.983 166.405 243.983Z" fill="#910000"/>
<path d="M190.455 218.424C180.268 218.424 171.521 224.362 166.916 232.996C166.097 234.531 166.605 236.48 168.049 237.35C169.493 238.22 171.327 237.681 172.146 236.146C175.735 229.419 182.542 224.814 190.455 224.814C192.115 224.814 193.461 223.384 193.461 221.619C193.461 219.855 192.115 218.424 190.455 218.424Z" fill="#910000"/>
<path d="M244.567 204.687C240.542 204.687 237.126 201.87 235.969 197.996C245.947 196.25 253.586 187.023 253.586 175.933C253.586 174.168 252.239 172.738 250.579 172.738C248.919 172.738 247.573 174.168 247.573 175.933C247.573 184.741 240.83 191.907 232.542 191.907C228.839 191.907 225.281 190.462 222.521 187.839C221.284 186.663 219.383 186.774 218.277 188.09C217.169 189.405 217.275 191.425 218.513 192.601C221.69 195.622 225.625 197.523 229.806 198.104C231.132 205.482 237.244 211.076 244.567 211.076C246.227 211.076 247.573 209.646 247.573 207.881C247.573 206.116 246.227 204.687 244.567 204.687Z" fill="#910000"/>
<path d="M250.579 243.983C239.172 243.983 229.536 254.664 229.536 267.306C229.536 269.07 230.882 270.501 232.542 270.501C234.202 270.501 235.548 269.07 235.548 267.306C235.548 258.285 242.572 250.373 250.579 250.373C252.239 250.373 253.585 248.942 253.585 247.178C253.585 245.413 252.239 243.983 250.579 243.983Z" fill="#910000"/>
<path d="M250.068 232.996C245.474 224.383 236.74 218.424 226.529 218.424C224.869 218.424 223.523 219.855 223.523 221.619C223.523 223.384 224.869 224.814 226.529 224.814C234.436 224.814 241.248 229.418 244.837 236.146C245.656 237.683 247.492 238.219 248.934 237.35C250.379 236.481 250.886 234.531 250.068 232.996Z" fill="#910000"/>
<path d="M70.4363 0.500122C54.2954 0.500122 41.1626 13.2359 41.1626 28.8911C41.1626 44.5464 54.294 57.2828 70.4363 57.2828C86.5793 57.2828 99.7107 44.5471 99.7107 28.8911C99.7107 13.2359 86.5779 0.500122 70.4363 0.500122ZM70.4363 49.691C58.6125 49.691 48.9901 40.3591 48.9901 28.8911C48.9901 17.4231 58.6125 8.09194 70.4363 8.09194C82.2609 8.09194 91.8833 17.4231 91.8833 28.8911C91.8833 40.3591 82.2609 49.691 70.4363 49.691Z" fill="#232224"/>
<path d="M87.8919 50.244C88.6219 49.737 89.6468 49.935 90.1793 50.6845L142.746 124.653C143.28 125.403 143.119 126.422 142.389 126.928C141.659 127.435 140.634 127.238 140.102 126.487L87.5348 52.5193C87.0016 51.7691 87.1612 50.7502 87.8919 50.244Z" fill="#232224"/>
<path d="M87.8919 50.244C88.6219 49.737 89.6468 49.935 90.1793 50.6845L142.746 124.653C143.28 125.403 143.119 126.422 142.389 126.928C141.659 127.435 140.634 127.238 140.102 126.487L87.5348 52.5193C87.0016 51.7691 87.1612 50.7502 87.8919 50.244Z" stroke="#232224"/>
<path d="M323.396 52.3249C324.106 52.8587 324.227 53.8825 323.666 54.6122L268.273 126.539C267.711 127.268 266.68 127.427 265.97 126.893C265.26 126.359 265.139 125.335 265.701 124.606L321.093 52.6784C321.655 51.9494 322.686 51.791 323.396 52.3249Z" fill="#232224"/>
<path d="M323.396 52.3249C324.106 52.8587 324.227 53.8825 323.666 54.6122L268.273 126.539C267.711 127.268 266.68 127.427 265.97 126.893C265.26 126.359 265.139 125.335 265.701 124.606L321.093 52.6784C321.655 51.9494 322.686 51.791 323.396 52.3249Z" stroke="#232224"/>
<path d="M358.882 205.822C358.889 206.567 358.397 207.174 357.783 207.179L297.302 207.675C296.689 207.68 296.186 207.081 296.18 206.337C296.174 205.593 296.666 204.986 297.279 204.981L357.76 204.484C358.374 204.479 358.876 205.078 358.882 205.822Z" fill="#232224"/>
<path d="M358.882 205.822C358.889 206.567 358.397 207.174 357.783 207.179L297.302 207.675C296.689 207.68 296.186 207.081 296.18 206.337C296.174 205.593 296.666 204.986 297.279 204.981L357.76 204.484C358.374 204.479 358.876 205.078 358.882 205.822Z" stroke="#232224"/>
<path d="M54.5469 203.837C54.5512 203.094 55.0515 202.493 55.6648 202.496L116.147 202.809C116.761 202.813 117.255 203.419 117.25 204.163C117.247 204.906 116.746 205.508 116.133 205.504L55.6505 205.191C55.0371 205.187 54.5433 204.581 54.5469 203.837Z" fill="#232224"/>
<path d="M54.5469 203.837C54.5512 203.094 55.0515 202.493 55.6648 202.496L116.147 202.809C116.761 202.813 117.255 203.419 117.25 204.163C117.247 204.906 116.746 205.508 116.133 205.504L55.6505 205.191C55.0371 205.187 54.5433 204.581 54.5469 203.837Z" stroke="#232224"/>
<path d="M324.905 367.43C324.175 367.937 323.151 367.741 322.617 366.991L269.986 293.068C269.452 292.319 269.611 291.3 270.341 290.792C271.071 290.285 272.095 290.482 272.629 291.231L325.261 365.155C325.794 365.904 325.635 366.923 324.905 367.43Z" fill="#232224"/>
<path d="M324.905 367.43C324.175 367.937 323.151 367.741 322.617 366.991L269.986 293.068C269.452 292.319 269.611 291.3 270.341 290.792C271.071 290.285 272.095 290.482 272.629 291.231L325.261 365.155C325.794 365.904 325.635 366.923 324.905 367.43Z" stroke="#232224"/>
<path d="M89.3993 365.549C88.6886 365.016 88.5669 363.992 89.128 363.263L144.458 291.289C145.02 290.559 146.05 290.399 146.761 290.932C147.472 291.466 147.593 292.49 147.032 293.22L91.7016 365.194C91.1405 365.923 90.1099 366.083 89.3993 365.549Z" fill="#232224"/>
<path d="M89.3993 365.549C88.6886 365.016 88.5669 363.992 89.128 363.263L144.458 291.289C145.02 290.559 146.05 290.399 146.761 290.932C147.472 291.466 147.593 292.49 147.032 293.22L91.7016 365.194C91.1405 365.923 90.1099 366.083 89.3993 365.549Z" stroke="#232224"/>
<path d="M70.7198 51.902C57.9526 52.0547 47.4771 41.8772 47.3211 29.169C47.1651 16.4608 57.3872 6.03434 70.1536 5.88091C82.9201 5.72818 93.3963 15.9058 93.5523 28.6139C93.7083 41.3221 83.4862 51.7486 70.7198 51.902Z" fill="#ABABAB"/>
<path d="M338.819 0.500122C322.678 0.500122 309.545 13.2359 309.545 28.8911C309.545 44.5464 322.676 57.2828 338.819 57.2828C354.962 57.2828 368.093 44.5471 368.093 28.8911C368.093 13.2359 354.96 0.500122 338.819 0.500122ZM338.819 49.691C326.994 49.691 317.372 40.3591 317.372 28.8911C317.372 17.4231 326.994 8.09194 338.819 8.09194C350.643 8.09194 360.266 17.4231 360.266 28.8911C360.266 40.3591 350.643 49.691 338.819 49.691Z" fill="#232224"/>
<path d="M339.102 51.902C326.335 52.0547 315.859 41.8772 315.703 29.169C315.547 16.4608 325.77 6.03434 338.536 5.88091C351.302 5.72818 361.779 15.9058 361.935 28.6139C362.091 41.3221 351.868 51.7486 339.102 51.902Z" fill="#ABABAB"/>
<path d="M339.102 51.902C326.335 52.0547 315.859 41.8772 315.703 29.169C315.547 16.4608 325.77 6.03434 338.536 5.88091C351.302 5.72818 361.779 15.9058 361.935 28.6139C362.091 41.3221 351.868 51.7486 339.102 51.902Z" stroke="black"/>
<path d="M384.265 175.608C368.124 175.608 354.991 188.344 354.991 204C354.991 219.655 368.123 232.392 384.265 232.392C400.408 232.392 413.539 219.656 413.539 204C413.539 188.344 400.407 175.608 384.265 175.608ZM384.265 224.8C372.441 224.8 362.819 215.468 362.819 204C362.819 192.532 372.441 183.2 384.265 183.2C396.09 183.2 405.712 192.532 405.712 204C405.712 215.468 396.09 224.8 384.265 224.8Z" fill="#232224"/>
<path d="M384.548 227.01C371.781 227.164 361.305 216.985 361.149 204.277C360.993 191.569 371.215 181.143 383.982 180.99C396.748 180.836 407.224 191.015 407.38 203.723C407.536 216.431 397.314 226.857 384.548 227.01Z" fill="#ABABAB"/>
<path d="M384.548 227.01C371.781 227.164 361.305 216.985 361.149 204.277C360.993 191.569 371.215 181.143 383.982 180.99C396.748 180.836 407.224 191.015 407.38 203.723C407.536 216.431 397.314 226.857 384.548 227.01Z" stroke="black"/>
<path d="M338.819 360.082C322.678 360.082 309.545 372.817 309.545 388.473C309.545 404.127 322.676 416.864 338.819 416.864C354.962 416.864 368.093 404.129 368.093 388.473C368.093 372.817 354.96 360.082 338.819 360.082ZM338.819 409.273C326.994 409.273 317.372 399.941 317.372 388.473C317.372 377.005 326.994 367.673 338.819 367.673C350.643 367.673 360.266 377.005 360.266 388.473C360.266 399.941 350.643 409.273 338.819 409.273Z" fill="#232224"/>
<path d="M339.102 411.483C326.335 411.636 315.859 401.458 315.703 388.75C315.547 376.042 325.77 365.616 338.536 365.462C351.302 365.31 361.779 375.487 361.935 388.195C362.091 400.904 351.868 411.33 339.102 411.483Z" fill="#ABABAB"/>
<path d="M339.102 411.483C326.335 411.636 315.859 401.458 315.703 388.75C315.547 376.042 325.77 365.616 338.536 365.462C351.302 365.31 361.779 375.487 361.935 388.195C362.091 400.904 351.868 411.33 339.102 411.483Z" stroke="black"/>
<path d="M76.5933 354.702C60.4517 354.702 47.3188 367.438 47.3188 383.093C47.3188 398.748 60.451 411.485 76.5933 411.485C92.7356 411.485 105.867 398.749 105.867 383.093C105.867 367.438 92.7349 354.702 76.5933 354.702ZM76.5933 403.893C64.7687 403.893 55.147 394.561 55.147 383.093C55.147 371.625 64.7687 362.293 76.5933 362.293C88.4178 362.293 98.0395 371.625 98.0395 383.093C98.0395 394.561 88.4178 403.893 76.5933 403.893Z" fill="#232224"/>
<path d="M76.876 406.103C64.1096 406.257 53.6334 396.079 53.4773 383.37C53.3213 370.662 63.5442 360.236 76.3106 360.083C89.077 359.93 99.5525 370.108 99.7093 382.816C99.8653 395.524 89.6424 405.951 76.876 406.103Z" fill="#ABABAB"/>
<path d="M76.876 406.103C64.1096 406.257 53.6334 396.079 53.4773 383.37C53.3213 370.662 63.5442 360.236 76.3106 360.083C89.077 359.93 99.5525 370.108 99.7093 382.816C99.8653 395.524 89.6424 405.951 76.876 406.103Z" stroke="black"/>
<path d="M29.4764 175.608C13.3355 175.608 0.202637 188.344 0.202637 204C0.202637 219.655 13.334 232.392 29.4764 232.392C45.6194 232.392 58.7508 219.656 58.7508 204C58.7508 188.344 45.6179 175.608 29.4764 175.608ZM29.4764 224.8C17.6518 224.8 8.0301 215.468 8.0301 204C8.0301 192.532 17.6518 183.2 29.4764 183.2C41.3009 183.2 50.9233 192.532 50.9233 204C50.9233 215.468 41.3009 224.8 29.4764 224.8Z" fill="#232224"/>
<path d="M29.7591 227.01C16.9927 227.164 6.51716 216.985 6.36114 204.277C6.20512 191.569 16.4273 181.143 29.1937 180.99C41.9601 180.836 52.4363 191.015 52.5923 203.723C52.7483 216.431 42.5262 226.857 29.7591 227.01Z" fill="#ABABAB"/>
<path d="M29.7591 227.01C16.9927 227.164 6.51716 216.985 6.36114 204.277C6.20512 191.569 16.4273 181.143 29.1937 180.99C41.9601 180.836 52.4363 191.015 52.5923 203.723C52.7483 216.431 42.5262 226.857 29.7591 227.01Z" stroke="black"/>
</svg>
