<svg width="297" height="121" viewBox="0 0 297 121" fill="none" xmlns="http://www.w3.org/2000/svg">
<path d="M284.291 56.7284C282.944 56.7284 281.853 56.4358 281.853 56.0745C281.853 55.7136 282.944 55.4209 284.291 55.4209C285.639 55.4209 286.73 55.7136 286.73 56.0745C286.73 56.4358 285.639 56.7284 284.291 56.7284Z" fill="#910000"/>
<path d="M284.291 56.7284C282.944 56.7284 281.853 56.4358 281.853 56.0745C281.853 55.7136 282.944 55.4209 284.291 55.4209C285.639 55.4209 286.73 55.7136 286.73 56.0745C286.73 56.4358 285.639 56.7284 284.291 56.7284Z" stroke="#910000" stroke-width="2"/>
<path d="M294.439 65.146C294.116 63.909 294.154 62.8357 294.525 62.7494C294.896 62.6626 295.458 63.5956 295.781 64.8326C296.103 66.07 296.065 67.1429 295.694 67.2296C295.324 67.316 294.762 66.3834 294.439 65.146Z" fill="#910000"/>
<path d="M294.439 65.146C294.116 63.909 294.154 62.8357 294.525 62.7494C294.896 62.6626 295.458 63.5956 295.781 64.8326C296.103 66.07 296.065 67.1429 295.694 67.2296C295.324 67.316 294.762 66.3834 294.439 65.146Z" stroke="#910000" stroke-width="2"/>
<path d="M274.772 63.9263C274.437 65.1606 273.865 66.088 273.496 65.9982C273.126 65.9085 273.098 64.8348 273.434 63.6008C273.769 62.3665 274.34 61.4387 274.71 61.5289C275.08 61.6186 275.108 62.6919 274.772 63.9263Z" fill="#910000"/>
<path d="M274.772 63.9263C274.437 65.1606 273.865 66.088 273.496 65.9982C273.126 65.9085 273.098 64.8348 273.434 63.6008C273.769 62.3665 274.34 61.4387 274.71 61.5289C275.08 61.6186 275.108 62.6919 274.772 63.9263Z" stroke="#910000" stroke-width="2"/>
<path d="M290.041 74.3819C291.157 73.6683 292.235 73.3319 292.449 73.6314C292.663 73.9304 291.931 74.7515 290.816 75.465C289.699 76.1789 288.621 76.5149 288.408 76.2158C288.194 75.9168 288.926 75.0958 290.041 74.3819Z" fill="#910000"/>
<path d="M290.041 74.3819C291.157 73.6683 292.235 73.3319 292.449 73.6314C292.663 73.9304 291.931 74.7515 290.816 75.465C289.699 76.1789 288.621 76.5149 288.408 76.2158C288.194 75.9168 288.926 75.0958 290.041 74.3819Z" stroke="#910000" stroke-width="2"/>
<path d="M277.612 73.6488C278.601 74.5143 279.193 75.4303 278.933 75.6955C278.674 75.9606 277.662 75.4741 276.673 74.6086C275.684 73.7434 275.093 72.827 275.352 72.5619C275.611 72.2972 276.623 72.7837 277.612 73.6488Z" fill="#910000"/>
<path d="M277.612 73.6488C278.601 74.5143 279.193 75.4303 278.933 75.6955C278.674 75.9606 277.662 75.4741 276.673 74.6086C275.684 73.7434 275.093 72.827 275.352 72.5619C275.611 72.2972 276.623 72.7837 277.612 73.6488Z" stroke="#910000" stroke-width="2"/>
<path d="M285.215 56.7288H283.367V63.4567H285.215V56.7288Z" fill="#910000"/>
<path d="M285.215 56.7288H283.367V63.4567H285.215V56.7288Z" stroke="#910000" stroke-width="2"/>
<path d="M294.507 66.203L294.309 64.4652L287.238 65.1863L287.436 66.9245L294.507 66.203Z" fill="#910000"/>
<path d="M294.507 66.203L294.309 64.4652L287.238 65.1863L287.436 66.9245L294.507 66.203Z" stroke="#910000" stroke-width="2"/>
<path d="M286.692 68.2828L285.215 69.3331L289.487 74.7117L290.964 73.6618L286.692 68.2828Z" fill="#910000"/>
<path d="M286.692 68.2828L285.215 69.3331L289.487 74.7117L290.964 73.6618L286.692 68.2828Z" stroke="#910000" stroke-width="2"/>
<path d="M283.031 69.4402L281.647 68.2828L276.938 73.3258L278.323 74.4828L283.031 69.4402Z" fill="#910000"/>
<path d="M283.031 69.4402L281.647 68.2828L276.938 73.3258L278.323 74.4828L283.031 69.4402Z" stroke="#910000" stroke-width="2"/>
<path d="M274.843 63.1482L274.531 64.8713L281.541 66.0045L281.853 64.2815L274.843 63.1482Z" fill="#910000"/>
<path d="M274.843 63.1482L274.531 64.8713L281.541 66.0045L281.853 64.2815L274.843 63.1482Z" stroke="#910000" stroke-width="2"/>
<path d="M284.101 71.9982C280.799 71.8994 278.207 69.2852 278.312 66.1596C278.417 63.0343 281.179 60.5807 284.481 60.6795C287.783 60.7787 290.375 63.3929 290.27 66.5182C290.165 69.6438 287.403 72.0974 284.101 71.9982Z" fill="#910000"/>
<path d="M284.101 71.9982C280.799 71.8994 278.207 69.2852 278.312 66.1596C278.417 63.0343 281.179 60.5807 284.481 60.6795C287.783 60.7787 290.375 63.3929 290.27 66.5182C290.165 69.6438 287.403 72.0974 284.101 71.9982Z" stroke="#910000" stroke-width="2"/>
<path d="M12.604 57.5184L12.8453 57.1935L13.3602 56.4932L13.8875 55.7691L14.4209 55.0345L14.9619 54.2913L15.5115 53.5424L16.071 52.7905L16.6399 52.0382L17.2196 51.2894L17.8091 50.5469L18.4093 49.8146L19.0193 49.0954L19.6388 48.3936L20.2674 47.7121L20.9032 47.0551L21.5462 46.4259L22.194 45.8281L22.8457 45.2648L23.4995 44.7395L23.9642 44.3909L24.2613 44.1793L24.5833 43.959L24.904 43.7497L25.2234 43.5517L25.5411 43.3649L25.8566 43.1895L26.17 43.0257L26.4808 42.8732L26.7895 42.732L27.0956 42.6021L27.3991 42.4839L27.7001 42.3762L27.9989 42.2794L28.2956 42.1936L28.591 42.1179L28.8855 42.0524L29.1796 41.9967L29.4742 41.9511L29.77 41.915L30.0679 41.8886L30.3698 41.872L30.6759 41.8656L30.988 41.869L31.3069 41.8833L31.6341 41.9085L31.7378 41.9202L31.6233 41.9093L31.8613 41.9338L32.1828 41.9752L32.4516 42.0181L32.7187 42.0678L32.985 42.1243L33.2503 42.1875L33.5157 42.2576L33.7811 42.3348L34.2223 42.4767L34.7937 42.6887L35.3258 42.9153L35.8625 43.171L36.4036 43.4553L36.9485 43.7689L37.4973 44.1108L38.0482 44.4809L38.6008 44.8785L39.1534 45.3021L39.7056 45.7501L40.2557 46.2219L40.8027 46.7151L41.3463 47.2279L41.8848 47.7592L42.4181 48.3063L42.9455 48.8673L43.4659 49.4407L43.9791 50.0235L44.485 50.6146L44.9832 51.2118L45.4732 51.8127L45.9551 52.4159L46.4288 53.0187L46.8944 53.62L47.3523 54.2175L47.8024 54.8098L48.2453 55.3952L48.464 55.6844L48.4477 55.6629L49.1928 56.6577L50.6059 58.5975L51.973 60.5384L53.3154 62.5019L54.6367 64.4858L55.9413 66.4884L57.233 68.5084L58.5166 70.5442L60.4386 73.6271L63.0053 77.7658L64.9577 80.8897L66.2855 82.9854L67.6334 85.0792L69.0083 87.1737L69.7161 88.234C69.7191 88.2381 69.7217 88.2419 69.7243 88.246L69.8315 88.4053L70.0462 88.7264L70.3819 89.2283L70.8544 89.9351L71.356 90.6824L71.8863 91.4667L72.4445 92.283L73.0301 93.1275L73.6432 93.9961L74.2833 94.8847L74.9504 95.7898L75.6445 96.7074L76.366 97.6344L77.115 98.567L77.8918 99.5015L78.6974 100.435L79.5321 101.364L80.3969 102.284L81.2933 103.194L82.2224 104.089L83.1857 104.965L84.1855 105.819L85.2234 106.647L86.0539 107.268L86.6331 107.679L87.1981 108.062L87.7747 108.436L88.3634 108.799L88.9644 109.152L89.5784 109.492L90.206 109.82L90.847 110.135L91.502 110.435L92.1713 110.72L92.8551 110.988L93.5535 111.239L94.266 111.47L94.9936 111.682L95.7352 111.872L96.4907 112.039L97.2594 112.182L98.0409 112.301L98.8336 112.392L99.3039 112.433C99.4064 112.441 99.5093 112.448 99.6122 112.452L99.8295 112.461L100.622 112.467L101.522 112.424L102.406 112.332L103.268 112.193L104.109 112.013L104.925 111.796L105.718 111.545L106.488 111.263L107.237 110.954L107.965 110.62L108.675 110.262L109.368 109.883L110.046 109.484L110.711 109.066L111.364 108.63L112.007 108.176L112.64 107.705L113.266 107.218L113.885 106.714L114.498 106.194L115.106 105.658L115.709 105.107L116.309 104.54L116.905 103.959L117.499 103.363L118.09 102.752L118.679 102.126L119.267 101.486L119.853 100.832L120.437 100.165L121.021 99.4838L121.603 98.7891L122.186 98.0813L122.767 97.3606L123.348 96.6272L123.928 95.8817L124.508 95.1238L125.371 93.9735L126.523 92.3959L127.681 90.7653L128.837 89.0932L129.992 87.3819L131.145 85.6338L132.296 83.8517L133.444 82.0377L134.589 80.1943L135.73 78.3241L136.868 76.4299L138 74.5138L139.127 72.5789L140.249 70.6275L141.364 68.6621L142.472 66.6857L143.572 64.7011L145.203 61.7195L147.345 57.7368L148.928 54.7503L149.969 52.7676L150.994 50.7999L152.007 48.8454L153.005 46.9071L153.988 44.988L154.955 43.0904L155.906 41.2173L156.839 39.3712L157.755 37.5553L158.651 35.7725L159.529 34.0255L160.173 32.7397L160.597 31.8956L161.014 31.0623L161.427 30.2396L161.833 29.4283L162.234 28.6289L162.63 27.8413L163.019 27.066L163.402 26.3036L163.78 25.5539L164.151 24.8182L164.516 24.0961L164.874 23.3883L165.226 22.6955L165.571 22.0174L165.91 21.3547L166.241 20.7079L166.566 20.0772L166.883 19.4635L167.193 18.8667L167.496 18.2872L167.791 17.7262L168.077 17.1833L168.356 16.6596L168.491 16.4092L168.462 16.4615L168.563 16.2774L168.7 16.0493L168.825 15.8595L168.964 15.6626L169.117 15.46L169.283 15.2537L169.461 15.0455L169.652 14.8361L169.854 14.6279L170.065 14.4216L170.287 14.2187L170.516 14.0202L170.754 13.8271L170.998 13.6407L171.247 13.4619L171.501 13.2913L171.758 13.1302L172.018 12.9788L172.278 12.8376L172.539 12.7077L172.799 12.5891L173.057 12.4822L173.312 12.3869L173.562 12.3041L173.808 12.2329L174.048 12.1734L174.282 12.1256L174.51 12.0891L174.732 12.0635L174.946 12.0477L175.156 12.0424L175.36 12.0462L175.374 12.0507L175.169 12.0446L175.506 12.059L175.82 12.0944L176.009 12.1362L176.2 12.1892L176.396 12.2551L176.603 12.335L176.822 12.4313L177.055 12.5465L177.303 12.6817L177.565 12.8395L177.84 13.0198L178.127 13.2235L178.425 13.4509L178.731 13.7017L179.044 13.9747L179.361 14.2691L179.682 14.5835L180.004 14.9171L180.327 15.2676L180.649 15.6336L180.97 16.0135L181.288 16.4054L181.773 17.0323L182.394 17.8802L182.823 18.4962L183.101 18.9077L183.385 19.334L183.663 19.7583L183.934 20.18L184.201 20.5968L184.33 20.7997L184.312 20.7711L184.745 21.462L185.543 22.7779L186.3 24.0852L187.036 25.409L187.751 26.7482L188.446 28.1022L189.125 29.4701L189.786 30.8511L190.433 32.2446L191.066 33.6494L191.688 35.0647L192.3 36.4898L193.204 38.6517L194.386 41.5512L194.967 42.997L194.961 42.9831L195.406 44.1006L196.277 46.3149L197.56 49.6433L199.24 54.0974L200.897 58.567L202.547 63.055L204.204 67.5581L205.881 72.0725L207.592 76.5948L208.47 78.8697C208.471 78.875 208.474 78.8802 208.476 78.8855L209.131 80.5697L210.468 83.9624L211.506 86.5348L212.22 88.2629L212.95 89.987L213.702 91.7133L214.479 93.4408L215.282 95.1674L216.114 96.8926L216.979 98.6148L217.879 100.332L218.816 102.044L219.794 103.747L220.815 105.442L221.361 106.314C221.367 106.325 221.374 106.336 221.382 106.347L221.524 106.57L221.83 107.049L222.16 107.557L222.511 108.087L222.882 108.636L223.273 109.203L223.686 109.784L224.119 110.377L224.575 110.979L225.052 111.588L225.553 112.203L226.079 112.82L226.629 113.438L227.206 114.054L227.812 114.667L228.447 115.273L229.115 115.871L229.818 116.457L230.557 117.029L231.336 117.584L232.157 118.118L233.024 118.626L233.94 119.103L234.906 119.543L235.924 119.94L236.994 120.286L238.115 120.572L239.048 120.755L239.709 120.854L240.316 120.922L240.931 120.969L241.554 120.995L242.182 121L242.815 120.982L243.451 120.942L244.089 120.879L244.727 120.794L245.112 120.732C245.156 120.724 245.2 120.716 245.244 120.708L245.447 120.67L246.047 120.545L246.701 120.387L247.342 120.209L247.969 120.013L248.582 119.799L249.182 119.569L249.767 119.324L250.338 119.065L250.896 118.793L251.665 118.386L252.666 117.798L253.659 117.151L254.604 116.472L255.505 115.766L256.365 115.036L257.187 114.288L257.973 113.523L258.727 112.744L259.45 111.955L260.144 111.157L260.811 110.354L261.452 109.547L262.068 108.739L262.661 107.932L263.23 107.13L263.777 106.334L264.302 105.547L264.806 104.772L265.288 104.011L265.75 103.267L266.191 102.542L266.612 101.84L267.012 101.165L267.392 100.517L267.75 99.9025L268.087 99.3238L268.246 99.0504C269.971 96.0888 268.636 92.4592 265.263 90.9437C261.891 89.4283 257.758 90.6011 256.032 93.5628L255.87 93.8425L255.537 94.4133L255.194 95.0022L254.839 95.608L254.472 96.2281L254.093 96.8606L253.702 97.5026L253.3 98.1521L252.886 98.8061L252.461 99.4616L252.025 100.116L251.58 100.767L251.125 101.411L250.661 102.045L250.19 102.666L249.712 103.272L249.229 103.858L248.742 104.423L248.253 104.963L247.764 105.475L247.277 105.956L246.795 106.404L246.319 106.816L245.855 107.191L245.405 107.527L244.971 107.823L244.517 108.101L244.175 108.29L243.982 108.388L243.795 108.477L243.615 108.557L243.442 108.629L243.275 108.691L243.115 108.747L242.961 108.795L242.813 108.836L242.603 108.884L242.399 108.922L242.531 108.898L242.544 108.899L242.443 108.918L242.35 108.933L242.261 108.944L242.177 108.952L242.095 108.956L242.015 108.958L241.935 108.957L241.853 108.953L241.833 108.958L241.758 108.957L241.56 108.924L241.34 108.87L241.097 108.791L240.831 108.684L240.543 108.548L240.236 108.38L239.913 108.18L239.575 107.95L239.228 107.69L238.872 107.4L238.51 107.084L238.146 106.743L237.781 106.379L237.417 105.994L237.055 105.592L236.696 105.175L236.343 104.745L235.996 104.304L235.656 103.856L235.323 103.403L234.998 102.947L234.681 102.49L234.374 102.035L234.075 101.584L233.785 101.137L233.501 100.694L233.358 100.471L233.379 100.504L232.937 99.7997L232.041 98.3185L231.177 96.8154L230.34 95.2921L229.53 93.7495L228.744 92.1881L227.981 90.6101L227.239 89.0156L226.515 87.4068L225.808 85.784L225.114 84.1488L224.437 82.5102L223.433 80.0245L222.113 76.6712L221.457 74.9871L221.463 75.0029L220.611 72.7947L218.923 68.3356L217.258 63.854L215.602 59.3532L213.942 54.8369L212.263 50.3089L210.554 45.7791L209.244 42.3826L208.356 40.1216L207.91 39.0041C207.909 38.9996 207.907 38.9951 207.905 38.9902L207.302 37.4902L206.081 34.4942L205.137 32.2401L204.487 30.7269L203.821 29.211L203.136 27.6933L202.43 26.1752L201.702 24.6578L200.949 23.1416L200.169 21.628L199.362 20.1182L198.523 18.6129L197.651 17.114L196.761 15.6479L196.328 14.957C196.322 14.9476 196.316 14.9378 196.31 14.9284L196.165 14.7013L195.869 14.2378L195.557 13.754L195.228 13.2521L194.883 12.7344L194.511 12.1877L193.92 11.3466L193.101 10.2348L192.444 9.39401L191.97 8.81455L191.475 8.23285L190.957 7.65114L190.415 7.07054L189.847 6.49297L189.253 5.92068L188.629 5.35515L187.975 4.79905L187.288 4.25459L186.567 3.72448L185.808 3.21167L185.011 2.72032L184.174 2.25345L183.295 1.81631L182.373 1.41344L181.411 1.05049L180.407 0.732711L179.364 0.465746L178.288 0.255291L177.181 0.105435L176.169 0.0248649L175.832 0.0105481C175.764 0.00753596 175.696 0.0056567 175.628 0.00452717L175.095 0L174.211 0.0222222L173.34 0.0820865L172.485 0.177731L171.645 0.306491L170.822 0.466873L170.019 0.656646L169.234 0.873904L168.468 1.11674L167.722 1.38368L166.997 1.67285L166.29 1.98311L165.604 2.31216L164.937 2.6597L164.289 3.02417L163.661 3.40443L163.051 3.79939L162.461 4.20829L161.89 4.63074L161.337 5.06523L160.803 5.51179L160.287 5.96924L159.791 6.43763L159.313 6.91618L158.853 7.40451L158.413 7.90264L157.991 8.41055L157.589 8.9275L157.207 9.4535L156.844 9.98927L156.502 10.5349L156.207 11.0428L156.106 11.2265C156.096 11.2442 156.087 11.2615 156.077 11.2788L155.93 11.5541L155.635 12.1083L155.333 12.6787L155.025 13.2646L154.711 13.8662L154.391 14.4833L154.064 15.1151L153.731 15.762L153.392 16.4235L153.047 17.0994L152.696 17.7887L152.339 18.4921L151.976 19.2089L151.607 19.9386L151.233 20.6811L150.853 21.436L150.467 22.203L150.076 22.982L149.679 23.7719L149.277 24.5735L148.87 25.3857L148.458 26.2083L148.04 27.0412L147.618 27.8838L146.975 29.1647L146.102 30.9046L145.211 32.6776L144.301 34.4807L143.375 36.3117L142.433 38.1679L141.476 40.0459L140.504 41.9432L139.519 43.857L138.52 45.7851L137.51 47.7238L136.49 49.6666L134.941 52.5906L132.836 56.5029L131.236 59.4284L130.163 61.3648L129.085 63.2892L128.001 65.1989L126.914 67.0913L125.824 68.9629L124.731 70.8112L123.638 72.6331L122.545 74.4257L121.452 76.1855L120.361 77.9104L119.273 79.5964L118.189 81.241L117.11 82.8408L116.038 84.3924L114.974 85.8932L113.912 87.3484L113.12 88.4053L112.6 89.0853L112.084 89.7498L111.571 90.3982L111.061 91.0303L110.556 91.6455L110.055 92.2431L109.559 92.8233L109.068 93.3854L108.582 93.9283L108.103 94.4525L107.629 94.9566L107.162 95.4408L106.702 95.9043L106.251 96.3463L105.808 96.7669L105.375 97.1652L104.951 97.541L104.539 97.8938L104.138 98.2228L103.751 98.5282L103.378 98.8095L103.021 99.0659L102.681 99.2978L102.359 99.5049L102.058 99.6875L101.78 99.8456L101.526 99.9804L101.298 100.093L101.099 100.183L100.929 100.254L100.791 100.308L100.684 100.346L100.611 100.373L100.568 100.392L100.556 100.405L100.569 100.418L100.485 100.427L100.267 100.418L100.575 100.436L100.522 100.435L100.274 100.413L100.022 100.381L99.7661 100.339L99.5041 100.287L99.2362 100.224L98.9622 100.149L98.6819 100.063L98.3946 99.9653L98.1009 99.8547L97.8013 99.7315L97.496 99.5956L97.1848 99.4469L96.8684 99.2854L96.5472 99.1107L96.2214 98.9232L95.8922 98.7229L95.5595 98.5101L95.2238 98.2854L94.9112 98.0674L94.4208 97.7074L93.7288 97.1634L93.0356 96.5779L92.3428 95.954L91.6534 95.2955L90.9692 94.6061L90.2922 93.8896L89.6247 93.1501L88.967 92.3911L88.3214 91.6166L87.6886 90.8308L87.0695 90.0371L86.465 89.2393L85.8755 88.441L85.3023 87.6459L84.7454 86.8574L84.2052 86.0792L83.6817 85.3141L83.1754 84.5656L82.6858 83.8359L82.2134 83.1288L81.8704 82.6164L81.6479 82.2843L81.5407 82.1247L81.5488 82.1367L80.8929 81.1551L79.5763 79.1502L78.2738 77.1272L76.9842 75.0922L75.0529 72.0021L72.4724 67.8416L70.5183 64.7068L69.1939 62.6074L67.8486 60.5045L66.4771 58.4006L65.0752 56.2974L63.6381 54.1972L62.1608 52.1023L60.6551 50.0375L59.91 49.0423C59.9048 49.0352 59.8993 49.028 59.8937 49.0209L59.6716 48.7268L59.2129 48.1206L58.7344 47.4911L58.2362 46.8412L57.7188 46.1737L57.1812 45.4903L56.6234 44.7934L56.0451 44.0855L55.4457 43.3687L54.8249 42.6454L54.1814 41.9172L53.5152 41.1864L52.8249 40.4556L52.1098 39.7263L51.369 39.0011L50.6011 38.282L49.805 37.5715L48.9793 36.8716L48.1227 36.1852L47.2335 35.5146L46.3109 34.8629L45.3523 34.233L44.3572 33.6283L43.3244 33.0522L42.2522 32.5089L41.1401 32.0025L39.9877 31.5371L38.8387 31.1309L37.9654 30.8605L37.3429 30.6877L36.711 30.5288L36.07 30.3846L35.4205 30.2555L34.7624 30.1421L34.0971 30.0446L33.4746 29.9693L33.2366 29.9445C33.1985 29.9403 33.1603 29.9369 33.1226 29.9335L32.6343 29.8921L31.7897 29.8424L30.9507 29.8206L30.119 29.827L29.2949 29.8609L28.4804 29.9211L27.6757 30.0077L26.8821 30.1196L26.101 30.2555L25.3327 30.4147L24.5781 30.5962L23.8373 30.7992L23.1115 31.0217L22.4002 31.263L21.7044 31.5224L21.0236 31.798L20.3582 32.0895L19.7079 32.3956L19.0721 32.7149L18.4513 33.0469L17.8451 33.3907L17.253 33.745L16.6747 34.1098L16.11 34.4833L15.5583 34.8659L14.9932 35.2755L14.1872 35.8919L13.1862 36.7093L12.2288 37.5474L11.3122 38.4017L10.4342 39.2684L9.59261 40.1438L8.78575 41.0237L8.01106 41.9055L7.26765 42.7847L6.55426 43.6578L5.86959 44.5212L5.21279 45.3713L4.583 46.2042L3.98021 47.0156L3.40358 47.8013L2.85354 48.557L2.33006 49.2777L1.83403 49.9588L1.35858 50.606L1.11678 50.9309C-0.954376 53.7164 -0.0622053 57.4495 3.10991 59.2684C6.28202 61.0877 10.5324 60.3042 12.604 57.5184Z" fill="#545454"/>
</svg>
