<?xml version="1.0" encoding="UTF-8"?>
<!DOCTYPE svg PUBLIC "-//W3C//DTD SVG 1.1//EN" "http://www.w3.org/Graphics/SVG/1.1/DTD/svg11.dtd">
<svg version="1.1" xmlns="http://www.w3.org/2000/svg" xmlns:xlink="http://www.w3.org/1999/xlink" x="0" y="0" width="2048" height="2732" viewBox="0, 0, 1024, 1366">
  <g id="Layer_1">
    <text transform="matrix(0.921, -0.391, 0.391, 0.921, 72.194, 77.357)"/>
    <path d="M175.867,666.387 L176.431,665.524 L177.632,663.665 L178.862,661.741 L180.106,659.79 L181.368,657.817 L182.65,655.828 L183.954,653.83 L185.282,651.833 L186.633,649.844 L188.009,647.872 L189.409,645.926 L190.832,644.017 L192.277,642.152 L193.742,640.343 L195.226,638.598 L196.725,636.927 L198.237,635.339 L199.757,633.843 L201.281,632.447 L202.365,631.522 L203.059,630.96 L203.81,630.375 L204.558,629.819 L205.303,629.293 L206.043,628.796 L206.779,628.331 L207.511,627.895 L208.236,627.49 L208.956,627.116 L209.67,626.771 L210.377,626.456 L211.08,626.171 L211.777,625.914 L212.469,625.685 L213.158,625.484 L213.845,625.31 L214.53,625.163 L215.217,625.041 L215.907,624.946 L216.603,624.876 L217.306,624.832 L218.021,624.814 L218.748,624.824 L219.493,624.862 L220.256,624.929 L220.497,624.96 L220.231,624.93 L220.785,624.996 L221.535,625.106 L222.162,625.22 L222.786,625.352 L223.406,625.502 L224.026,625.67 L224.644,625.856 L225.263,626.06 L226.292,626.437 L227.625,627 L228.867,627.603 L230.119,628.281 L231.381,629.037 L232.652,629.869 L233.931,630.778 L235.217,631.761 L236.505,632.816 L237.795,633.941 L239.082,635.132 L240.365,636.384 L241.642,637.694 L242.909,639.057 L244.166,640.467 L245.41,641.92 L246.639,643.411 L247.853,644.933 L249.051,646.482 L250.231,648.052 L251.392,649.638 L252.535,651.234 L253.659,652.835 L254.765,654.437 L255.851,656.033 L256.918,657.621 L257.968,659.194 L259.002,660.748 L259.511,661.516 L259.474,661.459 L261.211,664.101 L264.507,669.253 L267.696,674.409 L270.827,679.623 L273.909,684.892 L276.952,690.211 L279.966,695.577 L282.96,700.984 L287.442,709.172 L293.429,720.163 L297.984,728.461 L301.081,734.027 L304.224,739.588 L307.431,745.151 L309.083,747.966 L309.083,747.966 C309.089,747.977 309.095,747.988 309.102,747.998 L309.102,747.998 L309.352,748.422 L309.853,749.274 L310.636,750.608 L311.738,752.485 L312.907,754.47 L314.144,756.553 L315.447,758.721 L316.813,760.964 L318.243,763.27 L319.736,765.631 L321.292,768.034 L322.911,770.472 L324.594,772.933 L326.341,775.41 L328.153,777.893 L330.031,780.372 L331.978,782.838 L333.996,785.284 L336.087,787.699 L338.253,790.075 L340.501,792.402 L342.832,794.671 L345.253,796.872 L347.191,798.521 L348.542,799.612 L349.859,800.63 L351.204,801.622 L352.577,802.587 L353.98,803.522 L355.412,804.427 L356.876,805.298 L358.371,806.134 L359.899,806.931 L361.46,807.687 L363.055,808.399 L364.683,809.065 L366.346,809.681 L368.043,810.243 L369.773,810.748 L371.535,811.192 L373.328,811.573 L375.151,811.886 L377,812.129 L378.097,812.238 L378.097,812.238 C378.336,812.26 378.576,812.277 378.815,812.289 L378.815,812.289 L379.323,812.313 L381.171,812.327 L383.271,812.214 L385.331,811.969 L387.344,811.601 L389.304,811.123 L391.209,810.545 L393.059,809.878 L394.855,809.13 L396.6,808.309 L398.299,807.421 L399.954,806.472 L401.571,805.466 L403.153,804.407 L404.703,803.297 L406.226,802.138 L407.726,800.932 L409.204,799.681 L410.663,798.386 L412.107,797.048 L413.537,795.667 L414.955,794.244 L416.362,792.78 L417.761,791.276 L419.152,789.731 L420.536,788.147 L421.915,786.524 L423.29,784.863 L424.66,783.164 L426.026,781.428 L427.39,779.655 L428.752,777.845 L430.111,776 L431.469,774.121 L432.825,772.207 L434.18,770.259 L435.533,768.278 L436.886,766.265 L438.898,763.211 L441.586,759.02 L444.287,754.689 L446.984,750.248 L449.678,745.703 L452.367,741.061 L455.051,736.328 L457.729,731.51 L460.399,726.614 L463.062,721.647 L465.714,716.615 L468.356,711.527 L470.986,706.387 L473.602,701.204 L476.203,695.985 L478.787,690.736 L481.352,685.465 L485.156,677.546 L490.154,666.968 L493.846,659.035 L496.273,653.77 L498.666,648.544 L501.027,643.353 L503.355,638.205 L505.648,633.107 L507.904,628.067 L510.121,623.092 L512.299,618.19 L514.434,613.367 L516.526,608.632 L518.572,603.991 L520.075,600.577 L521.062,598.335 L522.037,596.121 L522.998,593.937 L523.947,591.782 L524.882,589.658 L525.804,587.566 L526.713,585.507 L527.607,583.482 L528.487,581.492 L529.353,579.537 L530.204,577.62 L531.04,575.74 L531.861,573.899 L532.666,572.098 L533.456,570.338 L534.229,568.62 L534.986,566.946 L535.726,565.315 L536.449,563.73 L537.154,562.192 L537.842,560.701 L538.512,559.26 L539.163,557.869 L539.476,557.204 L539.41,557.342 L539.645,556.854 L539.963,556.247 L540.255,555.743 L540.579,555.22 L540.936,554.682 L541.323,554.135 L541.74,553.581 L542.184,553.026 L542.655,552.472 L543.149,551.925 L543.665,551.385 L544.201,550.858 L544.755,550.346 L545.323,549.851 L545.905,549.376 L546.497,548.923 L547.097,548.494 L547.703,548.092 L548.311,547.718 L548.919,547.372 L549.525,547.057 L550.126,546.773 L550.72,546.521 L551.305,546.3 L551.878,546.111 L552.439,545.954 L552.985,545.827 L553.516,545.73 L554.032,545.661 L554.534,545.62 L555.022,545.605 L555.498,545.615 L555.531,545.628 L555.054,545.612 L555.84,545.65 L556.57,545.743 L557.013,545.855 L557.457,545.996 L557.916,546.17 L558.397,546.383 L558.908,546.639 L559.452,546.944 L560.03,547.304 L560.641,547.722 L561.284,548.201 L561.954,548.743 L562.648,549.347 L563.361,550.012 L564.09,550.737 L564.831,551.519 L565.579,552.355 L566.331,553.24 L567.084,554.172 L567.836,555.144 L568.583,556.153 L569.324,557.193 L570.458,558.858 L571.905,561.111 L572.905,562.746 L573.556,563.84 L574.217,564.971 L574.865,566.099 L575.499,567.218 L576.12,568.326 L576.421,568.865 L576.379,568.789 L577.39,570.623 L579.25,574.119 L581.017,577.591 L582.733,581.106 L584.4,584.663 L586.023,588.259 L587.604,591.892 L589.148,595.561 L590.656,599.261 L592.134,602.993 L593.584,606.752 L595.01,610.537 L597.121,616.279 L599.877,623.979 L601.231,627.82 L601.218,627.782 L602.256,630.75 L604.287,636.631 L607.28,645.472 L611.199,657.302 L615.064,669.173 L618.912,681.093 L622.776,693.052 L626.688,705.043 L630.68,717.054 L632.727,723.095 L632.727,723.095 C632.732,723.109 632.737,723.123 632.742,723.137 L632.742,723.137 L634.271,727.61 L637.388,736.622 L639.808,743.454 L641.475,748.043 L643.179,752.622 L644.933,757.207 L646.744,761.795 L648.617,766.382 L650.559,770.964 L652.576,775.538 L654.674,780.099 L656.861,784.644 L659.142,789.17 L661.524,793.671 L662.796,795.985 L662.796,795.985 C662.812,796.015 662.828,796.044 662.844,796.073 L662.844,796.073 L663.176,796.667 L663.891,797.937 L664.661,799.286 L665.478,800.695 L666.344,802.155 L667.257,803.66 L668.219,805.203 L669.23,806.777 L670.292,808.376 L671.407,809.995 L672.575,811.627 L673.8,813.266 L675.084,814.907 L676.431,816.544 L677.843,818.17 L679.326,819.781 L680.883,821.368 L682.521,822.926 L684.246,824.446 L686.062,825.919 L687.979,827.336 L690.002,828.685 L692.137,829.952 L694.39,831.122 L696.765,832.176 L699.26,833.094 L701.874,833.856 L704.052,834.341 L705.594,834.603 L707.01,834.783 L708.445,834.909 L709.897,834.979 L711.362,834.991 L712.838,834.945 L714.322,834.838 L715.81,834.671 L717.299,834.444 L718.196,834.279 L718.196,834.279 C718.299,834.259 718.401,834.238 718.503,834.217 L718.503,834.217 L718.979,834.116 L720.377,833.784 L721.902,833.364 L723.397,832.891 L724.86,832.37 L726.291,831.802 L727.689,831.191 L729.054,830.54 L730.387,829.853 L731.686,829.131 L733.48,828.048 L735.817,826.487 L738.132,824.768 L740.337,822.964 L742.438,821.089 L744.444,819.153 L746.361,817.165 L748.196,815.133 L749.954,813.065 L751.64,810.968 L753.26,808.85 L754.815,806.716 L756.31,804.572 L757.747,802.427 L759.128,800.285 L760.456,798.154 L761.732,796.04 L762.956,793.95 L764.131,791.89 L765.257,789.869 L766.335,787.892 L767.364,785.968 L768.345,784.104 L769.279,782.309 L770.164,780.59 L771,778.958 L771.785,777.42 L772.156,776.695 L772.156,776.695 C776.181,768.828 773.066,759.188 765.2,755.163 C757.333,751.139 747.693,754.253 743.668,762.12 L743.288,762.862 L742.514,764.378 L741.713,765.943 L740.885,767.551 L740.029,769.199 L739.145,770.878 L738.234,772.584 L737.295,774.308 L736.329,776.045 L735.338,777.787 L734.322,779.526 L733.282,781.254 L732.221,782.964 L731.14,784.649 L730.04,786.299 L728.926,787.907 L727.799,789.465 L726.663,790.965 L725.523,792.398 L724.382,793.757 L723.246,795.036 L722.12,796.225 L721.012,797.321 L719.929,798.316 L718.878,799.208 L717.868,799.994 L716.808,800.734 L716.01,801.234 L715.56,801.495 L715.124,801.731 L714.705,801.944 L714.301,802.133 L713.912,802.301 L713.539,802.448 L713.179,802.576 L712.833,802.686 L712.344,802.811 L711.869,802.912 L712.176,802.85 L712.206,802.852 L711.971,802.902 L711.752,802.941 L711.546,802.971 L711.349,802.991 L711.159,803.004 L710.971,803.009 L710.784,803.007 L710.595,802.996 L710.547,803.007 L710.374,803.005 L709.911,802.919 L709.398,802.775 L708.831,802.565 L708.21,802.282 L707.539,801.919 L706.823,801.473 L706.068,800.944 L705.282,800.332 L704.471,799.64 L703.641,798.871 L702.798,798.031 L701.948,797.124 L701.096,796.157 L700.247,795.137 L699.402,794.069 L698.567,792.96 L697.743,791.818 L696.933,790.649 L696.139,789.459 L695.363,788.255 L694.605,787.044 L693.867,785.831 L693.149,784.622 L692.452,783.422 L691.775,782.238 L691.112,781.061 L690.781,780.467 L690.83,780.555 L689.798,778.685 L687.709,774.75 L685.691,770.759 L683.74,766.713 L681.85,762.615 L680.018,758.469 L678.239,754.277 L676.507,750.043 L674.819,745.769 L673.169,741.459 L671.552,737.117 L669.97,732.765 L667.63,726.162 L664.55,717.257 L663.02,712.784 L663.035,712.826 L661.047,706.96 L657.11,695.117 L653.226,683.214 L649.364,671.26 L645.491,659.266 L641.575,647.239 L637.59,635.208 L634.535,626.188 L632.461,620.183 L631.423,617.215 L631.423,617.215 C631.419,617.203 631.414,617.19 631.41,617.178 L631.41,617.178 L630.005,613.193 L627.155,605.237 L624.953,599.249 L623.438,595.23 L621.883,591.204 L620.286,587.174 L618.64,583.142 L616.941,579.111 L615.185,575.084 L613.367,571.064 L611.482,567.054 L609.526,563.057 L607.493,559.075 L605.417,555.181 L604.406,553.347 L604.406,553.347 C604.392,553.321 604.378,553.296 604.364,553.271 L604.364,553.271 L604.028,552.668 L603.337,551.436 L602.608,550.152 L601.841,548.819 L601.036,547.443 L600.168,545.991 L598.791,543.758 L596.879,540.805 L595.348,538.571 L594.243,537.032 L593.087,535.487 L591.879,533.942 L590.615,532.4 L589.291,530.867 L587.904,529.346 L586.449,527.844 L584.923,526.367 L583.321,524.921 L581.638,523.513 L579.869,522.152 L578.01,520.846 L576.057,519.607 L574.007,518.446 L571.858,517.376 L569.611,516.412 L567.269,515.568 L564.839,514.859 L562.327,514.299 L559.747,513.902 L557.386,513.687 L556.601,513.649 L556.601,513.649 C556.442,513.641 556.283,513.636 556.124,513.633 L556.124,513.633 L554.881,513.621 L552.819,513.681 L550.788,513.84 L548.791,514.093 L546.833,514.435 L544.915,514.861 L543.04,515.365 L541.209,515.942 L539.424,516.588 L537.684,517.297 L535.99,518.065 L534.343,518.888 L532.741,519.763 L531.185,520.686 L529.675,521.653 L528.209,522.663 L526.788,523.713 L525.411,524.799 L524.079,525.92 L522.79,527.075 L521.544,528.26 L520.342,529.476 L519.183,530.719 L518.068,531.991 L516.997,533.288 L515.969,534.611 L514.986,535.959 L514.048,537.332 L513.155,538.73 L512.31,540.153 L511.512,541.602 L510.823,542.95 L510.588,543.439 L510.588,543.439 C510.565,543.485 510.543,543.531 510.522,543.578 L510.522,543.578 L510.178,544.309 L509.489,545.781 L508.786,547.295 L508.068,548.852 L507.335,550.45 L506.587,552.088 L505.825,553.767 L505.049,555.485 L504.258,557.242 L503.453,559.036 L502.634,560.868 L501.802,562.736 L500.955,564.639 L500.095,566.577 L499.221,568.549 L498.335,570.554 L497.435,572.592 L496.522,574.66 L495.597,576.759 L494.66,578.888 L493.71,581.045 L492.748,583.23 L491.775,585.442 L490.79,587.679 L489.291,591.082 L487.254,595.703 L485.174,600.411 L483.053,605.201 L480.894,610.064 L478.696,614.993 L476.464,619.981 L474.197,625.021 L471.898,630.104 L469.57,635.224 L467.213,640.373 L464.834,645.533 L461.22,653.299 L456.312,663.69 L452.579,671.461 L450.077,676.603 L447.561,681.715 L445.034,686.787 L442.498,691.813 L439.955,696.784 L437.407,701.693 L434.857,706.531 L432.306,711.292 L429.757,715.967 L427.212,720.547 L424.674,725.025 L422.146,729.393 L419.63,733.642 L417.129,737.764 L414.647,741.749 L412.17,745.615 L410.323,748.422 L409.11,750.228 L407.906,751.992 L406.709,753.714 L405.521,755.393 L404.343,757.027 L403.174,758.615 L402.017,760.156 L400.872,761.648 L399.739,763.091 L398.619,764.482 L397.515,765.822 L396.426,767.107 L395.354,768.338 L394.301,769.513 L393.268,770.63 L392.256,771.688 L391.268,772.686 L390.306,773.623 L389.372,774.497 L388.469,775.308 L387.599,776.054 L386.766,776.735 L385.973,777.351 L385.223,777.901 L384.522,778.386 L383.873,778.807 L383.28,779.165 L382.749,779.462 L382.283,779.703 L381.887,779.891 L381.564,780.034 L381.316,780.136 L381.144,780.208 L381.046,780.257 L381.016,780.294 L381.048,780.327 L380.85,780.349 L380.343,780.325 L381.061,780.376 L380.938,780.372 L380.36,780.313 L379.773,780.229 L379.175,780.118 L378.564,779.979 L377.939,779.811 L377.3,779.614 L376.645,779.385 L375.976,779.124 L375.291,778.831 L374.592,778.504 L373.879,778.143 L373.153,777.747 L372.415,777.318 L371.666,776.854 L370.907,776.356 L370.139,775.825 L369.362,775.26 L368.579,774.662 L367.85,774.083 L366.706,773.128 L365.093,771.683 L363.475,770.128 L361.859,768.47 L360.251,766.721 L358.656,764.89 L357.077,762.987 L355.519,761.023 L353.986,759.008 L352.48,756.951 L351.004,754.864 L349.559,752.755 L348.149,750.636 L346.775,748.516 L345.438,746.405 L344.138,744.311 L342.878,742.244 L341.658,740.212 L340.477,738.224 L339.335,736.286 L338.232,734.408 L337.433,733.046 L336.914,732.164 L336.664,731.74 L336.683,731.772 L335.152,729.165 L332.081,723.84 L329.043,718.467 L326.036,713.062 L321.531,704.856 L315.512,693.806 L310.953,685.48 L307.865,679.903 L304.726,674.318 L301.528,668.73 L298.258,663.144 L294.905,657.567 L291.459,652.003 L287.947,646.518 L286.21,643.876 L286.21,643.876 C286.197,643.857 286.185,643.838 286.172,643.819 L286.172,643.819 L285.653,643.037 L284.583,641.427 L283.467,639.756 L282.306,638.03 L281.098,636.256 L279.845,634.441 L278.544,632.59 L277.195,630.71 L275.797,628.807 L274.348,626.885 L272.848,624.951 L271.294,623.011 L269.684,621.069 L268.016,619.133 L266.288,617.206 L264.497,615.297 L262.64,613.409 L260.714,611.55 L258.716,609.727 L256.642,607.946 L254.489,606.215 L252.254,604.543 L249.933,602.937 L247.523,601.407 L245.022,599.964 L242.428,598.618 L239.741,597.383 L237.06,596.304 L235.023,595.585 L233.571,595.126 L232.097,594.705 L230.603,594.321 L229.088,593.979 L227.553,593.677 L226,593.419 L224.548,593.218 L223.993,593.152 L223.993,593.152 C223.905,593.142 223.816,593.132 223.727,593.123 L223.727,593.123 L222.589,593.014 L220.619,592.881 L218.662,592.824 L216.721,592.841 L214.8,592.93 L212.899,593.091 L211.023,593.321 L209.172,593.618 L207.35,593.979 L205.558,594.402 L203.797,594.884 L202.07,595.422 L200.377,596.013 L198.718,596.655 L197.095,597.343 L195.507,598.076 L193.954,598.85 L192.437,599.662 L190.955,600.511 L189.507,601.393 L188.093,602.305 L186.712,603.247 L185.363,604.215 L184.045,605.208 L182.758,606.223 L181.441,607.311 L179.56,608.948 L177.225,611.12 L174.992,613.346 L172.855,615.615 L170.807,617.916 L168.844,620.241 L166.961,622.579 L165.155,624.92 L163.421,627.255 L161.756,629.574 L160.159,631.868 L158.627,634.126 L157.159,636.337 L155.752,638.492 L154.407,640.579 L153.124,642.586 L151.904,644.501 L150.747,646.309 L149.638,648.028 L149.074,648.891 C144.243,656.29 146.324,666.204 153.723,671.036 C161.121,675.867 171.036,673.786 175.867,666.387 L175.867,666.387" fill="#D5D5D5"/>
    <g>
      <path d="M789.28,726.119 C781.271,726.119 774.78,719.599 774.78,711.555 C774.78,703.512 781.271,696.992 789.28,696.992 C797.288,696.992 803.78,703.512 803.78,711.555 C803.78,719.599 797.288,726.119 789.28,726.119 z" fill="#D5D5D5"/>
      <path d="M789.28,726.119 C781.271,726.119 774.78,719.599 774.78,711.555 C774.78,703.512 781.271,696.992 789.28,696.992 C797.288,696.992 803.78,703.512 803.78,711.555 C803.78,719.599 797.288,726.119 789.28,726.119 z" fill-opacity="0" stroke="#D5D5D5" stroke-width="1"/>
    </g>
  </g>
</svg>
