<svg width="271" height="246" viewBox="0 0 271 246" fill="none" xmlns="http://www.w3.org/2000/svg">
<g clip-path="url(#clip0)">
<path opacity="0.18" d="M38.1413 212.538C55.9893 220.559 77.5739 219.709 94.7347 210.312C100.062 207.392 105.001 203.698 110.672 201.516C124.416 196.234 139.812 200.639 154.505 199.684C179.315 198.072 201.095 180.719 213.689 159.284C226.282 137.849 231.024 112.748 233.756 88.0377C236.815 60.4098 235.662 27.9984 213.712 10.9421C196.166 -2.69775 171.428 -1.34247 149.641 3.02689C127.854 7.39626 105.46 14.1115 83.8424 9.01036C76.0467 7.17743 68.5169 3.81982 60.5165 3.42689C46.2476 2.72101 33.0799 11.6621 23.9124 22.6267C8.18216 41.4312 1.29946 66.3744 0.184109 90.8612C-0.933594 115.435 3.41721 140.141 4.07136 164.59C4.6408 186.008 18.458 203.681 38.1413 212.538Z" fill="#6B6B6B"/>
<path d="M169.517 38.649H73.891C66.1327 38.649 59.8433 44.938 59.8433 52.6959V159.789C59.8433 167.547 66.1327 173.836 73.891 173.836H169.517C177.275 173.836 183.565 167.547 183.565 159.789V52.6959C183.565 44.938 177.275 38.649 169.517 38.649Z" fill="white"/>
<path d="M77.3283 173.836L94.9009 157.77C94.9009 157.77 119.119 175.062 142.263 159.666C165.408 144.271 166.173 114.079 155.612 102.491C145.052 90.9025 145.181 99.1472 145.181 99.1472C145.181 99.1472 161.653 144.664 125.886 149.231C90.1195 153.798 86.6534 143.622 86.6534 143.622L64.8994 173.836H77.3283Z" fill="url(#paint0_linear)"/>
<path d="M32.1994 91.1449L29.9287 88.2884L54.5417 68.7239L79.5665 80.9309L114.321 57.7617L153.022 81.345L192.139 43.416L194.678 46.0348L153.535 85.9285L114.408 62.0887L79.8465 85.1285L55.0123 73.0133L32.1994 91.1449Z" fill="#910000"/>
<path d="M49.6566 176.005C49.1009 176.56 48.6601 177.219 48.3594 177.945C48.0586 178.67 47.9038 179.448 47.9038 180.233C47.9038 181.019 48.0586 181.796 48.3594 182.522C48.6601 183.247 49.1009 183.906 49.6566 184.462C50.2117 185.017 50.8708 185.458 51.5964 185.759C52.3219 186.059 53.0996 186.214 53.885 186.214C54.6705 186.214 55.4482 186.059 56.1737 185.759C56.8993 185.458 57.5584 185.017 58.1135 184.462L95.5412 148.589C96.6623 147.467 97.2921 145.947 97.2921 144.361C97.2921 142.775 96.6623 141.254 95.5412 140.133C94.4196 139.012 92.8986 138.382 91.3128 138.382C89.7269 138.382 88.206 139.012 87.0844 140.133L49.6566 176.005Z" fill="#222224"/>
<path d="M76.2178 118.387C76.2182 126.551 78.6398 134.532 83.1762 141.32C87.7126 148.108 94.1601 153.399 101.703 156.523C109.247 159.647 117.547 160.464 125.555 158.871C133.563 157.278 140.918 153.346 146.691 147.573C152.465 141.8 156.396 134.444 157.989 126.437C159.582 118.43 158.764 110.13 155.639 102.587C152.515 95.0443 147.223 88.5975 140.435 84.0617C133.646 79.526 125.665 77.105 117.5 77.105C112.078 77.105 106.71 78.1728 101.701 80.2475C96.6926 82.3221 92.1416 85.363 88.3082 89.1964C84.4748 93.0298 81.434 97.5807 79.3595 102.589C77.285 107.598 76.2175 112.966 76.2178 118.387ZM86.6465 118.387C86.6479 112.285 88.4586 106.321 91.8497 101.249C95.2407 96.1762 100.06 92.223 105.698 89.889C111.335 87.555 117.539 86.945 123.523 88.1362C129.508 89.3274 135.005 92.2663 139.319 96.5812C143.633 100.896 146.571 106.393 147.761 112.378C148.951 118.362 148.339 124.565 146.004 130.202C143.668 135.839 139.714 140.657 134.64 144.047C129.567 147.436 123.602 149.245 117.5 149.245C113.447 149.246 109.435 148.448 105.691 146.897C101.947 145.346 98.5452 143.073 95.6801 140.207C92.8149 137.342 90.5424 133.94 88.9924 130.196C87.4424 126.452 86.6453 122.439 86.6465 118.387Z" fill="#222224"/>
<path d="M76.2178 118.387C76.2182 126.551 78.6398 134.532 83.1762 141.32C87.7126 148.108 94.1601 153.399 101.703 156.523C109.247 159.647 117.547 160.464 125.555 158.871C133.563 157.278 140.918 153.346 146.691 147.573C152.465 141.8 156.396 134.444 157.989 126.437C159.582 118.43 158.764 110.13 155.639 102.587C152.515 95.0443 147.223 88.5975 140.435 84.0617C133.646 79.526 125.665 77.105 117.5 77.105C112.078 77.105 106.71 78.1728 101.701 80.2475C96.6926 82.3221 92.1416 85.363 88.3082 89.1964C84.4748 93.0298 81.434 97.5807 79.3595 102.589C77.285 107.598 76.2175 112.966 76.2178 118.387ZM86.6465 118.387C86.6479 112.285 88.4586 106.321 91.8497 101.249C95.2407 96.1762 100.06 92.223 105.698 89.889C111.335 87.555 117.539 86.945 123.523 88.1362C129.508 89.3274 135.005 92.2663 139.319 96.5812C143.633 100.896 146.571 106.393 147.761 112.378C148.951 118.362 148.339 124.565 146.004 130.202C143.668 135.839 139.714 140.657 134.64 144.047C129.567 147.436 123.602 149.245 117.5 149.245C113.447 149.246 109.435 148.448 105.691 146.897C101.947 145.346 98.5452 143.073 95.6801 140.207C92.8149 137.342 90.5424 133.94 88.9924 130.196C87.4424 126.452 86.6453 122.439 86.6465 118.387Z" fill="url(#paint1_linear)"/>
<path d="M73.0459 115.392C73.0454 123.557 75.4664 131.538 80.0026 138.328C84.5388 145.117 90.9865 150.408 98.5304 153.533C106.074 156.658 114.375 157.476 122.384 155.883C130.393 154.29 137.749 150.358 143.523 144.585C149.297 138.811 153.229 131.455 154.822 123.447C156.414 115.439 155.597 107.138 152.472 99.595C149.347 92.0517 144.055 85.6043 137.265 81.0684C130.476 76.5325 122.493 74.1117 114.328 74.1121C103.379 74.1121 92.879 78.4612 85.1371 86.2026C77.3952 93.944 73.0459 104.444 73.0459 115.392ZM83.477 115.392C83.4765 109.29 85.2857 103.325 88.6757 98.2507C92.0658 93.1768 96.8844 89.2221 102.522 86.8868C108.16 84.5514 114.364 83.9402 120.349 85.1306C126.334 86.3209 131.832 89.2593 136.147 93.5741C140.462 97.8889 143.4 103.386 144.591 109.371C145.781 115.356 145.17 121.559 142.835 127.197C140.499 132.834 136.544 137.653 131.47 141.042C126.396 144.432 120.43 146.241 114.328 146.241C106.146 146.241 98.2987 142.991 92.513 137.205C86.7274 131.42 83.477 123.573 83.477 115.392Z" fill="#222224"/>
<g filter="url(#filter0_d)">
<path d="M194.746 64.8299L191.106 64.5781L192.414 45.6301L171.34 49.0277L170.759 45.4254L196.37 41.2984L194.746 64.8299Z" fill="#910000"/>
</g>
<path d="M104.139 122.168H97.3457V131.632H104.139V122.168Z" fill="#910000"/>
<path d="M112.519 112.352H105.726V131.632H112.519V112.352Z" fill="#222224"/>
<path d="M120.898 119.893H114.104V131.632H120.898V119.893Z" fill="#910000"/>
<path d="M129.275 106.244H122.481V131.632H129.275V106.244Z" fill="#222224"/>
<path d="M112.519 112.352H105.726V131.632H112.519V112.352Z" fill="#910000"/>
<path d="M129.275 106.244H122.481V131.632H129.275V106.244Z" fill="#910000"/>
<path d="M137.654 99.1519H130.861V131.632H137.654V99.1519Z" fill="#910000"/>
<path d="M114.331 65.6464C117.253 65.6464 119.623 63.2772 119.623 60.3546C119.623 57.4321 117.253 55.0629 114.331 55.0629C111.408 55.0629 109.039 57.4321 109.039 60.3546C109.039 63.2772 111.408 65.6464 114.331 65.6464Z" fill="#222224"/>
<g filter="url(#filter1_d)">
<path d="M114.331 65.6464C117.253 65.6464 119.623 63.2772 119.623 60.3546C119.623 57.4321 117.253 55.0629 114.331 55.0629C111.408 55.0629 109.039 57.4321 109.039 60.3546C109.039 63.2772 111.408 65.6464 114.331 65.6464Z" fill="#910000"/>
</g>
<path d="M152.753 87.5355C155.676 87.5355 158.045 85.1664 158.045 82.2438C158.045 79.3213 155.676 76.9521 152.753 76.9521C149.831 76.9521 147.461 79.3213 147.461 82.2438C147.461 85.1664 149.831 87.5355 152.753 87.5355Z" fill="#222224"/>
<g filter="url(#filter2_d)">
<path d="M152.753 87.5355C155.676 87.5355 158.045 85.1664 158.045 82.2438C158.045 79.3213 155.676 76.9521 152.753 76.9521C149.831 76.9521 147.461 79.3213 147.461 82.2438C147.461 85.1664 149.831 87.5355 152.753 87.5355Z" fill="#910000"/>
</g>
<path d="M54.5508 76.6086C57.4735 76.6086 59.8428 74.2394 59.8428 71.3169C59.8428 68.3944 57.4735 66.0252 54.5508 66.0252C51.6281 66.0252 49.2588 68.3944 49.2588 71.3169C49.2588 74.2394 51.6281 76.6086 54.5508 76.6086Z" fill="#222224"/>
<path d="M54.5508 76.6086C57.4735 76.6086 59.8428 74.2394 59.8428 71.3169C59.8428 68.3944 57.4735 66.0252 54.5508 66.0252C51.6281 66.0252 49.2588 68.3944 49.2588 71.3169C49.2588 74.2394 51.6281 76.6086 54.5508 76.6086Z" fill="#910000"/>
<path d="M79.625 88.2885C82.5478 88.2885 84.9171 85.9193 84.9171 82.9968C84.9171 80.0742 82.5478 77.705 79.625 77.705C76.7023 77.705 74.333 80.0742 74.333 82.9968C74.333 85.9193 76.7023 88.2885 79.625 88.2885Z" fill="#222224"/>
<g filter="url(#filter3_d)">
<path d="M79.625 88.2885C82.5478 88.2885 84.9171 85.9193 84.9171 82.9968C84.9171 80.0742 82.5478 77.705 79.625 77.705C76.7023 77.705 74.333 80.0742 74.333 82.9968C74.333 85.9193 76.7023 88.2885 79.625 88.2885Z" fill="#910000"/>
</g>
</g>
<defs>
<filter id="filter0_d" x="166.759" y="41.2984" width="33.6107" height="31.5315" filterUnits="userSpaceOnUse" color-interpolation-filters="sRGB">
<feFlood flood-opacity="0" result="BackgroundImageFix"/>
<feColorMatrix in="SourceAlpha" type="matrix" values="0 0 0 0 0 0 0 0 0 0 0 0 0 0 0 0 0 0 127 0"/>
<feOffset dy="4"/>
<feGaussianBlur stdDeviation="2"/>
<feColorMatrix type="matrix" values="0 0 0 0 0 0 0 0 0 0 0 0 0 0 0 0 0 0 0.25 0"/>
<feBlend mode="normal" in2="BackgroundImageFix" result="effect1_dropShadow"/>
<feBlend mode="normal" in="SourceGraphic" in2="effect1_dropShadow" result="shape"/>
</filter>
<filter id="filter1_d" x="105.039" y="55.0629" width="18.5841" height="18.5834" filterUnits="userSpaceOnUse" color-interpolation-filters="sRGB">
<feFlood flood-opacity="0" result="BackgroundImageFix"/>
<feColorMatrix in="SourceAlpha" type="matrix" values="0 0 0 0 0 0 0 0 0 0 0 0 0 0 0 0 0 0 127 0"/>
<feOffset dy="4"/>
<feGaussianBlur stdDeviation="2"/>
<feColorMatrix type="matrix" values="0 0 0 0 0 0 0 0 0 0 0 0 0 0 0 0 0 0 0.25 0"/>
<feBlend mode="normal" in2="BackgroundImageFix" result="effect1_dropShadow"/>
<feBlend mode="normal" in="SourceGraphic" in2="effect1_dropShadow" result="shape"/>
</filter>
<filter id="filter2_d" x="143.461" y="76.9521" width="18.5841" height="18.5834" filterUnits="userSpaceOnUse" color-interpolation-filters="sRGB">
<feFlood flood-opacity="0" result="BackgroundImageFix"/>
<feColorMatrix in="SourceAlpha" type="matrix" values="0 0 0 0 0 0 0 0 0 0 0 0 0 0 0 0 0 0 127 0"/>
<feOffset dy="4"/>
<feGaussianBlur stdDeviation="2"/>
<feColorMatrix type="matrix" values="0 0 0 0 0 0 0 0 0 0 0 0 0 0 0 0 0 0 0.25 0"/>
<feBlend mode="normal" in2="BackgroundImageFix" result="effect1_dropShadow"/>
<feBlend mode="normal" in="SourceGraphic" in2="effect1_dropShadow" result="shape"/>
</filter>
<filter id="filter3_d" x="70.333" y="77.705" width="18.5841" height="18.5834" filterUnits="userSpaceOnUse" color-interpolation-filters="sRGB">
<feFlood flood-opacity="0" result="BackgroundImageFix"/>
<feColorMatrix in="SourceAlpha" type="matrix" values="0 0 0 0 0 0 0 0 0 0 0 0 0 0 0 0 0 0 127 0"/>
<feOffset dy="4"/>
<feGaussianBlur stdDeviation="2"/>
<feColorMatrix type="matrix" values="0 0 0 0 0 0 0 0 0 0 0 0 0 0 0 0 0 0 0.25 0"/>
<feBlend mode="normal" in2="BackgroundImageFix" result="effect1_dropShadow"/>
<feBlend mode="normal" in="SourceGraphic" in2="effect1_dropShadow" result="shape"/>
</filter>
<linearGradient id="paint0_linear" x1="78.7801" y1="77.138" x2="186.78" y2="284.151" gradientUnits="userSpaceOnUse">
<stop offset="0.01"/>
<stop offset="0.08" stop-opacity="0.69"/>
<stop offset="0.21" stop-opacity="0.32"/>
<stop offset="1" stop-opacity="0"/>
</linearGradient>
<linearGradient id="paint1_linear" x1="17754.9" y1="8868" x2="160768" y2="175351" gradientUnits="userSpaceOnUse">
<stop offset="0.01"/>
<stop offset="0.08" stop-opacity="0.69"/>
<stop offset="0.21" stop-opacity="0.32"/>
<stop offset="1" stop-opacity="0"/>
</linearGradient>
<clipPath id="clip0">
<rect width="271" height="246" fill="white"/>
</clipPath>
</defs>
</svg>
