<svg width="120" height="49" viewBox="0 0 120 49" fill="none" xmlns="http://www.w3.org/2000/svg">
<path d="M113.888 22.7254C113.349 22.7254 112.911 22.6082 112.911 22.4635C112.911 22.3189 113.349 22.2017 113.888 22.2017C114.428 22.2017 114.865 22.3189 114.865 22.4635C114.865 22.6082 114.428 22.7254 113.888 22.7254Z" fill="#910000"/>
<path d="M113.888 22.7254C113.349 22.7254 112.911 22.6082 112.911 22.4635C112.911 22.3189 113.349 22.2017 113.888 22.2017C114.428 22.2017 114.865 22.3189 114.865 22.4635C114.865 22.6082 114.428 22.7254 113.888 22.7254Z" stroke="#910000" stroke-width="2"/>
<path d="M117.953 26.0973C117.824 25.6018 117.839 25.1718 117.988 25.1372C118.136 25.1025 118.361 25.4763 118.491 25.9718C118.62 26.4675 118.604 26.8973 118.456 26.9321C118.307 26.9667 118.082 26.593 117.953 26.0973Z" fill="#910000"/>
<path d="M117.953 26.0973C117.824 25.6018 117.839 25.1718 117.988 25.1372C118.136 25.1025 118.361 25.4763 118.491 25.9718C118.62 26.4675 118.604 26.8973 118.456 26.9321C118.307 26.9667 118.082 26.593 117.953 26.0973Z" stroke="#910000" stroke-width="2"/>
<path d="M110.074 25.6088C109.94 26.1033 109.711 26.4748 109.563 26.4388C109.415 26.4029 109.404 25.9728 109.538 25.4784C109.673 24.984 109.902 24.6123 110.05 24.6484C110.198 24.6844 110.209 25.1143 110.074 25.6088Z" fill="#910000"/>
<path d="M110.074 25.6088C109.94 26.1033 109.711 26.4748 109.563 26.4388C109.415 26.4029 109.404 25.9728 109.538 25.4784C109.673 24.984 109.902 24.6123 110.05 24.6484C110.198 24.6844 110.209 25.1143 110.074 25.6088Z" stroke="#910000" stroke-width="2"/>
<path d="M116.191 29.7974C116.638 29.5115 117.07 29.3768 117.156 29.4967C117.241 29.6165 116.948 29.9454 116.501 30.2313C116.054 30.5172 115.622 30.6519 115.537 30.5321C115.451 30.4122 115.744 30.0833 116.191 29.7974Z" fill="#910000"/>
<path d="M116.191 29.7974C116.638 29.5115 117.07 29.3768 117.156 29.4967C117.241 29.6165 116.948 29.9454 116.501 30.2313C116.054 30.5172 115.622 30.6519 115.537 30.5321C115.451 30.4122 115.744 30.0833 116.191 29.7974Z" stroke="#910000" stroke-width="2"/>
<path d="M111.212 29.5039C111.608 29.8506 111.845 30.2176 111.741 30.3238C111.637 30.43 111.232 30.2351 110.836 29.8884C110.44 29.5418 110.203 29.1747 110.307 29.0685C110.41 28.9624 110.816 29.1573 111.212 29.5039Z" fill="#910000"/>
<path d="M111.212 29.5039C111.608 29.8506 111.845 30.2176 111.741 30.3238C111.637 30.43 111.232 30.2351 110.836 29.8884C110.44 29.5418 110.203 29.1747 110.307 29.0685C110.41 28.9624 110.816 29.1573 111.212 29.5039Z" stroke="#910000" stroke-width="2"/>
<path d="M114.258 22.7256H113.518V25.4208H114.258V22.7256Z" fill="#910000"/>
<path d="M114.258 22.7256H113.518V25.4208H114.258V22.7256Z" stroke="#910000" stroke-width="2"/>
<path d="M117.98 26.5209L117.901 25.8247L115.068 26.1136L115.148 26.8099L117.98 26.5209Z" fill="#910000"/>
<path d="M117.98 26.5209L117.901 25.8247L115.068 26.1136L115.148 26.8099L117.98 26.5209Z" stroke="#910000" stroke-width="2"/>
<path d="M114.85 27.3542L114.258 27.775L115.969 29.9297L116.561 29.5091L114.85 27.3542Z" fill="#910000"/>
<path d="M114.85 27.3542L114.258 27.775L115.969 29.9297L116.561 29.5091L114.85 27.3542Z" stroke="#910000" stroke-width="2"/>
<path d="M113.383 27.8179L112.828 27.3542L110.942 29.3745L111.497 29.838L113.383 27.8179Z" stroke="#910000" stroke-width="2"/>
<path d="M110.102 25.2969L109.978 25.9871L112.786 26.4411L112.911 25.7509L110.102 25.2969Z" fill="#910000"/>
<path d="M110.102 25.2969L109.978 25.9871L112.786 26.4411L112.911 25.7509L110.102 25.2969Z" stroke="#910000" stroke-width="2"/>
<path d="M113.812 28.8424C112.489 28.8028 111.45 27.7555 111.492 26.5034C111.534 25.2514 112.641 24.2685 113.964 24.308C115.286 24.3478 116.325 25.395 116.283 26.647C116.241 27.8992 115.134 28.8821 113.812 28.8424Z" fill="#910000"/>
<path d="M113.812 28.8424C112.489 28.8028 111.45 27.7555 111.492 26.5034C111.534 25.2514 112.641 24.2685 113.964 24.308C115.286 24.3478 116.325 25.395 116.283 26.647C116.241 27.8992 115.134 28.8821 113.812 28.8424Z" stroke="#910000" stroke-width="2"/>
<path d="M5.04918 23.042L5.14587 22.9119L5.35214 22.6313L5.56339 22.3413L5.77704 22.047L5.99379 21.7492L6.21397 21.4492L6.4381 21.148L6.66601 20.8467L6.89821 20.5467L7.13436 20.2492L7.37481 19.9559L7.6192 19.6678L7.86738 19.3866L8.11916 19.1136L8.37386 18.8504L8.63148 18.5984L8.89099 18.3588L9.15205 18.1332L9.41396 17.9228L9.60014 17.7831L9.71916 17.6983L9.84814 17.6101L9.97661 17.5263L10.1046 17.4469L10.2318 17.3721L10.3582 17.3018L10.4838 17.2362L10.6083 17.1751L10.7319 17.1186L10.8546 17.0665L10.9762 17.0192L11.0967 16.976L11.2164 16.9372L11.3353 16.9029L11.4536 16.8725L11.5716 16.8463L11.6894 16.824L11.8074 16.8057L11.9259 16.7912L12.0453 16.7807L12.1662 16.7741L12.2888 16.7715L12.4139 16.7728L12.5416 16.7786L12.6727 16.7887L12.7143 16.7934L12.6684 16.789L12.7637 16.7988L12.8925 16.8154L13.0002 16.8326L13.1072 16.8525L13.2139 16.8751L13.3202 16.9004L13.4265 16.9285L13.5328 16.9594L13.7095 17.0163L13.9385 17.1012L14.1516 17.192L14.3666 17.2944L14.5834 17.4083L14.8017 17.5339L15.0215 17.6709L15.2422 17.8192L15.4636 17.9784L15.685 18.1481L15.9062 18.3276L16.1265 18.5166L16.3457 18.7142L16.5635 18.9196L16.7792 19.1325L16.9928 19.3516L17.2041 19.5764L17.4126 19.8061L17.6182 20.0396L17.8208 20.2764L18.0204 20.5156L18.2167 20.7563L18.4097 20.998L18.5995 21.2394L18.786 21.4803L18.9695 21.7197L19.1498 21.9569L19.3272 22.1915L19.4148 22.3073L19.4083 22.2987L19.7068 22.6972L20.2728 23.4743L20.8205 24.2519L21.3583 25.0384L21.8876 25.8332L22.4102 26.6355L22.9277 27.4447L23.4419 28.2602L24.2119 29.4952L25.2401 31.1532L26.0223 32.4046L26.5542 33.2442L27.0941 34.0829L27.6449 34.922L27.9285 35.3468C27.9297 35.3484 27.9307 35.3499 27.9317 35.3516L27.9747 35.4154L28.0607 35.5441L28.1952 35.7451L28.3845 36.0282L28.5854 36.3276L28.7979 36.6418L29.0215 36.9688L29.2561 37.3071L29.5017 37.6551L29.7581 38.0111L30.0253 38.3737L30.3034 38.7413L30.5924 39.1126L30.8925 39.4862L31.2037 39.8606L31.5264 40.2345L31.8608 40.6066L32.2072 40.9754L32.5663 41.3398L32.9385 41.6982L33.3244 42.0491L33.7249 42.3914L34.1407 42.7232L34.4734 42.9719L34.7054 43.1367L34.9318 43.29L35.1628 43.4397L35.3986 43.5852L35.6394 43.7264L35.8853 43.8628L36.1368 43.9943L36.3936 44.1202L36.656 44.2404L36.9241 44.3546L37.198 44.462L37.4778 44.5625L37.7632 44.6552L38.0547 44.74L38.3518 44.8162L38.6544 44.8833L38.9624 44.9406L39.2755 44.988L39.593 45.0245L39.7814 45.0411C39.8225 45.0444 39.8637 45.0469 39.9049 45.0486L39.992 45.0522L40.3094 45.0545L40.6701 45.0374L41.024 45.0003L41.3696 44.945L41.7062 44.8729L42.0334 44.7857L42.3511 44.6851L42.6596 44.5723L42.9594 44.4483L43.2511 44.3145L43.5355 44.1714L43.813 44.0196L44.0847 43.8597L44.3511 43.6923L44.6127 43.5175L44.8701 43.3358L45.124 43.1471L45.3747 42.9517L45.6226 42.7498L45.8682 42.5415L46.1117 42.3268L46.3535 42.106L46.5936 41.8792L46.8325 41.6463L47.0704 41.4074L47.3072 41.1626L47.5432 40.912L47.7785 40.6558L48.0133 40.3938L48.2475 40.1263L48.4813 39.8535L48.7147 39.5752L48.9479 39.2916L49.1808 39.0029L49.4135 38.7091L49.6461 38.4105L49.8783 38.1069L50.2238 37.6461L50.6855 37.0141L51.1494 36.3608L51.6126 35.691L52.0753 35.0054L52.5371 34.3051L52.9981 33.5912L53.458 32.8645L53.9167 32.126L54.3739 31.3769L54.8296 30.618L55.2833 29.8504L55.7349 29.0753L56.1841 28.2936L56.6309 27.5062L57.0747 26.7145L57.5154 25.9195L58.1687 24.725L59.0269 23.1295L59.661 21.9331L60.078 21.1388L60.4888 20.3506L60.8943 19.5676L61.2941 18.7911L61.688 18.0223L62.0754 17.2621L62.4564 16.5118L62.8302 15.7722L63.1971 15.0448L63.5562 14.3306L63.9076 13.6307L64.1659 13.1156L64.3354 12.7774L64.5027 12.4437L64.6679 12.1141L64.8308 11.789L64.9915 11.4688L65.1499 11.1533L65.3058 10.8427L65.4594 10.5373L65.6107 10.237L65.7592 9.94226L65.9054 9.65297L66.049 9.3694L66.19 9.09187L66.3284 8.82021L66.4639 8.55476L66.5967 8.29562L66.7267 8.04298L66.8538 7.79712L66.9779 7.55805L67.0992 7.32592L67.2174 7.10118L67.3323 6.88368L67.4441 6.67387L67.4978 6.57357L67.4865 6.59454L67.527 6.52078L67.5816 6.42938L67.6316 6.35335L67.6874 6.27447L67.7486 6.19333L67.8152 6.11066L67.8867 6.02726L67.9631 5.94339L68.0438 5.85998L68.1287 5.77733L68.2173 5.69603L68.3093 5.61654L68.4045 5.53916L68.5022 5.4645L68.602 5.39286L68.7038 5.32453L68.8069 5.25998L68.9108 5.19934L69.0152 5.14278L69.1198 5.09074L69.2239 5.04323L69.3271 5.00039L69.4291 4.96223L69.5294 4.92905L69.628 4.90054L69.7242 4.87671L69.818 4.85755L69.9093 4.84293L69.9979 4.83267L70.084 4.82634L70.1678 4.82422L70.2497 4.82573L70.2552 4.82754L70.1733 4.82512L70.3083 4.83086L70.4338 4.84503L70.5098 4.86178L70.5862 4.88304L70.6648 4.90944L70.7476 4.94142L70.8352 4.98003L70.9286 5.02618L71.0279 5.08033L71.133 5.14353L71.2433 5.21578L71.3584 5.29738L71.4775 5.38849L71.6002 5.48893L71.7254 5.59829L71.8525 5.71624L71.9809 5.84219L72.1103 5.97582L72.2396 6.11624L72.3686 6.26286L72.497 6.41504L72.6243 6.57206L72.8189 6.8232L73.0674 7.16287L73.2393 7.40963L73.351 7.57449L73.4647 7.74524L73.5758 7.91522L73.6847 8.08416L73.7915 8.25113L73.843 8.33243L73.8358 8.32096L74.0094 8.59774L74.3289 9.1249L74.6324 9.64858L74.9271 10.1789L75.2136 10.7154L75.4921 11.2578L75.7638 11.8058L76.0288 12.359L76.288 12.9173L76.5417 13.48L76.7907 14.047L77.0358 14.6179L77.3982 15.484L77.8717 16.6455L78.1042 17.2247L78.1018 17.2192L78.2803 17.6668L78.6289 18.5539L79.143 19.8872L79.816 21.6716L80.4798 23.4621L81.1409 25.26L81.8045 27.064L82.4764 28.8725L83.162 30.6841L83.5136 31.5954C83.5143 31.5975 83.5151 31.5996 83.516 31.6018L83.7786 32.2764L84.3139 33.6356L84.7297 34.6661L85.0159 35.3584L85.3085 36.049L85.6098 36.7406L85.9208 37.4326L86.2425 38.1243L86.576 38.8155L86.9224 39.5054L87.2829 40.1935L87.6584 40.879L88.0501 41.5615L88.4592 42.2404L88.6777 42.5896C88.6804 42.594 88.6832 42.5983 88.6861 42.6029L88.7429 42.6923L88.8659 42.884L88.998 43.0875L89.1385 43.2999L89.287 43.5201L89.4438 43.7471L89.6091 43.9798L89.7829 44.2172L89.9653 44.4585L90.1566 44.7026L90.3574 44.9487L90.5678 45.1961L90.7883 45.4436L91.0195 45.6904L91.2621 45.9358L91.5167 46.1786L91.7842 46.4182L92.0656 46.653L92.3617 46.8823L92.6737 47.1046L93.0028 47.3183L93.3502 47.5218L93.7169 47.7129L94.104 47.8892L94.5118 48.0482L94.9404 48.1868L95.3894 48.3016L95.7635 48.3749L96.0281 48.4144L96.2713 48.4416L96.5178 48.4606L96.7671 48.4711L97.0189 48.4729L97.2724 48.4659L97.5271 48.4497L97.7827 48.4245L98.0384 48.3903L98.1926 48.3654C98.2102 48.3625 98.2279 48.3594 98.2454 48.3561L98.327 48.3408L98.5672 48.2907L98.8291 48.2274L99.0857 48.1562L99.337 48.0775L99.5828 47.9918L99.8229 47.8998L100.057 47.8016L100.286 47.6978L100.51 47.5889L100.818 47.4256L101.219 47.1901L101.616 46.9308L101.995 46.6589L102.356 46.3761L102.7 46.0839L103.03 45.7841L103.345 45.4776L103.647 45.1656L103.937 44.8495L104.215 44.5299L104.482 44.208L104.738 43.8848L104.985 43.5611L105.223 43.238L105.451 42.9166L105.67 42.5977L105.88 42.2825L106.082 41.9719L106.275 41.6669L106.46 41.3689L106.637 41.0787L106.806 40.7976L106.966 40.5268L107.118 40.2675L107.261 40.0212L107.396 39.7894L107.46 39.6799C108.151 38.4934 107.616 37.0394 106.265 36.4323C104.914 35.8252 103.258 36.2951 102.567 37.4815L102.502 37.5936L102.369 37.8222L102.231 38.0581L102.089 38.3008L101.942 38.5492L101.791 38.8026L101.634 39.0598L101.473 39.32L101.307 39.582L101.137 39.8446L100.962 40.1069L100.784 40.3677L100.601 40.6256L100.416 40.8796L100.227 41.1285L100.035 41.3712L99.8419 41.606L99.6468 41.8323L99.4509 42.0484L99.2549 42.2535L99.0598 42.4463L98.8666 42.6258L98.6763 42.7909L98.4901 42.9412L98.3098 43.0757L98.1361 43.1943L97.9543 43.3057L97.817 43.3811L97.7397 43.4205L97.665 43.4563L97.5929 43.4882L97.5235 43.5169L97.4567 43.5421L97.3926 43.5643L97.331 43.5836L97.2716 43.6002L97.1874 43.6192L97.1058 43.6344L97.1586 43.625L97.1637 43.6252L97.1235 43.6327L97.0859 43.6388L97.0505 43.6431L97.0167 43.6463L96.9839 43.6483L96.9518 43.649L96.9197 43.6486L96.887 43.6471L96.879 43.6487L96.8491 43.6484L96.7697 43.6353L96.6814 43.6137L96.5841 43.5821L96.4776 43.5392L96.3623 43.4845L96.2394 43.4173L96.1097 43.3374L95.9745 43.2451L95.8352 43.1407L95.6927 43.0249L95.5479 42.898L95.4021 42.7614L95.2558 42.6155L95.1098 42.4615L94.9648 42.3004L94.8213 42.1333L94.6797 41.9611L94.5408 41.7846L94.4044 41.6051L94.271 41.4237L94.1408 41.2408L94.014 41.0579L93.8907 40.8755L93.771 40.6947L93.6549 40.5159L93.541 40.3384L93.484 40.2488L93.4924 40.2622L93.3152 39.98L92.9564 39.3867L92.61 38.7845L92.2748 38.1743L91.9503 37.5563L91.6357 36.9308L91.33 36.2987L91.0327 35.6599L90.7426 35.0154L90.4592 34.3653L90.1815 33.7102L89.91 33.0538L89.5079 32.058L88.9789 30.7147L88.7163 30.04L88.7187 30.0464L88.3773 29.1617L87.7011 27.3754L87.0342 25.5801L86.3709 23.777L85.7058 21.9678L85.0332 20.1539L84.3486 18.3392L83.8239 16.9786L83.4679 16.0728L83.2895 15.6252C83.2888 15.6234 83.2881 15.6215 83.2872 15.6196L83.0459 15.0187L82.5566 13.8185L82.1784 12.9155L81.9181 12.3093L81.6512 11.702L81.3767 11.094L81.094 10.4859L80.8022 9.878L80.5006 9.2706L80.1884 8.66425L79.8648 8.05942L79.5287 7.45639L79.1796 6.85593L78.823 6.26859L78.6495 5.99181C78.6471 5.98804 78.6447 5.98411 78.6423 5.98034L78.5844 5.8894L78.4658 5.70372L78.3406 5.5099L78.209 5.30884L78.0706 5.10145L77.9215 4.88244L77.685 4.54549L77.3566 4.10008L77.0937 3.76326L76.9039 3.53113L76.7055 3.2981L76.4979 3.06507L76.2808 2.83248L76.0534 2.6011L75.8152 2.37184L75.5655 2.14529L75.3034 1.92251L75.0282 1.7044L74.7392 1.49204L74.4354 1.2866L74.1161 1.08977L73.7805 0.902738L73.4284 0.72762L73.0593 0.566228L72.6736 0.420828L72.2714 0.293526L71.8539 0.186579L71.4226 0.10227L70.9793 0.0422374L70.574 0.00996096L70.439 0.00422558C70.4117 0.00301893 70.3844 0.00226609 70.3572 0.0018136L70.1436 0L69.7894 0.00890227L69.4406 0.0328841L69.0978 0.0711997L68.7614 0.122781L68.432 0.18703L68.1099 0.263054L67.7956 0.350088L67.4889 0.447369L67.19 0.554306L66.8993 0.670146L66.6162 0.794437L66.3413 0.926259L66.074 1.06548L65.8145 1.21149L65.5629 1.36382L65.3189 1.52205L65.0824 1.68585L64.8534 1.85509L64.632 2.02915L64.4181 2.20804L64.2116 2.39129L64.0127 2.57893L63.8212 2.77064L63.6371 2.96627L63.4607 3.16582L63.2917 3.36929L63.1306 3.57638L62.9774 3.7871L62.8321 4.00173L62.6951 4.22029L62.5769 4.42376L62.5364 4.49737C62.5326 4.50446 62.5288 4.51139 62.5251 4.51833L62.466 4.62859L62.3476 4.85061L62.2269 5.07912L62.1036 5.31382L61.9777 5.55485L61.8494 5.80207L61.7185 6.05516L61.5851 6.31429L61.4494 6.5793L61.3111 6.85005L61.1705 7.12622L61.0274 7.40797L60.8819 7.69516L60.7342 7.98747L60.5843 8.28492L60.432 8.58734L60.2774 8.89458L60.1208 9.20665L59.9619 9.5231L59.8008 9.84421L59.6376 10.1696L59.4726 10.4991L59.3053 10.8328L59.1361 11.1703L58.8787 11.6835L58.5288 12.3805L58.1718 13.0907L57.8075 13.8131L57.4365 14.5466L57.0592 15.2902L56.6757 16.0425L56.2863 16.8026L55.8917 17.5692L55.4917 18.3417L55.0869 19.1183L54.6784 19.8966L54.0576 21.0679L53.2146 22.6352L52.5737 23.8072L52.1438 24.5829L51.7117 25.3538L51.2777 26.1189L50.8421 26.8769L50.4054 27.6267L49.9678 28.3672L49.5298 29.097L49.0917 29.8152L48.6539 30.5201L48.217 31.2111L47.7811 31.8865L47.3469 32.5454L46.9148 33.1862L46.4852 33.8078L46.0588 34.409L45.6335 34.992L45.3162 35.4154L45.108 35.6878L44.9011 35.954L44.6955 36.2138L44.4914 36.467L44.2891 36.7135L44.0885 36.9528L43.8896 37.1853L43.693 37.4105L43.4984 37.628L43.3062 37.8379L43.1164 38.0399L42.9294 38.2339L42.7453 38.4195L42.5644 38.5966L42.387 38.7651L42.2134 38.9247L42.0437 39.0752L41.8785 39.2165L41.7181 39.3483L41.5628 39.4707L41.4136 39.5834L41.2703 39.6861L41.1341 39.779L41.0055 39.8619L40.8849 39.9351L40.7734 39.9984L40.6716 40.0524L40.5804 40.0974L40.5004 40.1337L40.4324 40.1621L40.3771 40.1835L40.3345 40.199L40.3049 40.2098L40.2879 40.2173L40.2829 40.2227L40.2883 40.2278L40.2544 40.2312L40.1672 40.2276L40.2907 40.2351L40.2694 40.2345L40.1701 40.2257L40.0693 40.2129L39.9666 40.1962L39.8616 40.1752L39.7543 40.15L39.6446 40.1202L39.5322 40.0856L39.4172 40.0464L39.2995 40.0021L39.1795 39.9527L39.0572 39.8983L38.9325 39.8387L38.8057 39.774L38.6771 39.704L38.5466 39.6289L38.4147 39.5487L38.2814 39.4634L38.1469 39.3734L38.0217 39.2861L37.8252 39.1419L37.548 38.9239L37.2703 38.6894L36.9928 38.4394L36.7166 38.1756L36.4425 37.8995L36.1713 37.6124L35.9039 37.3162L35.6404 37.0121L35.3818 36.7019L35.1283 36.3871L34.8803 36.0691L34.6381 35.7495L34.402 35.4297L34.1723 35.1112L33.9492 34.7953L33.7328 34.4836L33.5231 34.1771L33.3203 33.8772L33.1242 33.5849L32.9349 33.3016L32.7975 33.0964L32.7084 32.9633L32.6654 32.8994L32.6687 32.9042L32.4059 32.511L31.8785 31.7078L31.3567 30.8974L30.8401 30.0821L30.0664 28.8442L29.0326 27.1776L28.2498 25.9217L27.7193 25.0807L27.1803 24.2383L26.6309 23.3954L26.0693 22.5529L25.4936 21.7115L24.9018 20.8723L24.2986 20.0452L24.0001 19.6465C23.998 19.6436 23.9958 19.6408 23.9936 19.6379L23.9046 19.5201L23.7208 19.2773L23.5292 19.0251L23.3296 18.7647L23.1223 18.4973L22.9069 18.2235L22.6835 17.9444L22.4518 17.6608L22.2117 17.3736L21.963 17.0839L21.7052 16.7922L21.4383 16.4994L21.1618 16.2066L20.8753 15.9145L20.5786 15.624L20.271 15.3359L19.952 15.0512L19.6212 14.7708L19.2781 14.4959L18.9219 14.2272L18.5523 13.9662L18.1683 13.7138L17.7696 13.4716L17.3559 13.2408L16.9264 13.0232L16.4808 12.8203L16.0192 12.6339L15.5589 12.4711L15.2091 12.3628L14.9597 12.2936L14.7065 12.2299L14.4498 12.1722L14.1896 12.1204L13.9259 12.075L13.6594 12.036L13.41 12.0058L13.3147 11.9958C13.2994 11.9942 13.2841 11.9928 13.269 11.9915L13.0734 11.9749L12.735 11.955L12.3989 11.9462L12.0657 11.9488L11.7356 11.9624L11.4093 11.9865L11.087 12.0212L10.769 12.066L10.4561 12.1204L10.1484 12.1842L9.84608 12.2569L9.5493 12.3382L9.25853 12.4274L8.9736 12.5241L8.69486 12.628L8.42212 12.7384L8.15557 12.8551L7.89503 12.9778L7.64033 13.1057L7.39164 13.2387L7.14879 13.3764L6.9116 13.5183L6.67992 13.6645L6.45373 13.8141L6.23269 13.9674L6.00633 14.1315L5.68344 14.3784L5.28241 14.7058L4.8989 15.0416L4.5317 15.3838L4.17997 15.731L3.84283 16.0817L3.5196 16.4342L3.20925 16.7875L2.91144 17.1397L2.62565 17.4894L2.35137 17.8353L2.08826 18.1759L1.83596 18.5095L1.59448 18.8346L1.36348 19.1494L1.14313 19.4521L0.93343 19.7408L0.734718 20.0136L0.544252 20.2729L0.447385 20.4031C-0.382326 21.5189 -0.0249196 23.0144 1.24584 23.7431C2.51659 24.4719 4.2193 24.158 5.04918 23.042Z" fill="#545454"/>
</svg>
