<svg width="52" height="22" viewBox="0 0 52 22" fill="none" xmlns="http://www.w3.org/2000/svg">
<path d="M2.29581 10.4579L2.33985 10.3988L2.43365 10.2715L2.5297 10.1398L2.62685 10.0063L2.72541 9.87122L2.82552 9.73505L2.92736 9.59828L3.03107 9.46157L3.13657 9.32541L3.24403 9.19041L3.35336 9.0572L3.46449 8.92651L3.57734 8.79884L3.69175 8.675L3.80764 8.55554L3.9247 8.44115L4.04278 8.33244L4.16148 8.23003L4.2805 8.13446L4.36515 8.07114L4.41935 8.03267L4.478 7.99262L4.53641 7.95456L4.59459 7.91855L4.65238 7.88453L4.70986 7.85269L4.76703 7.82285L4.82364 7.79512L4.87987 7.76952L4.93563 7.7459L4.99084 7.72434L5.04574 7.70483L5.10018 7.68723L5.15422 7.67156L5.20802 7.6578L5.26168 7.64589L5.31517 7.63582L5.36882 7.62747L5.42271 7.62097L5.47706 7.61617L5.53196 7.61316L5.5878 7.61193L5.64457 7.61261L5.70275 7.61522L5.76234 7.6198L5.78116 7.62193L5.76039 7.61987L5.80365 7.62439L5.86222 7.63192L5.91119 7.63972L5.95992 7.64876L6.00834 7.65903L6.05675 7.67053L6.10502 7.68326L6.15336 7.69723L6.23372 7.72304L6.33782 7.76158L6.43481 7.80286L6.53258 7.84927L6.63114 7.90102L6.73039 7.95798L6.83028 8.02021L6.93071 8.0875L7.03129 8.15972L7.13203 8.23674L7.23254 8.31827L7.33274 8.40398L7.43246 8.49365L7.53141 8.58696L7.62957 8.68349L7.72672 8.78295L7.8227 8.88503L7.91751 8.98921L8.01106 9.09525L8.10322 9.20273L8.19388 9.31131L8.28314 9.42056L8.37092 9.53016L8.4573 9.63983L8.54211 9.74909L8.62543 9.85779L8.70743 9.96548L8.78818 10.0719L8.82793 10.1244L8.82504 10.1205L8.96069 10.3014L9.21809 10.6541L9.46713 11.0071L9.71165 11.364L9.95233 11.7247L10.19 12.0888L10.4254 12.4561L10.6592 12.8263L11.0092 13.3868L11.4767 14.1392L11.8325 14.7073L12.0743 15.0883L12.3198 15.469L12.5702 15.8498L12.6992 16.0425C12.6997 16.0433 12.7002 16.044 12.7007 16.0447L12.7202 16.0738L12.7594 16.1321L12.8205 16.2234L12.9066 16.3519L12.9979 16.4878L13.0945 16.6304L13.1962 16.7788L13.3029 16.9323L13.4146 17.0902L13.5312 17.2518L13.6527 17.4163L13.7791 17.5832L13.9105 17.7517L14.047 17.9213L14.1885 18.0912L14.3351 18.261L14.4872 18.4298L14.6448 18.5972L14.8081 18.7625L14.9772 18.9252L15.1528 19.0845L15.3348 19.2398L15.5239 19.3905L15.6752 19.5034L15.7807 19.5781L15.8836 19.6478L15.9886 19.7157L16.0959 19.7817L16.2054 19.8457L16.3173 19.9077L16.4316 19.9673L16.5483 20.0245L16.6677 20.0791L16.7896 20.1309L16.9141 20.1796L17.0413 20.2252L17.1711 20.2674L17.3037 20.3058L17.4388 20.3404L17.5764 20.3708L17.7164 20.3969L17.8588 20.4183L18.0032 20.4349L18.0888 20.4424C18.1075 20.4439 18.1262 20.4451 18.1449 20.4459L18.1846 20.4475L18.3289 20.4485L18.4929 20.4408L18.6538 20.424L18.811 20.3988L18.964 20.3661L19.1128 20.3265L19.2573 20.2808L19.3975 20.2296L19.5338 20.1734L19.6665 20.1126L19.7957 20.0477L19.922 19.9788L20.0456 19.9063L20.1666 19.8303L20.2855 19.751L20.4027 19.6684L20.5181 19.5828L20.632 19.4941L20.7448 19.4025L20.8565 19.308L20.9672 19.2106L21.0771 19.1104L21.1864 19.0074L21.295 18.9016L21.4031 18.7932L21.5108 18.6821L21.6181 18.5684L21.7251 18.4521L21.8318 18.3332L21.9383 18.2119L22.0447 18.088L22.1508 17.9617L22.2569 17.833L22.3628 17.702L22.4686 17.5686L22.5742 17.433L22.6799 17.2952L22.837 17.0862L23.047 16.7993L23.2579 16.5028L23.4685 16.1988L23.6789 15.8876L23.8889 15.5698L24.0985 15.2458L24.3076 14.916L24.5161 14.5808L24.7241 14.2408L24.9312 13.8963L25.1375 13.548L25.3429 13.1962L25.5472 12.8414L25.7503 12.4841L25.9521 12.1247L26.1525 11.7639L26.4495 11.2218L26.8398 10.4977L27.1282 9.95459L27.3177 9.59417L27.5046 9.23641L27.689 8.88106L27.8708 8.52864L28.0498 8.17964L28.226 7.83462L28.3991 7.49405L28.5692 7.15847L28.736 6.82831L28.8993 6.50416L29.0591 6.18645L29.1765 5.95274L29.2536 5.79926L29.3297 5.6477L29.4048 5.49819L29.4789 5.35066L29.5519 5.20526L29.6239 5.06205L29.6949 4.9211L29.7647 4.78247L29.8334 4.64624L29.9011 4.51241L29.9675 4.38118L30.0328 4.25248L30.0969 4.12645L30.1598 4.00316L30.2215 3.88267L30.2818 3.76506L30.341 3.65047L30.3988 3.53881L30.4552 3.43031L30.5103 3.32502L30.564 3.22295L30.6163 3.12431L30.6672 3.02908L30.6916 2.98356L30.6865 2.99301L30.7048 2.9596L30.7296 2.91805L30.7524 2.88354L30.7777 2.84774L30.8056 2.81091L30.8358 2.77347L30.8684 2.73554L30.9031 2.69755L30.9399 2.65962L30.9784 2.62217L31.0187 2.58521L31.0606 2.54913L31.1039 2.51408L31.1482 2.4802L31.1937 2.44768L31.2399 2.41667L31.2868 2.3873L31.3341 2.35978L31.3816 2.33418L31.4291 2.31049L31.4764 2.28893L31.5233 2.26949L31.5697 2.25223L31.6154 2.2371L31.6601 2.22417L31.7039 2.21342L31.7466 2.20473L31.7881 2.19808L31.8283 2.19336L31.8676 2.19055L31.9057 2.18953L31.9428 2.19021L31.9454 2.1911L31.9082 2.19001L31.9695 2.19261L32.0266 2.19897L32.0611 2.20664L32.0958 2.21629L32.1317 2.2282L32.1692 2.24279L32.2091 2.26031L32.2516 2.28119L32.2968 2.30584L32.3445 2.33445L32.3947 2.36724L32.447 2.40434L32.5012 2.44569L32.5569 2.49122L32.6138 2.54085L32.6717 2.59438L32.7301 2.65161L32.7888 2.7122L32.8476 2.776L32.9064 2.84254L32.9647 2.91161L33.0226 2.98281L33.1111 3.09679L33.2241 3.25102L33.3022 3.36295L33.3531 3.43784L33.4047 3.51526L33.4553 3.59248L33.5048 3.66909L33.5533 3.74494L33.5768 3.78183L33.5735 3.77663L33.6525 3.90218L33.7977 4.14151L33.9357 4.37919L34.0697 4.61982L34.1999 4.86332L34.3267 5.10949L34.4501 5.35819L34.5707 5.60936L34.6885 5.86265L34.8039 6.11813L34.9171 6.37546L35.0285 6.63457L35.1934 7.02765L35.4086 7.55477L35.5143 7.81771L35.5133 7.81511L35.5944 8.01829L35.753 8.42089L35.9867 9.02611L36.2928 9.83596L36.5946 10.6486L36.8951 11.4646L37.1969 12.2833L37.5024 13.1042L37.8141 13.9264L37.974 14.3399C37.9744 14.3409 37.9748 14.3419 37.9752 14.3428L38.0946 14.649L38.338 15.266L38.527 15.7337L38.6572 16.0478L38.7902 16.3613L38.9272 16.6751L39.0686 16.9892L39.2149 17.3032L39.3666 17.6169L39.5241 17.93L39.6879 18.2423L39.8587 18.5534L40.0368 18.8632L40.2229 19.1714L40.3222 19.3298C40.3235 19.3318 40.3247 19.3338 40.3259 19.3358L40.3519 19.3765L40.4077 19.4634L40.4678 19.5557L40.5317 19.6522L40.5993 19.7521L40.6706 19.8552L40.7457 19.9608L40.8247 20.0686L40.9076 20.178L40.9947 20.2889L41.0859 20.4006L41.1815 20.5128L41.2818 20.6251L41.387 20.7372L41.4973 20.8485L41.6131 20.9588L41.7347 21.0674L41.8626 21.1741L41.9973 21.2781L42.1391 21.379L42.2888 21.476L42.4468 21.5683L42.6136 21.655L42.7895 21.7351L42.975 21.8073L43.1698 21.8701L43.374 21.9223L43.5441 21.9555L43.6645 21.9734L43.7751 21.9858L43.8871 21.9944L44.0005 21.9992L44.1149 22L44.2302 21.9969L44.3461 21.9895L44.4623 21.9781L44.5786 21.9626L44.6486 21.9513C44.6567 21.9499 44.6646 21.9485 44.6726 21.947L44.7098 21.9401L44.819 21.9174L44.938 21.8886L45.0548 21.8562L45.169 21.8206L45.2808 21.7817L45.39 21.7399L45.4966 21.6953L45.6007 21.6483L45.7021 21.5988L45.8422 21.5247L46.0247 21.4178L46.2055 21.3002L46.3777 21.1767L46.5418 21.0483L46.6984 20.9158L46.8482 20.7797L46.9915 20.6406L47.1287 20.499L47.2604 20.3555L47.3869 20.2105L47.5084 20.0644L47.6251 19.9176L47.7373 19.7708L47.8452 19.6241L47.9489 19.4783L48.0485 19.3335L48.1441 19.1905L48.2359 19.0494L48.3238 18.9111L48.408 18.7757L48.4884 18.644L48.565 18.5164L48.6379 18.3936L48.707 18.2759L48.7723 18.1642L48.8336 18.0589L48.8626 18.0092C49.1769 17.4707 48.9337 16.8108 48.3194 16.5352C47.705 16.2598 46.9522 16.4729 46.6378 17.0115L46.6082 17.0623L46.5477 17.166L46.4852 17.2732L46.4205 17.3833L46.3537 17.4961L46.2846 17.611L46.2135 17.7278L46.1401 17.8458L46.0647 17.9647L45.9873 18.084L45.908 18.203L45.8268 18.3213L45.7439 18.4384L45.6595 18.5537L45.5736 18.6667L45.4866 18.7768L45.3986 18.8834L45.3099 18.9861L45.2208 19.0842L45.1317 19.1772L45.043 19.2648L44.9551 19.3462L44.8685 19.4212L44.784 19.4893L44.7019 19.5504L44.623 19.6042L44.5402 19.6549L44.4779 19.6891L44.4428 19.707L44.4087 19.7231L44.376 19.7377L44.3445 19.7506L44.3141 19.7621L44.2849 19.7722L44.2568 19.781L44.2298 19.7885L44.1916 19.7971L44.1545 19.804L44.1785 19.7997L44.1808 19.7999L44.1625 19.8033L44.1454 19.806L44.1293 19.808L44.1139 19.8094L44.0991 19.8103L44.0844 19.8106L44.0698 19.8105L44.055 19.8097L44.0513 19.8105L44.0378 19.8103L44.0016 19.8044L43.9616 19.7946L43.9173 19.7802L43.8688 19.7608L43.8164 19.736L43.7605 19.7055L43.7015 19.6692L43.6401 19.6273L43.5768 19.58L43.512 19.5273L43.4461 19.4698L43.3797 19.4077L43.3132 19.3415L43.2469 19.2717L43.1809 19.1986L43.1157 19.1227L43.0514 19.0445L42.9881 18.9645L42.9261 18.883L42.8655 18.8006L42.8063 18.7177L42.7487 18.6347L42.6926 18.5519L42.6382 18.4697L42.5853 18.3887L42.5335 18.3081L42.5077 18.2675L42.5115 18.2735L42.4309 18.1455L42.2678 17.8761L42.1102 17.6029L41.9578 17.3259L41.8102 17.0454L41.6671 16.7615L41.5282 16.4746L41.393 16.1847L41.2611 15.8921L41.1323 15.5971L41.006 15.2998L40.8824 15.0019L40.6997 14.5499L40.4592 13.9403L40.3397 13.6341L40.3409 13.637L40.1856 13.2354L39.8782 12.4247L39.5748 11.6098L39.2732 10.7915L38.9708 9.97041L38.665 9.14708L38.3538 8.32347L38.1152 7.70599L37.9532 7.29491L37.8721 7.09173C37.8718 7.09091 37.8714 7.09001 37.8711 7.08919L37.7614 6.81639L37.5388 6.27175L37.3669 5.86183L37.2486 5.5867L37.1271 5.31109L37.0024 5.03521L36.8739 4.7592L36.7412 4.48325L36.604 4.20757L36.4621 3.93237L36.3149 3.65786L36.1621 3.38424L36.0033 3.11164L35.8412 2.84507L35.7623 2.71952C35.7612 2.71774 35.7601 2.71603 35.759 2.71432L35.7328 2.67304L35.6788 2.5887L35.6219 2.5008L35.562 2.40955L35.4991 2.31535L35.4313 2.21595L35.3238 2.06309L35.1745 1.86093L35.0549 1.708L34.9686 1.60265L34.8783 1.49688L34.784 1.39112L34.6853 1.28556L34.5819 1.18061L34.4736 1.07649L34.3599 0.973664L34.2408 0.872554L34.1157 0.773566L33.9842 0.677178L33.8461 0.584006L33.7009 0.494604L33.5484 0.409785L33.3883 0.330305L33.2205 0.257056L33.045 0.191064L32.8621 0.133287L32.6723 0.0847522L32.4761 0.0464165L32.2747 0.0192368L32.0903 0.0045209L32.029 0.00191783C32.0166 0.00137017 32.0041 0.00102849 31.9917 0.000823121L31.8946 0L31.7336 0.00411143L31.575 0.0149958L31.4191 0.0323148L31.2661 0.0557257L31.1164 0.0848901L30.9699 0.11939L30.8269 0.158892L30.6875 0.203114L30.5517 0.251649L30.4194 0.304225L30.2908 0.360565L30.1656 0.420464L30.0441 0.483648L29.9262 0.549849L29.8117 0.618991L29.7007 0.69087L29.5932 0.765214L29.4892 0.841952L29.3885 0.921022L29.2912 1.00214L29.1973 1.08539L29.1068 1.17048L29.0198 1.25756L28.9361 1.34635L28.8558 1.43691L28.7791 1.52919L28.7058 1.62318L28.6361 1.71889L28.5701 1.8163L28.5078 1.91549L28.454 2.00778L28.4356 2.04125C28.4338 2.0444 28.4321 2.04755 28.4305 2.05077L28.4036 2.10081L28.3498 2.20158L28.2949 2.30522L28.2388 2.41181L28.1816 2.5212L28.1232 2.63333L28.0637 2.74828L28.0031 2.86588L27.9413 2.98616L27.8784 3.10897L27.8145 3.23438L27.7495 3.36226L27.6833 3.49254L27.6162 3.62521L27.5479 3.7602L27.4787 3.89746L27.4084 4.03697L27.3371 4.17854L27.2649 4.32223L27.1917 4.46798L27.1175 4.61564L27.0424 4.76522L26.9664 4.91665L26.8895 5.06979L26.7724 5.30274L26.6134 5.61908L26.4509 5.94138L26.2853 6.26929L26.1167 6.60219L25.945 6.93961L25.7707 7.28108L25.5937 7.6261L25.4142 7.97407L25.2323 8.32457L25.0483 8.67705L24.8625 9.03029L24.5803 9.56193L24.197 10.2733L23.9054 10.8052L23.7101 11.1572L23.5136 11.5072L23.3162 11.8544L23.1182 12.1985L22.9196 12.5388L22.7206 12.8748L22.5215 13.206L22.3222 13.5319L22.1232 13.852L21.9244 14.1655L21.7262 14.4721L21.5288 14.7711L21.3323 15.062L21.137 15.3441L20.9432 15.6169L20.7497 15.8816L20.6055 16.0738L20.5108 16.1974L20.4167 16.3181L20.3233 16.436L20.2305 16.551L20.1385 16.6628L20.0472 16.7715L19.9568 16.877L19.8674 16.9792L19.7789 17.0779L19.6915 17.1732L19.6053 17.2649L19.5202 17.3529L19.4365 17.4371L19.3543 17.5176L19.2736 17.594L19.1946 17.6665L19.1174 17.7348L19.0423 17.7989L18.9693 17.8588L18.8988 17.9143L18.8309 17.9654L18.7658 18.012L18.7039 18.0541L18.6453 18.0918L18.5906 18.125L18.5399 18.1538L18.4936 18.1783L18.4521 18.1987L18.4157 18.2152L18.3848 18.228L18.3596 18.2378L18.3402 18.2448L18.3268 18.2497L18.3191 18.2531L18.3168 18.2556L18.3193 18.2579L18.3038 18.2594L18.2642 18.2577L18.3203 18.2612L18.3107 18.261L18.2656 18.2569L18.2197 18.2512L18.173 18.2436L18.1253 18.234L18.0765 18.2225L18.0266 18.2091L17.9754 18.1934L17.9232 18.1755L17.8697 18.1555L17.8151 18.1331L17.7594 18.1084L17.7027 18.0813L17.6451 18.0519L17.5866 18.0201L17.5273 17.986L17.4674 17.9497L17.4067 17.911L17.3455 17.8701L17.2886 17.8304L17.1993 17.765L17.0733 17.6661L16.9469 17.5597L16.8207 17.4462L16.6952 17.3264L16.5706 17.2011L16.4473 17.0708L16.3256 16.9364L16.2059 16.7984L16.0883 16.6576L15.973 16.5148L15.8602 16.3704L15.7501 16.2253L15.6428 16.0802L15.5383 15.9357L15.4368 15.7923L15.3384 15.6508L15.2431 15.5117L15.1509 15.3756L15.0617 15.243L14.9756 15.1144L14.9132 15.0212L14.8727 14.9608L14.8531 14.9318L14.8546 14.9339L14.7351 14.7555L14.4952 14.3909L14.258 14.0231L14.0232 13.6531L13.6713 13.0914L13.2013 12.3349L12.8453 11.7649L12.6041 11.3832L12.359 11.0008L12.1092 10.6183L11.8539 10.2359L11.592 9.8541L11.3229 9.47321L11.0486 9.09772L10.913 8.91685C10.912 8.91556 10.911 8.91425 10.91 8.91295L10.8695 8.85942L10.7859 8.74921L10.6988 8.63481L10.6081 8.51666L10.5138 8.39521L10.4159 8.27096L10.3143 8.14425L10.209 8.01555L10.0998 7.88528L9.98662 7.75371L9.86947 7.62131L9.74812 7.4885L9.62238 7.35556L9.49212 7.22303L9.35718 7.09111L9.21731 6.96043L9.07229 6.83118L8.92188 6.70392L8.76585 6.57912L8.60388 6.4572L8.43574 6.3387L8.2612 6.22424L8.07994 6.1143L7.89174 6.00956L7.69642 5.91078L7.49384 5.81863L7.28401 5.73409L7.07464 5.66023L6.91556 5.61101L6.80216 5.57958L6.68705 5.55076L6.57038 5.52447L6.45207 5.50106L6.33219 5.48039L6.21091 5.46273L6.09752 5.44897L6.05418 5.44445C6.0473 5.44376 6.04035 5.44308 6.0334 5.44246L5.94453 5.435L5.79069 5.4259L5.63786 5.42199L5.48627 5.42316L5.33626 5.42925L5.1878 5.44027L5.04129 5.45602L4.89674 5.47635L4.75445 5.50106L4.61451 5.53002L4.47698 5.56301L4.34212 5.59985L4.2099 5.6403L4.08034 5.68426L3.9536 5.73135L3.82958 5.78153L3.7083 5.83451L3.58983 5.8901L3.4741 5.94822L3.36102 6.0086L3.25059 6.07103L3.14274 6.13552L3.03739 6.20179L2.93446 6.26977L2.83396 6.33925L2.73111 6.41373L2.58421 6.52579L2.40186 6.67448L2.22748 6.82687L2.06059 6.9822L1.90065 7.13972L1.74735 7.29888L1.6003 7.45893L1.45926 7.61919L1.32385 7.77903L1.19382 7.93778L1.0691 8.09482L0.949463 8.2494L0.83482 8.40076L0.724942 8.54829L0.619905 8.69115L0.519709 8.82855L0.424435 8.95964L0.334079 9.08341L0.247473 9.20109L0.203428 9.26017C-0.173846 9.76668 -0.0113311 10.4454 0.566489 10.7761C1.14423 11.1069 1.91854 10.9644 2.29581 10.4579Z" fill="#838383"/>
<circle cx="50.5" cy="12.5" r="1.5" fill="#838383"/>
</svg>
