<svg width="406" height="269" viewBox="0 0 406 269" fill="none" xmlns="http://www.w3.org/2000/svg">
<g clip-path="url(#clip0)">
<path opacity="0.18" d="M110.158 12.9528C106.441 12.2025 102.683 11.6641 98.9023 11.3401C80.6182 9.91267 62.389 14.6946 47.2433 24.8913C21.8759 42.0636 10.8851 73.6456 4.53003 102.077C-2.64315 133.995 -1.88568 168.242 11.1654 198.645C29.0112 240.224 72.7244 272.202 118.399 268.745C138.283 267.252 157.212 259.494 177.035 257.284C199.804 254.746 222.679 259.584 245.547 261.018C280.031 263.157 314.558 257.572 346.54 244.681C365.37 237.073 383.845 226.337 394.851 209.463C411.31 184.205 407.523 150.772 396.661 122.706C390.897 107.774 383.375 93.5431 376.209 79.2079C369.044 64.8728 364.302 49.5223 357.636 35.1573C346.471 11.1012 315.681 -3.09953 289.821 0.551448C267.029 3.76192 247.456 18.4255 225.027 23.5474C214.377 25.9739 203.341 26.1904 192.411 25.9366C173.868 25.511 155.295 23.7639 137.245 19.5604C128.193 17.4773 119.255 14.7372 110.158 12.9528Z" fill="#6B6B6B"/>
<path opacity="0.24" d="M239.04 226.928C234.882 227.137 230.352 227.495 227.337 230.318C263.664 234.179 300.334 233.66 336.533 228.772C334.261 224.613 328.527 224.009 323.717 223.904C310.083 223.605 294.093 219.835 280.655 222.023C266.756 224.292 253.144 226.928 239.04 226.928Z" fill="#232224"/>
<path opacity="0.24" d="M66.513 227.047C64.2406 227.1 61.0668 228.13 61.5364 230.347C61.8622 231.841 63.7407 232.408 65.3238 232.647C103.356 238.56 142.305 237.933 180.39 232.311C179.913 229.952 170.702 230.915 166.756 230.265C161.908 229.466 157.06 228.63 152.243 227.652C144.065 225.966 135.709 225.269 127.36 225.577L66.513 227.047Z" fill="#232224"/>
<path d="M265.127 39.0184H119.952C109.335 39.0184 100.728 47.5022 100.728 57.9676V138.065C100.728 148.53 109.335 157.014 119.952 157.014H265.127C275.745 157.014 284.352 148.53 284.352 138.065V57.9676C284.352 47.5022 275.745 39.0184 265.127 39.0184Z" fill="#232224"/>
<path d="M264.112 39.0184H118.937C108.319 39.0184 99.7124 47.5022 99.7124 57.9676V138.065C99.7124 148.53 108.319 157.014 118.937 157.014H264.112C274.729 157.014 283.337 148.53 283.337 138.065V57.9676C283.337 47.5022 274.729 39.0184 264.112 39.0184Z" fill="url(#paint0_linear)"/>
<path opacity="0.24" d="M181.102 118.362C181.114 122.415 179.919 126.382 177.666 129.772C175.413 133.162 172.201 135.826 168.427 137.434C164.652 139.042 160.483 139.524 156.434 138.818C152.385 138.113 148.635 136.253 145.648 133.467C142.661 130.682 140.57 127.094 139.632 123.148C138.694 119.202 138.951 115.071 140.371 111.268C141.792 107.465 144.313 104.156 147.623 101.751C150.932 99.3466 154.885 97.952 158.991 97.7401C159.366 97.6968 159.743 97.6793 160.12 97.6878C165.683 97.6878 171.019 99.8658 174.953 103.743C178.888 107.62 181.1 112.878 181.102 118.362Z" fill="#232224"/>
<path opacity="0.45" d="M179.625 62.6713C179.458 63.2388 176.769 63.9481 176.08 64.3811C174.893 65.2055 173.849 66.214 172.989 67.3676C171.345 69.5029 170.05 71.8921 168.111 73.7736C167.541 74.2463 167.046 74.7999 166.642 75.4162C166.119 76.3046 166.119 77.3798 165.808 78.3504C165.484 79.3285 164.871 80.1891 164.048 80.8221C163.225 81.4552 162.229 81.8319 161.188 81.9043C162.024 82.6238 162.604 83.5879 162.845 84.6558C163.086 85.7237 162.974 86.8394 162.525 87.84C162.077 88.8406 161.316 89.6738 160.353 90.2178C159.39 90.7618 158.276 90.9881 157.173 90.8637C158.292 92.9747 158.914 95.3073 158.991 97.6878C155.987 97.8389 153.052 98.626 150.384 99.9955C147.716 101.365 145.379 103.285 143.531 105.624C142.873 105.478 142.253 105.198 141.71 104.802C141.167 104.406 140.715 103.903 140.38 103.325C138.706 104.818 136.025 103.862 134.268 102.496C127.913 97.6356 126.125 87.8772 130.367 81.1353C132.45 77.7755 136.919 75.1623 140.327 77.1782C141.221 75.7596 143.236 75.334 144.872 75.7596C146.501 76.3194 147.987 77.2212 149.228 78.4026C148.909 75.9239 151.045 73.5347 153.53 73.0494C154.798 72.888 156.087 73.0434 157.278 73.5013C158.469 73.9592 159.525 74.705 160.347 75.67C159.65 74.8711 173.413 63.1865 174.86 62.2308C175.671 61.7306 180.579 59.4534 179.625 62.6713Z" fill="#232224"/>
<path opacity="0.24" d="M176.496 93.6337C171.247 100.294 164.612 107.289 156.045 107.439C154.477 107.439 152.841 107.26 151.386 107.857C148.591 109.007 147.781 112.456 147.341 115.42C146.243 122.886 145.152 130.465 146.584 137.819C147.697 143.553 150.318 149.138 149.765 154.946C149.659 156.014 149.364 157.186 148.432 157.754C147.694 158.082 146.872 158.178 146.076 158.03L132.957 156.895C131.863 156.905 130.789 156.602 129.867 156.021C129.129 155.33 128.604 154.447 128.352 153.475C123.05 138.61 124.322 122.371 125.64 106.677C125.928 103.22 126.231 99.7038 127.519 96.4709C128.806 93.238 131.223 90.2814 134.555 89.1689C142.13 86.6379 149.455 94.3356 157.461 94.6417C165.793 94.9552 171.618 87.728 177.579 83.1213C179.571 81.5758 184.465 76.9393 184.904 81.6803C185.222 84.8311 178.405 91.252 176.496 93.6337Z" fill="#232224"/>
<path opacity="0.24" d="M185.094 138.319C196.686 138.319 206.083 129.056 206.083 117.63C206.083 106.204 196.686 96.9413 185.094 96.9413C173.502 96.9413 164.104 106.204 164.104 117.63C164.104 129.056 173.502 138.319 185.094 138.319Z" fill="#232224"/>
<path d="M99.6744 100.488C98.8639 102.496 98.0383 104.624 98.417 106.752C98.7241 108.089 99.2871 109.356 100.076 110.485C102.361 114.174 104.969 117.659 107.87 120.9C108.622 121.91 109.665 122.675 110.862 123.095C111.975 115.181 112.241 107.173 111.657 99.2035C111.664 98.4852 111.495 97.7759 111.165 97.1354C110.607 96.4112 109.846 95.8636 108.976 95.56C106.969 94.6342 104.969 93.5516 102.916 92.805C102.31 93.5516 100.296 100.488 99.6744 100.488Z" fill="#C8A59C"/>
<path d="M182.746 76.887L174.368 75.5356C174.368 75.5356 173.505 73.7811 174.823 73.1838L188.078 75.4236L182.746 76.887Z" fill="#606161"/>
<path d="M157.166 91.7522C158.433 91.9336 159.719 91.9512 160.991 91.8045C161.484 91.6104 175.815 80.3961 181.306 77.6187C183.846 76.0685 186.765 75.2296 189.752 75.1922C191.131 75.1026 192.782 75.1474 193.539 76.3046C193.759 76.7105 193.86 77.1691 193.829 77.6283C193.798 78.0875 193.637 78.5291 193.365 78.9029C192.813 79.6436 192.078 80.2323 191.229 80.6127C189.477 81.5108 187.556 82.0421 185.586 82.1731C185.072 82.1693 184.561 82.2448 184.071 82.3971C183.439 82.7061 182.895 83.1654 182.488 83.7335C178.423 88.4771 174.168 93.0489 169.725 97.449C167.354 99.7934 164.672 102.212 161.332 102.586C160.13 102.688 158.92 102.61 157.742 102.354C155.44 101.914 153.212 101.16 151.121 100.114C150.667 99.9205 150.264 99.6238 149.947 99.2483C149.614 98.7195 149.463 98.0991 149.516 97.4788C149.562 95.417 150.318 93.4319 151.659 91.8493C153.417 89.7886 154.916 91.2669 157.166 91.7522Z" fill="#C8A59C"/>
<path d="M137.177 64.0377C137.316 65.7516 137.25 67.4758 136.98 69.1744C136.639 70.9066 135.654 72.7433 133.95 73.1912C132.935 73.4526 131.746 73.1913 130.92 73.8707C130.299 74.3709 130.125 75.2146 129.708 75.894C129.304 76.4604 128.766 76.921 128.14 77.2358C127.514 77.5507 126.82 77.7103 126.118 77.7008C124.713 77.6656 123.325 77.3954 122.012 76.902C121.669 76.8228 121.349 76.6641 121.081 76.4391C120.733 75.9973 120.565 75.4434 120.611 74.8861C120.454 70.6303 120.394 66.3696 120.429 62.1039C120.358 60.8727 120.555 59.6408 121.005 58.4903C121.798 57.1313 123.015 56.0605 124.474 55.4366C126.537 54.3882 128.756 53.6723 131.049 53.3162C133.162 52.9802 136.677 53.1743 137.063 55.8622C137.082 56.8446 137.036 57.8272 136.927 58.8039C136.965 60.5286 137.108 62.2757 137.177 64.0377Z" fill="#C8A59C"/>
<path d="M138.457 50.2625C138.793 50.7634 139.006 51.3345 139.079 51.9305C139.153 52.5265 139.085 53.1312 138.881 53.697C138.454 54.8304 137.721 55.8271 136.76 56.5789C136.19 56.9851 135.68 57.4676 135.245 58.0124C134.329 59.3638 134.768 61.1706 134.488 62.7833C134.488 62.9103 134.412 63.067 134.276 63.0894C134.139 63.1118 134.041 62.9999 133.95 62.8953C133.696 62.6059 133.355 62.4042 132.976 62.3198C132.597 62.2354 132.201 62.2727 131.845 62.4262C131.49 62.5798 131.193 62.8416 131 63.1732C130.806 63.5048 130.725 63.8888 130.769 64.2691C130.875 65.2397 131.761 66.0386 131.723 67.0167C131.644 67.571 131.402 68.0904 131.026 68.5099C130.752 68.9479 130.347 69.2919 129.867 69.4955C129.473 69.5813 129.065 69.5813 128.67 69.4955L120.49 68.5622C120.029 68.5278 119.574 68.4401 119.134 68.3009C118.557 68.0569 118.044 67.6868 117.633 67.2186C117.222 66.7504 116.925 66.1962 116.763 65.5981C116.453 64.3987 116.321 63.1615 116.369 61.9247C116.369 59.6849 116.263 57.3255 115.332 55.2499C115.16 54.955 115.077 54.6188 115.089 54.2793C115.148 54.0529 115.259 53.8433 115.415 53.6671C116.71 52.0171 118.68 50.8822 119.566 48.9933C119.705 48.6383 119.88 48.2981 120.088 47.9779C120.77 47.0894 122.096 47.0744 123.224 47.1342L128.277 47.4104C129.435 47.4701 130.337 47.0446 131.443 46.9699C132.263 46.9706 133.074 47.1437 133.821 47.4776C135.336 48.1346 137.472 48.9261 138.457 50.2625Z" fill="#606161"/>
<path d="M138.457 50.2625C138.793 50.7634 139.006 51.3345 139.079 51.9305C139.153 52.5265 139.085 53.1312 138.881 53.697C138.454 54.8304 137.721 55.8271 136.76 56.5789C136.19 56.9851 135.68 57.4676 135.245 58.0124C134.329 59.3638 134.768 61.1706 134.488 62.7833C134.488 62.9103 134.412 63.067 134.276 63.0894C134.139 63.1118 134.041 62.9999 133.95 62.8953C133.696 62.6059 133.355 62.4042 132.976 62.3198C132.597 62.2354 132.201 62.2727 131.845 62.4262C131.49 62.5798 131.193 62.8416 131 63.1732C130.806 63.5048 130.725 63.8888 130.769 64.2691C130.875 65.2397 131.761 66.0386 131.723 67.0167C131.644 67.571 131.402 68.0904 131.026 68.5099C130.752 68.9479 130.347 69.2919 129.867 69.4955C129.473 69.5813 129.065 69.5813 128.67 69.4955L120.49 68.5622C120.029 68.5278 119.574 68.4401 119.134 68.3009C118.557 68.0569 118.044 67.6868 117.633 67.2186C117.222 66.7504 116.925 66.1962 116.763 65.5981C116.453 64.3987 116.321 63.1615 116.369 61.9247C116.369 59.6849 116.263 57.3255 115.332 55.2499C115.16 54.955 115.077 54.6188 115.089 54.2793C115.148 54.0529 115.259 53.8433 115.415 53.6671C116.71 52.0171 118.68 50.8822 119.566 48.9933C119.705 48.6383 119.88 48.2981 120.088 47.9779C120.77 47.0894 122.096 47.0744 123.224 47.1342L128.277 47.4104C129.435 47.4701 130.337 47.0446 131.443 46.9699C132.263 46.9706 133.074 47.1437 133.821 47.4776C135.336 48.1346 137.472 48.9261 138.457 50.2625Z" fill="url(#paint1_linear)"/>
<path d="M120.103 75.5356C123.133 76.0582 126.315 75.9239 129.42 76.0433C134.132 76.215 138.972 77.0363 142.926 79.5599C144.53 80.6495 146.037 81.8709 147.433 83.2109L154.25 89.4153C154.521 89.5951 154.73 89.8523 154.85 90.1525C154.969 90.4527 154.992 90.7816 154.916 91.0952C154.553 94.3851 152.954 97.4217 150.432 99.6067C150.284 99.7627 150.091 99.8697 149.879 99.9128C149.67 99.9148 149.464 99.8633 149.281 99.7635L141.706 96.2991C141.445 97.7687 141.445 99.2719 141.706 100.742C143.653 111.515 141.706 122.737 140.752 133.638C140.747 134.134 140.63 134.624 140.411 135.071C140.095 135.531 139.661 135.899 139.154 136.139C134.889 138.491 129.761 138.588 124.875 138.558C120.331 138.558 115.521 138.334 111.87 135.721C111.432 135.437 111.063 135.062 110.787 134.623C110.514 134.01 110.395 133.342 110.438 132.674L110.014 104.266C110.048 103.592 109.952 102.918 109.734 102.28C109.06 100.622 102.788 98.0388 101.705 92.9692C102.47 87.6607 115.763 76.3196 120.103 75.5356Z" fill="#232224"/>
<path d="M120.103 75.5356C123.133 76.0582 126.315 75.9239 129.42 76.0433C134.132 76.215 138.972 77.0363 142.926 79.5599C144.53 80.6495 146.037 81.8709 147.433 83.2109L154.25 89.4153C154.521 89.5951 154.73 89.8523 154.85 90.1525C154.969 90.4527 154.992 90.7816 154.916 91.0952C154.553 94.3851 152.954 97.4217 150.432 99.6067C150.284 99.7627 150.091 99.8697 149.879 99.9128C149.67 99.9148 149.464 99.8633 149.281 99.7635L141.706 96.2991C141.445 97.7687 141.445 99.2719 141.706 100.742C143.653 111.515 141.706 122.737 140.752 133.638C140.747 134.134 140.63 134.624 140.411 135.071C140.095 135.531 139.661 135.899 139.154 136.139C134.889 138.491 129.761 138.588 124.875 138.558C120.331 138.558 115.521 138.334 111.87 135.721C111.432 135.437 111.063 135.062 110.787 134.623C110.514 134.01 110.395 133.342 110.438 132.674L110.014 104.266C110.048 103.592 109.952 102.918 109.734 102.28C109.06 100.622 102.788 98.0388 101.705 92.9692C102.47 87.6607 115.763 76.3196 120.103 75.5356Z" fill="url(#paint2_linear)"/>
<path d="M140.388 135.041C140.388 135.041 146.637 167.893 146.637 172.29C146.637 176.688 138.517 218.939 138.517 218.939C138.517 218.939 131.405 219.342 129.579 216.938L133.033 176.509L127.261 159.142L124.285 181.899L105.393 217.939L96.0615 212.346L114.385 173.522C114.385 173.522 105.197 154.386 110.802 134.623L140.388 135.041Z" fill="#606161"/>
<path d="M140.388 135.041C140.388 135.041 146.637 167.893 146.637 172.29C146.637 176.688 138.517 218.939 138.517 218.939C138.517 218.939 131.405 219.342 129.579 216.938L133.033 176.509L127.261 159.142L124.285 181.899L105.393 217.939L96.0615 212.346L114.385 173.522C114.385 173.522 105.197 154.386 110.802 134.623L140.388 135.041Z" fill="url(#paint3_linear)"/>
<path d="M129.7 230.362C129.691 230.472 129.709 230.582 129.753 230.683C129.838 230.81 129.968 230.901 130.117 230.937C131.473 231.362 132.891 231.562 134.313 231.527C138.903 231.647 143.499 231.749 148.099 231.833C148.099 229.668 146.205 227.913 144.168 227.107C142.13 226.301 139.896 226.166 137.775 225.614C137.341 225.544 136.944 225.327 136.654 225.002C136.478 224.684 136.394 224.325 136.411 223.964L136.245 219.686C136.267 219.427 136.236 219.167 136.154 218.921C136.072 218.675 135.941 218.447 135.768 218.252C135.567 218.109 135.341 218.005 135.101 217.946C134.26 217.7 132.109 216.811 131.314 217.341C130.518 217.871 130.518 220.044 130.397 220.94C129.953 224.062 129.72 227.21 129.7 230.362Z" fill="#606161"/>
<path d="M92.8271 221.963C92.7521 222.054 92.6967 222.159 92.6643 222.271C92.6319 222.384 92.6233 222.502 92.6389 222.618C92.6545 222.734 92.694 222.846 92.7551 222.946C92.8161 223.047 92.8973 223.134 92.9938 223.202L99.6519 230.668C99.8241 230.893 100.04 231.081 100.288 231.221C100.581 231.341 100.895 231.4 101.212 231.393C103.969 231.505 106.742 231.497 109.499 231.393C109.321 230.502 108.942 229.663 108.39 228.936C107.838 228.21 107.127 227.615 106.31 227.197C105.272 226.674 104.038 226.45 103.159 225.703C102.379 224.991 101.771 224.116 101.379 223.143C101.024 222.652 100.843 222.058 100.867 221.456C100.89 220.853 101.115 220.275 101.508 219.813L102.879 217.573C103.078 217.332 103.216 217.048 103.282 216.744C103.348 216.44 103.34 216.126 103.257 215.826C103.06 215.499 102.767 215.238 102.417 215.079C101.462 214.527 100.144 213.399 99.0535 213.198C97.9627 212.996 97.5386 214.004 96.978 214.907C95.6373 217.199 93.933 219.521 92.8271 221.963Z" fill="#606161"/>
<path opacity="0.24" d="M265.869 64.5753H215.286C214.278 64.5753 213.46 65.3809 213.46 66.3746V66.3821C213.46 67.3758 214.278 68.1814 215.286 68.1814H265.869C266.877 68.1814 267.695 67.3758 267.695 66.3821V66.3746C267.695 65.3809 266.877 64.5753 265.869 64.5753Z" fill="#232224"/>
<path opacity="0.24" d="M265.263 70.7797H214.68C213.672 70.7797 212.854 71.5853 212.854 72.579V72.5865C212.854 73.5802 213.672 74.3858 214.68 74.3858H265.263C266.272 74.3858 267.089 73.5802 267.089 72.5865V72.579C267.089 71.5853 266.272 70.7797 265.263 70.7797Z" fill="#232224"/>
<path opacity="0.24" d="M264.65 76.9915H214.067C213.058 76.9915 212.241 77.7971 212.241 78.7909V78.7984C212.241 79.7921 213.058 80.5977 214.067 80.5977H264.65C265.658 80.5977 266.476 79.7921 266.476 78.7984V78.7909C266.476 77.7971 265.658 76.9915 264.65 76.9915Z" fill="#232224"/>
<path opacity="0.24" d="M264.044 83.1959H213.46C212.452 83.1959 211.635 84.0015 211.635 84.9953V85.0027C211.635 85.9965 212.452 86.8021 213.46 86.8021H264.044C265.052 86.8021 265.869 85.9965 265.869 85.0027V84.9953C265.869 84.0015 265.052 83.1959 264.044 83.1959Z" fill="#232224"/>
<path opacity="0.24" d="M267.089 93.2081H210.825V142.06H267.089V93.2081Z" fill="#232224"/>
<path opacity="0.24" d="M216.377 109.761L227.746 128.441L246.168 105.751L254.023 116.697L265.127 98.8153V139.387H212.854V117.503L216.377 109.761Z" fill="#232224"/>
<path opacity="0.24" d="M269.27 100.756C266.672 98.3374 262.673 97.8073 259.219 98.6958C255.765 99.5843 252.765 101.72 250.129 104.086C248.498 105.429 247.139 107.063 246.122 108.902C244.887 111.366 244.743 114.218 244.728 116.966C244.706 123.045 245.212 129.115 246.243 135.108C246.292 135.68 246.488 136.23 246.811 136.706C247.781 137.893 249.675 137.341 251.212 137.505C253.076 137.707 254.598 139.118 255.545 140.716C256.379 142.369 257.108 144.072 257.726 145.815C259.123 149.018 261.351 151.802 264.187 153.886C266.233 155.379 269.24 156.447 271.209 154.842C271.874 154.213 272.392 153.449 272.724 152.602C282.117 132.406 274.391 108.096 281.155 86.8992C281.579 85.5702 284.669 79.3434 282.67 78.4101C281.155 77.7382 278.844 81.5982 278.193 82.4643C276.192 85.0273 274.418 87.7551 272.891 90.6174C272.27 91.7448 268.232 99.7933 269.27 100.756Z" fill="#232224"/>
<path d="M201.818 53.3685C200.349 55.7576 196.94 58.5948 192.555 60.8795C185.775 64.4035 179.223 65.2621 177.898 62.7833C177.734 62.4135 177.657 62.0124 177.672 61.6093C177.686 61.2062 177.792 60.8114 177.981 60.4539C178.587 58.9606 180.117 57.1837 182.314 55.4441C184.01 54.1048 185.837 52.9344 187.768 51.9499C191.979 49.7548 196.1 48.5901 198.933 48.6199L201.818 53.3685Z" fill="url(#paint4_linear)"/>
<path d="M182.314 55.4441C180.117 57.1837 178.587 58.9457 177.981 60.4539C176.368 58.5724 171.921 57.1538 171.921 57.1538C175.588 54.5332 180.928 55.2201 182.314 55.4441Z" fill="#910000"/>
<path d="M180.541 71.2351C180.541 71.2351 186.48 68.2486 187.555 62.985C187.555 62.985 182.511 64.971 180.117 64.0601C180.117 64.0601 181.708 66.3074 180.541 71.2351Z" fill="#910000"/>
<path d="M201.849 53.3162L198.963 48.5677C198.963 48.5677 203.697 47.8211 204.333 48.6573C204.97 49.4935 202.167 52.9429 201.849 53.3162Z" fill="#910000"/>
<path d="M186.957 59.8417C188.137 59.8417 189.093 58.899 189.093 57.7362C189.093 56.5734 188.137 55.6307 186.957 55.6307C185.777 55.6307 184.821 56.5734 184.821 57.7362C184.821 58.899 185.777 59.8417 186.957 59.8417Z" fill="#910000"/>
<path d="M191.403 56.9149C192.332 56.9149 193.085 56.1728 193.085 55.2574C193.085 54.342 192.332 53.5999 191.403 53.5999C190.475 53.5999 189.722 54.342 189.722 55.2574C189.722 56.1728 190.475 56.9149 191.403 56.9149Z" fill="#910000"/>
<path d="M195.682 54.315C196.61 54.315 197.363 53.5729 197.363 52.6575C197.363 51.7421 196.61 51 195.682 51C194.753 51 194 51.7421 194 52.6575C194 53.5729 194.753 54.315 195.682 54.315Z" fill="#910000"/>
<path d="M109.711 102.25V89.0644C109.711 89.0644 103.439 92.0061 102.356 94.6715C102.356 94.6715 108.257 101.548 109.711 102.25Z" fill="url(#paint5_linear)"/>
<path d="M272.368 177.681C272.053 178.884 272.095 180.151 272.489 181.332C274.648 190.679 276.671 200.147 276.716 209.703C276.716 212.324 276.572 215.012 275.519 217.416C274.525 219.523 273.037 221.368 271.179 222.799C270.49 223.367 269.664 224.113 269.906 224.964C270.024 225.31 270.249 225.611 270.55 225.823C271.139 226.279 271.848 226.558 272.593 226.629C273.339 226.699 274.089 226.556 274.754 226.219C275.486 225.774 276.138 225.214 276.686 224.561L281.761 219.118C282.037 218.853 282.26 218.539 282.42 218.192C282.581 217.468 282.493 216.712 282.17 216.042C280.102 209.636 282.859 202.782 283.208 196.07C283.526 189.821 281.73 183.676 279.958 177.666C279.806 177 279.526 176.369 279.132 175.807C278.761 175.402 278.3 175.086 277.785 174.884C277.27 174.682 276.715 174.599 276.163 174.642C275.06 174.736 273.979 175 272.959 175.426" fill="#C8A59C"/>
<path d="M282.799 178.965C283.733 186.167 284.604 193.385 285.412 200.617C286.253 208.188 287.018 215.975 285.018 223.337C284.609 224.83 284.124 226.637 285.086 227.891C285.57 228.43 286.234 228.779 286.958 228.874C287.682 228.969 288.416 228.802 289.025 228.406C289.62 227.993 290.121 227.463 290.497 226.848C290.872 226.234 291.114 225.549 291.206 224.837C291.369 223.416 291.369 221.981 291.206 220.559C290.707 211.428 292.82 202.372 293.388 193.248C293.686 189.812 293.523 186.353 292.903 182.959C292.191 179.525 290.457 174.582 287.192 172.678C282.996 170.207 282.465 176.367 282.799 178.965Z" fill="#C8A59C"/>
<path d="M267.566 226.151C267.335 226.355 267.159 226.612 267.051 226.898C267.012 227.162 267.061 227.432 267.189 227.667C267.317 227.902 267.518 228.091 267.763 228.205C268.258 228.419 268.8 228.509 269.339 228.466C271.403 228.522 273.429 227.919 275.118 226.749C277.338 225.054 278.375 222.097 280.792 220.701C280.868 220.646 280.956 220.61 281.049 220.597C281.716 220.514 281.481 221.791 282.049 222.127C282.617 222.463 283.079 221.702 283.185 221.119C283.382 220.075 283.382 219.005 283.185 217.961C283.109 217.61 282.965 217.214 282.609 217.11C282.253 217.005 281.807 217.476 281.587 217.856C280.942 219.125 279.993 220.219 278.822 221.045C276.663 222.411 274.497 221.702 272.194 222.209C270.195 222.695 268.907 224.748 267.566 226.151Z" fill="#232224"/>
<path d="M284.132 228.518C284.075 229.394 284.157 230.273 284.374 231.124C284.488 231.549 284.699 231.943 284.992 232.274C285.285 232.606 285.652 232.866 286.063 233.035C286.581 233.156 287.121 233.151 287.637 233.021C288.153 232.891 288.629 232.64 289.025 232.289C290.431 231.156 291.423 229.601 291.85 227.861C292.268 226.128 292.38 224.338 292.184 222.568C292.123 221.858 291.949 221.03 291.297 220.723C291.134 221.595 290.718 222.401 290.1 223.043C289.481 223.686 288.687 224.138 287.813 224.345C287.255 224.49 286.661 224.427 286.148 224.166C285.634 223.905 285.237 223.466 285.033 222.933C283.995 224.292 284.162 226.823 284.132 228.518Z" fill="#232224"/>
<path d="M268.453 146.061C268.194 150.655 268.272 155.261 268.687 159.844L269.445 171.111L270.255 183.4C270.224 184.545 270.512 185.676 271.089 186.67C271.846 187.715 273.149 187.917 274.315 188.036C281.091 188.74 287.901 189.071 294.714 189.029C295.608 189.029 296.623 188.962 297.221 188.186C297.613 187.545 297.824 186.813 297.835 186.065C298.228 182.138 298.304 178.166 298.706 174.239C299.349 167.818 300.857 161.546 301.486 155.155C302.114 148.764 301.804 141.895 299.054 136.221C298.781 135.538 298.345 134.931 297.782 134.451C297.182 134.079 296.491 133.872 295.782 133.854C289.421 133.177 283.023 132.89 276.626 132.996C275.512 132.996 273.24 132.577 272.263 133.212C271.407 133.765 270.748 136.027 270.361 137.035C269.317 139.946 268.675 142.982 268.453 146.061Z" fill="#910000"/>
<path d="M270.497 73.0643C269.543 75.8641 268.944 78.9253 269.823 81.7475C269.869 81.9504 269.971 82.1366 270.118 82.2851C270.251 82.3864 270.403 82.4601 270.565 82.5016L271.739 82.8824C272.242 83.097 272.793 83.1793 273.338 83.1213C273.61 83.0864 273.86 82.9535 274.039 82.7481C274.218 82.5428 274.313 82.2795 274.307 82.0088L274.769 83.6365L281.064 83.0765C281.271 83.0746 281.473 83.015 281.647 82.9048C281.744 82.806 281.819 82.6889 281.869 82.5605C281.918 82.4322 281.941 82.2953 281.935 82.1582C282.321 78.3579 282.23 74.5277 282.276 70.705C282.276 68.6369 282.352 66.4866 281.518 64.5902C280.685 62.6938 278.655 61.1333 276.587 61.5216C274.519 61.9098 273.482 63.5076 273.163 65.3816C272.694 68.0321 271.368 70.5333 270.497 73.0643Z" fill="#606161"/>
<path d="M270.497 73.0643C269.543 75.8641 268.944 78.9253 269.823 81.7475C269.869 81.9504 269.971 82.1366 270.118 82.2851C270.251 82.3864 270.403 82.4601 270.565 82.5016L271.739 82.8824C272.242 83.097 272.793 83.1793 273.338 83.1213C273.61 83.0864 273.86 82.9535 274.039 82.7481C274.218 82.5428 274.313 82.2795 274.307 82.0088L274.769 83.6365L281.064 83.0765C281.271 83.0746 281.473 83.015 281.647 82.9048C281.744 82.806 281.819 82.6889 281.869 82.5605C281.918 82.4322 281.941 82.2953 281.935 82.1582C282.321 78.3579 282.23 74.5277 282.276 70.705C282.276 68.6369 282.352 66.4866 281.518 64.5902C280.685 62.6938 278.655 61.1333 276.587 61.5216C274.519 61.9098 273.482 63.5076 273.163 65.3816C272.694 68.0321 271.368 70.5333 270.497 73.0643Z" fill="url(#paint6_linear)"/>
<path d="M301.478 91.5506C302.879 94.4177 303.061 97.6953 303.212 100.876C303.53 107.252 305.621 114.196 302.909 119.997C299.22 127.919 306.765 132.129 301.303 138.491C300.493 139.431 272.02 141.373 269.717 136.437C268.861 134.616 271.164 128.157 270.99 126.157C270.066 115.622 269.187 104.714 272.732 94.7387C273.431 92.4688 274.638 90.382 276.262 88.6314C284.23 80.8441 296.441 81.1278 301.478 91.5506Z" fill="#232224"/>
<path d="M301.478 91.5506C302.879 94.4177 303.061 97.6953 303.212 100.876C303.53 107.252 305.621 114.196 302.909 119.997C299.22 127.919 306.765 132.129 301.303 138.491C300.493 139.431 272.02 141.373 269.717 136.437C268.861 134.616 271.164 128.157 270.99 126.157C270.066 115.622 269.187 104.714 272.732 94.7387C273.431 92.4688 274.638 90.382 276.262 88.6314C284.23 80.8441 296.441 81.1278 301.478 91.5506Z" fill="url(#paint7_linear)"/>
<path d="M273.884 73.139C273.626 74.7217 273.626 76.3347 273.884 77.9174C274.015 78.7079 274.318 79.4612 274.772 80.126C275.225 80.7908 275.819 81.3515 276.512 81.7699C277.44 82.1643 278.407 82.4621 279.398 82.6584C279.681 82.7093 279.944 82.8388 280.155 83.0317C280.3 83.1986 280.399 83.399 280.443 83.6141C280.616 84.6628 280.657 85.7286 280.564 86.7872C280.524 87.3184 280.612 87.8514 280.82 88.3431C281.028 88.8347 281.35 89.2711 281.761 89.6169C282.118 89.8262 282.519 89.9507 282.934 89.9805C283.348 90.0103 283.763 89.9446 284.147 89.7886C284.915 89.4717 285.603 88.9925 286.162 88.385C286.543 88.0175 286.881 87.6093 287.169 87.168C287.907 85.7742 288.225 84.2019 288.086 82.636C288.086 80.5604 287.874 78.4848 287.859 76.4092C287.859 72.7358 289.639 70.5482 289.518 66.8823C289.518 66.2402 288.147 64.0974 287.859 63.5225C287.576 63.042 287.215 62.6107 286.791 62.2458C286.38 61.8156 285.899 61.4572 285.367 61.1856C284.554 60.9044 283.678 60.8526 282.837 61.0363C281.034 61.3054 279.272 61.7893 277.588 62.4773C276.931 62.715 276.326 63.0749 275.807 63.5375C275.57 63.7769 275.388 64.0648 275.276 64.3808C275.163 64.6969 275.122 65.0334 275.156 65.3667C275.085 66.2056 274.943 67.0372 274.732 67.8529C274.383 69.61 274.101 71.372 273.884 73.139Z" fill="#C8A59C"/>
<path d="M273.868 56.3026C271.963 58.1199 270.763 60.5365 270.475 63.1342C270.353 63.9626 270.392 64.8062 270.588 65.6205C270.73 66.2322 271.08 66.7776 271.581 67.166C272.156 67.5222 272.836 67.6773 273.512 67.6065C274.244 67.6081 274.958 67.3864 275.557 66.9719C275.856 66.7633 276.086 66.4738 276.221 66.1384C276.355 65.803 276.388 65.4362 276.315 65.0829L276.512 66.9495C276.51 67.0778 276.55 67.2033 276.625 67.3078C276.7 67.367 276.787 67.4096 276.879 67.4328C276.972 67.456 277.069 67.4592 277.163 67.4422L281.322 67.2182C281.567 67.2579 281.819 67.2023 282.023 67.0631C282.228 66.9239 282.37 66.7119 282.42 66.4716L283.177 64.5005C283.155 65.2785 283.369 66.0454 283.791 66.7031C284.098 67.0602 284.524 67.2982 284.993 67.3748C285.462 67.4513 285.943 67.3615 286.351 67.1212C286.313 72.3475 286.237 77.7605 283.958 82.4717C284.344 82.9434 284.839 83.3169 285.402 83.5612C285.964 83.8054 286.578 83.9131 287.192 83.8753C288.073 83.9237 288.949 83.7271 289.722 83.3079C290.104 83.0956 290.423 82.7879 290.646 82.4157C290.87 82.0435 290.99 81.6199 290.994 81.1875L290.903 82.4941C290.88 82.6187 290.907 82.7473 290.979 82.8525C291.035 82.8936 291.099 82.9228 291.167 82.9383C291.234 82.9537 291.305 82.955 291.373 82.9421L295.615 82.6434C295.857 82.6673 296.1 82.6052 296.3 82.4684C296.5 82.3315 296.644 82.1289 296.706 81.8968C297.899 79.727 298.878 77.4493 299.629 75.0951C300.72 71.3023 300.622 67.278 300.251 63.3582C300.183 62.2175 299.964 61.0904 299.599 60.0059C298.38 56.8178 294.918 54.9587 291.525 54.339C288.131 53.7193 284.753 54.1822 281.367 53.8836C280.014 53.7209 278.64 53.8533 277.345 54.2713C276.049 54.6893 274.862 55.3828 273.868 56.3026Z" fill="#606161"/>
<path d="M273.868 56.3026C271.963 58.1199 270.763 60.5365 270.475 63.1342C270.353 63.9626 270.392 64.8062 270.588 65.6205C270.73 66.2322 271.08 66.7776 271.581 67.166C272.156 67.5222 272.836 67.6773 273.512 67.6065C274.244 67.6081 274.958 67.3864 275.557 66.9719C275.856 66.7633 276.086 66.4738 276.221 66.1384C276.355 65.803 276.388 65.4362 276.315 65.0829L276.512 66.9495C276.51 67.0778 276.55 67.2033 276.625 67.3078C276.7 67.367 276.787 67.4096 276.879 67.4328C276.972 67.456 277.069 67.4592 277.163 67.4422L281.322 67.2182C281.567 67.2579 281.819 67.2023 282.023 67.0631C282.228 66.9239 282.37 66.7119 282.42 66.4716L283.177 64.5005C283.155 65.2785 283.369 66.0454 283.791 66.7031C284.098 67.0602 284.524 67.2982 284.993 67.3748C285.462 67.4513 285.943 67.3615 286.351 67.1212C286.313 72.3475 286.237 77.7605 283.958 82.4717C284.344 82.9434 284.839 83.3169 285.402 83.5612C285.964 83.8054 286.578 83.9131 287.192 83.8753C288.073 83.9237 288.949 83.7271 289.722 83.3079C290.104 83.0956 290.423 82.7879 290.646 82.4157C290.87 82.0435 290.99 81.6199 290.994 81.1875L290.903 82.4941C290.88 82.6187 290.907 82.7473 290.979 82.8525C291.035 82.8936 291.099 82.9228 291.167 82.9383C291.234 82.9537 291.305 82.955 291.373 82.9421L295.615 82.6434C295.857 82.6673 296.1 82.6052 296.3 82.4684C296.5 82.3315 296.644 82.1289 296.706 81.8968C297.899 79.727 298.878 77.4493 299.629 75.0951C300.72 71.3023 300.622 67.278 300.251 63.3582C300.183 62.2175 299.964 61.0904 299.599 60.0059C298.38 56.8178 294.918 54.9587 291.525 54.339C288.131 53.7193 284.753 54.1822 281.367 53.8836C280.014 53.7209 278.64 53.8533 277.345 54.2713C276.049 54.6893 274.862 55.3828 273.868 56.3026Z" fill="url(#paint8_linear)"/>
<path d="M275.216 129.867L248.895 133.556L240.487 97.4265L266.809 93.7382L275.216 129.867Z" fill="white"/>
<path d="M308.295 120.213C308.295 121.356 308.295 122.61 307.537 123.499C306.78 124.387 305.424 124.693 304.205 124.828C295.366 125.795 286.442 124.025 278.67 119.765C278.053 119.48 277.517 119.05 277.11 118.511C276.777 117.894 276.612 117.202 276.633 116.503C276.571 115.084 276.604 113.662 276.731 112.247C276.716 111.934 276.77 111.623 276.889 111.333C277.008 111.043 277.189 110.781 277.421 110.567C277.855 110.334 278.356 110.25 278.845 110.328L290.782 110.911C291.181 110.98 291.592 110.9 291.934 110.687C292.204 110.423 292.363 110.068 292.381 109.694C293.024 105.901 292.381 102.003 292.759 98.1732C293.055 95.3957 294.365 90.7069 297.607 89.9603C301.394 89.0868 302.614 93.783 303.583 96.3887C306.443 104.029 308.034 112.074 308.295 120.213Z" fill="#232224"/>
<path d="M271.755 109.447C271.27 109.213 270.763 109.028 270.24 108.895C269.763 108.81 269.278 108.77 268.793 108.775C267.756 108.775 266.725 108.775 265.695 108.775C264.779 108.76 263.864 108.848 262.968 109.037C262.706 109.08 262.466 109.209 262.287 109.402C262.165 109.584 262.102 109.797 262.105 110.015C262.064 110.768 262.24 111.518 262.611 112.178C262.982 112.838 263.533 113.382 264.203 113.748C264.512 113.865 264.776 114.074 264.96 114.345C265.044 114.509 265.044 114.711 265.12 114.883C265.289 115.168 265.558 115.383 265.877 115.487C267.51 116.217 269.262 116.652 271.05 116.772C271.297 116.767 271.542 116.813 271.77 116.906C271.931 117.001 272.085 117.106 272.232 117.219C272.565 117.403 272.935 117.513 273.315 117.543C273.696 117.572 274.078 117.521 274.436 117.391C275.149 117.13 275.881 116.923 276.625 116.772C277.247 116.697 278.004 116.719 278.315 116.197C278.462 115.878 278.492 115.519 278.398 115.181C278.338 114.316 278.209 113.458 278.012 112.613C277.815 111.993 277.3 111.866 276.716 111.635L274.209 110.522C273.527 110.216 272.323 109.947 271.755 109.447Z" fill="#C8A59C"/>
<path d="M62.9755 182.482C63.6211 175.636 62.8136 168.732 60.6046 162.211C59.3245 158.478 57.5748 154.849 56.4461 151.012C55.3175 147.174 54.7949 143.082 56.0144 139.305C57.2339 135.527 58.1126 132.309 60.1198 128.889C62.3316 125.156 64.5813 121.326 67.7551 118.324C64.674 122.889 62.5472 128.013 61.4989 133.398C60.4506 138.782 60.5019 144.318 61.6499 149.683C62.2937 152.594 63.2557 155.432 63.9905 158.328C65.6948 165.048 66.172 172.014 66.2628 178.943C66.2628 180.272 66.2628 181.705 65.4448 182.78C64.6267 183.855 63.7859 183.579 62.9755 182.482Z" fill="#232224"/>
<path d="M55.749 121.856C55.749 121.856 68.1032 133.003 67.4215 148.436C66.7398 163.868 64.9446 182.034 65.3991 182.78C65.8536 183.527 73.1631 183.572 73.1631 183.572C72.3912 171.985 72.2168 160.368 72.6404 148.764C73.3221 129.404 55.749 121.856 55.749 121.856Z" fill="#232224"/>
<path d="M55.749 121.856C55.749 121.856 68.1032 133.003 67.4215 148.436C66.7398 163.868 64.9446 182.034 65.3991 182.78C65.8536 183.527 73.1631 183.572 73.1631 183.572C72.3912 171.985 72.2168 160.368 72.6404 148.764C73.3221 129.404 55.749 121.856 55.749 121.856Z" fill="url(#paint9_linear)"/>
<path d="M93.2132 123.177C93.2132 123.177 78.5942 134.377 75.231 152.781C71.8679 171.185 70.1333 183.646 70.1333 183.646L78.4654 183.303C78.4654 183.303 78.579 153.58 85.078 140.088C91.5771 126.597 93.2132 123.177 93.2132 123.177Z" fill="#232224"/>
<path d="M93.2132 123.177C93.2132 123.177 78.5942 134.377 75.231 152.781C71.8679 171.185 70.1333 183.646 70.1333 183.646L78.4654 183.303C78.4654 183.303 78.579 153.58 85.078 140.088C91.5771 126.597 93.2132 123.177 93.2132 123.177Z" fill="url(#paint10_linear)"/>
<path d="M77.0871 112.299C77.0871 112.299 82.3893 131.622 79.064 141.223C75.7388 150.825 74.5193 183.915 74.5193 183.915L70.1108 183.631C70.1108 183.631 70.5123 148.592 72.0802 143.448C73.6482 138.304 78.4202 125.574 77.0871 112.299Z" fill="#232224"/>
<path d="M77.0871 112.299C77.0871 112.299 82.3893 131.622 79.064 141.223C75.7388 150.825 74.5193 183.915 74.5193 183.915L70.1108 183.631C70.1108 183.631 70.5123 148.592 72.0802 143.448C73.6482 138.304 78.4202 125.574 77.0871 112.299Z" fill="url(#paint11_linear)"/>
<path d="M41.5996 139.976C41.5996 139.976 62.8086 136.661 68.2774 150.72C73.7463 164.779 68.2774 183.504 68.2774 183.504L65.3839 182.795C65.3839 182.795 68.1032 153.065 51.7496 144.837L41.5996 139.976Z" fill="#232224"/>
<path d="M41.5996 139.976C41.5996 139.976 62.8086 136.661 68.2774 150.72C73.7463 164.779 68.2774 183.504 68.2774 183.504L65.3839 182.795C65.3839 182.795 68.1032 153.065 51.7496 144.837L41.5996 139.976Z" fill="url(#paint12_linear)"/>
<path d="M62.9755 182.482C63.6211 175.636 62.8136 168.732 60.6046 162.211C59.3245 158.478 57.5748 154.849 56.4461 151.012C55.3175 147.174 54.7949 143.082 56.0144 139.305C57.2339 135.527 58.1126 132.309 60.1198 128.889C62.3316 125.156 64.5813 121.326 67.7551 118.324C64.674 122.889 62.5472 128.013 61.4989 133.398C60.4506 138.782 60.5019 144.318 61.6499 149.683C62.2937 152.594 63.2557 155.432 63.9905 158.328C65.6948 165.048 66.172 172.014 66.2628 178.943C66.2628 180.272 66.2628 181.705 65.4448 182.78C64.6267 183.855 63.7859 183.579 62.9755 182.482Z" fill="url(#paint13_linear)"/>
<path d="M57.7188 181.242H85.5555L79.9881 223.77H62.8241L57.7188 181.242Z" fill="#232224"/>
<path d="M57.7188 181.242H85.5555L79.9881 223.77H62.8241L57.7188 181.242Z" fill="url(#paint14_linear)"/>
</g>
<defs>
<linearGradient id="paint0_linear" x1="174.572" y1="-80.5231" x2="194.58" y2="136.297" gradientUnits="userSpaceOnUse">
<stop stop-color="white" stop-opacity="0"/>
<stop offset="0.95" stop-color="white"/>
</linearGradient>
<linearGradient id="paint1_linear" x1="115.074" y1="58.2961" x2="139.101" y2="58.2961" gradientUnits="userSpaceOnUse">
<stop stop-color="#010101" stop-opacity="0"/>
<stop offset="0.95" stop-color="#010101"/>
</linearGradient>
<linearGradient id="paint2_linear" x1="9965.65" y1="13113.7" x2="2938.56" y2="17456" gradientUnits="userSpaceOnUse">
<stop stop-color="#010101" stop-opacity="0"/>
<stop offset="0.95" stop-color="#010101"/>
</linearGradient>
<linearGradient id="paint3_linear" x1="8855.79" y1="29628.8" x2="8855.79" y2="16781.9" gradientUnits="userSpaceOnUse">
<stop stop-color="#010101" stop-opacity="0"/>
<stop offset="0.95" stop-color="#010101"/>
</linearGradient>
<linearGradient id="paint4_linear" x1="6479" y1="1865.71" x2="6508.4" y2="2352.28" gradientUnits="userSpaceOnUse">
<stop stop-color="white" stop-opacity="0"/>
<stop offset="0.95" stop-color="white"/>
</linearGradient>
<linearGradient id="paint5_linear" x1="1227.74" y1="2577.66" x2="1223.49" y2="3296.5" gradientUnits="userSpaceOnUse">
<stop stop-color="#010101" stop-opacity="0"/>
<stop offset="0.95" stop-color="#010101"/>
</linearGradient>
<linearGradient id="paint6_linear" x1="4977.72" y1="3692.78" x2="5196.98" y2="3692.78" gradientUnits="userSpaceOnUse">
<stop stop-color="#010101" stop-opacity="0"/>
<stop offset="0.95" stop-color="#010101"/>
</linearGradient>
<linearGradient id="paint7_linear" x1="14103.2" y1="11631.8" x2="10679.4" y2="18540.3" gradientUnits="userSpaceOnUse">
<stop stop-color="#010101" stop-opacity="0"/>
<stop offset="0.95" stop-color="#010101"/>
</linearGradient>
<linearGradient id="paint8_linear" x1="280.64" y1="71.907" x2="310.635" y2="53.5156" gradientUnits="userSpaceOnUse">
<stop stop-color="#010101" stop-opacity="0"/>
<stop offset="0.47" stop-color="#010101" stop-opacity="0.47"/>
<stop offset="0.95" stop-color="#010101"/>
</linearGradient>
<linearGradient id="paint9_linear" x1="1915.74" y1="15741.5" x2="997.331" y2="16277" gradientUnits="userSpaceOnUse">
<stop stop-color="#010101" stop-opacity="0"/>
<stop offset="0.95" stop-color="#010101"/>
</linearGradient>
<linearGradient id="paint10_linear" x1="2933.19" y1="16599.1" x2="1840.93" y2="16716.8" gradientUnits="userSpaceOnUse">
<stop stop-color="#010101" stop-opacity="0"/>
<stop offset="0.95" stop-color="#010101"/>
</linearGradient>
<linearGradient id="paint11_linear" x1="1240.43" y1="17843.7" x2="-2023.48" y2="20201.7" gradientUnits="userSpaceOnUse">
<stop stop-color="#010101" stop-opacity="0"/>
<stop offset="0.95" stop-color="#010101"/>
</linearGradient>
<linearGradient id="paint12_linear" x1="2681.44" y1="12193.8" x2="3687.98" y2="13941.8" gradientUnits="userSpaceOnUse">
<stop stop-color="#010101" stop-opacity="0"/>
<stop offset="0.95" stop-color="#010101"/>
</linearGradient>
<linearGradient id="paint13_linear" x1="1286.19" y1="17653.4" x2="898.868" y2="17680.3" gradientUnits="userSpaceOnUse">
<stop stop-color="#010101" stop-opacity="0"/>
<stop offset="0.95" stop-color="#010101"/>
</linearGradient>
<linearGradient id="paint14_linear" x1="2709.73" y1="10168.8" x2="1421.5" y2="19772.2" gradientUnits="userSpaceOnUse">
<stop stop-color="#010101" stop-opacity="0"/>
<stop offset="0.95" stop-color="#010101"/>
</linearGradient>
<clipPath id="clip0">
<rect width="406" height="269" fill="white"/>
</clipPath>
</defs>
</svg>
