<svg width="51" height="71" viewBox="0 0 51 71" fill="none" xmlns="http://www.w3.org/2000/svg">
<path d="M50.0186 14.943V13.3903H27.3447V44.652H50.0186V43.0992C50.0186 39.2524 49.0894 37.2235 48.2696 35.4334C47.4782 33.7056 46.7948 32.2133 46.7948 29.0211C46.7948 25.8289 47.4782 24.3366 48.2696 22.6088C49.0894 20.8187 50.0186 18.7898 50.0186 14.943Z" fill="#7E8083"/>
<path d="M25.733 4.07385H1.44727V35.3356H22.5092L32.1806 39.9938V10.2848C32.1806 6.86008 29.2882 4.07385 25.733 4.07385Z" fill="#ABABAB"/>
<path d="M27.3449 35.3356H22.5093V39.9938C22.5093 42.5558 24.6853 44.652 27.3449 44.652C30.0045 44.652 32.1806 42.5558 32.1806 39.9938C32.1806 37.4318 30.0045 35.3356 27.3449 35.3356Z" fill="#545454"/>
<path d="M0 0H5V71H0V0Z" fill="#1D1D1F"/>
<path d="M18.7558 15.6814C17.9894 15.6814 17.3682 15.5199 17.3682 15.3204C17.3682 15.1212 17.9894 14.9596 18.7558 14.9596C19.5221 14.9596 20.1433 15.1212 20.1433 15.3204C20.1433 15.5199 19.5221 15.6814 18.7558 15.6814Z" fill="#910000"/>
<path d="M18.7558 15.6814C17.9894 15.6814 17.3682 15.5199 17.3682 15.3204C17.3682 15.1212 17.9894 14.9596 18.7558 14.9596C19.5221 14.9596 20.1433 15.1212 20.1433 15.3204C20.1433 15.5199 19.5221 15.6814 18.7558 15.6814Z" stroke="#910000" stroke-width="2"/>
<path d="M24.5294 20.3285C24.3457 19.6456 24.3677 19.0531 24.5786 19.0054C24.7893 18.9575 25.1091 19.4726 25.2928 20.1555C25.4765 20.8386 25.4545 21.4309 25.2436 21.4788C25.0329 21.5265 24.7131 21.0116 24.5294 20.3285Z" fill="#910000"/>
<path d="M24.5294 20.3285C24.3457 19.6456 24.3677 19.0531 24.5786 19.0054C24.7893 18.9575 25.1091 19.4726 25.2928 20.1555C25.4765 20.8386 25.4545 21.4309 25.2436 21.4788C25.0329 21.5265 24.7131 21.0116 24.5294 20.3285Z" stroke="#910000" stroke-width="2"/>
<path d="M13.3402 19.6551C13.1495 20.3365 12.8242 20.8485 12.614 20.7989C12.4037 20.7494 12.3879 20.1566 12.5786 19.4754C12.7696 18.794 13.0946 18.2818 13.3051 18.3316C13.5153 18.3811 13.5312 18.9737 13.3402 19.6551Z" fill="#910000"/>
<path d="M13.3402 19.6551C13.1495 20.3365 12.8242 20.8485 12.614 20.7989C12.4037 20.7494 12.3879 20.1566 12.5786 19.4754C12.7696 18.794 13.0946 18.2818 13.3051 18.3316C13.5153 18.3811 13.5312 18.9737 13.3402 19.6551Z" stroke="#910000" stroke-width="2"/>
<path d="M22.0277 25.4272C22.6625 25.0333 23.2758 24.8475 23.3976 25.0129C23.5191 25.178 23.103 25.6312 22.4681 26.0251C21.8331 26.4192 21.2198 26.6047 21.0982 26.4396C20.9767 26.2745 21.3929 25.8213 22.0277 25.4272Z" fill="#910000"/>
<path d="M22.0277 25.4272C22.6625 25.0333 23.2758 24.8475 23.3976 25.0129C23.5191 25.178 23.103 25.6312 22.4681 26.0251C21.8331 26.4192 21.2198 26.6047 21.0982 26.4396C20.9767 26.2745 21.3929 25.8213 22.0277 25.4272Z" stroke="#910000" stroke-width="2"/>
<path d="M14.9561 25.0223C15.5188 25.5001 15.8554 26.0058 15.708 26.1522C15.5603 26.2985 14.9847 26.03 14.4222 25.5522C13.8595 25.0746 13.523 24.5686 13.6704 24.4223C13.8178 24.2761 14.3934 24.5447 14.9561 25.0223Z" fill="#910000"/>
<path d="M14.9561 25.0223C15.5188 25.5001 15.8554 26.0058 15.708 26.1522C15.5603 26.2985 14.9847 26.03 14.4222 25.5522C13.8595 25.0746 13.523 24.5686 13.6704 24.4223C13.8178 24.2761 14.3934 24.5447 14.9561 25.0223Z" stroke="#910000" stroke-width="2"/>
<path d="M19.2819 15.6815H18.2305V19.3957H19.2819V15.6815Z" fill="#910000"/>
<path d="M19.2819 15.6815H18.2305V19.3957H19.2819V15.6815Z" stroke="#910000" stroke-width="2"/>
<path d="M24.5681 20.9119L24.4554 19.9526L20.4326 20.3506L20.5453 21.3102L24.5681 20.9119Z" fill="#910000"/>
<path d="M24.5681 20.9119L24.4554 19.9526L20.4326 20.3506L20.5453 21.3102L24.5681 20.9119Z" stroke="#910000" stroke-width="2"/>
<path d="M20.122 22.0601L19.2817 22.6399L21.7122 25.6092L22.5527 25.0296L20.122 22.0601Z" fill="#910000"/>
<path d="M20.122 22.0601L19.2817 22.6399L21.7122 25.6092L22.5527 25.0296L20.122 22.0601Z" stroke="#910000" stroke-width="2"/>
<path d="M18.0392 22.699L17.2513 22.0601L14.5728 24.8441L15.3607 25.4828L18.0392 22.699Z" fill="#910000"/>
<path d="M18.0392 22.699L17.2513 22.0601L14.5728 24.8441L15.3607 25.4828L18.0392 22.699Z" stroke="#910000" stroke-width="2"/>
<path d="M13.3798 19.2255L13.2026 20.1767L17.191 20.8023L17.3681 19.8511L13.3798 19.2255Z" fill="#910000"/>
<path d="M13.3798 19.2255L13.2026 20.1767L17.191 20.8023L17.3681 19.8511L13.3798 19.2255Z" stroke="#910000" stroke-width="2"/>
<path d="M18.6474 24.1111C16.7688 24.0565 15.2941 22.6133 15.3538 20.8878C15.4134 19.1625 16.9848 17.8079 18.8634 17.8625C20.742 17.9172 22.2166 19.3605 22.157 21.0858C22.0973 22.8113 20.5261 24.1658 18.6474 24.1111Z" fill="#910000"/>
<path d="M18.6474 24.1111C16.7688 24.0565 15.2941 22.6133 15.3538 20.8878C15.4134 19.1625 16.9848 17.8079 18.8634 17.8625C20.742 17.9172 22.2166 19.3605 22.157 21.0858C22.0973 22.8113 20.5261 24.1658 18.6474 24.1111Z" stroke="#910000" stroke-width="2"/>
<g clip-path="url(#clip0)">
<path d="M18.2598 11.1129C12.5869 11.1129 7.97168 15.5229 7.97168 20.9436C7.97168 26.3642 12.5869 30.7742 18.2598 30.7742C23.9327 30.7742 28.5479 26.3642 28.5479 20.9436C28.5479 15.5229 23.9327 11.1129 18.2598 11.1129ZM18.2598 29.3425C13.4131 29.3425 9.46997 25.5747 9.46997 20.9436C9.46997 16.3124 13.4131 12.5446 18.2598 12.5446C23.1065 12.5446 27.0496 16.3124 27.0496 20.9436C27.0496 25.5747 23.1065 29.3425 18.2598 29.3425Z" fill="#1D1D1F"/>
</g>
<defs>
<clipPath id="clip0">
<rect width="20.5762" height="19.6613" fill="white" transform="translate(7.97168 11.1129)"/>
</clipPath>
</defs>
</svg>
