<svg width="109" height="105" viewBox="0 0 109 105" fill="none" xmlns="http://www.w3.org/2000/svg">
<path d="M109 29.604V26.5278H64.0801V88.4614H109V85.3853C109 77.7641 107.159 73.7446 105.535 70.1982C103.967 66.7752 102.613 63.8188 102.613 57.4946C102.613 51.1704 103.967 48.214 105.535 44.7911C107.159 41.2446 109 37.2251 109 29.604Z" fill="#7E8083"/>
<path d="M60.8867 8.0708H12.7734V70.0044H54.5L73.6602 79.2329V20.3755C73.6602 13.5907 67.93 8.0708 60.8867 8.0708Z" fill="#ABABAB"/>
<path d="M64.0801 70.0044H54.5V79.2329C54.5 84.3086 58.811 88.4614 64.0801 88.4614C69.3491 88.4614 73.6602 84.3086 73.6602 79.2329C73.6602 74.1572 69.3491 70.0044 64.0801 70.0044Z" fill="#545454"/>
<path d="M0 0H9.58008V105H0V0Z" fill="#545454"/>
<path d="M9.58008 0H19.1602V105H9.58008V0Z" fill="#1D1D1F"/>
<path d="M47.0635 31.067C45.5452 31.067 44.3145 30.7469 44.3145 30.3518C44.3145 29.957 45.5452 29.637 47.0635 29.637C48.5817 29.637 49.8124 29.957 49.8124 30.3518C49.8124 30.7469 48.5817 31.067 47.0635 31.067Z" fill="#910000"/>
<path d="M47.0635 31.067C45.5452 31.067 44.3145 30.7469 44.3145 30.3518C44.3145 29.957 45.5452 29.637 47.0635 29.637C48.5817 29.637 49.8124 29.957 49.8124 30.3518C49.8124 30.7469 48.5817 31.067 47.0635 31.067Z" stroke="#910000" stroke-width="2"/>
<path d="M58.5017 40.2735C58.1377 38.9206 58.1813 37.7467 58.5992 37.6523C59.0166 37.5574 59.6502 38.5779 60.0141 39.9307C60.3781 41.284 60.3345 42.4575 59.9166 42.5524C59.4992 42.6468 58.8656 41.6268 58.5017 40.2735Z" fill="#910000"/>
<path d="M58.5017 40.2735C58.1377 38.9206 58.1813 37.7467 58.5992 37.6523C59.0166 37.5574 59.6502 38.5779 60.0141 39.9307C60.3781 41.284 60.3345 42.4575 59.9166 42.5524C59.4992 42.6468 58.8656 41.6268 58.5017 40.2735Z" stroke="#910000" stroke-width="2"/>
<path d="M36.3344 38.9393C35.9566 40.2893 35.3122 41.3036 34.8957 41.2054C34.4792 41.1072 34.4477 39.9329 34.8256 38.5834C35.2039 37.2334 35.8478 36.2187 36.2648 36.3173C36.6813 36.4155 36.7128 37.5893 36.3344 38.9393Z" fill="#910000"/>
<path d="M36.3344 38.9393C35.9566 40.2893 35.3122 41.3036 34.8957 41.2054C34.4792 41.1072 34.4477 39.9329 34.8256 38.5834C35.2039 37.2334 35.8478 36.2187 36.2648 36.3173C36.6813 36.4155 36.7128 37.5893 36.3344 38.9393Z" stroke="#910000" stroke-width="2"/>
<path d="M53.5453 50.3745C54.8029 49.5941 56.0179 49.2262 56.2592 49.5537C56.5 49.8808 55.6755 50.7787 54.4179 51.5591C53.1597 52.3399 51.9447 52.7074 51.7039 52.3803C51.4631 52.0532 52.2876 51.1553 53.5453 50.3745Z" fill="#910000"/>
<path d="M53.5453 50.3745C54.8029 49.5941 56.0179 49.2262 56.2592 49.5537C56.5 49.8808 55.6755 50.7787 54.4179 51.5591C53.1597 52.3399 51.9447 52.7074 51.7039 52.3803C51.4631 52.0532 52.2876 51.1553 53.5453 50.3745Z" stroke="#910000" stroke-width="2"/>
<path d="M39.5358 49.5725C40.6506 50.5191 41.3174 51.521 41.0253 51.811C40.7328 52.1009 39.5924 51.5688 38.4781 50.6222C37.3633 49.676 36.6965 48.6738 36.9886 48.3838C37.2806 48.0942 38.421 48.6263 39.5358 49.5725Z" fill="#910000"/>
<path d="M39.5358 49.5725C40.6506 50.5191 41.3174 51.521 41.0253 51.811C40.7328 52.1009 39.5924 51.5688 38.4781 50.6222C37.3633 49.676 36.6965 48.6738 36.9886 48.3838C37.2806 48.0942 38.421 48.6263 39.5358 49.5725Z" stroke="#910000" stroke-width="2"/>
<path d="M48.105 31.0671H46.022V38.4255H48.105V31.0671Z" fill="#910000"/>
<path d="M48.105 31.0671H46.022V38.4255H48.105V31.0671Z" stroke="#910000" stroke-width="2"/>
<path d="M58.5788 41.4293L58.3555 39.5287L50.3857 40.3173L50.6091 42.2184L58.5788 41.4293Z" fill="#910000"/>
<path d="M58.5788 41.4293L58.3555 39.5287L50.3857 40.3173L50.6091 42.2184L58.5788 41.4293Z" stroke="#910000" stroke-width="2"/>
<path d="M49.7697 43.7039L48.105 44.8526L52.92 50.7351L54.5852 49.5868L49.7697 43.7039Z" fill="#910000"/>
<path d="M49.7697 43.7039L48.105 44.8526L52.92 50.7351L54.5852 49.5868L49.7697 43.7039Z" stroke="#910000" stroke-width="2"/>
<path d="M45.6434 44.9697L44.0824 43.7039L38.7759 49.2193L40.3368 50.4848L45.6434 44.9697Z" fill="#910000"/>
<path d="M45.6434 44.9697L44.0824 43.7039L38.7759 49.2193L40.3368 50.4848L45.6434 44.9697Z" stroke="#910000" stroke-width="2"/>
<path d="M36.4129 38.0882L36.062 39.9727L43.9634 41.2122L44.3143 39.3277L36.4129 38.0882Z" fill="#910000"/>
<path d="M36.4129 38.0882L36.062 39.9727L43.9634 41.2122L44.3143 39.3277L36.4129 38.0882Z" stroke="#910000" stroke-width="2"/>
<path d="M46.8484 47.7672C43.1267 47.6591 40.2051 44.7999 40.3233 41.3814C40.4415 37.9633 43.5544 35.2799 47.2762 35.3879C50.998 35.4964 53.9195 38.3556 53.8013 41.7737C53.6831 45.1922 50.5702 47.8757 46.8484 47.7672Z" fill="#910000"/>
<path d="M46.8484 47.7672C43.1267 47.6591 40.2051 44.7999 40.3233 41.3814C40.4415 37.9633 43.5544 35.2799 47.2762 35.3879C50.998 35.4964 53.9195 38.3556 53.8013 41.7737C53.6831 45.1922 50.5702 47.8757 46.8484 47.7672Z" stroke="#910000" stroke-width="2"/>
<g clip-path="url(#clip0)">
<path d="M46.0813 22.0161C34.8425 22.0161 25.6992 30.7528 25.6992 41.4919C25.6992 52.231 34.8425 60.9677 46.0813 60.9677C57.3202 60.9677 66.4634 52.231 66.4634 41.4919C66.4634 30.7528 57.3202 22.0161 46.0813 22.0161ZM46.0813 58.1314C36.4794 58.1314 28.6675 50.6669 28.6675 41.4919C28.6675 32.317 36.4794 24.8524 46.0813 24.8524C55.6832 24.8524 63.4951 32.317 63.4951 41.4919C63.4951 50.6669 55.6832 58.1314 46.0813 58.1314Z" fill="#1D1D1F"/>
<path d="M58.0427 28.1029L32.0205 52.968L34.119 54.9731L60.1412 30.1081L58.0427 28.1029Z" fill="#1D1D1F"/>
</g>
<defs>
<clipPath id="clip0">
<rect width="40.7642" height="38.9516" fill="white" transform="translate(25.6992 22.0161)"/>
</clipPath>
</defs>
</svg>
