<svg width="1217" height="814" viewBox="0 0 1217 814" fill="none" xmlns="http://www.w3.org/2000/svg">
<path d="M445.399 166.725L365.947 55.6653" stroke="#999999" stroke-width="1.08" stroke-miterlimit="10"/>
<path d="M536.195 173.214L631.049 260.773" stroke="#999999" stroke-width="1.08" stroke-miterlimit="10"/>
<path d="M547.547 46.7454L530.52 157.813" stroke="#999999" stroke-width="1.08" stroke-miterlimit="10"/>
<path d="M353.791 216.181L437.292 175.645" stroke="#999999" stroke-width="1.08" stroke-miterlimit="10"/>
<path d="M556.467 38.6384L691.855 103.495" stroke="#999999" stroke-width="1.08" stroke-miterlimit="10"/>
<path d="M810.217 59.7152L826.431 105.113" stroke="#999999" stroke-width="1.08" stroke-miterlimit="10"/>
<path d="M849.126 60.528L811.835 55.6653" stroke="#999999" stroke-width="1.08" stroke-miterlimit="10"/>
<path d="M896.15 27.287L856.428 58.0968" stroke="#999999" stroke-width="1.08" stroke-miterlimit="10"/>
<path d="M374.461 47.9573L539.033 39.0448" stroke="#999999" stroke-width="1.08" stroke-miterlimit="10"/>
<path d="M908.314 100.251L855.615 62.9596" stroke="#999999" stroke-width="1.08" stroke-miterlimit="10"/>
<path d="M373.881 47.4229L467.109 70.9311" stroke="#999999" stroke-width="1.08" stroke-miterlimit="10"/>
<path d="M542.91 332.389L564.799 326.714" stroke="#999999" stroke-width="1.08" stroke-miterlimit="10"/>
<path d="M630.868 269.558L571.288 321.843" stroke="#999999" stroke-width="1.08" stroke-miterlimit="10"/>
<path d="M471.564 70.5245L546.967 38.0963" stroke="#999999" stroke-width="1.08" stroke-miterlimit="10"/>
<path d="M639.381 269.151L677.485 228.616" stroke="#999999" stroke-width="1.08" stroke-miterlimit="10"/>
<path d="M699.375 102.953L684.787 225.372" stroke="#999999" stroke-width="1.08" stroke-miterlimit="10"/>
<path d="M802.336 55.1235L708.295 102.953" stroke="#999999" stroke-width="1.08" stroke-miterlimit="10"/>
<path d="M831.52 119.167L735.048 222.127" stroke="#999999" stroke-width="1.08" stroke-miterlimit="10"/>
<path d="M906.109 28.3708L979.878 94.0403" stroke="#999999" stroke-width="1.08" stroke-miterlimit="10"/>
<path d="M1056.9 29.184L910.972 21.0769" stroke="#999999" stroke-width="1.08" stroke-miterlimit="10"/>
<path d="M986.367 88.3647L1056.9 29.184" stroke="#999999" stroke-width="1.08" stroke-miterlimit="10"/>
<path d="M1065.82 119.98L987.985 97.2847" stroke="#999999" stroke-width="1.08" stroke-miterlimit="10"/>
<path d="M1009.07 192.13L1065.82 119.98" stroke="#999999" stroke-width="1.08" stroke-miterlimit="10"/>
<path d="M979.878 102.147L970.965 224.559" stroke="#999999" stroke-width="1.08" stroke-miterlimit="10"/>
<path d="M1009.07 192.13L1026.09 328.332" stroke="#999999" stroke-width="1.08" stroke-miterlimit="10"/>
<path d="M970.965 224.559L932.861 261.857" stroke="#999999" stroke-width="1.08" stroke-miterlimit="10"/>
<path d="M905.296 214.02L927.999 269.151" stroke="#999999" stroke-width="1.08" stroke-miterlimit="10"/>
<path d="M910.159 106.197L902.052 207.539" stroke="#999999" stroke-width="1.08" stroke-miterlimit="10"/>
<path d="M848.547 328.332L735.861 224.559" stroke="#999999" stroke-width="1.08" stroke-miterlimit="10"/>
<path d="M739.098 332.389L840.44 328.332" stroke="#999999" stroke-width="1.08" stroke-miterlimit="10"/>
<path d="M1026.09 561.005L953.938 493.717" stroke="#999999" stroke-width="1.08" stroke-miterlimit="10"/>
<path d="M818.55 542.36L945.831 493.717" stroke="#999999" stroke-width="1.08" stroke-miterlimit="10"/>
<path d="M910.159 589.376L953.938 493.717" stroke="#999999" stroke-width="1.08" stroke-miterlimit="10"/>
<path d="M820.981 541.547L910.159 585.326" stroke="#999999" stroke-width="1.08" stroke-miterlimit="10"/>
<path d="M962.046 715.852L949.076 676.122" stroke="#999999" stroke-width="1.08" stroke-miterlimit="10"/>
<path d="M1026.09 569.112L949.076 668.015" stroke="#999999" stroke-width="1.08" stroke-miterlimit="10"/>
<path d="M1082.84 643.694L962.045 715.852" stroke="#999999" stroke-width="1.08" stroke-miterlimit="10"/>
<path d="M949.076 676.122L1075.54 647.752" stroke="#999999" stroke-width="1.08" stroke-miterlimit="10"/>
<path d="M893.945 787.19L955.557 721.528" stroke="#999999" stroke-width="1.08" stroke-miterlimit="10"/>
<path d="M898.002 731.253L953.938 715.852" stroke="#999999" stroke-width="1.08" stroke-miterlimit="10"/>
<path d="M910.159 589.376L949.076 668.015" stroke="#999999" stroke-width="1.08" stroke-miterlimit="10"/>
<path d="M1035.01 445.075L1026.09 561.005" stroke="#999999" stroke-width="1.08" stroke-miterlimit="10"/>
<path d="M1026.09 328.332L1035.01 436.968" stroke="#999999" stroke-width="1.08" stroke-miterlimit="10"/>
<path d="M1026.5 328.738L990.018 378.194" stroke="#999999" stroke-width="1.08" stroke-miterlimit="10"/>
<path d="M936.505 391.163L990.017 378.194" stroke="#999999" stroke-width="1.08" stroke-miterlimit="10"/>
<path d="M1035.42 437.374L990.018 378.194" stroke="#999999" stroke-width="1.08" stroke-miterlimit="10"/>
<path d="M900.433 408.589L927.999 390.757" stroke="#999999" stroke-width="1.08" stroke-miterlimit="10"/>
<path d="M848.546 328.332L927.998 390.757" stroke="#999999" stroke-width="1.08" stroke-miterlimit="10"/>
<path d="M900.433 415.078L848.546 328.332" stroke="#999999" stroke-width="1.08" stroke-miterlimit="10"/>
<path d="M900.433 214.02L848.546 328.332" stroke="#999999" stroke-width="1.08" stroke-miterlimit="10"/>
<path d="M927.998 269.151L848.546 328.332" stroke="#999999" stroke-width="1.08" stroke-miterlimit="10"/>
<path d="M927.999 381.837V269.151" stroke="#999999" stroke-width="1.08" stroke-miterlimit="10"/>
<path d="M1026.9 328.332L927.999 269.151" stroke="#999999" stroke-width="1.08" stroke-miterlimit="10"/>
<path d="M684.787 229.429L735.861 224.559" stroke="#999999" stroke-width="1.08" stroke-miterlimit="10"/>
<path d="M631.274 269.151L739.097 332.389" stroke="#999999" stroke-width="1.08" stroke-miterlimit="10"/>
<path d="M730.991 223.753L739.098 332.389" stroke="#999999" stroke-width="1.08" stroke-miterlimit="10"/>
<path d="M681.543 232.666L739.098 328.332" stroke="#999999" stroke-width="1.08" stroke-miterlimit="10"/>
<path d="M970.965 224.559L1022.84 320.225" stroke="#999999" stroke-width="1.08" stroke-miterlimit="10"/>
<path d="M831.926 119.573L840.033 158.49" stroke="#999999" stroke-width="1.08" stroke-miterlimit="10"/>
<path d="M736.26 224.965L840.44 167.809" stroke="#999999" stroke-width="1.08" stroke-miterlimit="10"/>
<path d="M841.252 163.76L899.62 209.971" stroke="#999999" stroke-width="1.08" stroke-miterlimit="10"/>
<path d="M848.546 328.332L839.626 162.947" stroke="#999999" stroke-width="1.08" stroke-miterlimit="10"/>
<path d="M979.878 94.0403L910.159 102.147" stroke="#999999" stroke-width="1.08" stroke-miterlimit="10"/>
<path d="M831.52 111.06L910.159 106.197" stroke="#999999" stroke-width="1.08" stroke-miterlimit="10"/>
<path d="M547.366 46.61L611.417 132.551" stroke="#999999" stroke-width="1.08" stroke-miterlimit="10"/>
<path d="M530.347 163.353L615.467 137.414" stroke="#999999" stroke-width="1.08" stroke-miterlimit="10"/>
<path d="M611.011 138.625L681.543 228.616" stroke="#999999" stroke-width="1.08" stroke-miterlimit="10"/>
<path d="M692.081 108.629L615.873 137.007" stroke="#999999" stroke-width="1.08" stroke-miterlimit="10"/>
<path d="M900.433 408.59L839.626 407.784" stroke="#999999" stroke-width="1.08" stroke-miterlimit="10"/>
<path d="M818.55 538.303L839.627 407.784" stroke="#999999" stroke-width="1.08" stroke-miterlimit="10"/>
<path d="M970.965 715.852L1102.3 756.387" stroke="#999999" stroke-width="1.08" stroke-miterlimit="10"/>
<path d="M1082.84 652.614L1102.3 756.387" stroke="#999999" stroke-width="1.08" stroke-miterlimit="10"/>
<path d="M1017.18 804.217L1099.87 755.575" stroke="#999999" stroke-width="1.08" stroke-miterlimit="10"/>
<path d="M1026.09 561.005L1082.84 652.614" stroke="#999999" stroke-width="1.08" stroke-miterlimit="10"/>
<path d="M1026.9 328.332L1102.3 415.078" stroke="#999999" stroke-width="1.08" stroke-miterlimit="10"/>
<path d="M1035.82 436.968L1102.3 428.048" stroke="#999999" stroke-width="1.08" stroke-miterlimit="10"/>
<path d="M1009.07 192.13L1102.3 292.659" stroke="#999999" stroke-width="1.08" stroke-miterlimit="10"/>
<path d="M1092.57 149.977L1009.07 192.13" stroke="#999999" stroke-width="1.08" stroke-miterlimit="10"/>
<path d="M987.179 93.2274L1099.05 57.5548" stroke="#999999" stroke-width="1.08" stroke-miterlimit="10"/>
<path d="M893.132 731.253L949.076 676.122" stroke="#999999" stroke-width="1.08" stroke-miterlimit="10"/>
<path d="M344.291 215.646L411.579 284.552" stroke="#999999" stroke-width="1.08" stroke-miterlimit="10"/>
<path d="M444.813 183.218L411.579 284.553" stroke="#999999" stroke-width="1.08" stroke-miterlimit="10"/>
<path d="M529.94 166.191L453.732 175.111" stroke="#999999" stroke-width="1.08" stroke-miterlimit="10"/>
<path d="M567.231 321.843L529.94 174.298" stroke="#999999" stroke-width="1.08" stroke-miterlimit="10"/>
<path d="M631.681 273.608L688.024 430.479" stroke="#999999" stroke-width="1.08" stroke-miterlimit="10"/>
<path d="M1215.8 195.375L1216.61 196.188" stroke="black" stroke-width="1.08" stroke-miterlimit="10"/>
<path d="M848.546 328.332L839.626 407.784" stroke="#999999" stroke-width="1.08" stroke-miterlimit="10"/>
<path d="M691.269 432.911L839.627 407.784" stroke="#999999" stroke-width="1.08" stroke-miterlimit="10"/>
<path d="M743.968 332.389L839.627 407.784" stroke="#999999" stroke-width="1.08" stroke-miterlimit="10"/>
<path d="M530.347 163.353L464.677 328.739" stroke="#999999" stroke-width="1.08" stroke-miterlimit="10"/>
<path d="M445.219 183.624L464.677 328.738" stroke="#999999" stroke-width="1.08" stroke-miterlimit="10"/>
<path d="M411.579 284.552L464.678 336.846" stroke="#999999" stroke-width="1.08" stroke-miterlimit="10"/>
<path d="M534.397 332.788L472.785 328.738" stroke="#999999" stroke-width="1.08" stroke-miterlimit="10"/>
<path d="M691.269 432.911L818.55 538.302" stroke="#999999" stroke-width="1.08" stroke-miterlimit="10"/>
<path d="M690.862 434.13L739.504 567.087" stroke="#999999" stroke-width="1.08" stroke-miterlimit="10"/>
<path d="M818.956 538.709L739.504 567.087" stroke="#999999" stroke-width="1.08" stroke-miterlimit="10"/>
<path d="M927.999 390.757L953.939 493.717" stroke="#999999" stroke-width="1.08" stroke-miterlimit="10"/>
<path d="M900.433 408.59L953.938 501.824" stroke="#999999" stroke-width="1.08" stroke-miterlimit="10"/>
<path d="M1035.82 436.968L958.801 490.473" stroke="#999999" stroke-width="1.08" stroke-miterlimit="10"/>
<path d="M699.375 102.953L730.185 220.509" stroke="#999999" stroke-width="1.08" stroke-miterlimit="10"/>
<path d="M658.84 7.29407L663.703 46.2034" stroke="#999999" stroke-width="1.08" stroke-miterlimit="10"/>
<path d="M692.081 98.0902L663.703 46.2035" stroke="#999999" stroke-width="1.08" stroke-miterlimit="10"/>
<path d="M739.097 7.29407L699.375 102.953" stroke="#999999" stroke-width="1.08" stroke-miterlimit="10"/>
<path d="M806.393 51.0736L773.151 12.1567" stroke="#999999" stroke-width="1.08" stroke-miterlimit="10"/>
<path d="M852.596 59.9862L821.794 7.29407" stroke="#999999" stroke-width="1.08" stroke-miterlimit="10"/>
<path d="M365.368 47.0164L336.184 7.29407" stroke="#999999" stroke-width="1.08" stroke-miterlimit="10"/>
<path d="M344.291 206.726L354.829 181.592" stroke="#999999" stroke-width="1.08" stroke-miterlimit="10"/>
<path d="M436.705 175.111L356.448 179.974" stroke="#999999" stroke-width="1.08" stroke-miterlimit="10"/>
<path d="M467.515 70.5245L530.753 162.946" stroke="#999999" stroke-width="1.08" stroke-miterlimit="10"/>
<path d="M444.812 166.191L467.515 70.5245" stroke="#999999" stroke-width="1.08" stroke-miterlimit="10"/>
<path d="M529.94 174.704C534.642 174.704 538.454 170.893 538.454 166.191C538.454 161.489 534.642 157.677 529.94 157.677C525.238 157.677 521.427 161.489 521.427 166.191C521.427 170.893 525.238 174.704 529.94 174.704Z" fill="#910000" stroke="#910000" stroke-width="1.08" stroke-miterlimit="10"/>
<path d="M546.967 46.61C551.669 46.61 555.481 42.7983 555.481 38.0964C555.481 33.3945 551.669 29.5829 546.967 29.5829C542.265 29.5829 538.454 33.3945 538.454 38.0964C538.454 42.7983 542.265 46.61 546.967 46.61Z" fill="#910000" stroke="#910000" stroke-width="1.08" stroke-miterlimit="10"/>
<path d="M444.812 183.624C449.514 183.624 453.326 179.813 453.326 175.111C453.326 170.409 449.514 166.597 444.812 166.597C440.11 166.597 436.299 170.409 436.299 175.111C436.299 179.813 440.11 183.624 444.812 183.624Z" fill="#910000" stroke="#910000" stroke-width="1.08" stroke-miterlimit="10"/>
<path d="M464.27 336.845C468.972 336.845 472.784 333.034 472.784 328.332C472.784 323.63 468.972 319.818 464.27 319.818C459.568 319.818 455.757 323.63 455.757 328.332C455.757 333.034 459.568 336.845 464.27 336.845Z" fill="#910000" stroke="#910000" stroke-width="1.08" stroke-miterlimit="10"/>
<path d="M344.291 224.16C348.993 224.16 352.804 220.348 352.804 215.646C352.804 210.944 348.993 207.133 344.291 207.133C339.589 207.133 335.777 210.944 335.777 215.646C335.777 220.348 339.589 224.16 344.291 224.16Z" fill="#910000" stroke="#910000" stroke-width="1.08" stroke-miterlimit="10"/>
<path d="M466.98 74.7775C469.288 74.7775 471.158 72.907 471.158 70.5997C471.158 68.2924 469.288 66.422 466.98 66.422C464.673 66.422 462.803 68.2924 462.803 70.5997C462.803 72.907 464.673 74.7775 466.98 74.7775Z" fill="#910000" stroke="#910000" stroke-width="1.08" stroke-miterlimit="10"/>
<path d="M411.857 288.805C414.165 288.805 416.035 286.935 416.035 284.628C416.035 282.32 414.165 280.45 411.857 280.45C409.55 280.45 407.68 282.32 407.68 284.628C407.68 286.935 409.55 288.805 411.857 288.805Z" fill="#910000" stroke="#910000" stroke-width="1.08" stroke-miterlimit="10"/>
<path d="M630.469 277.665C635.171 277.665 638.982 273.853 638.982 269.151C638.982 264.449 635.171 260.638 630.469 260.638C625.767 260.638 621.955 264.449 621.955 269.151C621.955 273.853 625.767 277.665 630.469 277.665Z" fill="#910000" stroke="#910000" stroke-width="1.08" stroke-miterlimit="10"/>
<path d="M699.375 111.466C704.077 111.466 707.889 107.655 707.889 102.953C707.889 98.251 704.077 94.4393 699.375 94.4393C694.673 94.4393 690.862 98.251 690.862 102.953C690.862 107.655 694.673 111.466 699.375 111.466Z" fill="#910000" stroke="#910000" stroke-width="1.08" stroke-miterlimit="10"/>
<path d="M681.821 232.869C684.129 232.869 685.999 230.998 685.999 228.691C685.999 226.384 684.129 224.513 681.821 224.513C679.514 224.513 677.644 226.384 677.644 228.691C677.644 230.998 679.514 232.869 681.821 232.869Z" fill="#910000" stroke="#910000" stroke-width="1.08" stroke-miterlimit="10"/>
<path d="M611.29 141.26C613.597 141.26 615.467 139.39 615.467 137.082C615.467 134.775 613.597 132.905 611.29 132.905C608.982 132.905 607.112 134.775 607.112 137.082C607.112 139.39 608.982 141.26 611.29 141.26Z" fill="#910000" stroke="#910000" stroke-width="1.08" stroke-miterlimit="10"/>
<path d="M731.276 228.812C733.584 228.812 735.454 226.941 735.454 224.634C735.454 222.327 733.584 220.456 731.276 220.456C728.969 220.456 727.099 222.327 727.099 224.634C727.099 226.941 728.969 228.812 731.276 228.812Z" fill="#910000" stroke="#910000" stroke-width="1.08" stroke-miterlimit="10"/>
<path d="M739.504 336.846L690.862 433.317" stroke="#999999" stroke-width="1.08" stroke-miterlimit="10"/>
<path d="M848.547 336.845C853.249 336.845 857.06 333.034 857.06 328.332C857.06 323.63 853.249 319.818 848.547 319.818C843.845 319.818 840.033 323.63 840.033 328.332C840.033 333.034 843.845 336.845 848.547 336.845Z" fill="#910000" stroke="#910000" stroke-width="1.08" stroke-miterlimit="10"/>
<path d="M979.878 102.554C984.58 102.554 988.391 98.7422 988.391 94.0403C988.391 89.3384 984.58 85.5268 979.878 85.5268C975.176 85.5268 971.364 89.3384 971.364 94.0403C971.364 98.7422 975.176 102.554 979.878 102.554Z" fill="#910000" stroke="#910000" stroke-width="1.08" stroke-miterlimit="10"/>
<path d="M843.556 174.501C847.88 174.501 851.385 170.996 851.385 166.673C851.385 162.349 847.88 158.844 843.556 158.844C839.233 158.844 835.728 162.349 835.728 166.673C835.728 170.996 839.233 174.501 843.556 174.501Z" fill="#910000" stroke="#910000" stroke-width="1.08" stroke-miterlimit="10"/>
<path d="M910.437 106.393C912.744 106.393 914.615 104.522 914.615 102.215C914.615 99.9079 912.744 98.0374 910.437 98.0374C908.13 98.0374 906.259 99.9079 906.259 102.215C906.259 104.522 908.13 106.393 910.437 106.393Z" fill="#910000" stroke="#910000" stroke-width="1.08" stroke-miterlimit="10"/>
<path d="M831.519 119.573C836.221 119.573 840.033 115.762 840.033 111.06C840.033 106.358 836.221 102.546 831.519 102.546C826.818 102.546 823.006 106.358 823.006 111.06C823.006 115.762 826.818 119.573 831.519 119.573Z" fill="#910000" stroke="#910000" stroke-width="1.08" stroke-miterlimit="10"/>
<path d="M902.052 29.5903C906.753 29.5903 910.565 25.7787 910.565 21.0768C910.565 16.3749 906.753 12.5632 902.052 12.5632C897.35 12.5632 893.538 16.3749 893.538 21.0768C893.538 25.7787 897.35 29.5903 902.052 29.5903Z" fill="#910000" stroke="#910000" stroke-width="1.08" stroke-miterlimit="10"/>
<path d="M1065.82 128.493C1070.52 128.493 1074.33 124.682 1074.33 119.98C1074.33 115.278 1070.52 111.466 1065.82 111.466C1061.12 111.466 1057.31 115.278 1057.31 119.98C1057.31 124.682 1061.12 128.493 1065.82 128.493Z" fill="#910000" stroke="#910000" stroke-width="1.08" stroke-miterlimit="10"/>
<path d="M1026.09 336.845C1030.79 336.845 1034.6 333.034 1034.6 328.332C1034.6 323.63 1030.79 319.818 1026.09 319.818C1021.39 319.818 1017.58 323.63 1017.58 328.332C1017.58 333.034 1021.39 336.845 1026.09 336.845Z" fill="#910000" stroke="#910000" stroke-width="1.08" stroke-miterlimit="10"/>
<path d="M927.999 277.665C932.701 277.665 936.512 273.853 936.512 269.151C936.512 264.449 932.701 260.638 927.999 260.638C923.297 260.638 919.485 264.449 919.485 269.151C919.485 273.853 923.297 277.665 927.999 277.665Z" fill="#910000" stroke="#910000" stroke-width="1.08" stroke-miterlimit="10"/>
<path d="M900.027 415.485C903.61 415.485 906.515 412.58 906.515 408.996C906.515 405.413 903.61 402.507 900.027 402.507C896.443 402.507 893.538 405.413 893.538 408.996C893.538 412.58 896.443 415.485 900.027 415.485Z" fill="#910000" stroke="#910000" stroke-width="1.08" stroke-miterlimit="10"/>
<path d="M927.999 399.271C932.701 399.271 936.512 395.459 936.512 390.757C936.512 386.055 932.701 382.244 927.999 382.244C923.297 382.244 919.485 386.055 919.485 390.757C919.485 395.459 923.297 399.271 927.999 399.271Z" fill="#910000" stroke="#910000" stroke-width="1.08" stroke-miterlimit="10"/>
<path d="M819.641 544.181C822.397 544.181 824.632 541.947 824.632 539.191C824.632 536.434 822.397 534.2 819.641 534.2C816.885 534.2 814.65 536.434 814.65 539.191C814.65 541.947 816.885 544.181 819.641 544.181Z" fill="#910000" stroke="#910000" stroke-width="1.08" stroke-miterlimit="10"/>
<path d="M953.938 502.231C958.64 502.231 962.451 498.419 962.451 493.717C962.451 489.016 958.64 485.204 953.938 485.204C949.236 485.204 945.424 489.016 945.424 493.717C945.424 498.419 949.236 502.231 953.938 502.231Z" fill="#910000" stroke="#910000" stroke-width="1.08" stroke-miterlimit="10"/>
<path d="M1026.09 569.519C1030.79 569.519 1034.6 565.707 1034.6 561.005C1034.6 556.303 1030.79 552.492 1026.09 552.492C1021.39 552.492 1017.58 556.303 1017.58 561.005C1017.58 565.707 1021.39 569.519 1026.09 569.519Z" fill="#910000" stroke="#910000" stroke-width="1.08" stroke-miterlimit="10"/>
<path d="M1080.41 657.883C1085.11 657.883 1088.92 654.072 1088.92 649.37C1088.92 644.668 1085.11 640.856 1080.41 640.856C1075.71 640.856 1071.89 644.668 1071.89 649.37C1071.89 654.072 1075.71 657.883 1080.41 657.883Z" fill="#910000" stroke="#910000" stroke-width="1.08" stroke-miterlimit="10"/>
<path d="M1017.18 812.731C1021.88 812.731 1025.69 808.919 1025.69 804.217C1025.69 799.515 1021.88 795.703 1017.18 795.703C1012.47 795.703 1008.66 799.515 1008.66 804.217C1008.66 808.919 1012.47 812.731 1017.18 812.731Z" fill="#910000" stroke="#910000" stroke-width="1.08" stroke-miterlimit="10"/>
<path d="M910.437 589.579C912.744 589.579 914.615 587.709 914.615 585.402C914.615 583.094 912.744 581.224 910.437 581.224C908.13 581.224 906.259 583.094 906.259 585.402C906.259 587.709 908.13 589.579 910.437 589.579Z" fill="#910000" stroke="#910000" stroke-width="1.08" stroke-miterlimit="10"/>
<path d="M893.418 735.506C895.725 735.506 897.595 733.636 897.595 731.329C897.595 729.021 895.725 727.151 893.418 727.151C891.11 727.151 889.24 729.021 889.24 731.329C889.24 733.636 891.11 735.506 893.418 735.506Z" fill="#910000" stroke="#910000" stroke-width="1.08" stroke-miterlimit="10"/>
<path d="M1009.07 804.217L962.045 723.959" stroke="#999999" stroke-width="1.08" stroke-miterlimit="10"/>
<path d="M962.045 724.366C966.747 724.366 970.559 720.554 970.559 715.852C970.559 711.15 966.747 707.339 962.045 707.339C957.343 707.339 953.532 711.15 953.532 715.852C953.532 720.554 957.343 724.366 962.045 724.366Z" fill="#910000" stroke="#910000" stroke-width="1.08" stroke-miterlimit="10"/>
<path d="M889.082 799.761C893.784 799.761 897.595 795.949 897.595 791.247C897.595 786.545 893.784 782.734 889.082 782.734C884.38 782.734 880.568 786.545 880.568 791.247C880.568 795.949 884.38 799.761 889.082 799.761Z" fill="#910000" stroke="#910000" stroke-width="1.08" stroke-miterlimit="10"/>
<path d="M950.167 676.905C954.304 676.905 957.657 673.552 957.657 669.415C957.657 665.279 954.304 661.926 950.167 661.926C946.031 661.926 942.677 665.279 942.677 669.415C942.677 673.552 946.031 676.905 950.167 676.905Z" fill="#910000" stroke="#910000" stroke-width="1.08" stroke-miterlimit="10"/>
<path d="M739.098 575.194C743.799 575.194 747.611 571.383 747.611 566.681C747.611 561.979 743.799 558.167 739.098 558.167C734.396 558.167 730.584 561.979 730.584 566.681C730.584 571.383 734.396 575.194 739.098 575.194Z" fill="#910000" stroke="#910000" stroke-width="1.08" stroke-miterlimit="10"/>
<path d="M1035.01 445.482C1039.71 445.482 1043.52 441.67 1043.52 436.968C1043.52 432.266 1039.71 428.455 1035.01 428.455C1030.31 428.455 1026.5 432.266 1026.5 436.968C1026.5 441.67 1030.31 445.482 1035.01 445.482Z" fill="#910000" stroke="#910000" stroke-width="1.08" stroke-miterlimit="10"/>
<path d="M1056.9 37.6975C1061.6 37.6975 1065.41 33.8858 1065.41 29.1839C1065.41 24.482 1061.6 20.6704 1056.9 20.6704C1052.2 20.6704 1048.39 24.482 1048.39 29.1839C1048.39 33.8858 1052.2 37.6975 1056.9 37.6975Z" fill="#910000" stroke="#910000" stroke-width="1.08" stroke-miterlimit="10"/>
<path d="M806.671 59.3765C808.978 59.3765 810.849 57.506 810.849 55.1987C810.849 52.8914 808.978 51.021 806.671 51.021C804.364 51.021 802.493 52.8914 802.493 55.1987C802.493 57.506 804.364 59.3765 806.671 59.3765Z" fill="#910000" stroke="#910000" stroke-width="1.08" stroke-miterlimit="10"/>
<path d="M852.295 64.036C854.365 64.036 856.044 62.3577 856.044 60.2874C856.044 58.217 854.365 56.5387 852.295 56.5387C850.225 56.5387 848.546 58.217 848.546 60.2874C848.546 62.3577 850.225 64.036 852.295 64.036Z" fill="#910000" stroke="#910000" stroke-width="1.08" stroke-miterlimit="10"/>
<path d="M361.31 46.2035L305.374 85.9333" stroke="#999999" stroke-width="1.08" stroke-miterlimit="10"/>
<path d="M204.438 71.7441L289.566 86.3399" stroke="#999999" stroke-width="1.08" stroke-miterlimit="10"/>
<path d="M353.203 179.161L302.943 96.4717" stroke="#999999" stroke-width="1.08" stroke-miterlimit="10"/>
<path d="M365.368 55.1235L356.448 177.542" stroke="#999999" stroke-width="1.08" stroke-miterlimit="10"/>
<path d="M195.526 67.6943L233.622 3.64331" stroke="#999999" stroke-width="1.08" stroke-miterlimit="10"/>
<path d="M365.368 55.53C370.07 55.53 373.882 51.7184 373.882 47.0165C373.882 42.3146 370.07 38.5029 365.368 38.5029C360.666 38.5029 356.854 42.3146 356.854 47.0165C356.854 51.7184 360.666 55.53 365.368 55.53Z" fill="#910000" stroke="#910000" stroke-width="1.08" stroke-miterlimit="10"/>
<path d="M197.957 84.3073C203.553 84.3073 208.089 79.7711 208.089 74.1754C208.089 68.5797 203.553 64.0435 197.957 64.0435C192.361 64.0435 187.825 68.5797 187.825 74.1754C187.825 79.7711 192.361 84.3073 197.957 84.3073Z" fill="#910000" stroke="#910000" stroke-width="1.08" stroke-miterlimit="10"/>
<path d="M192.688 158.084L199.982 84.3073" stroke="#999999" stroke-width="1.08" stroke-miterlimit="10"/>
<path d="M336.184 213.215L189.037 162.54" stroke="#999999" stroke-width="1.08" stroke-miterlimit="10"/>
<path d="M290.372 94.4468L189.037 162.54" stroke="#999999" stroke-width="1.08" stroke-miterlimit="10"/>
<path d="M352.398 181.592L189.037 162.54" stroke="#999999" stroke-width="1.08" stroke-miterlimit="10"/>
<path d="M187.419 71.7441L62.9751 102.147" stroke="#999999" stroke-width="1.08" stroke-miterlimit="10"/>
<path d="M538.047 336.439L690.455 433.724" stroke="#999999" stroke-width="1.08" stroke-miterlimit="10"/>
<path d="M568.044 328.332L690.455 433.724" stroke="#999999" stroke-width="1.08" stroke-miterlimit="10"/>
<path d="M47.5665 98.0902L0.550049 8.10718" stroke="#999999" stroke-width="1.08" stroke-miterlimit="10"/>
<path d="M192.688 167.004L61.3494 111.873" stroke="#999999" stroke-width="1.08" stroke-miterlimit="10"/>
<path d="M192.282 175.111C196.983 175.111 200.795 171.299 200.795 166.597C200.795 161.896 196.983 158.084 192.282 158.084C187.58 158.084 183.768 161.896 183.768 166.597C183.768 171.299 187.58 175.111 192.282 175.111Z" fill="#910000" stroke="#910000" stroke-width="1.08" stroke-miterlimit="10"/>
<path d="M297.674 98.0902C302.376 98.0902 306.187 94.2785 306.187 89.5766C306.187 84.8747 302.376 81.0631 297.674 81.0631C292.972 81.0631 289.16 84.8747 289.16 89.5766C289.16 94.2785 292.972 98.0902 297.674 98.0902Z" fill="#910000" stroke="#910000" stroke-width="1.08" stroke-miterlimit="10"/>
<path d="M356.726 185.845C359.033 185.845 360.904 183.975 360.904 181.667C360.904 179.36 359.033 177.49 356.726 177.49C354.419 177.49 352.548 179.36 352.548 181.667C352.548 183.975 354.419 185.845 356.726 185.845Z" fill="#910000" stroke="#910000" stroke-width="1.08" stroke-miterlimit="10"/>
<path d="M539.546 339.074C542.526 339.074 544.943 336.657 544.943 333.676C544.943 330.696 542.526 328.279 539.546 328.279C536.565 328.279 534.148 330.696 534.148 333.676C534.148 336.657 536.565 339.074 539.546 339.074Z" fill="#910000" stroke="#910000" stroke-width="1.08" stroke-miterlimit="10"/>
<path d="M690.741 437.977C693.048 437.977 694.919 436.106 694.919 433.799C694.919 431.492 693.048 429.621 690.741 429.621C688.434 429.621 686.563 431.492 686.563 433.799C686.563 436.106 688.434 437.977 690.741 437.977Z" fill="#910000" stroke="#910000" stroke-width="1.08" stroke-miterlimit="10"/>
<path d="M52.8358 116.736C58.4315 116.736 62.9677 112.199 62.9677 106.604C62.9677 101.008 58.4315 96.4717 52.8358 96.4717C47.2401 96.4717 42.7039 101.008 42.7039 106.604C42.7039 112.199 47.2401 116.736 52.8358 116.736Z" fill="#910000" stroke="#910000" stroke-width="1.08" stroke-miterlimit="10"/>
<path d="M568.322 328.528C570.63 328.528 572.5 326.657 572.5 324.35C572.5 322.043 570.63 320.172 568.322 320.172C566.015 320.172 564.145 322.043 564.145 324.35C564.145 326.657 566.015 328.528 568.322 328.528Z" fill="#910000" stroke="#910000" stroke-width="1.08" stroke-miterlimit="10"/>
<path d="M975.422 220.102L1004.61 195.781" stroke="#999999" stroke-width="1.08" stroke-miterlimit="10"/>
<path d="M1118.1 106.604L1118.92 102.554" stroke="#C1272D" stroke-width="1.08" stroke-miterlimit="10"/>
<path d="M902.458 207.133L968.127 224.16" stroke="#999999" stroke-width="1.08" stroke-miterlimit="10"/>
<path d="M970.965 233.072C975.667 233.072 979.479 229.261 979.479 224.559C979.479 219.857 975.667 216.045 970.965 216.045C966.263 216.045 962.452 219.857 962.452 224.559C962.452 229.261 966.263 233.072 970.965 233.072Z" fill="#910000" stroke="#910000" stroke-width="1.08" stroke-miterlimit="10"/>
<path d="M1008.26 200.644C1012.51 200.644 1015.96 197.196 1015.96 192.943C1015.96 188.69 1012.51 185.243 1008.26 185.243C1004 185.243 1000.56 188.69 1000.56 192.943C1000.56 197.196 1004 200.644 1008.26 200.644Z" fill="#910000" stroke="#910000" stroke-width="1.08" stroke-miterlimit="10"/>
<path d="M903.324 215.842C906.176 215.842 908.488 213.53 908.488 210.678C908.488 207.826 906.176 205.514 903.324 205.514C900.472 205.514 898.16 207.826 898.16 210.678C898.16 213.53 900.472 215.842 903.324 215.842Z" fill="#910000" stroke="#910000" stroke-width="1.08" stroke-miterlimit="10"/>
<path d="M739.18 341.505C743.167 341.505 746.399 338.273 746.399 334.286C746.399 330.299 743.167 327.067 739.18 327.067C735.193 327.067 731.961 330.299 731.961 334.286C731.961 338.273 735.193 341.505 739.18 341.505Z" fill="#910000" stroke="#910000" stroke-width="1.08" stroke-miterlimit="10"/>
<path d="M192.688 70.5246L80.8079 0" stroke="#999999" stroke-width="1.08" stroke-miterlimit="10"/>
</svg>
