<svg width="67" height="80" viewBox="0 0 67 80" fill="none" xmlns="http://www.w3.org/2000/svg">
<path d="M13.3875 72.4645C16.8722 73.0278 20.4381 72.1872 23.3043 70.1268C26.1706 68.0665 28.1035 64.9543 28.68 61.4717C29.0095 59.7415 28.996 57.9634 28.6405 56.2383L44.7269 48.2802C44.9939 48.1479 45.2124 47.935 45.3516 47.6716C45.4909 47.4082 45.5437 47.1077 45.5026 46.8126C45.4615 46.5176 45.3287 46.2429 45.1228 46.0275C44.917 45.8122 44.6486 45.6671 44.3557 45.6127C44.0535 45.5693 43.7453 45.6122 43.4665 45.7365L27.7947 53.4828C26.9855 51.5107 25.6977 49.7712 24.0476 48.4215C22.3976 47.0719 20.4373 46.1546 18.3438 45.7525C14.8641 45.1902 11.3032 46.0277 8.43886 48.0822C5.57456 50.1366 3.63958 53.241 3.05655 56.7174C2.3453 60.1749 3.03315 63.7734 4.96946 66.7248C6.90576 69.6763 9.93273 71.7402 13.3875 72.4645V72.4645ZM17.8259 48.5437C19.501 48.8601 21.0685 49.5961 22.3817 50.6831C23.6949 51.77 24.7109 53.1723 25.3347 54.7588C25.6686 55.6238 25.889 56.5285 25.9903 57.4501C26.1693 58.616 26.1539 59.8034 25.9446 60.9642C25.7263 62.3267 25.2417 63.6329 24.5185 64.8081C23.7952 65.9832 22.8475 67.0044 21.7295 67.8132C20.6115 68.622 19.345 69.2025 18.0025 69.5217C16.66 69.8409 15.2678 69.8924 13.9054 69.6733C11.1908 69.0865 8.81913 67.4485 7.3091 65.1176C5.79908 62.7867 5.27366 59.9526 5.84777 57.2353C6.29328 54.4991 7.80244 52.0499 10.0462 50.4218C12.29 48.7936 15.0865 48.1186 17.8259 48.5437Z" fill="#910000"/>
<path d="M33.6806 26.7412C35.4646 27.0503 37.2985 26.8826 38.9968 26.2551C39.0159 26.4284 39.086 26.5921 39.1983 26.7255L44.5012 34.87C42.9606 36.3418 41.9185 38.2583 41.5207 40.3515C41.0042 42.8851 41.5136 45.5201 42.9372 47.6787C44.3607 49.8373 46.5822 51.3432 49.1145 51.8661C51.7055 52.3469 54.3813 51.7787 56.5533 50.2865C58.7254 48.7943 60.2157 46.5005 60.6964 43.9095C61.1772 41.3185 60.609 38.6427 59.1168 36.4706C57.6247 34.2986 55.3308 32.8083 52.7398 32.3275C50.716 31.9512 48.6246 32.2647 46.8 33.2177L41.5374 25.1673L41.3978 25.1414C42.644 24.2972 43.7099 23.2136 44.5335 21.9538C45.3571 20.6939 45.922 19.2829 46.1954 17.8027C46.7132 15.0119 46.1012 12.1296 44.4939 9.79C42.8867 7.45041 40.4158 5.84513 37.625 5.3273C34.8341 4.80947 31.9519 5.4215 29.6123 7.02877C27.2727 8.63604 25.6674 11.1069 25.1496 13.8977C24.5929 16.7306 25.1767 19.6688 26.7741 22.0737C28.3715 24.4786 30.8534 26.1559 33.6806 26.7412V26.7412ZM57.5144 43.3191C57.2262 45.1245 56.2358 46.7427 54.7593 47.8209C53.2828 48.8991 51.4399 49.3499 49.6324 49.0749C47.7817 48.7315 46.1432 47.667 45.0774 46.1155C44.0116 44.5641 43.6057 42.6528 43.9491 40.8021C44.2925 38.9514 45.357 37.3129 46.9084 36.2471C48.4599 35.1812 50.3712 34.7754 52.2219 35.1188C54.0077 35.5105 55.5663 36.5924 56.5577 38.1285C57.5491 39.6646 57.893 41.5304 57.5144 43.3191V43.3191ZM37.2334 7.59337C39.4024 7.99582 41.3227 9.24343 42.5719 11.0617C43.821 12.88 44.2967 15.1201 43.8942 17.2891C43.4918 19.4581 42.2442 21.3784 40.4259 22.6276C38.6076 23.8767 36.3675 24.3524 34.1985 23.95C32.0295 23.5475 30.1092 22.2999 28.86 20.4816C27.6109 18.6633 27.1352 16.4232 27.5376 14.2542C27.9401 12.0852 29.1877 10.1649 31.006 8.91574C32.8243 7.66659 35.0644 7.19092 37.2334 7.59337V7.59337Z" fill="#910000"/>
</svg>
