<svg width="71" height="71" viewBox="0 0 71 71" fill="none" xmlns="http://www.w3.org/2000/svg">
<path d="M70.038 16.5803L65.0812 7.99315V3.55106C65.0812 3.54751 65.08 3.54514 65.08 3.54278C65.08 3.46231 65.0492 3.38422 65.0315 3.30375C65.0149 3.22921 65.0125 3.14992 64.983 3.08248C64.9818 3.07893 64.9818 3.07656 64.9806 3.07301C64.9569 3.02095 64.9143 2.98545 64.8847 2.93812C64.8339 2.85647 64.7889 2.77245 64.7214 2.70619C64.6646 2.65057 64.5937 2.61863 64.5286 2.57603C64.4659 2.5358 64.4114 2.4861 64.3416 2.4577C64.2529 2.4222 64.157 2.4151 64.0612 2.4009C64.0044 2.39262 63.9559 2.36777 63.8979 2.36777C63.8943 2.36777 63.892 2.37013 63.8884 2.37013C63.8198 2.37013 63.7523 2.39853 63.6837 2.41155C63.5973 2.42812 63.5074 2.43285 63.4293 2.46716C63.4257 2.46835 63.4234 2.46835 63.4198 2.46953L41.7561 12.0341C41.7218 11.969 41.6815 11.9087 41.6448 11.8448C41.6141 11.7915 41.5821 11.7406 41.5502 11.6886C41.3609 11.3797 41.1538 11.0851 40.9207 10.8094C40.8935 10.7774 40.8639 10.749 40.8367 10.7171C40.5917 10.4378 40.329 10.174 40.0438 9.93493C40.0356 9.92902 40.0296 9.92073 40.0214 9.91482C39.735 9.67697 39.425 9.46871 39.1043 9.27702C39.0594 9.25099 39.0168 9.22141 38.9718 9.19656C38.6606 9.02143 38.3328 8.87233 37.9956 8.74454C37.934 8.72087 37.8737 8.69839 37.811 8.67709C37.4714 8.55994 37.1223 8.46646 36.7614 8.40257C36.7342 8.39783 36.7093 8.38718 36.6821 8.38245V4.73436C36.6821 4.07999 36.1532 3.55106 35.4988 3.55106C34.8445 3.55106 34.3155 4.07999 34.3155 4.73436V8.39073C30.9633 8.95635 28.3991 11.872 28.3991 15.384C28.3991 16.0537 28.4985 16.6986 28.6724 17.3128L6.66076 26.1177C6.65721 26.1188 6.65484 26.1224 6.6513 26.1236C6.53652 26.1709 6.4383 26.2455 6.34482 26.3236C6.31997 26.3437 6.28684 26.3555 6.26436 26.378C6.19928 26.4431 6.15786 26.5283 6.10816 26.6075C6.0774 26.6572 6.03362 26.6987 6.00995 26.7531C5.99457 26.7874 5.99693 26.8288 5.9851 26.8655C5.9496 26.9767 5.91765 27.0891 5.91647 27.2075C5.91884 27.2098 5.91647 27.2134 5.91647 27.2169V31.9016L0.959651 40.4888C0.382204 41.4898 0.0792807 42.5785 0.0224826 43.6766C0.0177494 43.7132 0 43.7452 0 43.7831C0 43.802 0.00946635 43.8186 0.0106496 43.8375C-0.0260325 45.1202 0.283991 46.41 0.958468 47.5802C2.24116 49.8001 4.53675 51.1254 7.09976 51.1254C9.66278 51.1254 11.9584 49.8001 13.2399 47.5802C13.9155 46.41 14.2244 45.1202 14.1877 43.8375C14.1901 43.8186 14.1995 43.802 14.1995 43.7831C14.1995 43.7452 14.1818 43.7132 14.1782 43.6766C14.1214 42.5796 13.8185 41.4898 13.2411 40.4888L8.28306 31.9016V28.018L29.6912 19.4545C30.019 19.9196 30.4012 20.3432 30.8284 20.7171C30.8319 20.7207 30.8355 20.723 30.839 20.7266C31.2484 21.0839 31.6957 21.3975 32.1785 21.6543C32.2388 21.6862 32.3027 21.7134 32.3643 21.7442C32.5323 21.827 32.7015 21.9051 32.8766 21.9749C32.9678 22.0116 33.0589 22.0436 33.1512 22.0755C33.3062 22.13 33.4636 22.1797 33.6245 22.2234C33.7215 22.2495 33.8174 22.2755 33.9156 22.298C34.0481 22.3288 34.1818 22.3524 34.3167 22.3761V50.8816H27.2169V56.7981C21.3443 56.7981 16.5673 61.5751 16.5673 67.4478V68.631H54.4327V67.4478C54.4327 61.5751 49.6557 56.7981 43.7831 56.7981V50.8816H36.6833V22.3856C36.7105 22.3808 36.7354 22.3702 36.7626 22.3643C37.1223 22.2992 37.4726 22.2069 37.8122 22.0897C37.8749 22.0684 37.9352 22.0459 37.9968 22.0223C38.3352 21.8945 38.6629 21.7454 38.9742 21.5703C39.0191 21.5454 39.0617 21.517 39.1055 21.491C39.4274 21.3005 39.7374 21.091 40.0237 20.8532C40.032 20.8473 40.0379 20.839 40.0462 20.8331C40.3314 20.594 40.5941 20.3314 40.839 20.0509C40.8662 20.019 40.8958 19.9906 40.923 19.9586C41.155 19.6829 41.3632 19.3883 41.5526 19.0794C41.5845 19.0274 41.6164 18.9765 41.6472 18.9232C41.8259 18.6156 41.9797 18.2925 42.1111 17.9577C42.1335 17.8997 42.1548 17.8405 42.1761 17.7814C42.3004 17.437 42.4022 17.0832 42.472 16.7176C42.4814 16.6714 42.485 16.6229 42.4933 16.5756C42.556 16.1875 42.5986 15.7911 42.5986 15.384C42.5986 15.0113 42.5607 14.648 42.5051 14.2906L62.7146 5.36742V7.99315L57.7578 16.5791C56.4763 18.8002 56.4763 21.4507 57.7578 23.6706C59.0393 25.8905 61.3349 27.2158 63.8979 27.2158C66.4609 27.2158 68.7565 25.8905 70.038 23.6706C71.3195 21.4507 71.3195 18.8014 70.038 16.5803ZM7.09976 48.7588C5.39227 48.7588 3.86227 47.8761 3.00912 46.397C2.74643 45.9426 2.57366 45.4586 2.47308 44.9663H11.7264C11.6259 45.4586 11.4531 45.9426 11.1904 46.397C10.3373 47.8761 8.80726 48.7588 7.09976 48.7588ZM11.5939 42.5998H2.60561C2.70856 42.2826 2.83636 41.9702 3.00912 41.6721L7.09976 34.5841L11.1904 41.6709C11.3632 41.9702 11.491 42.2826 11.5939 42.5998ZM51.9809 66.2656H19.0167C19.5918 62.2566 23.0494 59.1659 27.2158 59.1659H43.7819C47.9483 59.1659 51.4047 62.2566 51.9809 66.2656ZM41.4153 56.7993H29.5823V53.2494H41.4153V56.7993ZM35.4988 10.6508C37.4442 10.6508 39.115 11.8306 39.8427 13.512L39.9871 13.9688C40.064 14.2137 40.1184 14.4374 40.1586 14.6551C40.1953 14.8941 40.232 15.1343 40.232 15.384C40.232 17.9943 38.1092 20.1172 35.4988 20.1172C35.2089 20.1172 34.9285 20.0817 34.6528 20.032C34.5747 20.0178 34.4966 20 34.4197 19.9823C34.2067 19.9326 33.9984 19.8663 33.7972 19.7882C33.7357 19.7646 33.673 19.7468 33.6126 19.7208C33.3819 19.6202 33.163 19.4971 32.9524 19.3622C32.8506 19.296 32.7548 19.2214 32.6589 19.1481C32.5583 19.0723 32.4625 18.9919 32.3678 18.9079C32.2507 18.8014 32.1335 18.6949 32.0259 18.5765C32.0057 18.554 31.988 18.5292 31.9691 18.5067C31.6957 18.1931 31.4567 17.8429 31.2662 17.4548L31.1112 17.1388C30.8934 16.5945 30.7656 16.004 30.7656 15.384C30.7656 12.7737 32.8885 10.6508 35.4988 10.6508ZM63.8979 10.6769L67.9885 17.7624C68.2051 18.1375 68.3648 18.5304 68.4725 18.9327H59.3233C59.4298 18.5304 59.5907 18.1375 59.8072 17.7624L63.8979 10.6769ZM63.8979 24.8504C62.1904 24.8504 60.6604 23.9676 59.8072 22.4885C59.5871 22.1087 59.4262 21.7087 59.3197 21.3005H68.476C68.3695 21.7087 68.2086 22.1087 67.9885 22.4885C67.1354 23.9676 65.6054 24.8504 63.8979 24.8504Z" fill="#910000"/>
</svg>
