<svg width="79" height="79" viewBox="0 0 79 79" fill="none" xmlns="http://www.w3.org/2000/svg">
<path d="M19.7479 61.5797C24.9894 66.2718 31.9115 69.125 39.5 69.125C55.8615 69.125 69.125 55.8615 69.125 39.5C69.125 31.9115 66.2718 24.9894 61.5797 19.7479L19.7479 61.5797ZM17.4204 59.2521L59.2521 17.4203C54.0107 12.7282 47.0886 9.87501 39.5 9.87501C23.1386 9.87501 9.87504 23.1386 9.87504 39.5C9.87504 47.0885 12.7282 54.0106 17.4204 59.2521ZM39.5 72.4167C21.3207 72.4167 6.58337 57.6794 6.58337 39.5C6.58337 21.3206 21.3207 6.58334 39.5 6.58334C57.6794 6.58334 72.4167 21.3206 72.4167 39.5C72.4167 57.6794 57.6794 72.4167 39.5 72.4167Z" fill="#910000"/>
</svg>
