<svg width="107" height="45" viewBox="0 0 107 45" fill="none" xmlns="http://www.w3.org/2000/svg">
<path d="M101.09 19.4821C100.593 19.4821 100.191 19.3742 100.191 19.241C100.191 19.1079 100.593 19 101.09 19C101.586 19 101.989 19.1079 101.989 19.241C101.989 19.3742 101.586 19.4821 101.09 19.4821Z" fill="#910000"/>
<path d="M101.09 19.4821C100.593 19.4821 100.191 19.3742 100.191 19.241C100.191 19.1079 100.593 19 101.09 19C101.586 19 101.989 19.1079 101.989 19.241C101.989 19.3742 101.586 19.4821 101.09 19.4821Z" stroke="#910000" stroke-width="2"/>
<path d="M104.831 22.5857C104.712 22.1296 104.726 21.7339 104.863 21.702C105 21.67 105.207 22.014 105.326 22.4701C105.445 22.9263 105.431 23.3219 105.294 23.3539C105.157 23.3858 104.95 23.0419 104.831 22.5857Z" fill="#910000"/>
<path d="M104.831 22.5857C104.712 22.1296 104.726 21.7339 104.863 21.702C105 21.67 105.207 22.014 105.326 22.4701C105.445 22.9263 105.431 23.3219 105.294 23.3539C105.157 23.3858 104.95 23.0419 104.831 22.5857Z" stroke="#910000" stroke-width="2"/>
<path d="M97.58 22.136C97.4563 22.5911 97.2456 22.9331 97.1093 22.9C96.9731 22.8669 96.9628 22.471 97.0864 22.016C97.2101 21.5609 97.4208 21.2189 97.5572 21.2521C97.6934 21.2852 97.7037 21.6809 97.58 22.136Z" fill="#910000"/>
<path d="M97.58 22.136C97.4563 22.5911 97.2456 22.9331 97.1093 22.9C96.9731 22.8669 96.9628 22.471 97.0864 22.016C97.2101 21.5609 97.4208 21.2189 97.5572 21.2521C97.6934 21.2852 97.7037 21.6809 97.58 22.136Z" stroke="#910000" stroke-width="2"/>
<path d="M103.21 25.9911C103.621 25.728 104.019 25.6039 104.098 25.7144C104.177 25.8246 103.907 26.1273 103.495 26.3904C103.084 26.6536 102.686 26.7775 102.608 26.6673C102.529 26.557 102.799 26.2543 103.21 25.9911Z" fill="#910000"/>
<path d="M103.21 25.9911C103.621 25.728 104.019 25.6039 104.098 25.7144C104.177 25.8246 103.907 26.1273 103.495 26.3904C103.084 26.6536 102.686 26.7775 102.608 26.6673C102.529 26.557 102.799 26.2543 103.21 25.9911Z" stroke="#910000" stroke-width="2"/>
<path d="M98.6269 25.7207C98.9916 26.0398 99.2097 26.3775 99.1142 26.4753C99.0185 26.5731 98.6455 26.3937 98.2809 26.0746C97.9163 25.7556 97.6982 25.4177 97.7937 25.3199C97.8892 25.2223 98.2623 25.4017 98.6269 25.7207Z" fill="#910000"/>
<path d="M98.6269 25.7207C98.9916 26.0398 99.2097 26.3775 99.1142 26.4753C99.0185 26.5731 98.6455 26.3937 98.2809 26.0746C97.9163 25.7556 97.6982 25.4177 97.7937 25.3199C97.8892 25.2223 98.2623 25.4017 98.6269 25.7207Z" stroke="#910000" stroke-width="2"/>
<path d="M101.43 19.4822H100.749V21.9628H101.43V19.4822Z" fill="#910000"/>
<path d="M101.43 19.4822H100.749V21.9628H101.43V19.4822Z" stroke="#910000" stroke-width="2"/>
<path d="M104.856 22.9755L104.783 22.3347L102.176 22.6006L102.249 23.2415L104.856 22.9755Z" fill="#910000"/>
<path d="M104.856 22.9755L104.783 22.3347L102.176 22.6006L102.249 23.2415L104.856 22.9755Z" stroke="#910000" stroke-width="2"/>
<path d="M101.975 23.7423L101.43 24.1296L103.005 26.1127L103.55 25.7256L101.975 23.7423Z" fill="#910000"/>
<path d="M101.975 23.7423L101.43 24.1296L103.005 26.1127L103.55 25.7256L101.975 23.7423Z" stroke="#910000" stroke-width="2"/>
<path d="M100.625 24.169L100.115 23.7423L98.3788 25.6017L98.8894 26.0283L100.625 24.169Z" stroke="#910000" stroke-width="2"/>
<path d="M97.6059 21.8491L97.4911 22.4844L100.076 22.9022L100.191 22.2669L97.6059 21.8491Z" fill="#910000"/>
<path d="M97.6059 21.8491L97.4911 22.4844L100.076 22.9022L100.191 22.2669L97.6059 21.8491Z" stroke="#910000" stroke-width="2"/>
<path d="M101.02 25.1123C99.8023 25.0758 98.8466 24.1119 98.8853 22.9595C98.9239 21.8072 99.9423 20.9026 101.16 20.939C102.377 20.9756 103.333 21.9394 103.294 23.0917C103.256 24.2442 102.237 25.1488 101.02 25.1123Z" fill="#910000"/>
<path d="M101.02 25.1123C99.8023 25.0758 98.8466 24.1119 98.8853 22.9595C98.9239 21.8072 99.9423 20.9026 101.16 20.939C102.377 20.9756 103.333 21.9394 103.294 23.0917C103.256 24.2442 102.237 25.1488 101.02 25.1123Z" stroke="#910000" stroke-width="2"/>
<path d="M4.64715 21.2074L4.73614 21.0876L4.92599 20.8293L5.12042 20.5624L5.31706 20.2915L5.51655 20.0175L5.71919 19.7414L5.92548 19.4642L6.13524 19.1868L6.34895 18.9107L6.5663 18.6369L6.7876 18.3669L7.01254 18.1018L7.24095 17.843L7.47269 17.5917L7.70711 17.3495L7.94422 17.1175L8.18307 16.8971L8.42333 16.6894L8.66439 16.4957L8.83574 16.3672L8.94529 16.2892L9.064 16.2079L9.18224 16.1308L9.3 16.0577L9.41713 15.9889L9.53347 15.9242L9.64903 15.8638L9.76363 15.8076L9.87744 15.7555L9.9903 15.7076L10.1022 15.664L10.2132 15.6243L10.3234 15.5887L10.4327 15.557L10.5417 15.5291L10.6503 15.5049L10.7587 15.4844L10.8673 15.4676L10.9764 15.4543L11.0862 15.4446L11.1975 15.4384L11.3104 15.4361L11.4254 15.4373L11.543 15.4426L11.6637 15.4519L11.7019 15.4562L11.6597 15.4522L11.7474 15.4612L11.866 15.4765L11.9651 15.4923L12.0636 15.5106L12.1617 15.5315L12.2596 15.5548L12.3574 15.5806L12.4553 15.6091L12.6179 15.6614L12.8286 15.7396L13.0248 15.8231L13.2227 15.9174L13.4222 16.0222L13.6231 16.1378L13.8254 16.2639L14.0286 16.4004L14.2323 16.5469L14.4361 16.7031L14.6397 16.8683L14.8425 17.0423L15.0442 17.2241L15.2446 17.4132L15.4432 17.6091L15.6398 17.8108L15.8342 18.0176L16.0261 18.2291L16.2153 18.444L16.4019 18.6619L16.5855 18.8821L16.7662 19.1036L16.9439 19.326L17.1186 19.5483L17.2902 19.77L17.4591 19.9903L17.625 20.2087L17.7883 20.4245L17.8689 20.5312L17.8629 20.5232L18.1377 20.89L18.6587 21.6052L19.1628 22.3208L19.6577 23.0448L20.1449 23.7763L20.6259 24.5147L21.1021 25.2594L21.5754 26.0101L22.284 27.1467L23.2304 28.6727L23.9503 29.8245L24.4398 30.5972L24.9368 31.3692L25.4438 32.1414L25.7047 32.5324C25.7058 32.5339 25.7068 32.5353 25.7077 32.5368L25.7472 32.5955L25.8264 32.7139L25.9502 32.899L26.1244 33.1596L26.3094 33.4351L26.5049 33.7243L26.7107 34.0252L26.9266 34.3366L27.1527 34.6569L27.3887 34.9845L27.6346 35.3182L27.8905 35.6566L28.1566 35.9983L28.4327 36.3422L28.7192 36.6868L29.0162 37.0309L29.3239 37.3734L29.6428 37.7128L29.9733 38.0482L30.3159 38.378L30.671 38.7011L31.0397 39.0161L31.4224 39.3215L31.7285 39.5504L31.9421 39.702L32.1504 39.8432L32.363 39.9809L32.5801 40.1148L32.8017 40.2448L33.0281 40.3703L33.2595 40.4913L33.4958 40.6072L33.7373 40.7179L33.9841 40.823L34.2362 40.9218L34.4937 41.0143L34.7564 41.0996L35.0247 41.1777L35.2981 41.2478L35.5767 41.3095L35.8601 41.3623L36.1482 41.4059L36.4405 41.4395L36.6139 41.4548C36.6517 41.4578 36.6896 41.4602 36.7276 41.4617L36.8077 41.465L37.0998 41.4671L37.4318 41.4514L37.7576 41.4173L38.0756 41.3663L38.3854 41.3L38.6866 41.2197L38.979 41.1271L39.2629 41.0233L39.5389 40.9092L39.8073 40.786L40.0691 40.6543L40.3245 40.5146L40.5746 40.3675L40.8197 40.2134L41.0605 40.0525L41.2974 39.8852L41.5311 39.7116L41.7619 39.5318L41.99 39.3459L42.216 39.1542L42.4401 38.9566L42.6627 38.7534L42.8837 38.5446L43.1036 38.3303L43.3225 38.1104L43.5405 37.8851L43.7577 37.6545L43.9742 37.4186L44.1903 37.1775L44.4059 36.9314L44.6211 36.6802L44.8359 36.4241L45.0505 36.1631L45.2649 35.8974L45.4791 35.627L45.6931 35.3521L45.9068 35.0727L46.2249 34.6486L46.6498 34.0669L47.0767 33.4657L47.503 32.8491L47.9289 32.2182L48.3539 31.5736L48.7782 30.9166L49.2015 30.2477L49.6237 29.5681L50.0445 28.8785L50.4639 28.1801L50.8815 27.4737L51.2971 26.7603L51.7106 26.0407L52.1217 25.3161L52.5302 24.5874L52.9358 23.8557L53.5371 22.7563L54.327 21.2879L54.9106 20.1867L55.2944 19.4557L55.6725 18.7302L56.0457 18.0096L56.4137 17.2949L56.7762 16.5873L57.1328 15.8877L57.4834 15.197L57.8275 14.5164L58.1652 13.8468L58.4957 13.1895L58.8191 12.5454L59.0568 12.0713L59.2129 11.7601L59.3668 11.4529L59.5189 11.1495L59.6687 10.8504L59.8167 10.5556L59.9624 10.2652L60.106 9.9794L60.2473 9.69828L60.3866 9.42188L60.5233 9.15062L60.6578 8.88437L60.79 8.62338L60.9197 8.36794L61.0471 8.11792L61.1719 7.8736L61.294 7.6351L61.4137 7.40257L61.5307 7.17629L61.645 6.95626L61.7566 6.74261L61.8653 6.53576L61.9711 6.33558L62.074 6.14248L62.1234 6.05017L62.113 6.06946L62.1503 6.00157L62.2006 5.91745L62.2466 5.84748L62.298 5.77488L62.3542 5.70019L62.4156 5.62411L62.4813 5.54735L62.5517 5.47016L62.626 5.39339L62.704 5.31732L62.7856 5.2425L62.8703 5.16933L62.9579 5.09812L63.0479 5.0294L63.1397 4.96346L63.2334 4.90058L63.3283 4.84116L63.4239 4.78535L63.52 4.73329L63.6163 4.6854L63.7121 4.64167L63.8071 4.60225L63.901 4.56712L63.9933 4.53658L64.084 4.51034L64.1725 4.48841L64.2588 4.47078L64.3429 4.45732L64.4245 4.44788L64.5037 4.44205L64.5808 4.4401L64.6562 4.44149L64.6613 4.44316L64.5859 4.44093L64.7101 4.44621L64.8257 4.45926L64.8956 4.47467L64.9659 4.49424L65.0383 4.51853L65.1145 4.54797L65.1951 4.58351L65.2811 4.62598L65.3725 4.67582L65.4692 4.73399L65.5707 4.80048L65.6766 4.87559L65.7863 4.95944L65.8992 5.05189L66.0144 5.15254L66.1314 5.2611L66.2496 5.37702L66.3686 5.50001L66.4877 5.62925L66.6064 5.76419L66.7246 5.90426L66.8417 6.04878L67.0208 6.27991L67.2496 6.59254L67.4078 6.81965L67.5105 6.97139L67.6152 7.12854L67.7175 7.28499L67.8177 7.44047L67.916 7.59415L67.9634 7.66898L67.9568 7.65842L68.1166 7.91316L68.4106 8.39834L68.6899 8.88033L68.9612 9.36844L69.2248 9.86222L69.4812 10.3614L69.7313 10.8658L69.9752 11.375L70.2137 11.8888L70.4472 12.4067L70.6764 12.9285L70.902 13.454L71.2355 14.2511L71.6713 15.3202L71.8853 15.8532L71.8831 15.8481L72.0474 16.2601L72.3683 17.0766L72.8414 18.3037L73.4609 19.946L74.0718 21.594L74.6802 23.2487L75.291 24.9091L75.9094 26.5735L76.5404 28.2409L76.864 29.0797C76.8646 29.0816 76.8654 29.0836 76.8662 29.0855L77.1079 29.7065L77.6006 30.9574L77.9833 31.9058L78.2467 32.543L78.516 33.1787L78.7933 33.8152L79.0795 34.4521L79.3756 35.0888L79.6826 35.7249L80.0014 36.3598L80.3332 36.9931L80.6787 37.6241L81.0393 38.2523L81.4158 38.8771L81.6169 39.1985C81.6194 39.2025 81.622 39.2065 81.6246 39.2107L81.677 39.293L81.7901 39.4695L81.9117 39.6567L82.041 39.8522L82.1777 40.0549L82.3221 40.2638L82.4741 40.478L82.6341 40.6965L82.802 40.9186L82.9781 41.1432L83.1628 41.3698L83.3565 41.5975L83.5594 41.8253L83.7722 42.0524L83.9956 42.2782L84.2298 42.5017L84.4761 42.7222L84.735 42.9383L85.0076 43.1494L85.2948 43.354L85.5976 43.5507L85.9174 43.738L86.2549 43.9138L86.6112 44.0761L86.9865 44.2225L87.381 44.35L87.7942 44.4557L88.1385 44.5231L88.3821 44.5595L88.6059 44.5845L88.8327 44.602L89.0623 44.6117L89.294 44.6134L89.5273 44.6068L89.7617 44.592L89.9969 44.5688L90.2323 44.5373L90.3743 44.5144C90.3904 44.5118 90.4067 44.5088 90.4228 44.5058L90.4979 44.4918L90.719 44.4457L90.9601 44.3874L91.1962 44.3218L91.4275 44.2494L91.6537 44.1705L91.8747 44.0858L92.0906 43.9955L92.3012 43.9L92.5066 43.7997L92.7902 43.6494L93.1595 43.4327L93.5254 43.1941L93.874 42.9438L94.2061 42.6835L94.5232 42.4146L94.8262 42.1386L95.1163 41.8565L95.3942 41.5694L95.6608 41.2785L95.9167 40.9843L96.1625 40.688L96.3989 40.3905L96.626 40.0926L96.8445 39.7953L97.0542 39.4994L97.2559 39.206L97.4496 38.9158L97.6353 38.63L97.8133 38.3493L97.9835 38.075L98.1462 37.8079L98.3014 37.5491L98.4489 37.2999L98.5888 37.0613L98.7209 36.8346L98.845 36.6212L98.9037 36.5204C99.5399 35.4285 99.0477 34.0902 97.8041 33.5315C96.5606 32.9727 95.0368 33.4051 94.4005 34.4971L94.3406 34.6003L94.2181 34.8107L94.0915 35.0278L93.9606 35.2512L93.8254 35.4798L93.6857 35.7131L93.5415 35.9497L93.3931 36.1892L93.2406 36.4303L93.0838 36.672L92.9232 36.9134L92.7589 37.1535L92.5911 37.3909L92.4202 37.6246L92.2465 37.8537L92.0702 38.0771L91.8922 38.2932L91.7126 38.5014L91.5323 38.7004L91.3519 38.8892L91.1724 39.0666L90.9945 39.2318L90.8194 39.3838L90.648 39.5221L90.4821 39.6459L90.3223 39.755L90.1549 39.8576L90.0285 39.927L89.9574 39.9632L89.8887 39.9961L89.8223 40.0256L89.7584 40.052L89.6969 40.0751L89.638 40.0955L89.5812 40.1133L89.5265 40.1286L89.4491 40.1461L89.374 40.1601L89.4225 40.1515L89.4273 40.1516L89.3903 40.1586L89.3556 40.1641L89.3231 40.1681L89.2919 40.1711L89.2617 40.1729L89.2322 40.1736L89.2026 40.1731L89.1726 40.1718L89.1652 40.1733L89.1377 40.173L89.0646 40.1609L88.9834 40.1411L88.8938 40.1119L88.7957 40.0725L88.6897 40.0221L88.5765 39.9603L88.4572 39.8868L88.3328 39.8018L88.2046 39.7057L88.0734 39.5991L87.9401 39.4824L87.8059 39.3566L87.6712 39.2223L87.5369 39.0806L87.4035 38.9323L87.2713 38.7785L87.1411 38.62L87.0132 38.4576L86.8877 38.2924L86.7648 38.1254L86.645 37.9571L86.5284 37.7887L86.4149 37.6209L86.3047 37.4544L86.1978 37.2899L86.093 37.1265L86.0406 37.0441L86.0483 37.0564L85.8852 36.7967L85.555 36.2506L85.2361 35.6964L84.9276 35.1347L84.629 34.566L84.3394 33.9903L84.058 33.4085L83.7844 32.8205L83.5174 32.2274L83.2566 31.629L83.001 31.0261L82.7511 30.422L82.381 29.5055L81.8942 28.2691L81.6525 27.6482L81.6547 27.654L81.3404 26.8398L80.7181 25.1957L80.1043 23.5433L79.4938 21.8838L78.8816 20.2187L78.2626 18.5492L77.6325 16.879L77.1496 15.6267L76.8219 14.7931L76.6577 14.381C76.6571 14.3794 76.6564 14.3777 76.6556 14.3759L76.4336 13.8228L75.9832 12.7182L75.6351 11.8871L75.3955 11.3292L75.1499 10.7703L74.8973 10.2107L74.6371 9.65094L74.3685 9.09148L74.0909 8.53245L73.8036 7.97438L73.5057 7.41771L73.1964 6.86269L72.875 6.31004L72.5469 5.76946L72.3872 5.51473C72.385 5.51126 72.3828 5.50764 72.3806 5.50417L72.3273 5.42046L72.2181 5.24957L72.1029 5.07119L71.9818 4.88614L71.8544 4.69526L71.7172 4.49368L71.4995 4.18356L71.1973 3.77362L70.9553 3.46362L70.7806 3.24997L70.598 3.0355L70.4069 2.82102L70.2071 2.60695L69.9978 2.39399L69.7786 2.18299L69.5487 1.97448L69.3075 1.76944L69.0543 1.56869L68.7882 1.37324L68.5086 1.18416L68.2148 1.003L67.9059 0.830859L67.5818 0.669685L67.2421 0.521143L66.8871 0.38732L66.5169 0.270155L66.1326 0.171723L65.7357 0.0941271L65.3277 0.0388744L64.9547 0.00916784L64.8304 0.00388913C64.8053 0.00277855 64.7802 0.00208566 64.7552 0.00166919L64.5585 0L64.2326 0.00819344L63.9116 0.0302657L63.5961 0.0655306L63.2864 0.113005L62.9832 0.172138L62.6868 0.242109L62.3975 0.322213L62.1152 0.411748L61.8402 0.510171L61.5726 0.616787L61.3121 0.731182L61.059 0.852508L60.813 0.980645L60.5742 1.11503L60.3426 1.25523L60.118 1.40086L59.9003 1.55162L59.6896 1.70738L59.4859 1.86758L59.2889 2.03223L59.0989 2.20089L58.9158 2.37359L58.7396 2.55003L58.5701 2.73008L58.4078 2.91375L58.2523 3.10102L58.104 3.29162L57.963 3.48556L57.8293 3.6831L57.7031 3.88426L57.5944 4.07153L57.5571 4.13927C57.5536 4.1458 57.5501 4.15218 57.5466 4.15857L57.4922 4.26005L57.3833 4.46439L57.2722 4.67471L57.1587 4.89072L57.0428 5.11255L56.9248 5.34009L56.8043 5.57303L56.6815 5.81153L56.5566 6.05544L56.4294 6.30463L56.2999 6.55881L56.1682 6.81813L56.0343 7.08245L55.8984 7.35148L55.7604 7.62525L55.6202 7.90359L55.4779 8.18637L55.3338 8.47359L55.1876 8.76484L55.0393 9.06039L54.8891 9.35983L54.7372 9.66316L54.5832 9.97023L54.4275 10.2809L54.1906 10.7532L53.8686 11.3947L53.54 12.0484L53.2047 12.7132L52.8633 13.3883L52.516 14.0727L52.163 14.7652L51.8047 15.4647L51.4414 16.1703L51.0733 16.8812L50.7007 17.596L50.3248 18.3123L49.7534 19.3904L48.9775 20.833L48.3876 21.9116L47.992 22.6256L47.5942 23.3351L47.1948 24.0392L46.7939 24.7369L46.3919 25.427L45.9892 26.1085L45.5861 26.7802L45.1829 27.4412L44.7799 28.09L44.3778 28.726L43.9766 29.3476L43.577 29.954L43.1793 30.5439L42.784 31.1159L42.3915 31.6693L42.0001 32.2058L41.708 32.5955L41.5164 32.8462L41.3259 33.0913L41.1367 33.3303L40.9489 33.5634L40.7627 33.7902L40.5781 34.0105L40.395 34.2245L40.214 34.4317L40.0349 34.6319L39.858 34.8251L39.6834 35.011L39.5112 35.1896L39.3418 35.3604L39.1753 35.5234L39.012 35.6785L38.8522 35.8254L38.696 35.9639L38.544 36.094L38.3963 36.2153L38.2534 36.3279L38.1161 36.4316L37.9842 36.5261L37.8589 36.6117L37.7405 36.688L37.6295 36.7553L37.5269 36.8136L37.4332 36.8633L37.3493 36.9047L37.2756 36.9382L37.213 36.9643L37.1621 36.984L37.1229 36.9983L37.0957 37.0081L37.0801 37.0151L37.0755 37.0201L37.0804 37.0248L37.0492 37.0278L36.9689 37.0245L37.0826 37.0315L37.063 37.0309L36.9716 37.0228L36.8788 37.011L36.7843 36.9956L36.6877 36.9763L36.5889 36.9532L36.4879 36.9257L36.3846 36.8939L36.2786 36.8578L36.1704 36.817L36.0599 36.7716L35.9473 36.7215L35.8326 36.6666L35.7159 36.6071L35.5975 36.5427L35.4774 36.4735L35.356 36.3997L35.2333 36.3212L35.1095 36.2384L34.9943 36.158L34.8135 36.0253L34.5583 35.8247L34.3027 35.6088L34.0473 35.3788L33.7931 35.136L33.5408 34.8818L33.2912 34.6176L33.0451 34.345L32.8026 34.0651L32.5646 33.7795L32.3313 33.4898L32.103 33.1972L31.8801 32.903L31.6628 32.6087L31.4514 32.3155L31.2461 32.0248L31.0469 31.7379L30.8539 31.4558L30.6672 31.1798L30.4867 30.9108L30.3125 30.6501L30.1861 30.4611L30.104 30.3387L30.0645 30.2798L30.0675 30.2843L29.8257 29.9223L29.3402 29.1831L28.86 28.4372L28.3845 27.6869L27.6724 26.5476L26.721 25.0136L26.0005 23.8578L25.5122 23.0837L25.0162 22.3084L24.5105 21.5326L23.9936 20.7572L23.4637 19.9828L22.919 19.2104L22.3639 18.4491L22.0891 18.0822C22.0872 18.0795 22.0852 18.0769 22.0831 18.0743L22.0013 17.9659L21.8321 17.7423L21.6557 17.5102L21.472 17.2706L21.2812 17.0245L21.083 16.7725L20.8774 16.5156L20.6641 16.2546L20.4431 15.9903L20.2143 15.7236L19.977 15.4551L19.7313 15.1857L19.4768 14.9162L19.2132 14.6473L18.94 14.3799L18.6569 14.1148L18.3634 13.8528L18.0589 13.5947L17.7431 13.3417L17.4153 13.0944L17.0751 12.8541L16.7216 12.6219L16.3548 12.3989L15.974 12.1865L15.5786 11.9862L15.1686 11.7995L14.7437 11.6279L14.3201 11.4781L13.9981 11.3784L13.7685 11.3147L13.5355 11.2561L13.2992 11.203L13.0597 11.1554L12.8171 11.1136L12.5718 11.0776L12.3423 11.0499L12.2545 11.0407C12.2405 11.0392 12.2264 11.0379 12.2125 11.0367L12.0324 11.0214L11.721 11.0031L11.4117 10.995L11.105 10.9974L10.8012 11.0099L10.5009 11.0321L10.2042 11.064L9.91158 11.1052L9.62358 11.1554L9.34031 11.2141L9.0621 11.281L8.78895 11.3558L8.52134 11.4379L8.2591 11.5268L8.00255 11.6225L7.75153 11.7241L7.5062 11.8316L7.2664 11.9444L7.03198 12.0622L6.80309 12.1846L6.57958 12.3113L6.36128 12.442L6.14804 12.5765L5.93986 12.7142L5.73642 12.8552L5.52808 13.0063L5.23091 13.2335L4.86181 13.5349L4.50884 13.8439L4.17088 14.1589L3.84714 14.4785L3.53685 14.8013L3.23936 15.1257L2.95372 15.4508L2.67962 15.775L2.41659 16.0969L2.16415 16.4152L1.92198 16.7287L1.68978 17.0357L1.46753 17.3349L1.25492 17.6246L1.05211 17.9032L0.859107 18.1689L0.676218 18.4201L0.500917 18.6587L0.411763 18.7785C-0.351884 19.8055 -0.0229355 21.1819 1.14664 21.8526C2.31622 22.5234 3.88334 22.2345 4.64715 21.2074Z" fill="#545454"/>
</svg>
