<svg id="e6ft16penf7h1" xmlns="http://www.w3.org/2000/svg" xmlns:xlink="http://www.w3.org/1999/xlink" viewBox="0 0 2047.990000 2731.990000" shape-rendering="geometricPrecision" text-rendering="geometricPrecision"><defs><filter id="e6ft16penf7h3-filter" x="-400%" width="600%" y="-400%" height="600%"><feColorMatrix id="e6ft16penf7h3-filter-grayscale-0" type="matrix" values="0.212600 0.715200 0.072200 0 0 0.212600 0.715200 0.072200 0 0 0.212600 0.715200 0.072200 0 0 0 0 0 1 0" result="result"/></filter><filter id="e6ft16penf7h48-filter" x="-400%" width="600%" y="-400%" height="600%"><feColorMatrix id="e6ft16penf7h48-filter-grayscale-0" type="matrix" values="0.212600 0.715200 0.072200 0 0 0.212600 0.715200 0.072200 0 0 0.212600 0.715200 0.072200 0 0 0 0 0 1 0" result="result"/></filter></defs><g id="e6ft16penf7h2"><g id="e6ft16penf7h3" filter="url(#e6ft16penf7h3-filter)"><path id="e6ft16penf7h4" d="M323.448000,435.387000C370.794000,435.361000,412.159000,467.733000,424.008000,514.085000C435.856000,560.437000,415.187000,609.023000,373.759000,632.201000L372.641000,617.950000C369.815000,585.585000,342.494000,590.848000,338.832000,586.605000L338.760000,586.605000C338.370000,584.586000,337.808000,577.217000,337.390000,571.356000C340.829000,568.309000,346.142000,569.898000,350.654000,570.802000C355.167000,571.706000,361.547000,570.401000,361.842000,565.699000C362.080000,562.055000,358.159000,559.183000,358.195000,555.494000C358.195000,552.797000,360.415000,550.610000,362.772000,549.364000C365.130000,548.117000,367.819000,547.498000,370.075000,546.113000C376.873000,541.994000,377.911000,530.856000,371.985000,525.535000C369.462000,523.260000,366.168000,522.109000,363.241000,520.432000C360.314000,518.756000,357.474000,516.058000,357.272000,512.662000C357.077000,509.819000,358.714000,507.231000,359.766000,504.600000C362.872000,496.685000,361.283000,487.674000,355.664000,481.332000C350.121000,475.238000,337.866000,466.002000,323.448000,478.394000C316.960000,468.189000,294.612000,473.292000,288.377000,481.354000C283.331000,487.914000,281.168000,496.931000,284.275000,504.621000C285.349000,507.253000,286.964000,509.841000,286.769000,512.684000C286.531000,516.088000,283.734000,518.748000,280.800000,520.454000C277.866000,522.160000,274.579000,523.304000,272.049000,525.557000C266.130000,530.878000,267.168000,542.016000,273.966000,546.135000C276.251000,547.520000,278.904000,548.139000,281.269000,549.386000C283.633000,550.632000,285.825000,552.819000,285.846000,555.516000C285.846000,559.161000,281.961000,562.040000,282.192000,565.721000C282.494000,570.416000,288.824000,571.735000,293.387000,570.824000C297.950000,569.913000,303.270000,568.316000,306.702000,571.429000C306.341000,577.610000,305.757000,585.177000,305,586.737000L304.914000,586.831000C300.927000,590.891000,273.995000,585.949000,271.191000,618.074000L270.218000,630.509000L270.218000,630.509000C230.087000,606.312000,210.889000,557.986000,223.314000,512.441000C235.739000,466.896000,276.724000,435.358000,323.448000,435.387000Z" transform="matrix(1 0 0 1 521.03094773499981 566.21554399999991)" fill="rgb(229,179,179)" stroke="none" stroke-width="1"/><path id="e6ft16penf7h5" d="M349.515000,540.077000C349.802000,540.467000,349.956000,540.940000,349.955000,541.426000C349.969000,542.512000,349.224000,543.458000,348.173000,543.687000C347.122000,543.915000,346.058000,543.362000,345.630000,542.366000C345.496000,542.071000,345.427000,541.750000,345.428000,541.426000C345.424000,540.984000,345.552000,540.553000,345.796000,540.186000C346.199000,539.557000,346.882000,539.168000,347.623000,539.146000C348.365000,539.125000,349.069000,539.473000,349.508000,540.077000Z" transform="matrix(1 0 0 1 521.03094773499981 566.21554399999991)" fill="rgb(255,255,255)" stroke="none" stroke-width="1"/><path id="e6ft16penf7h6" d="M345.796000,540.172000C346.019000,537.373000,346.170000,533.079000,346.257000,530.528000L346.336000,530.440000C347.902000,531.857000,349.591000,533.128000,351.382000,534.238000L351.310000,534.355000C351.045000,535.882000,350.647000,537.382000,350.121000,538.838000C349.991000,539.057000,349.804000,539.567000,349.559000,540.077000C349.120000,539.473000,348.415000,539.125000,347.674000,539.147000C346.933000,539.168000,346.249000,539.557000,345.846000,540.186000Z" transform="matrix(1 0 0 1 521.03094773499981 566.21554399999991)" fill="rgb(255,255,255)" stroke="none" stroke-width="1"/><path id="e6ft16penf7h7" d="M373.759000,632.201000C341.402000,650.295000,301.974000,649.646000,270.218000,630.495000L271.191000,618.059000C273.995000,585.935000,300.927000,590.877000,304.914000,586.817000L304.914000,586.853000C304.986000,586.853000,306.356000,617.192000,322.309000,617.520000L322.468000,617.520000C336.453000,616.200000,339.005000,590.046000,338.853000,587.086000L338.853000,587.086000C338.799000,586.938000,338.760000,586.784000,338.738000,586.627000L338.810000,586.627000C342.472000,590.862000,369.808000,585.599000,372.620000,617.972000Z" transform="matrix(1 0 0 1 521.03094773499981 566.21554399999991)" fill="rgb(145,0,0)" stroke="none" stroke-width="1"/><path id="e6ft16penf7h8" d="M322.936000,564.081000C322.618000,564.149000,322.289000,564.149000,321.970000,564.081000C318.178000,563.476000,309.636000,556.952000,308.814000,556.289000C308.252000,555.837000,307.725000,555.436000,307.228000,555.057000L307.228000,555.057000C303.760000,552.425000,301.619000,551.011000,299.925000,545.836000C299.611000,544.714000,299.401000,543.564000,299.298000,542.402000C299.614000,541.706000,299.557000,540.896000,299.147000,540.252000C299.003000,538.364000,298.902000,536.214000,298.837000,534.421000C308.194000,530.506000,304.705000,521.402000,304.705000,521.402000C304.705000,521.402000,301.100000,513.383000,315.518000,510.468000C322.006000,509.148000,323.989000,505.744000,324.169000,502.449000C324.194000,502.039000,324.194000,501.628000,324.169000,501.217000C326.507000,506.022000,331.150000,509.250000,336.424000,509.739000C349.400000,511.196000,340.749000,514.112000,341.470000,522.131000C341.759000,525.316000,343.863000,528.159000,346.300000,530.419000L346.300000,530.419000L346.221000,530.506000C346.134000,533.057000,345.983000,537.351000,345.759000,540.150000L345.759000,540.150000C345.516000,540.516000,345.388000,540.948000,345.392000,541.389000C345.391000,541.714000,345.460000,542.034000,345.594000,542.330000L345.594000,542.330000C345.486000,543.498000,345.274000,544.655000,344.959000,545.785000C343.128000,551.398000,340.764000,552.586000,336.770000,555.691000L336.770000,555.691000C336.546000,555.866000,336.309000,556.048000,336.049000,556.238000C335.278000,556.952000,326.735000,563.476000,322.936000,564.081000Z" transform="matrix(1 0 0 1 521.03094773499981 566.21554399999991)" fill="rgb(255,255,255)" stroke="none" stroke-width="1"/><path id="e6ft16penf7h9" d="M338.889000,587.079000C339.041000,590.039000,336.489000,616.193000,322.504000,617.512000L322.345000,617.512000C306.377000,617.184000,305.044000,586.846000,304.950000,586.846000L304.950000,586.809000L305.036000,586.715000C305.757000,585.169000,306.377000,577.603000,306.738000,571.407000C307.004000,566.807000,307.149000,562.980000,307.149000,562.980000C307.149000,562.317000,307.214000,555.596000,307.221000,555.093000L307.221000,555.093000L307.221000,555.093000L307.221000,555.093000C307.718000,555.472000,308.244000,555.873000,308.807000,556.325000C309.629000,556.989000,318.178000,563.513000,321.963000,564.118000C322.281000,564.186000,322.610000,564.186000,322.929000,564.118000C326.728000,563.513000,335.271000,556.989000,336.092000,556.325000C336.323000,556.136000,336.561000,555.953000,336.813000,555.779000C336.813000,556.471000,336.849000,563.068000,336.878000,563.636000C336.878000,563.841000,337.123000,567.281000,337.412000,571.407000C337.830000,577.238000,338.392000,584.637000,338.781000,586.656000C338.803000,586.813000,338.842000,586.967000,338.897000,587.116000Z" transform="matrix(1 0 0 1 521.03094773499981 566.21554399999991)" fill="rgb(255,255,255)" stroke="none" stroke-width="1"/><path id="e6ft16penf7h10" d="M299.132000,540.237000C299.542000,540.881000,299.599000,541.692000,299.284000,542.388000C298.856000,543.383000,297.794000,543.935000,296.744000,543.709000C295.694000,543.483000,294.948000,542.540000,294.958000,541.455000C294.956000,541.114000,295.033000,540.777000,295.182000,540.471000C295.533000,539.718000,296.263000,539.219000,297.085000,539.170000C297.907000,539.121000,298.690000,539.531000,299.125000,540.237000Z" transform="matrix(1 0 0 1 521.03094773499981 566.21554399999991)" fill="rgb(255,255,255)" stroke="none" stroke-width="1"/><path id="e6ft16penf7h11" d="M298.822000,534.435000C298.887000,536.199000,298.988000,538.349000,299.132000,540.267000C298.697000,539.560000,297.914000,539.151000,297.092000,539.199000C296.270000,539.248000,295.540000,539.747000,295.189000,540.500000C294.951000,539.939000,294.757000,539.458000,294.627000,539.224000C294.353000,538.729000,292.464000,536.017000,293.675000,535.835000C295.441000,535.583000,297.170000,535.113000,298.822000,534.435000Z" transform="matrix(1 0 0 1 521.03094773499981 566.21554399999991)" fill="rgb(255,255,255)" stroke="none" stroke-width="1"/><path id="e6ft16penf7h12" d="M351.339000,534.238000C349.548000,533.128000,347.859000,531.857000,346.293000,530.440000L346.293000,530.440000C343.856000,528.181000,341.751000,525.338000,341.463000,522.152000C340.742000,514.134000,349.393000,511.218000,336.417000,509.760000C331.135000,509.265000,326.491000,506.022000,324.162000,501.203000C324.190000,501.618000,324.192000,502.034000,324.169000,502.449000C323.989000,505.780000,322.006000,509.185000,315.518000,510.468000C301.100000,513.383000,304.705000,521.402000,304.705000,521.402000C304.705000,521.402000,308.194000,530.506000,298.822000,534.435000C297.169000,535.103000,295.440000,535.564000,293.675000,535.806000C292.486000,535.988000,294.353000,538.721000,294.627000,539.195000C294.757000,539.428000,294.951000,539.924000,295.189000,540.471000C295.040000,540.777000,294.963000,541.114000,294.966000,541.455000C294.955000,542.540000,295.702000,543.483000,296.751000,543.709000C297.801000,543.935000,298.863000,543.383000,299.291000,542.388000C299.394000,543.550000,299.604000,544.699000,299.918000,545.821000C301.612000,550.997000,303.753000,552.382000,307.221000,555.042000L307.221000,555.042000L307.221000,555.042000C307.221000,555.545000,307.156000,562.266000,307.149000,562.929000C307.149000,562.929000,307.004000,566.756000,306.738000,571.356000C303.306000,568.243000,297.957000,569.832000,293.423000,570.751000C288.889000,571.669000,282.530000,570.350000,282.228000,565.648000C281.997000,562.004000,285.919000,559.132000,285.882000,555.443000C285.882000,552.746000,283.662000,550.559000,281.305000,549.313000C278.948000,548.066000,276.259000,547.447000,274.002000,546.062000C267.204000,541.943000,266.166000,530.805000,272.085000,525.484000C274.615000,523.209000,277.909000,522.058000,280.836000,520.381000C283.763000,518.705000,286.603000,516.008000,286.805000,512.611000C287,509.768000,285.363000,507.180000,284.311000,504.549000C281.168000,496.858000,283.345000,487.834000,288.413000,481.281000C294.612000,473.292000,316.960000,468.189000,323.448000,478.394000C337.866000,466.002000,350.085000,475.238000,355.664000,481.354000C361.289000,487.699000,362.878000,496.717000,359.766000,504.636000C358.692000,507.268000,357.077000,509.855000,357.272000,512.698000C357.503000,516.102000,360.307000,518.763000,363.241000,520.469000C366.175000,522.174000,369.462000,523.319000,371.985000,525.571000C377.911000,530.892000,376.873000,542.031000,370.075000,546.149000C367.790000,547.534000,365.137000,548.154000,362.772000,549.400000C360.408000,550.647000,358.216000,552.834000,358.195000,555.531000C358.195000,559.175000,362.080000,562.055000,361.842000,565.736000C361.547000,570.430000,355.217000,571.750000,350.654000,570.838000C346.091000,569.927000,340.829000,568.345000,337.390000,571.392000C337.102000,567.230000,336.885000,563.826000,336.856000,563.622000C336.856000,563.024000,336.792000,556.456000,336.792000,555.764000L336.792000,555.764000C340.785000,552.659000,343.150000,551.470000,344.981000,545.858000C345.295000,544.728000,345.508000,543.571000,345.615000,542.402000L345.615000,542.402000C346.044000,543.399000,347.108000,543.951000,348.159000,543.723000C349.209000,543.495000,349.955000,542.549000,349.941000,541.462000C349.942000,540.976000,349.787000,540.503000,349.501000,540.114000C349.746000,539.567000,349.933000,539.093000,350.063000,538.874000C350.589000,537.418000,350.987000,535.918000,351.253000,534.391000Z" transform="matrix(1 0 0 1 521.03094773499981 566.21554399999991)" fill="rgb(35,34,36)" stroke="none" stroke-width="1"/><path id="e6ft16penf7h13" d="M337.306000,556.227000L337.306000,556.227000C337.083000,556.402000,336.845000,556.585000,336.585000,556.774000C335.763000,557.438000,327.214000,563.961000,323.422000,564.567000C323.262000,564.597000,323.101000,564.614000,322.939000,564.618000C322.776000,564.621000,322.614000,564.603000,322.456000,564.567000L322.362000,564.567000" transform="matrix(1 0 0 1 521.03094773499981 566.21554399999991)" fill="rgb(0,0,0)" fill-opacity="0" stroke="rgb(204,204,204)" stroke-width="1" stroke-miterlimit="10"/><path id="e6ft16penf7h14" d="M307.728000,555.557000C308.225000,555.936000,308.752000,556.337000,309.314000,556.789000C310.136000,557.452000,318.685000,563.976000,322.470000,564.581000C322.629000,564.611000,322.791000,564.628000,322.953000,564.632000C323.116000,564.635000,323.278000,564.618000,323.436000,564.581000L323.530000,564.581000" transform="matrix(1 0 0 1 521.03094773499981 566.21554399999991)" fill="rgb(0,0,0)" fill-opacity="0" stroke="rgb(204,204,204)" stroke-width="1" stroke-miterlimit="10"/></g><g id="e6ft16penf7h15"><g id="e6ft16penf7h16"><path id="e6ft16penf7h17" d="M517.852000,1128.734000C517.852000,1128.005000,517.852000,1127.415000,517.852000,1127.276000L517.852000,1127.276000C521.846000,1124.171000,524.217000,1122.983000,526.041000,1117.370000C526.359000,1116.241000,526.571000,1115.084000,526.675000,1113.915000L526.675000,1113.915000C527.104000,1114.911000,528.168000,1115.464000,529.219000,1115.236000C530.270000,1115.007000,531.015000,1114.061000,531.001000,1112.975000C531.002000,1112.489000,530.848000,1112.016000,530.561000,1111.626000C530.806000,1111.079000,530.994000,1110.613000,531.123000,1110.387000C531.642000,1108.967000,532.038000,1107.503000,532.306000,1106.013000C532.377000,1105.981000,532.441000,1105.934000,532.493000,1105.875000C533.308000,1104.942000,535.708000,1098.585000,536.617000,1097.434000C538.347000,1095.247000,535.247000,1090.480000,537.806000,1087.229000C540.841000,1083.394000,536.984000,1078.554000,538.635000,1076.229000C540.798000,1073.160000,541.619000,1069.340000,538.635000,1064.216000C537.683000,1061.592000,537.669000,1065.448000,534.014000,1057.480000C534.014000,1057.480000,534.014000,1051.452000,523.677000,1048.602000C515.444000,1046.335000,516.215000,1054.353000,512.863000,1048.165000C510.924000,1044.607000,506.022000,1044.848000,497.905000,1045.096000C490.948000,1045.307000,483.927000,1053.428000,483.927000,1053.428000C483.927000,1053.428000,483.321000,1049.521000,472.068000,1064.974000C463.742000,1076.404000,468.709000,1084.262000,468.709000,1084.262000L469.790000,1083.278000C468.709000,1084.262000,468.493000,1095.874000,469.069000,1096.399000C469.646000,1096.923000,471.340000,1096.843000,470.908000,1099.139000C470.475000,1101.436000,470.908000,1101.005000,470.908000,1101.005000C470.908000,1101.005000,472.537000,1099.548000,472.104000,1102.646000C471.856000,1104.459000,472.601000,1106.265000,474.051000,1107.362000L474.325000,1107.267000L474.743000,1107.267000C474.959000,1108.427000,475.280000,1109.564000,475.701000,1110.664000C475.831000,1110.890000,476.019000,1111.393000,476.264000,1111.925000C476.111000,1112.233000,476.032000,1112.572000,476.033000,1112.916000C476.022000,1114.002000,476.769000,1114.944000,477.819000,1115.171000C478.868000,1115.397000,479.930000,1114.845000,480.358000,1113.849000C480.463000,1115.011000,480.675000,1116.161000,480.993000,1117.283000C482.680000,1122.458000,484.821000,1123.843000,488.288000,1126.504000L488.288000,1126.540000L488.288000,1126.540000C488.288000,1127.043000,488.230000,1133.757000,488.223000,1134.427000C488.223000,1134.427000,487.423000,1155.457000,486.111000,1158.147000L486.017000,1158.242000C482.016000,1162.302000,455.098000,1157.375000,452.294000,1189.484000L451.364000,1201.330000L451.018000,1201.920000C410.682000,1177.561000,391.554000,1128.844000,404.382000,1083.141000C417.210000,1037.439000,458.796000,1006.146000,505.774000,1006.845000C552.751000,1007.545000,593.408000,1040.062000,604.900000,1086.126000C616.392000,1132.191000,595.854000,1180.317000,554.826000,1203.465000L554.783000,1202.263000L553.766000,1189.375000C550.941000,1157.010000,523.619000,1162.273000,519.957000,1158.031000L519.885000,1158.031000C519.214000,1154.568000,518.054000,1135.492000,517.982000,1135.003000C517.909000,1134.515000,517.852000,1130.907000,517.852000,1128.734000Z" transform="matrix(1 0 0 1 521.03094773499981 566.21554399999991)" fill="rgb(229,179,179)" stroke="none" stroke-width="1"/><path id="e6ft16penf7h18" d="M519.921000,1158.584000L519.921000,1158.584000C519.866000,1158.436000,519.828000,1158.282000,519.805000,1158.125000L519.878000,1158.125000C523.540000,1162.353000,550.876000,1157.090000,553.687000,1189.470000L554.704000,1202.357000L554.747000,1203.560000C522.351000,1221.814000,482.789000,1221.225000,450.939000,1202.015000L451.285000,1201.424000L452.251000,1189.550000C455.055000,1157.477000,481.973000,1162.368000,485.974000,1158.307000L486.010000,1158.307000C486.082000,1158.307000,487.452000,1188.646000,503.405000,1188.974000L503.564000,1188.974000C517.513000,1187.698000,520.065000,1161.580000,519.921000,1158.584000Z" transform="matrix(1 0 0 1 521.03094773499981 566.21554399999991)" fill="rgb(145,0,0)" stroke="none" stroke-width="1"/><path id="e6ft16penf7h19" d="M469.790000,1083.278000L468.709000,1084.262000C468.709000,1084.262000,463.742000,1076.404000,472.068000,1064.974000C483.321000,1049.521000,483.876000,1053.362000,483.876000,1053.362000C483.876000,1053.362000,490.898000,1045.242000,497.854000,1045.030000C505.972000,1044.782000,510.874000,1044.542000,512.813000,1048.099000C516.187000,1054.288000,515.415000,1046.269000,523.626000,1048.536000C533.964000,1051.387000,533.964000,1057.415000,533.964000,1057.415000C537.619000,1065.382000,537.633000,1061.526000,538.585000,1064.150000C541.583000,1069.253000,540.747000,1073.094000,538.585000,1076.163000C536.934000,1078.489000,540.790000,1083.329000,537.755000,1087.163000C535.196000,1090.399000,538.296000,1095.181000,536.566000,1097.368000C535.658000,1098.513000,533.257000,1104.876000,532.443000,1105.809000C532.391000,1105.869000,532.327000,1105.916000,532.255000,1105.948000C531.383000,1106.319000,529.646000,1103.805000,528.377000,1101.654000L528.312000,1101.552000C528.096000,1101.217000,527.721000,1100.612000,527.295000,1099.934000L527.029000,1099.504000C524.260000,1095.130000,525.133000,1093.672000,524.260000,1095.130000C523.994000,1095.575000,523.669000,1095.444000,523.352000,1095.057000C522.766000,1094.126000,522.308000,1093.118000,521.990000,1092.061000C521.672000,1091.005000,520.310000,1090.531000,518.926000,1089.539000C517.542000,1088.548000,515.487000,1089.984000,515.487000,1089.984000C515.487000,1089.984000,513.325000,1083.081000,512.020000,1082.964000C511.160000,1082.938000,510.318000,1083.210000,509.634000,1083.737000C508.949000,1084.264000,509.958000,1082.527000,508.660000,1079.021000C507.363000,1075.515000,507.139000,1065.652000,507.139000,1065.652000L506.491000,1065.761000C506.491000,1065.761000,504.760000,1072.883000,504.537000,1076.506000C504.396000,1078.604000,502.890000,1080.350000,500.853000,1080.777000C498.817000,1081.204000,498.474000,1082.235000,498.582000,1084.502000C498.691000,1086.769000,495.872000,1087.024000,495.872000,1087.024000L495.872000,1085.049000C495.872000,1085.049000,495.764000,1086.033000,494.351000,1087.024000C493.233000,1087.804000,491.705000,1084.932000,491.128000,1083.715000C491.042000,1083.198000,490.941000,1082.986000,490.883000,1083.190000C490.883000,1083.190000,490.970000,1083.394000,491.128000,1083.715000C491.338000,1085.107000,491.395000,1088.482000,490.083000,1089.765000C488.288000,1091.515000,486.551000,1092.681000,485.758000,1092.608000C484.965000,1092.535000,484.640000,1095.349000,483.249000,1096.114000C481.858000,1096.880000,481.807000,1101.159000,481.952000,1102.252000C482.096000,1103.345000,481.613000,1102.784000,479.688000,1102.704000L479.147000,1102.704000C476.761000,1102.704000,476.790000,1105.117000,476.884000,1105.773000C476.963000,1106.305000,474.959000,1107.063000,474.216000,1107.325000L473.943000,1107.420000C472.493000,1106.323000,471.748000,1104.517000,471.996000,1102.704000C472.429000,1099.635000,470.799000,1101.064000,470.799000,1101.064000C470.799000,1101.064000,470.367000,1101.501000,470.799000,1099.198000C471.232000,1096.894000,469.502000,1097.011000,468.961000,1096.457000C468.421000,1095.903000,468.709000,1084.262000,469.790000,1083.278000Z" transform="matrix(1 0 0 1 521.03094773499981 566.21554399999991)" fill="rgb(35,34,36)" stroke="none" stroke-width="1"/><path id="e6ft16penf7h20" d="M528.413000,1101.640000C529.682000,1103.790000,531.419000,1106.305000,532.291000,1105.933000C532.023000,1107.423000,531.628000,1108.886000,531.109000,1110.307000C530.979000,1110.533000,530.792000,1110.999000,530.547000,1111.546000C530.108000,1110.942000,529.403000,1110.594000,528.662000,1110.615000C527.921000,1110.637000,527.237000,1111.026000,526.834000,1111.655000L526.834000,1111.655000C527.166000,1107.464000,527.353000,1099.905000,527.353000,1099.905000C527.778000,1100.583000,528.153000,1101.188000,528.370000,1101.523000Z" transform="matrix(1 0 0 1 521.03094773499981 566.21554399999991)" fill="rgb(255,255,255)" stroke="none" stroke-width="1"/><path id="e6ft16penf7h21" d="M530.547000,1111.575000C530.833000,1111.965000,530.987000,1112.438000,530.986000,1112.924000C531.001000,1114.010000,530.255000,1114.956000,529.204000,1115.185000C528.154000,1115.413000,527.090000,1114.860000,526.661000,1113.864000C526.527000,1113.569000,526.458000,1113.248000,526.459000,1112.924000C526.455000,1112.483000,526.583000,1112.051000,526.827000,1111.684000C527.230000,1111.055000,527.914000,1110.666000,528.655000,1110.645000C529.396000,1110.623000,530.101000,1110.971000,530.539000,1111.575000Z" transform="matrix(1 0 0 1 521.03094773499981 566.21554399999991)" fill="rgb(255,255,255)" stroke="none" stroke-width="1"/><path id="e6ft16penf7h22" d="M517.852000,1127.240000L517.131000,1127.787000C516.309000,1128.450000,507.759000,1134.974000,503.967000,1135.579000C503.649000,1135.647000,503.320000,1135.647000,503.001000,1135.579000C499.210000,1134.974000,490.667000,1128.450000,489.845000,1127.787000C489.283000,1127.342000,488.757000,1126.934000,488.259000,1126.555000L488.259000,1126.555000C484.792000,1123.923000,482.651000,1122.509000,480.964000,1117.334000C480.646000,1116.212000,480.434000,1115.062000,480.330000,1113.901000C480.658000,1113.194000,480.601000,1112.366000,480.178000,1111.714000C479.911000,1108.266000,479.796000,1103.950000,479.774000,1102.660000C481.699000,1102.740000,482.153000,1103.222000,482.038000,1102.208000C481.923000,1101.195000,481.944000,1096.843000,483.336000,1096.071000C484.727000,1095.298000,485.087000,1092.426000,485.844000,1092.564000C486.601000,1092.703000,488.339000,1091.471000,490.170000,1089.722000C491.482000,1088.439000,491.424000,1085.064000,491.215000,1083.671000C491.792000,1084.889000,493.320000,1087.761000,494.437000,1086.981000C495.879000,1085.989000,495.958000,1085.005000,495.958000,1085.005000L495.958000,1086.981000C495.958000,1086.981000,498.777000,1086.762000,498.669000,1084.458000C498.561000,1082.155000,500.940000,1080.734000,500.940000,1080.734000C502.976000,1080.307000,504.482000,1078.560000,504.624000,1076.462000C504.847000,1072.817000,506.577000,1065.718000,506.577000,1065.718000L507.226000,1065.608000C507.226000,1065.608000,507.442000,1075.471000,508.747000,1078.977000C510.052000,1082.483000,509.720000,1083.693000,509.720000,1083.693000C510.404000,1083.167000,511.247000,1082.894000,512.106000,1082.921000C513.404000,1083.037000,515.574000,1089.940000,515.574000,1089.940000C515.574000,1089.940000,517.628000,1088.482000,519.012000,1089.495000C520.397000,1090.509000,522.076000,1092.018000,522.076000,1092.018000C522.394000,1093.074000,522.853000,1094.082000,523.439000,1095.014000C523.756000,1095.400000,524.080000,1095.531000,524.347000,1095.087000C525.219000,1093.629000,524.347000,1095.087000,527.115000,1099.460000L527.382000,1099.890000C527.382000,1099.890000,527.195000,1107.449000,526.863000,1111.641000L526.863000,1111.641000C526.620000,1112.007000,526.491000,1112.439000,526.495000,1112.880000C526.495000,1113.204000,526.563000,1113.525000,526.697000,1113.820000L526.697000,1113.820000C526.593000,1114.990000,526.381000,1116.146000,526.063000,1117.276000C524.239000,1122.888000,521.867000,1124.076000,517.873000,1127.182000Z" transform="matrix(1 0 0 1 521.03094773499981 566.21554399999991)" fill="rgb(255,255,255)" stroke="none" stroke-width="1"/><path id="e6ft16penf7h23" d="M517.888000,1135.098000C517.960000,1135.586000,519.121000,1154.663000,519.791000,1158.125000C519.813000,1158.282000,519.852000,1158.436000,519.906000,1158.584000L519.906000,1158.584000C520.051000,1161.580000,517.499000,1187.698000,503.521000,1189.010000L503.362000,1189.010000C487.394000,1188.682000,486.061000,1158.344000,485.967000,1158.344000L485.931000,1158.344000L486.025000,1158.249000C487.337000,1155.559000,488.122000,1134.530000,488.137000,1134.530000C488.137000,1133.859000,488.187000,1127.145000,488.202000,1126.642000L488.202000,1126.642000L488.202000,1126.606000L488.202000,1126.606000C488.699000,1126.985000,489.225000,1127.393000,489.788000,1127.838000C490.609000,1128.501000,499.159000,1135.025000,502.944000,1135.630000C503.262000,1135.698000,503.591000,1135.698000,503.910000,1135.630000C507.709000,1135.025000,516.251000,1128.501000,517.073000,1127.838000L517.794000,1127.291000C517.794000,1127.466000,517.794000,1128.020000,517.794000,1128.749000C517.852000,1130.907000,517.852000,1134.653000,517.888000,1135.098000Z" transform="matrix(1 0 0 1 521.03094773499981 566.21554399999991)" fill="rgb(255,255,255)" stroke="none" stroke-width="1"/><path id="e6ft16penf7h24" d="M480.164000,1111.735000C480.587000,1112.388000,480.644000,1113.216000,480.315000,1113.922000C479.887000,1114.917000,478.825000,1115.470000,477.775000,1115.244000C476.726000,1115.017000,475.979000,1114.074000,475.990000,1112.989000C475.988000,1112.645000,476.068000,1112.305000,476.220000,1111.998000C476.574000,1111.249000,477.303000,1110.755000,478.122000,1110.708000C478.942000,1110.661000,479.721000,1111.069000,480.157000,1111.772000Z" transform="matrix(1 0 0 1 521.03094773499981 566.21554399999991)" fill="rgb(255,255,255)" stroke="none" stroke-width="1"/><path id="e6ft16penf7h25" d="M480.164000,1111.735000C479.728000,1111.032000,478.949000,1110.624000,478.130000,1110.671000C477.310000,1110.718000,476.582000,1111.213000,476.228000,1111.962000C475.983000,1111.400000,475.795000,1110.926000,475.665000,1110.700000C475.244000,1109.600000,474.923000,1108.463000,474.707000,1107.304000L474.289000,1107.304000C475.009000,1107.041000,477.035000,1106.283000,476.956000,1105.751000C476.862000,1105.095000,476.833000,1102.682000,479.219000,1102.682000L479.760000,1102.682000C479.782000,1103.972000,479.897000,1108.288000,480.164000,1111.735000Z" transform="matrix(1 0 0 1 521.03094773499981 566.21554399999991)" fill="rgb(255,255,255)" stroke="none" stroke-width="1"/><path id="e6ft16penf7h26" d="M518.352000,1127.725000L518.352000,1127.725000L517.631000,1128.272000C516.809000,1128.936000,508.259000,1135.460000,504.467000,1136.065000C504.308000,1136.095000,504.147000,1136.112000,503.984000,1136.116000C503.822000,1136.119000,503.660000,1136.101000,503.502000,1136.065000L503.408000,1136.065000" transform="matrix(1 0 0 1 521.03094773499981 566.21554399999991)" fill="rgb(0,0,0)" fill-opacity="0" stroke="rgb(204,204,204)" stroke-width="1" stroke-miterlimit="10"/><path id="e6ft16penf7h27" d="M489.105000,1126.997000L490.655000,1128.214000C491.542000,1128.943000,501.670000,1136.786000,504.496000,1135.890000" transform="matrix(1 0 0 1 521.03094773499981 566.21554399999991)" fill="rgb(0,0,0)" fill-opacity="0" stroke="rgb(204,204,204)" stroke-width="1" stroke-miterlimit="10"/></g></g><g id="e6ft16penf7h28"><path id="e6ft16penf7h29" d="M859.831000,684.913000C906.158000,684.906000,946.883000,715.940000,959.641000,760.973000C972.400000,806.007000,954.103000,854.138000,914.798000,878.935000L914.604000,878.622000L913.457000,863.977000C912.261000,850.251000,906.652000,843.297000,900.316000,839.507000C900.835000,826.801000,902.716000,774.704000,900.200000,745.415000C897.317000,711.884000,867.039000,721.360000,848.296000,721.360000C829.553000,721.360000,825.949000,749.060000,825.949000,750.518000C825.949000,751.976000,826.670000,835.075000,828.263000,837.991000C820.737000,841.300000,813.398000,848.116000,812.007000,864.065000L810.731000,880.269000L809.289000,881.574000C767.988000,858.303000,747.455000,809.752000,759.347000,763.480000C771.238000,717.208000,812.550000,684.907000,859.831000,684.913000Z" transform="matrix(1 0 0 1 521.03094773499981 566.21554399999991)" fill="rgb(226,224,225)" stroke="none" stroke-width="1"/><path id="e6ft16penf7h30" d="M900.316000,839.507000C906.652000,843.297000,912.261000,850.251000,913.457000,863.977000L914.618000,878.622000L914.813000,878.935000C882.743000,899.156000,842.345000,900.174000,809.318000,881.596000L810.760000,880.291000L812.036000,864.087000C813.427000,848.138000,820.766000,841.322000,828.292000,838.013000C835.933000,834.652000,843.762000,834.893000,845.759000,832.844000L845.759000,832.881000C845.831000,832.881000,847.201000,863.219000,863.154000,863.547000L863.312000,863.547000C877.298000,862.228000,879.850000,836.074000,879.698000,833.114000L879.698000,833.114000C879.644000,832.966000,879.605000,832.812000,879.583000,832.655000L879.655000,832.655000C881.760000,835.075000,891.715000,834.346000,900.316000,839.507000Z" transform="matrix(1 0 0 1 521.03094773499981 566.21554399999991)" fill="rgb(135,135,135)" stroke="none" stroke-width="1"/><path id="e6ft16penf7h31" d="M839.429000,777.146000L839.538000,777.219000C839.538000,778.509000,839.682000,782.824000,839.948000,786.272000C839.542000,785.604000,838.821000,785.199000,838.045000,785.201000C836.914000,785.193000,835.951000,786.030000,835.789000,787.162000C835.628000,788.294000,836.317000,789.373000,837.404000,789.689000C838.491000,790.005000,839.642000,789.461000,840.100000,788.415000C840.203000,789.579000,840.413000,790.731000,840.727000,791.856000C842.421000,797.031000,844.569000,798.417000,848.030000,801.077000L848.030000,801.077000L848.030000,801.077000C848.030000,801.580000,847.972000,808.294000,847.958000,808.957000C847.958000,808.957000,847.165000,829.987000,845.845000,832.684000L845.759000,832.779000C843.762000,834.827000,835.933000,834.586000,828.292000,837.947000C826.670000,835.075000,825.949000,751.976000,825.949000,750.518000C825.949000,749.060000,829.553000,721.360000,848.296000,721.360000C867.039000,721.360000,897.317000,711.884000,900.200000,745.415000C902.716000,774.704000,900.835000,826.801000,900.316000,839.507000C891.716000,834.368000,881.760000,835.082000,879.648000,832.640000L879.576000,832.640000C878.905000,829.178000,877.737000,810.109000,877.673000,809.620000C877.637000,810.349000,877.615000,802.520000,877.608000,801.762000L877.608000,801.762000C881.601000,798.657000,883.966000,797.462000,885.797000,791.856000C886.112000,790.724000,886.322000,789.565000,886.424000,788.394000L886.424000,788.394000C886.779000,789.220000,887.587000,789.754000,888.479000,789.749000C889.726000,789.749000,890.738000,788.729000,890.742000,787.468000C890.742000,786.979000,890.585000,786.503000,890.295000,786.112000L890.295000,786.112000C890.540000,785.565000,890.728000,785.099000,890.858000,784.873000C891.352000,783.549000,891.726000,782.183000,891.975000,780.791000C890.251000,779.613000,888.593000,778.341000,887.008000,776.978000C872.561000,764.645000,856.947000,741.771000,856.947000,741.771000C856.947000,741.771000,847.193000,764.980000,839.429000,777.146000Z" transform="matrix(1 0 0 1 521.03094773499981 566.21554399999991)" fill="rgb(35,34,36)" stroke="none" stroke-width="1"/><path id="e6ft16penf7h32" d="M892.011000,780.783000C891.762000,782.176000,891.388000,783.542000,890.894000,784.865000C890.764000,785.091000,890.577000,785.558000,890.331000,786.105000L890.331000,786.105000C889.895000,785.498000,889.190000,785.148000,888.448000,785.172000C887.706000,785.195000,887.024000,785.588000,886.626000,786.221000L886.626000,786.221000C886.842000,783.561000,886.994000,779.559000,887.080000,776.986000C888.654000,778.342000,890.300000,779.610000,892.011000,780.783000Z" transform="matrix(1 0 0 1 521.03094773499981 566.21554399999991)" fill="rgb(255,255,255)" stroke="none" stroke-width="1"/><path id="e6ft16penf7h33" d="M890.324000,786.105000C890.614000,786.496000,890.771000,786.972000,890.771000,787.461000C890.767000,788.722000,889.755000,789.742000,888.508000,789.742000C887.616000,789.747000,886.808000,789.213000,886.453000,788.386000C886.126000,787.678000,886.188000,786.849000,886.619000,786.199000C887.017000,785.566000,887.699000,785.173000,888.441000,785.150000C889.183000,785.127000,889.888000,785.476000,890.324000,786.083000Z" transform="matrix(1 0 0 1 521.03094773499981 566.21554399999991)" fill="rgb(255,255,255)" stroke="none" stroke-width="1"/><path id="e6ft16penf7h34" d="M863.752000,810.116000C863.434000,810.184000,863.105000,810.184000,862.786000,810.116000C858.987000,809.511000,850.445000,802.980000,849.630000,802.316000C849.068000,801.872000,848.542000,801.463000,848.037000,801.084000L848.037000,801.084000C844.577000,798.460000,842.428000,797.039000,840.734000,791.863000C840.420000,790.739000,840.210000,789.587000,840.107000,788.423000C840.242000,788.131000,840.310000,787.812000,840.309000,787.490000C840.311000,787.060000,840.188000,786.639000,839.956000,786.280000C839.689000,782.832000,839.574000,778.516000,839.545000,777.226000L839.437000,777.153000C847.193000,764.980000,856.947000,741.771000,856.947000,741.771000C856.947000,741.771000,872.562000,764.645000,887.044000,776.971000C886.958000,779.544000,886.806000,783.531000,886.590000,786.207000L886.590000,786.207000C886.160000,786.856000,886.097000,787.686000,886.424000,788.394000L886.424000,788.394000C886.322000,789.565000,886.112000,790.724000,885.797000,791.856000C883.966000,797.462000,881.601000,798.657000,877.608000,801.762000L877.608000,801.762000L876.887000,802.302000C876.094000,803.002000,867.551000,809.511000,863.752000,810.116000Z" transform="matrix(1 0 0 1 521.03094773499981 566.21554399999991)" fill="rgb(255,255,255)" stroke="none" stroke-width="1"/><path id="e6ft16penf7h35" d="M879.706000,833.114000C879.857000,836.074000,877.305000,862.228000,863.320000,863.547000L863.161000,863.547000C847.186000,863.219000,845.860000,832.881000,845.766000,832.881000L845.766000,832.844000L845.853000,832.750000C847.172000,830.052000,847.958000,809.023000,847.965000,809.023000C847.965000,808.359000,848.030000,801.646000,848.037000,801.143000L848.037000,801.143000L848.037000,801.143000L848.037000,801.143000C848.542000,801.522000,849.068000,801.930000,849.630000,802.375000C850.445000,803.038000,859.002000,809.569000,862.786000,810.174000C863.105000,810.242000,863.434000,810.242000,863.752000,810.174000C867.551000,809.569000,876.094000,803.038000,876.916000,802.375000L877.637000,801.835000C877.637000,802.564000,877.637000,810.386000,877.701000,809.693000C877.766000,810.182000,878.934000,829.251000,879.605000,832.713000C879.627000,832.870000,879.666000,833.024000,879.720000,833.172000Z" transform="matrix(1 0 0 1 521.03094773499981 566.21554399999991)" fill="rgb(255,255,255)" stroke="none" stroke-width="1"/><path id="e6ft16penf7h36" d="M839.949000,786.272000C840.181000,786.632000,840.304000,787.053000,840.302000,787.482000C840.303000,787.805000,840.234000,788.123000,840.100000,788.415000C839.679000,789.376000,838.665000,789.923000,837.641000,789.743000C836.617000,789.562000,835.847000,788.699000,835.773000,787.651000C835.699000,786.603000,836.340000,785.638000,837.328000,785.312000C838.316000,784.986000,839.397000,785.382000,839.949000,786.272000Z" transform="matrix(1 0 0 1 521.03094773499981 566.21554399999991)" fill="rgb(35,34,36)" stroke="none" stroke-width="1"/><path id="e6ft16penf7h37" d="M878.122000,802.262000L878.122000,802.262000L877.401000,802.802000C876.579000,803.465000,868.030000,809.996000,864.238000,810.601000C864.078000,810.632000,863.917000,810.649000,863.755000,810.652000C863.592000,810.655000,863.430000,810.638000,863.272000,810.601000L863.178000,810.601000" transform="matrix(1 0 0 1 521.03094773499981 566.21554399999991)" fill="rgb(0,0,0)" fill-opacity="0" stroke="rgb(204,204,204)" stroke-width="1" stroke-miterlimit="10"/><path id="e6ft16penf7h38" d="M848.537000,801.584000C849.042000,801.963000,849.568000,802.372000,850.130000,802.816000C850.945000,803.480000,859.502000,810.011000,863.286000,810.616000C863.446000,810.646000,863.607000,810.663000,863.769000,810.667000C863.932000,810.670000,864.094000,810.653000,864.252000,810.616000L864.346000,810.616000" transform="matrix(1 0 0 1 521.03094773499981 566.21554399999991)" fill="rgb(0,0,0)" fill-opacity="0" stroke="rgb(204,204,204)" stroke-width="1" stroke-miterlimit="10"/></g><g id="e6ft16penf7h39"><path id="e6ft16penf7h40" d="M175.410000,751.789000C175.223000,752.889000,174.177000,757.139000,173.125000,757.270000C173.219000,756.060000,173.276000,755.010000,173.312000,754.216000C173.355000,753.261000,173.377000,752.678000,173.377000,752.649000L173.377000,743.275000L173.514000,743.275000C173.514000,743.275000,174.999000,739.032000,176.059000,739.032000C176.191000,739.035000,176.315000,739.096000,176.398000,739.200000C177.450000,740.359000,175.929000,746.445000,175.446000,747.604000C174.963000,748.763000,175.605000,750.688000,175.410000,751.789000Z" transform="matrix(1 0 0 1 521.03094773499981 566.21554399999991)" fill="rgb(255,255,255)" stroke="none" stroke-width="1"/><path id="e6ft16penf7h41" d="M147.764000,779.284000C145.926000,781.996000,143.597000,779.044000,139.596000,779.044000C136.576000,779.044000,136.713000,775.865000,134.709000,774.058000C132.784000,772.359000,131.825000,768.751000,130.419000,766.039000C127.774000,760.827000,122.807000,754.260000,122.576000,753.961000L122.576000,753.961000C122.576000,753.232000,122.533000,752.831000,122.533000,752.802000L122.331000,743.377000L122.331000,743.377000C122.331000,743.377000,122.518000,741.868000,122.821000,739.674000C126.426000,736.401000,139.567000,723.637000,139.950000,723.236000C139.813000,723.469000,136.424000,729.068000,139.950000,728.339000C143.475000,727.610000,155.809000,719.591000,156.530000,718.862000C156.530000,718.862000,167.704000,729.432000,168.425000,734.535000C169.146000,739.637000,173.291000,743.019000,173.291000,743.019000L173.334000,743.143000L173.334000,752.620000C173.334000,752.620000,173.334000,753.232000,173.269000,754.187000L173.082000,754.187000C173.082000,754.187000,167.949000,760.930000,165.238000,766.273000C163.861000,768.992000,162.874000,772.593000,160.913000,774.291000C158.952000,775.989000,159.046000,779.277000,156.025000,779.277000C151.981000,779.306000,149.638000,782.433000,147.764000,779.284000Z" transform="matrix(1 0 0 1 521.03094773499981 566.21554399999991)" fill="rgb(255,255,255)" stroke="none" stroke-width="1"/><path id="e6ft16penf7h42" d="M167.149000,778.993000C167.149000,778.993000,167.026000,793.666000,167.949000,798.754000C168.009000,799.109000,168.094000,799.460000,168.201000,799.804000C169.391000,803.448000,160.149000,818.589000,147.959000,818.523000C135.768000,818.589000,126.548000,803.303000,127.774000,799.680000C127.862000,799.398000,127.932000,799.111000,127.983000,798.820000C128.898000,793.899000,128.437000,778.672000,128.437000,778.672000L128.970000,777.943000C132.373000,782.317000,136.900000,788.061000,138.342000,788.702000C141.463000,789.852000,144.686000,790.699000,147.966000,791.231000C151.248000,790.654000,154.468000,789.761000,157.582000,788.564000C158.952000,787.973000,162.845000,783.118000,166.103000,778.920000Z" transform="matrix(1 0 0 1 521.03094773499981 566.21554399999991)" fill="rgb(255,255,255)" stroke="none" stroke-width="1"/><path id="e6ft16penf7h43" d="M86.676000,819.084000C94.678000,810.016000,127.954000,798.769000,127.954000,798.769000C127.903000,799.060000,127.833000,799.347000,127.745000,799.629000C126.548000,803.274000,135.768000,818.538000,147.930000,818.472000C160.120000,818.538000,169.362000,803.368000,168.172000,799.753000C168.065000,799.409000,167.980000,799.058000,167.920000,798.703000L168.151000,798.667000C168.151000,798.667000,202.378000,810.016000,210.373000,819.077000C215.354000,824.719000,217.344000,850.028000,218.397000,865.204000L216.998000,866.553000C177.517000,903.889000,116.309000,904.339000,76.295000,867.588000L77.636000,866.779000C78.847000,851.887000,81.558000,824.916000,86.676000,819.084000Z" transform="matrix(1 0 0 1 521.03094773499981 566.21554399999991)" fill="rgb(135,135,135)" stroke="none" stroke-width="1"/><path id="e6ft16penf7h44" d="M122.764000,757.124000C122.670000,755.805000,122.612000,754.697000,122.576000,753.924000C122.807000,754.223000,127.774000,760.791000,130.419000,766.003000C131.796000,768.722000,132.784000,772.330000,134.709000,774.021000C136.742000,775.829000,136.576000,779.007000,139.596000,779.007000C143.597000,779.007000,145.926000,781.959000,147.764000,779.248000C149.638000,782.397000,151.981000,779.248000,156.105000,779.248000C159.125000,779.248000,158.988000,776.070000,160.992000,774.262000C162.996000,772.454000,163.876000,768.955000,165.318000,766.243000C167.992000,760.951000,173.125000,754.209000,173.125000,754.209000L173.312000,754.209000C173.276000,755.003000,173.219000,756.053000,173.125000,757.263000C172.750000,762.766000,171.842000,771.506000,169.852000,774.029000C168.929000,775.195000,167.574000,776.944000,166.096000,778.869000C162.838000,783.067000,158.945000,787.922000,157.575000,788.513000C154.461000,789.710000,151.241000,790.603000,147.959000,791.180000C144.679000,790.648000,141.456000,789.801000,138.335000,788.651000C136.843000,788.010000,132.344000,782.287000,128.963000,777.892000C127.831000,776.434000,126.801000,775.107000,126.080000,774.167000C124.032000,771.616000,123.131000,762.628000,122.764000,757.124000Z" transform="matrix(1 0 0 1 521.03094773499981 566.21554399999991)" fill="rgb(35,34,36)" stroke="none" stroke-width="1"/><path id="e6ft16penf7h45" d="M122.331000,743.377000L122.533000,752.787000C122.533000,752.787000,122.533000,753.232000,122.576000,753.946000L122.576000,753.946000C122.576000,754.719000,122.670000,755.827000,122.764000,757.146000C121.812000,756.417000,120.925000,752.714000,120.745000,751.694000C120.565000,750.673000,121.192000,748.618000,120.745000,747.437000C120.298000,746.256000,118.928000,740.286000,119.981000,739.105000C120.034000,739.029000,120.097000,738.960000,120.168000,738.901000C121.127000,738.274000,121.935000,740.417000,121.935000,740.417000C122.262000,740.204000,122.568000,739.960000,122.850000,739.688000C122.547000,741.875000,122.360000,743.333000,122.360000,743.391000Z" transform="matrix(1 0 0 1 521.03094773499981 566.21554399999991)" fill="rgb(255,255,255)" stroke="none" stroke-width="1"/><path id="e6ft16penf7h46" d="M121.942000,740.432000C121.942000,740.432000,121.134000,738.289000,120.168000,738.901000L120.168000,738.901000C120.168000,738.901000,118.727000,730.154000,119.447000,726.509000C120.168000,722.864000,123.052000,717.033000,128.098000,709.743000C133.144000,702.454000,152.608000,703.183000,153.329000,703.183000C158.484000,703.139000,165.231000,705.829000,167.423000,709.014000C172.469000,716.304000,175.352000,722.135000,176.073000,725.780000C176.794000,729.425000,176.390000,738.974000,176.390000,739.003000L176.059000,739.003000C174.999000,739.032000,173.514000,743.275000,173.514000,743.275000L173.377000,743.275000L173.377000,743.136000L173.334000,743.012000C173.334000,743.012000,169.189000,739.630000,168.468000,734.527000C167.747000,729.425000,156.573000,718.855000,156.573000,718.855000C155.852000,719.584000,143.597000,727.602000,139.993000,728.331000C136.388000,729.060000,139.849000,723.469000,139.993000,723.229000C139.611000,723.600000,126.498000,736.393000,122.865000,739.666000C122.582000,739.951000,122.273000,740.207000,121.942000,740.432000Z" transform="matrix(1 0 0 1 521.03094773499981 566.21554399999991)" fill="rgb(35,34,36)" stroke="none" stroke-width="1"/><path id="e6ft16penf7h47" d="M119.447000,726.509000C118.727000,730.154000,120.168000,738.901000,120.168000,738.901000L120.168000,738.901000C120.083000,738.955000,120.005000,739.021000,119.938000,739.098000C118.885000,740.279000,120.219000,746.249000,120.702000,747.429000C121.185000,748.610000,120.550000,750.564000,120.702000,751.686000C120.853000,752.809000,121.769000,756.417000,122.720000,757.139000C123.088000,762.613000,123.989000,771.601000,126.015000,774.152000C126.736000,775.093000,127.767000,776.405000,128.898000,777.877000L128.365000,778.606000C128.365000,778.606000,128.826000,793.834000,127.911000,798.754000C127.911000,798.754000,94.635000,810.002000,86.633000,819.070000C81.514000,824.901000,78.804000,851.872000,77.593000,866.735000L76.281000,867.581000C44.761000,838.632000,33.921000,793.155000,48.937000,752.864000C63.953000,712.574000,101.779000,685.642000,144.354000,684.928000C186.929000,684.213000,225.618000,709.862000,241.948000,749.627000C258.277000,789.391000,248.935000,835.207000,218.382000,865.197000C217.330000,850.021000,215.340000,824.712000,210.359000,819.070000C202.364000,810.002000,168.136000,798.659000,168.136000,798.659000L167.906000,798.696000C166.983000,793.593000,167.105000,778.934000,167.105000,778.934000L166.053000,778.832000C167.495000,776.930000,168.886000,775.188000,169.809000,773.992000C171.798000,771.477000,172.692000,762.737000,173.082000,757.226000C174.134000,757.095000,175.179000,752.853000,175.367000,751.745000C175.554000,750.637000,174.920000,748.720000,175.403000,747.561000C175.886000,746.402000,177.450000,740.359000,176.398000,739.200000C176.315000,739.096000,176.191000,739.035000,176.059000,739.032000L176.390000,739.032000C176.390000,739.032000,176.744000,729.396000,176.073000,725.809000C175.403000,722.223000,172.469000,716.333000,167.423000,709.043000C165.260000,705.858000,158.484000,703.168000,153.329000,703.212000C152.608000,703.212000,133.144000,702.483000,128.098000,709.772000C123.052000,717.062000,120.168000,722.864000,119.447000,726.509000Z" transform="matrix(1 0 0 1 521.03094773499981 566.21554399999991)" fill="rgb(226,224,225)" stroke="none" stroke-width="1"/></g><g id="e6ft16penf7h48" filter="url(#e6ft16penf7h48-filter)"><path id="e6ft16penf7h49" d="M721.965000,504.803000C721.770000,505.926000,720.725000,510.241000,719.679000,510.379000C719.773000,509.169000,719.831000,508.112000,719.867000,507.325000C719.910000,506.370000,719.932000,505.787000,719.932000,505.758000L719.932000,496.252000L719.889000,496.129000C719.987000,495.082000,720.031000,494.031000,720.018000,492.980000L720.977000,492.980000C720.977000,492.980000,721.698000,491.062000,722.765000,492.251000C723.832000,493.439000,722.484000,499.409000,722.001000,500.582000C721.518000,501.756000,722.152000,503.680000,721.965000,504.803000Z" transform="matrix(1 0 0 1 521.03094773499981 566.21554399999991)" fill="rgb(255,255,255)" stroke="none" stroke-width="1"/><path id="e6ft16penf7h50" d="M704.130000,541.622000C705.500000,541.024000,709.392000,536.169000,712.651000,531.978000L713.703000,532.073000C713.703000,532.073000,713.581000,546.746000,714.503000,551.834000C714.564000,552.189000,714.648000,552.540000,714.756000,552.884000C715.945000,556.529000,706.703000,571.669000,694.513000,571.603000C682.323000,571.669000,673.103000,556.383000,674.328000,552.760000C674.417000,552.478000,674.487000,552.191000,674.537000,551.900000C675.460000,546.987000,674.999000,531.759000,674.999000,531.759000L675.532000,531.030000C678.935000,535.404000,683.462000,541.148000,684.904000,541.789000C688.023000,542.947000,691.246000,543.794000,694.528000,544.319000C697.806000,543.731000,701.021000,542.828000,704.130000,541.622000Z" transform="matrix(1 0 0 1 521.03094773499981 566.21554399999991)" fill="rgb(255,255,255)" stroke="none" stroke-width="1"/><path id="e6ft16penf7h51" d="M719.672000,507.311000C719.672000,507.311000,714.547000,514.053000,711.836000,519.396000C710.459000,522.115000,709.472000,525.724000,707.547000,527.415000C705.514000,529.222000,705.680000,532.401000,702.652000,532.401000C698.536000,532.401000,696.164000,535.535000,694.319000,532.401000C692.480000,535.112000,690.152000,532.167000,686.151000,532.167000C683.130000,532.167000,683.267000,528.982000,681.263000,527.181000C679.259000,525.381000,678.380000,521.867000,676.938000,519.163000C674.292000,513.951000,669.333000,507.383000,669.102000,507.085000L669.102000,507.085000C669.102000,506.356000,669.059000,505.955000,669.059000,505.926000L669.059000,496.478000L668.886000,496.478000C668.794000,495.509000,668.753000,494.536000,668.763000,493.563000C668.806000,485.399000,671.711000,475.281000,672.973000,473.794000C675.405000,470.739000,678.153000,467.956000,681.170000,465.491000C685.142000,462.386000,694.513000,462.918000,694.513000,462.918000C694.513000,462.918000,703.885000,462.386000,707.857000,465.491000C710.854000,467.950000,713.585000,470.723000,716.003000,473.765000C717.257000,475.223000,719.946000,484.910000,719.997000,492.965000C720.009000,494.016000,719.966000,495.067000,719.867000,496.114000L719.910000,496.238000L719.910000,505.729000C719.910000,505.729000,719.910000,506.341000,719.845000,507.296000Z" transform="matrix(1 0 0 1 521.03094773499981 566.21554399999991)" fill="rgb(255,255,255)" stroke="none" stroke-width="1"/><path id="e6ft16penf7h52" d="M674.292000,552.760000C673.103000,556.405000,682.323000,571.669000,694.513000,571.603000C706.703000,571.669000,715.945000,556.507000,714.756000,552.884000C714.648000,552.540000,714.564000,552.189000,714.503000,551.834000L714.734000,551.798000C714.734000,551.798000,748.962000,563.147000,756.957000,572.208000C762.580000,578.594000,764.389000,610.062000,765.348000,623.679000L765.283000,623.737000C724.596000,660.094000,663.073000,658.604000,624.155000,620.318000C625.344000,605.535000,628.062000,578.040000,633.231000,572.208000C641.225000,563.140000,674.501000,551.893000,674.501000,551.893000C674.452000,552.186000,674.382000,552.476000,674.292000,552.760000Z" transform="matrix(1 0 0 1 521.03094773499981 566.21554399999991)" fill="rgb(145,0,0)" stroke="none" stroke-width="1"/><path id="e6ft16penf7h53" d="M711.836000,519.396000C714.547000,514.053000,719.672000,507.311000,719.672000,507.311000L719.867000,507.311000C719.831000,508.098000,719.773000,509.155000,719.679000,510.365000C719.305000,515.861000,718.396000,524.608000,716.407000,527.130000C715.484000,528.297000,714.129000,530.046000,712.651000,531.971000C709.392000,536.162000,705.500000,541.017000,704.130000,541.614000C701.016000,542.810000,697.795000,543.700000,694.513000,544.275000C691.232000,543.750000,688.008000,542.903000,684.889000,541.746000C683.397000,541.104000,678.899000,535.382000,675.518000,530.987000C674.386000,529.529000,673.355000,528.202000,672.634000,527.269000C670.609000,524.710000,669.707000,515.722000,669.340000,510.248000C669.246000,508.929000,669.188000,507.821000,669.152000,507.048000C669.383000,507.347000,674.343000,513.915000,676.988000,519.127000C678.372000,521.846000,679.360000,525.454000,681.314000,527.145000C683.267000,528.836000,683.181000,532.131000,686.201000,532.131000C690.202000,532.131000,692.531000,535.047000,694.369000,532.364000C696.243000,535.521000,698.586000,532.364000,702.703000,532.364000C705.730000,532.364000,705.586000,529.186000,707.597000,527.378000C709.472000,525.724000,710.459000,522.115000,711.836000,519.396000Z" transform="matrix(1 0 0 1 521.03094773499981 566.21554399999991)" fill="rgb(35,34,36)" stroke="none" stroke-width="1"/><path id="e6ft16penf7h54" d="M667.300000,504.803000C667.105000,503.680000,667.747000,501.727000,667.300000,500.546000C666.853000,499.365000,665.483000,493.395000,666.528000,492.214000C667.574000,491.033000,668.532000,493.534000,668.532000,493.534000L668.828000,493.534000C668.818000,494.507000,668.859000,495.480000,668.951000,496.449000L669.124000,496.449000L669.124000,505.889000C669.124000,505.889000,669.124000,506.334000,669.167000,507.048000L669.167000,507.048000C669.167000,507.821000,669.260000,508.929000,669.354000,510.248000C668.359000,509.534000,667.473000,505.831000,667.300000,504.803000Z" transform="matrix(1 0 0 1 521.03094773499981 566.21554399999991)" fill="rgb(255,255,255)" stroke="none" stroke-width="1"/><path id="e6ft16penf7h55" d="M722.765000,492.214000C721.712000,491.041000,720.977000,492.943000,720.977000,492.943000L720.018000,492.943000C719.968000,484.925000,717.279000,475.215000,716.025000,473.743000C713.599000,470.708000,710.861000,467.942000,707.857000,465.491000C703.885000,462.386000,694.513000,462.918000,694.513000,462.918000C694.513000,462.918000,685.142000,462.386000,681.170000,465.491000C678.165000,467.948000,675.427000,470.722000,673.002000,473.765000C671.740000,475.223000,668.835000,485.369000,668.792000,493.534000L668.496000,493.534000C668.496000,493.534000,667.545000,491.041000,666.492000,492.214000C665.440000,493.388000,666.781000,499.372000,667.264000,500.546000C667.747000,501.720000,667.105000,503.680000,667.264000,504.803000C667.422000,505.926000,668.323000,509.534000,669.282000,510.255000C669.650000,515.730000,670.551000,524.718000,672.577000,527.276000C673.297000,528.209000,674.328000,529.529000,675.460000,530.994000L674.927000,531.723000C674.927000,531.723000,675.388000,546.950000,674.465000,551.863000C674.465000,551.863000,641.189000,563.111000,633.194000,572.179000C628.026000,578.010000,625.308000,605.506000,624.118000,620.289000C593.519000,590.187000,584.265000,544.210000,600.795000,504.409000C617.325000,464.608000,656.268000,439.098000,698.948000,440.114000C741.628000,441.130000,779.341000,468.464000,794.001000,509.007000C808.661000,549.551000,797.278000,595.036000,765.312000,623.649000C764.353000,610.033000,762.543000,578.564000,756.921000,572.179000C748.926000,563.111000,714.698000,551.769000,714.698000,551.769000L714.467000,551.805000C713.545000,546.702000,713.667000,532.043000,713.667000,532.043000L712.615000,531.949000C714.093000,530.039000,715.448000,528.304000,716.371000,527.109000C718.360000,524.594000,719.254000,515.846000,719.643000,510.343000C720.689000,510.204000,721.734000,505.889000,721.929000,504.766000C722.123000,503.644000,721.482000,501.690000,721.929000,500.509000C722.376000,499.329000,723.817000,493.395000,722.765000,492.214000Z" transform="matrix(1 0 0 1 521.03094773499981 566.21554399999991)" fill="rgb(229,179,179)" stroke="none" stroke-width="1"/></g><g id="e6ft16penf7h56"><path id="e6ft16penf7h57" d="M470.799000,995.049000L370.075000,650.549000" transform="matrix(1 0 0 1 521.03094773499981 566.21554399999991)" fill="rgb(0,0,0)" fill-opacity="0" stroke="rgb(84,84,84)" stroke-width="2" stroke-miterlimit="10" stroke-dashoffset="363.960000" stroke-dasharray="363.960000"/><path id="e6ft16penf7h58" d="M532.255000,995.049000L624.118000,650.549000" transform="matrix(1 0 0 1 521.03094773499981 566.21554399999991)" fill="rgb(0,0,0)" fill-opacity="0" stroke="rgb(84,84,84)" stroke-width="2" stroke-miterlimit="10" stroke-dashoffset="365.840000" stroke-dasharray="365.840000"/><path id="e6ft16penf7h59" d="M400.233878,1048.602000L241.948000,867.588000" transform="matrix(1 0 0 1 521.03094773499981 566.21554399999991)" fill="rgb(0,0,0)" fill-opacity="0" stroke="rgb(84,84,84)" stroke-width="2" stroke-miterlimit="10" stroke-dashoffset="259.020000" stroke-dasharray="259.020000"/><path id="e6ft16penf7h60" d="M614.694543,1048.602000L765.348000,867.588000" transform="matrix(1 0 0 1 521.03094773499981 566.21554399999991)" fill="rgb(0,0,0)" fill-opacity="0" stroke="rgb(84,84,84)" stroke-width="2" stroke-miterlimit="10" stroke-dashoffset="252.790000" stroke-dasharray="252.790000"/></g></g><script><![CDATA[!function(t,n){"object"==typeof exports&&"undefined"!=typeof module?module.exports=n():"function"==typeof define&&define.amd?define(n):(t=t||self).__SVGATOR_PLAYER__=n()}(this,(function(){"use strict";function t(n){return(t="function"==typeof Symbol&&"symbol"==typeof Symbol.iterator?function(t){return typeof t}:function(t){return t&&"function"==typeof Symbol&&t.constructor===Symbol&&t!==Symbol.prototype?"symbol":typeof t})(n)}function n(t,n){if(!(t instanceof n))throw new TypeError("Cannot call a class as a function")}function r(t,n){for(var r=0;r<n.length;r++){var e=n[r];e.enumerable=e.enumerable||!1,e.configurable=!0,"value"in e&&(e.writable=!0),Object.defineProperty(t,e.key,e)}}function e(t,n,e){return n&&r(t.prototype,n),e&&r(t,e),t}var i=Math.abs;function u(t){return t}function o(t,n,r){var e=1-r;return 3*r*e*(t*e+n*r)+r*r*r}function a(){var t=arguments.length>0&&void 0!==arguments[0]?arguments[0]:0,n=arguments.length>1&&void 0!==arguments[1]?arguments[1]:0,r=arguments.length>2&&void 0!==arguments[2]?arguments[2]:1,e=arguments.length>3&&void 0!==arguments[3]?arguments[3]:1;return t<0||t>1||r<0||r>1?null:i(t-n)<=1e-5&&i(r-e)<=1e-5?u:function(u){if(u<=0)return t>0?u*n/t:0===n&&r>0?u*e/r:0;if(u>=1)return r<1?1+(u-1)*(e-1)/(r-1):1===r&&t<1?1+(u-1)*(n-1)/(t-1):1;for(var a,l=0,f=1;l<f;){var s=o(t,r,a=(l+f)/2);if(i(u-s)<1e-5)break;s<u?l=a:f=a}return o(n,e,a)}}function l(){return 1}function f(t){return 1===t?1:0}function s(){var t=arguments.length>0&&void 0!==arguments[0]?arguments[0]:1,n=arguments.length>1&&void 0!==arguments[1]?arguments[1]:0;if(1===t){if(0===n)return f;if(1===n)return l}var r=1/t;return function(t){return t>=1?1:(t+=n*r)-t%r}}function c(t){var n=arguments.length>1&&void 0!==arguments[1]?arguments[1]:2;if(Number.isInteger(t))return t;var r=Math.pow(10,n);return Math.round(t*r)/r}var v=Math.PI/180;function h(t,n,r){return t>=.5?r:n}function y(t,n,r){return 0===t||n===r?n:t*(r-n)+n}function d(t,n,r){var e=y(t,n,r);return e<=0?0:e}function g(t,n,r){return 0===t?n:1===t?r:{x:y(t,n.x,r.x),y:y(t,n.y,r.y)}}function m(t,n,r){return 0===t?n:1===t?r:{x:d(t,n.x,r.x),y:d(t,n.y,r.y)}}function p(t,n,r){var e=function(t,n,r){return Math.round(y(t,n,r))}(t,n,r);return e<=0?0:e>=255?255:e}function b(t,n,r){return 0===t?n:1===t?r:{r:p(t,n.r,r.r),g:p(t,n.g,r.g),b:p(t,n.b,r.b),a:y(t,null==n.a?1:n.a,null==r.a?1:r.a)}}function w(t,n,r){if(0===t)return n;if(1===t)return r;var e=n.length;if(e!==r.length)return h(t,n,r);for(var i=[],u=0;u<e;u++)i.push(b(t,n[u],r[u]));return i}function A(t,n,r){var e=n.length;if(e!==r.length)return h(t,n,r);for(var i=new Array(e),u=0;u<e;u++)i[u]=y(t,n[u],r[u]);return i}function x(t,n){for(var r=[],e=0;e<t;e++)r.push(n);return r}function k(t,n){if(--n<=0)return t;var r=(t=Object.assign([],t)).length;do{for(var e=0;e<r;e++)t.push(t[e])}while(--n>0);return t}var S=/\.0+$/g;function _(t){return Number.isInteger(t)?t+"":t.toFixed(6).replace(S,"")}function M(t){var n=arguments.length>1&&void 0!==arguments[1]?arguments[1]:" ";return t&&t.length?t.map(_).join(n):""}function I(t){return _(t.x)+","+_(t.y)}function E(t){return t?null==t.a||t.a>=1?"rgb("+t.r+","+t.g+","+t.b+")":"rgba("+t.r+","+t.g+","+t.b+","+t.a+")":"transparent"}var F={f:null,i:m,u:function(t,n){return function(r){var e=n(r);t.setAttribute("rx",_(e.x)),t.setAttribute("ry",_(e.y))}}},B={f:null,i:function(t,n,r){return 0===t?n:1===t?r:{width:d(t,n.width,r.width),height:d(t,n.height,r.height)}},u:function(t,n){return function(r){var e=n(r);t.setAttribute("width",_(e.width)),t.setAttribute("height",_(e.height))}}},j=Math.sin,q=Math.cos,P=Math.acos,O=Math.asin,z=Math.tan,L=Math.atan2,C=Math.PI/180,R=180/Math.PI,T=Math.sqrt,V=function(){function t(){var r=arguments.length>0&&void 0!==arguments[0]?arguments[0]:1,e=arguments.length>1&&void 0!==arguments[1]?arguments[1]:0,i=arguments.length>2&&void 0!==arguments[2]?arguments[2]:0,u=arguments.length>3&&void 0!==arguments[3]?arguments[3]:1,o=arguments.length>4&&void 0!==arguments[4]?arguments[4]:0,a=arguments.length>5&&void 0!==arguments[5]?arguments[5]:0;n(this,t),this.m=[r,e,i,u,o,a],this.i=null,this.w=null,this.s=null}return e(t,[{key:"point",value:function(t,n){var r=this.m;return{x:r[0]*t+r[2]*n+r[4],y:r[1]*t+r[3]*n+r[5]}}},{key:"translateSelf",value:function(){var t=arguments.length>0&&void 0!==arguments[0]?arguments[0]:0,n=arguments.length>1&&void 0!==arguments[1]?arguments[1]:0;if(!t&&!n)return this;var r=this.m;return r[4]+=r[0]*t+r[2]*n,r[5]+=r[1]*t+r[3]*n,this.w=this.s=this.i=null,this}},{key:"rotateSelf",value:function(){var t=arguments.length>0&&void 0!==arguments[0]?arguments[0]:0;if(t%=360){var n=j(t*=C),r=q(t),e=this.m,i=e[0],u=e[1];e[0]=i*r+e[2]*n,e[1]=u*r+e[3]*n,e[2]=e[2]*r-i*n,e[3]=e[3]*r-u*n,this.w=this.s=this.i=null}return this}},{key:"scaleSelf",value:function(){var t=arguments.length>0&&void 0!==arguments[0]?arguments[0]:1,n=arguments.length>1&&void 0!==arguments[1]?arguments[1]:1;if(1!==t||1!==n){var r=this.m;r[0]*=t,r[1]*=t,r[2]*=n,r[3]*=n,this.w=this.s=this.i=null}return this}},{key:"skewSelf",value:function(t,n){if(n%=360,(t%=360)||n){var r=this.m,e=r[0],i=r[1],u=r[2],o=r[3];t&&(t=z(t*C),r[2]+=e*t,r[3]+=i*t),n&&(n=z(n*C),r[0]+=u*n,r[1]+=o*n),this.w=this.s=this.i=null}return this}},{key:"resetSelf",value:function(){var t=arguments.length>0&&void 0!==arguments[0]?arguments[0]:1,n=arguments.length>1&&void 0!==arguments[1]?arguments[1]:0,r=arguments.length>2&&void 0!==arguments[2]?arguments[2]:0,e=arguments.length>3&&void 0!==arguments[3]?arguments[3]:1,i=arguments.length>4&&void 0!==arguments[4]?arguments[4]:0,u=arguments.length>5&&void 0!==arguments[5]?arguments[5]:0,o=this.m;return o[0]=t,o[1]=n,o[2]=r,o[3]=e,o[4]=i,o[5]=u,this.w=this.s=this.i=null,this}},{key:"recomposeSelf",value:function(){var t=arguments.length>0&&void 0!==arguments[0]?arguments[0]:null,n=arguments.length>1&&void 0!==arguments[1]?arguments[1]:null,r=arguments.length>2&&void 0!==arguments[2]?arguments[2]:null,e=arguments.length>3&&void 0!==arguments[3]?arguments[3]:null,i=arguments.length>4&&void 0!==arguments[4]?arguments[4]:null;return this.isIdentity||this.resetSelf(),t&&(t.x||t.y)&&this.translateSelf(t.x,t.y),n&&this.rotateSelf(n),r&&(r.x&&this.skewSelf(r.x,0),r.y&&this.skewSelf(0,r.y)),!e||1===e.x&&1===e.y||this.scaleSelf(e.x,e.y),i&&(i.x||i.y)&&this.translateSelf(i.x,i.y),this}},{key:"decompose",value:function(){var t=arguments.length>0&&void 0!==arguments[0]?arguments[0]:0,n=arguments.length>1&&void 0!==arguments[1]?arguments[1]:0,r=this.m,e=r[0]*r[0]+r[1]*r[1],i=[[r[0],r[1]],[r[2],r[3]]],u=T(e);if(0===u)return{origin:{x:r[4],y:r[5]},translate:{x:t,y:n},scale:{x:0,y:0},skew:{x:0,y:0},rotate:0};i[0][0]/=u,i[0][1]/=u;var o=r[0]*r[3]-r[1]*r[2]<0;o&&(u=-u);var a=i[0][0]*i[1][0]+i[0][1]*i[1][1];i[1][0]-=i[0][0]*a,i[1][1]-=i[0][1]*a;var l=T(i[1][0]*i[1][0]+i[1][1]*i[1][1]);if(0===l)return{origin:{x:r[4],y:r[5]},translate:{x:t,y:n},scale:{x:u,y:0},skew:{x:0,y:0},rotate:0};i[1][0]/=l,i[1][1]/=l,a/=l;var f=0;return i[1][1]<0?(f=P(i[1][1])*R,i[0][1]<0&&(f=360-f)):f=O(i[0][1])*R,o&&(f=-f),a=L(a,T(i[0][0]*i[0][0]+i[0][1]*i[0][1]))*R,{origin:{x:r[4],y:r[5]},translate:{x:t,y:n},scale:{x:u,y:l},skew:{x:a,y:0},rotate:f}}},{key:"toString",value:function(){return null===this.s&&(this.s="matrix("+this.m.map(N).join(" ")+")"),this.s}},{key:"determinant",get:function(){var t=this.m;return t[0]*t[3]-t[1]*t[2]}},{key:"isIdentity",get:function(){if(null===this.i){var t=this.m;this.i=1===t[0]&&0===t[1]&&0===t[2]&&1===t[3]&&0===t[4]&&0===t[5]}return this.i}}]),t}(),D=/\.0+$/;function N(t){return Number.isInteger(t)?t:t.toFixed(14).replace(D,"")}Object.freeze({M:2,L:2,Z:0,H:1,V:1,C:6,Q:4,T:2,S:4,A:7});function G(t,n,r){return t+(n-t)*r}function $(t,n,r){var e=arguments.length>3&&void 0!==arguments[3]&&arguments[3],i={x:G(t.x,n.x,r),y:G(t.y,n.y,r)};return e&&(i.a=H(t,n)),i}function H(t,n){return Math.atan2(n.y-t.y,n.x-t.x)}function Q(t,n,r,e){var i=1-e;return i*i*t+2*i*e*n+e*e*r}function U(t,n,r,e){return 2*(1-e)*(n-t)+2*e*(r-n)}function Y(t,n,r,e){var i=arguments.length>4&&void 0!==arguments[4]&&arguments[4],u={x:Q(t.x,n.x,r.x,e),y:Q(t.y,n.y,r.y,e)};return i&&(u.a=Z(t,n,r,e)),u}function Z(t,n,r,e){return Math.atan2(U(t.y,n.y,r.y,e),U(t.x,n.x,r.x,e))}function J(t,n,r,e,i){var u=i*i;return i*u*(e-t+3*(n-r))+3*u*(t+r-2*n)+3*i*(n-t)+t}function K(t,n,r,e,i){var u=1-i;return 3*(u*u*(n-t)+2*u*i*(r-n)+i*i*(e-r))}function W(t,n,r,e,i){var u=arguments.length>5&&void 0!==arguments[5]&&arguments[5],o={x:J(t.x,n.x,r.x,e.x,i),y:J(t.y,n.y,r.y,e.y,i)};return u&&(o.a=X(t,n,r,e,i)),o}function X(t,n,r,e,i){return Math.atan2(K(t.y,n.y,r.y,e.y,i),K(t.x,n.x,r.x,e.x,i))}function tt(t,n,r){var e=arguments.length>3&&void 0!==arguments[3]&&arguments[3];if(rt(n)){if(et(r))return Y(n,r.start,r,t,e)}else if(rt(r)){if(n.end)return Y(n,n.end,r,t,e)}else{if(n.end)return r.start?W(n,n.end,r.start,r,t,e):Y(n,n.end,r,t,e);if(r.start)return Y(n,r.start,r,t,e)}return $(n,r,t,e)}function nt(t,n,r){var e=tt(t,n,r,!0);return e.a=function(t){var n=arguments.length>1&&void 0!==arguments[1]&&arguments[1];return n?t+Math.PI:t}(e.a)/v,e}function rt(t){return!t.type||"corner"===t.type}function et(t){return null!=t.start&&!rt(t)}var it=new V;var ut={f:function(t){return t?t.join(" "):""},i:function(n,r,e){if(0===n)return r;if(1===n)return e;var i=r.length;if(i!==e.length)return h(n,r,e);for(var u,o=new Array(i),a=0;a<i;a++){if((u=t(r[a]))!==t(e[a]))return h(n,r,e);if("number"===u)o[a]=y(n,r[a],e[a]);else{if(r[a]!==e[a])return h(n,r,e);o[a]=r[a]}}return o}},ot={f:null,i:A,u:function(t,n){return function(r){var e=n(r);t.setAttribute("x1",_(e[0])),t.setAttribute("y1",_(e[1])),t.setAttribute("x2",_(e[2])),t.setAttribute("y2",_(e[3]))}}},at={f:_,i:y},lt={f:_,i:function(t,n,r){var e=y(t,n,r);return e<=0?0:e>=1?1:e}},ft={f:M,i:function(t,n,r){var e,i,u,o=n.length,a=r.length;if(o!==a)if(0===o)n=x(o=a,0);else if(0===a)a=o,r=x(o,0);else{var l=(u=(e=o)*(i=a)/function(t,n){for(var r;n;)r=n,n=t%n,t=r;return t||1}(e,i))<0?-u:u;n=k(n,Math.floor(l/o)),r=k(r,Math.floor(l/a)),o=a=l}for(var f=[],s=0;s<o;s++)f.push(c(d(t,n[s],r[s]),6));return f}};function st(t,n,r,e,i,u,o,a){return n=function(t,n,r){for(var e,i,u,o=t.length-1,a={},l=0;l<=o;l++)(e=t[l]).e&&(e.e=n(e.e)),e.v&&"g"===(i=e.v).t&&i.r&&(u=r.getElementById(i.r))&&(a[i.r]=u.querySelectorAll("stop"));return a}(t,e,a),function(e){var i,u=r(e,t,ct);return u?"c"===u.t?E(u.v):"g"===u.t?(n[u.r]&&function(t,n){for(var r=0,e=t.length;r<e;r++)t[r].setAttribute("stop-color",E(n[r]))}(n[u.r],u.v),(i=u.r)?"url(#"+i+")":"none"):"none":"none"}}function ct(t,n,r){if(0===t)return n;if(1===t)return r;if(n&&r){var e=n.t;if(e===r.t)switch(n.t){case"c":return{t:e,v:b(t,n.v,r.v)};case"g":if(n.r===r.r)return{t:e,v:w(t,n.v,r.v),r:n.r}}}return h(t,n,r)}var vt={blur:m,brightness:d,contrast:d,"drop-shadow":function(t,n,r){return 0===t?n:1===t?r:{blur:m(t,n.blur,r.blur),offset:g(t,n.offset,r.offset),color:b(t,n.color,r.color)}},grayscale:d,"hue-rotate":y,invert:d,opacity:d,saturate:d,sepia:d};function ht(t,n,r){if(0===t)return n;if(1===t)return r;var e=n.length;if(e!==r.length)return h(t,n,r);for(var i,u=[],o=0;o<e;o++){if(n[o].type!==r[o].type)return n;if(!(i=vt[n[o].type]))return h(t,n,r);u.push({type:n.type,value:i(t,n[o].value,r[o].value)})}return u}var yt={blur:function(t){return t?function(n){t.setAttribute("stdDeviation",I(n))}:null},brightness:function(t,n,r){return(t=gt(r,n))?function(n){n=_(n),t.map((function(t){return t.setAttribute("slope",n)}))}:null},contrast:function(t,n,r){return(t=gt(r,n))?function(n){var r=_((1-n)/2);n=_(n),t.map((function(t){t.setAttribute("slope",n),t.setAttribute("intercept",r)}))}:null},"drop-shadow":function(t,n,r){var e=r.getElementById(n+"-blur");if(!e)return null;var i=r.getElementById(n+"-offset");if(!i)return null;var u=r.getElementById(n+"-flood");return u?function(t){e.setAttribute("stdDeviation",I(t.blur)),i.setAttribute("dx",_(t.offset.x)),i.setAttribute("dy",_(t.offset.y)),u.setAttribute("flood-color",E(t.color))}:null},grayscale:function(t){return t?function(n){t.setAttribute("values",M(function(t){return[.2126+.7874*(t=1-t),.7152-.7152*t,.0722-.0722*t,0,0,.2126-.2126*t,.7152+.2848*t,.0722-.0722*t,0,0,.2126-.2126*t,.7152-.7152*t,.0722+.9278*t,0,0,0,0,0,1,0]}(n)))}:null},"hue-rotate":function(t){return t?function(n){return t.setAttribute("values",_(n))}:null},invert:function(t,n,r){return(t=gt(r,n))?function(n){n=_(n)+" "+_(1-n),t.map((function(t){return t.setAttribute("tableValues",n)}))}:null},opacity:function(t,n,r){return(t=r.getElementById(n+"-A"))?function(n){return t.setAttribute("tableValues","0 "+_(n))}:null},saturate:function(t){return t?function(n){return t.setAttribute("values",_(n))}:null},sepia:function(t){return t?function(n){return t.setAttribute("values",M(function(t){return[.393+.607*(t=1-t),.769-.769*t,.189-.189*t,0,0,.349-.349*t,.686+.314*t,.168-.168*t,0,0,.272-.272*t,.534-.534*t,.131+.869*t,0,0,0,0,0,1,0]}(n)))}:null}};var dt=["R","G","B"];function gt(t,n){var r=dt.map((function(r){return t.getElementById(n+"-"+r)||null}));return-1!==r.indexOf(null)?null:r}var mt={fill:st,"fill-opacity":lt,stroke:st,"stroke-opacity":lt,"stroke-width":at,"stroke-dashoffset":{f:_,i:y},"stroke-dasharray":ft,opacity:lt,transform:function(n,r,e,i){if(!(n=function(n,r){if(!n||"object"!==t(n))return null;var e=!1;for(var i in n)n.hasOwnProperty(i)&&(n[i]&&n[i].length?(n[i].forEach((function(t){t.e&&(t.e=r(t.e))})),e=!0):delete n[i]);return e?n:null}(n,i)))return null;var u=function(t,i,u){var o=arguments.length>3&&void 0!==arguments[3]?arguments[3]:null;return n[t]?e(i,n[t],u):r&&r[t]?r[t]:o};return r&&r.a&&n.o?function(t){var r=e(t,n.o,nt);return it.recomposeSelf(r,u("r",t,y,0)+r.a,u("k",t,g),u("s",t,g),u("t",t,g)).toString()}:function(t){return it.recomposeSelf(u("o",t,tt,null),u("r",t,y,0),u("k",t,g),u("s",t,g),u("t",t,g)).toString()}},"#filter":function(t,n,r,e,i,u,o,a){if(!n.items||!t||!t.length)return null;var l=function(t,n){var r=(t=t.map((function(t){return t&&yt[t[0]]?(n.getElementById(t[1]),yt[t[0]](n.getElementById(t[1]),t[1],n)):null}))).length;return function(n){for(var e=0;e<r;e++)t[e]&&t[e](n[e].value)}}(n.items,a);return l?(t=function(t,n){return t.map((function(t){return t.e=n(t.e),t}))}(t,e),function(n){l(r(n,t,ht))}):null},"#line":ot,points:{f:M,i:A},d:ut,r:at,"#size":B,"#radius":F,_:function(t,n){if(Array.isArray(t))for(var r=0;r<t.length;r++)this[t[r]]=n;else this[t]=n}},pt=function(){function t(r){n(this,t),this.list=r,this.length=r.length}return e(t,[{key:"setAttribute",value:function(t,n){for(var r=this.list,e=0;e<this.length;e++)r[e].setAttribute(t,n)}},{key:"removeAttribute",value:function(t){for(var n=this.list,r=0;r<this.length;r++)n[r].removeAttribute(t)}},{key:"style",value:function(t,n){for(var r=this.list,e=0;e<this.length;e++)r[e].style[t]=n}}]),t}(),bt=/-./g,wt=function(t,n){return n.toUpperCase()};function At(t){return"function"==typeof t?t:h}function xt(t){return t?"function"==typeof t?t:Array.isArray(t)?function(t){var n=arguments.length>1&&void 0!==arguments[1]?arguments[1]:u;if(!Array.isArray(t))return n;switch(t.length){case 1:return s(t[0])||n;case 2:return s(t[0],t[1])||n;case 4:return a(t[0],t[1],t[2],t[3])||n}return n}(t,null):function(t,n){var r=arguments.length>2&&void 0!==arguments[2]?arguments[2]:u;switch(t){case"linear":return u;case"steps":return s(n.steps||1,n.jump||0)||r;case"bezier":case"cubic-bezier":return a(n.x1||0,n.y1||0,n.x2||0,n.y2||0)||r}return r}(t.type,t.value,null):null}function kt(t,n,r){var e=arguments.length>3&&void 0!==arguments[3]&&arguments[3],i=n.length-1;if(t<=n[0].t)return e?[0,0,n[0].v]:n[0].v;if(t>=n[i].t)return e?[i,1,n[i].v]:n[i].v;var u,o=n[0],a=null;for(u=1;u<=i;u++){if(!(t>n[u].t)){a=n[u];break}o=n[u]}return null==a?e?[i,1,n[i].v]:n[i].v:o.t===a.t?e?[u,1,a.v]:a.v:(t=(t-o.t)/(a.t-o.t),o.e&&(t=o.e(t)),e?[u,t,r(t,o.v,a.v)]:r(t,o.v,a.v))}function St(t,n){var r=arguments.length>2&&void 0!==arguments[2]?arguments[2]:null;return t&&t.length?"function"!=typeof n?null:("function"!=typeof r&&(r=null),function(e){var i=kt(e,t,n);return null!=i&&r&&(i=r(i)),i}):null}function _t(t,n){return t.t-n.t}function Mt(n,r,e,i,u){var o,a="@"===e[0],l="#"===e[0],f=mt[e],s=h;switch(a?(o=e.substr(1),e=o.replace(bt,wt)):l&&(e=e.substr(1)),t(f)){case"function":if(s=f(i,u,kt,xt,e,a,r,n),l)return s;break;case"string":s=St(i,At(f));break;case"object":if((s=St(i,At(f.i),f.f))&&"function"==typeof f.u)return f.u(r,s,e,a,n)}return s?function(t,n,r){var e=arguments.length>3&&void 0!==arguments[3]&&arguments[3];if(e)return t instanceof pt?function(e){return t.style(n,r(e))}:function(e){return t.style[n]=r(e)};if(Array.isArray(n)){var i=n.length;return function(e){var u=r(e);if(null==u)for(var o=0;o<i;o++)t[o].removeAttribute(n);else for(var a=0;a<i;a++)t[a].setAttribute(n,u)}}return function(e){var i=r(e);null==i?t.removeAttribute(n):t.setAttribute(n,i)}}(r,e,s,a):null}function It(n,r,e,i){if(!i||"object"!==t(i))return null;var u=null,o=null;return Array.isArray(i)?o=function(t){if(!t||!t.length)return null;for(var n=0;n<t.length;n++)t[n].e&&(t[n].e=xt(t[n].e));return t.sort(_t)}(i):(o=i.keys,u=i.data||null),o?Mt(n,r,e,o,u):null}function Et(t,n,r){if(!r)return null;var e=[];for(var i in r)if(r.hasOwnProperty(i)){var u=It(t,n,i,r[i]);u&&e.push(u)}return e.length?e:null}function Ft(t,n){if(!n.duration||n.duration<0)return null;var r=function(t,n){if(!n)return null;var r=[];if(Array.isArray(n))for(var e=n.length,i=0;i<e;i++){var u=n[i];if(2===u.length){var o=null;if("string"==typeof u[0])o=t.getElementById(u[0]);else if(Array.isArray(u[0])){o=[];for(var a=0;a<u[0].length;a++)if("string"==typeof u[0][a]){var l=t.getElementById(u[0][a]);l&&o.push(l)}o=o.length?1===o.length?o[0]:new pt(o):null}if(o){var f=Et(t,o,u[1]);f&&(r=r.concat(f))}}}else for(var s in n)if(n.hasOwnProperty(s)){var c=t.getElementById(s);if(c){var v=Et(t,c,n[s]);v&&(r=r.concat(v))}}return r.length?r:null}(t,n.elements);return r?function(t,n){var r=arguments.length>2&&void 0!==arguments[2]?arguments[2]:1/0,e=arguments.length>3&&void 0!==arguments[3]?arguments[3]:1,i=arguments.length>4&&void 0!==arguments[4]&&arguments[4],u=arguments.length>5&&void 0!==arguments[5]?arguments[5]:1,o=t.length,a=e>0?n:0;i&&r%2==0&&(a=n-a);var l=null;return function(f,s){var c=f%n,v=1+(f-c)/n;s*=e,i&&v%2==0&&(s=-s);var h=!1;if(v>r)c=a,h=!0,-1===u&&(c=e>0?0:n);else if(s<0&&(c=n-c),c===l)return!1;l=c;for(var y=0;y<o;y++)t[y](c);return h}}(r,n.duration,n.iterations||1/0,n.direction||1,!!n.alternate,n.fill||1):null}var Bt=function(){function t(r){var e=arguments.length>1&&void 0!==arguments[1]?arguments[1]:{};n(this,t),this._id=0,this._running=!1,this._animations=r,this.direction=e.direction||1,this.speed=e.speed||1,this.fps=e.fps||100,this.offset=e.offset||0}return e(t,[{key:"_start",value:function(){var t=this,n=arguments.length>0&&void 0!==arguments[0]?arguments[0]:0,r=-1/0,e=null,i={},u=function u(o){t._running=!0,null==e&&(e=o);var a=Math.round((o-e+n)*t.speed),l=t.fps?1e3/t.fps:0;if(a>r+l){t.offset=a,r=a;for(var f=t._animations,s=f.length,c=0,v=0;v<s;v++)i[v]?c++:(i[v]=f[v](a,t.direction),i[v]&&c++);if(c===s)return void t._stop()}t._id=window.requestAnimationFrame(u)};this._id=window.requestAnimationFrame(u)}},{key:"_stop",value:function(){this._id&&window.cancelAnimationFrame(this._id),this._running=!1}},{key:"play",value:function(){this._running||this._start(this.offset)}},{key:"stop",value:function(){this._stop(),this.offset=0;var t=this.direction,n=this._animations;requestAnimationFrame((function(){for(var r=0;r<n.length;r++)n[r](0,t)}))}},{key:"restart",value:function(){this._stop(),this.offset=0,this._start()}},{key:"pause",value:function(){this._stop()}},{key:"reverse",value:function(){this.direction=-this.direction}}],[{key:"build",value:function(n){if(!(n=function(t){if(!t||!t.root||!Array.isArray(t.animations))return null;var n=window.document.getElementById(t.root);if(!n)return null;var r=t.animations.map((function(t){return Ft(n,t)})).filter((function(t){return!!t}));return r.length?{element:n,animations:r,options:t.options||void 0}:null}(n)))return null;var r=n.element,e=n.options||{},i=new t(n.animations,n.options);return function(t,n,r){var e=arguments.length>3&&void 0!==arguments[3]?arguments[3]:null;if("click"===r){var i=function r(){n.removeEventListener("click",r),t.play()};return void n.addEventListener("click",i)}if("hover"===r)return n.addEventListener("mouseenter",(function(){return t.play()})),void n.addEventListener("mouseleave","freeze"===e?function(){return t.pause()}:function(){return t.stop()});t.play()}(i,r,e.start,e.hover),i}}]),t}();return function(){for(var t=0,n=["ms","moz","webkit","o"],r=0;r<n.length&&!window.requestAnimationFrame;++r)window.requestAnimationFrame=window[n[r]+"RequestAnimationFrame"],window.cancelAnimationFrame=window[n[r]+"CancelAnimationFrame"]||window[n[r]+"CancelRequestAnimationFrame"];window.requestAnimationFrame||(window.requestAnimationFrame=function(n){var r=Date.now(),e=Math.max(0,16-(r-t)),i=window.setTimeout((function(){n(r+e)}),e);return t=r+e,i},window.cancelAnimationFrame=window.clearTimeout)}(),Bt}));
__SVGATOR_PLAYER__.build({"root":"e6ft16penf7h1","animations":[{"duration":2000,"direction":1,"iterations":1,"fill":1,"alternate":false,"elements":{"e6ft16penf7h3":{"#filter":{"keys":[{"t":0,"v":[{"type":"grayscale","value":1}]},{"t":1100,"v":[{"type":"grayscale","value":1}]},{"t":1200,"v":[{"type":"grayscale","value":0}]}],"data":{"items":[["grayscale","e6ft16penf7h3-filter-grayscale-0"]]}}},"e6ft16penf7h48":{"#filter":{"keys":[{"t":0,"v":[{"type":"grayscale","value":1}]},{"t":1500,"v":[{"type":"grayscale","value":1}]},{"t":1600,"v":[{"type":"grayscale","value":0}]}],"data":{"items":[["grayscale","e6ft16penf7h48-filter-grayscale-0"]]}}},"e6ft16penf7h57":{"stroke-dashoffset":[{"t":500,"v":363.96},{"t":1000,"v":0}]},"e6ft16penf7h58":{"stroke-dashoffset":[{"t":1000,"v":365.84},{"t":1500,"v":0}]},"e6ft16penf7h59":{"stroke-dashoffset":[{"t":0,"v":259.02},{"t":500,"v":0}]},"e6ft16penf7h60":{"stroke-dashoffset":[{"t":1500,"v":252.79},{"t":2000,"v":0}]}}}],"options":{"start":"load","hover":"restart"}})]]></script></svg>